<?xml version="1.0" encoding="UTF-8"?>
<svg id="Layer_2" data-name="Layer 2" xmlns="http://www.w3.org/2000/svg" viewBox="0 0 168.29 168.29">
  <g id="_ÎÓÈ_1" data-name="—ÎÓÈ_1">
    <path d="m84.15,168.29c-1.04,0-1.93-.74-2.12-1.77-2.13-11.83-10.04-21.63-21.14-26.23-11.1-4.6-23.62-3.25-33.5,3.6-.86.59-2.01.49-2.75-.25-.74-.74-.84-1.89-.25-2.75,6.85-9.87,8.2-22.39,3.6-33.5-4.6-11.1-14.41-19.01-26.23-21.14-1.02-.18-1.77-1.08-1.77-2.12s.75-1.93,1.77-2.12c11.83-2.14,21.63-10.04,26.23-21.14,4.6-11.1,3.25-23.62-3.6-33.5-.59-.85-.49-2.01.25-2.75.73-.74,1.89-.84,2.75-.25,9.87,6.85,22.39,8.2,33.5,3.6,11.1-4.6,19.01-14.4,21.14-26.23.19-1.02,1.08-1.77,2.12-1.77h0c1.04,0,1.93.74,2.12,1.77,2.13,11.83,10.04,21.63,21.14,26.23,11.1,4.6,23.62,3.25,33.5-3.6.85-.59,2.01-.49,2.75.25.74.74.84,1.89.25,2.75-6.85,9.87-8.2,22.39-3.6,33.5,4.6,11.1,14.41,19.01,26.23,21.14,1.02.18,1.77,1.08,1.77,2.12s-.74,1.93-1.77,2.12c-11.83,2.14-21.63,10.04-26.23,21.14-4.6,11.1-3.25,23.62,3.6,33.5.59.85.49,2.01-.25,2.75-.74.74-1.89.84-2.75.25-9.87-6.85-22.4-8.2-33.5-3.6-11.1,4.6-19,14.4-21.14,26.23-.19,1.02-1.08,1.77-2.12,1.77Zm-36.74-34.99c5.11,0,10.24,1,15.13,3.02,10.03,4.16,17.74,12.1,21.61,21.97,3.87-9.87,11.58-17.81,21.61-21.97,10.03-4.16,21.1-3.99,30.82.25-4.24-9.72-4.41-20.78-.25-30.81,4.16-10.03,12.1-17.74,21.97-21.61-9.87-3.87-17.81-11.58-21.97-21.61-4.16-10.03-3.99-21.1.25-30.82-9.71,4.24-20.78,4.41-30.82.25-10.03-4.16-17.74-12.1-21.61-21.97-3.87,9.87-11.58,17.81-21.61,21.97-10.04,4.16-21.1,3.99-30.82-.25,4.24,9.72,4.41,20.78.25,30.82-4.16,10.03-12.1,17.74-21.97,21.61,9.87,3.87,17.81,11.58,21.97,21.61,4.16,10.03,3.99,21.1-.25,30.81,4.98-2.17,10.31-3.28,15.68-3.28Z" style="fill: #ff57b8;"/>
  </g>
</svg>