<?xml version="1.0" encoding="UTF-8"?>
<svg id="Layer_2" data-name="Layer 2" xmlns="http://www.w3.org/2000/svg" viewBox="0 0 438.61 650">
  <g id="_ÎÓÈ_1" data-name="—ÎÓÈ_1">
    <path d="m438.61,551.59v-92.45h0v-4.65s0,0,0,0v-2.49h0s0-4.45,0-4.45h0v-87.51h0v-8.87h0v-63.14h0v-3.5h0v-42.4h0v-8.65h0v-19.86h0v-3.97h0v-73.82h0v-5.26h0v-16.8h0v-5.1h0v-43.39s0,0,0,0v-3.43h0V0H0v650h215.46s3.5,0,3.5,0h214.71s4.94,0,4.94,0v-94.47h0v-3.94h0Zm-3.5,2.27c-13.77,8.8-28.17,16.72-43.1,23.74-13.04-22.68-26.85-46.7-38.7-67.34,30.14-12.24,57.85-28.52,81.8-48.23v91.83Zm0-194.65c-7.14,14.39-16.79,28.19-28.89,41.14-3.62,3.87-7.42,7.6-11.37,11.22,0,0-.01,0-.02-.01-14.82-13.21-26.8-21.34-36.38-26.17,11.94-13.05,21.39-27.78,27.74-43.71,13.45.34,29.64,4.28,48.91,11.87v5.66ZM49.41,164.18c-9.75-9.54-23.87-24.13-39.81-40.92,25.98-21.67,55.6-38.86,87.51-51.12,8.34,13.73,17.44,28.92,27.11,45.37-25.77,10.49-49.99,25.31-71.58,44.07-1.04.91-2.07,1.83-3.1,2.75-.05-.05-.09-.09-.14-.14Zm330.06-1.39c1.24,1.06,2.46,2.13,3.67,3.22-10.89,10.79-21.74,22.73-32.2,36.97-2.53-2.27-5.15-4.48-7.88-6.63-16.43-12.95-35.38-23.07-55.9-30.09,5.96-16.24,13.04-31.56,21.5-46.14,25.61,10.12,49.58,24.48,70.81,42.68Zm-32.88,173.01c-8.61,13.14-17.16,29.63-25.58,50.34-1.01.92-2.06,1.82-3.12,2.71-1.43-4.21-3.6-8.24-6.4-12.05,8.02-29.06,17.56-52.56,28.09-71.82,4.6,9.35,7.05,19.12,7.05,28.89,0,.65-.02,1.29-.04,1.93Zm-5.94,31.96c5.44-8.98,12.39-18.94,26.11-23.52,4.7-1.57,9.92-2.41,15.66-2.56-6.32,15.35-15.59,29.56-27.26,42.13-9.08-4.11-15.8-5.09-20.59-4.78-.77.05-1.49.14-2.17.25,3.02-3.59,5.69-7.33,7.99-11.21.09-.1.18-.2.25-.32Zm-203.42,60.42c24,10.16,50.62,15.62,78.22,15.85v32.45c-34.99-.21-69.22-6.81-100.25-18.79,8.01-14.08,15.5-23.38,22.03-29.5Zm-40.38-61.99c-.03-.08-.07-.16-.11-.23-.16-.27-.33-.54-.5-.81-3.9-6.91-6.49-14.17-7.69-21.64,6.36,10.47,12.47,22.53,18.37,36.24-3.95-4.32-7.31-8.86-10.07-13.56Zm16.56,20.01c-8.44-20.73-16.99-37.24-25.61-50.39-.02-.64-.03-1.28-.03-1.93,0-9.77,2.44-19.54,7.05-28.89,10.53,19.26,20.07,42.76,28.09,71.82-2.8,3.82-4.98,7.85-6.41,12.08-1.06-.88-2.09-1.78-3.09-2.69Zm12.58-265.64c8.51,14.73,15.62,30.23,21.59,46.66-20.38,7.51-39.45,18.3-56.27,32.07-2.23,1.82-4.38,3.68-6.48,5.56-10.63-14.72-21.69-27.01-32.79-38.07.96-.86,1.92-1.72,2.9-2.57,21.42-18.61,45.47-33.3,71.06-43.66Zm137.61,124.24c-14.18-3.92-29.24-6.03-44.66-6.18v-80.27c22.1.17,43.6,3.63,63.65,10.08-7.85,22.06-13.96,46.45-18.62,74.13-.13.74-.25,1.5-.37,2.25Zm42.68,152.56c1.29-5.57,2.62-10.96,4.01-16.17,2.05,3.21,3.62,6.56,4.66,10.04-2.74,2.14-5.63,4.18-8.66,6.13Zm-4.18,2.57c-6.14,3.62-12.78,6.85-19.85,9.65,2.44-16.83,5.18-32.49,8.17-47.08,7.03,4.38,12.89,9.42,17.24,14.98-1.97,7.24-3.83,14.72-5.56,22.46Zm-29.64,16.83c.13-.03,8.68-2.04,21.7,8.76-22.74,9.4-48.26,14.77-75.22,14.99v-15.56c18.96-.17,36.98-3.07,53.25-8.16.09,0,.18-.02.27-.04Zm-109.45-3.31s-.09-.04-.15-.06c-.04-.01-.13-.04-.26-.07-2.27-.72-4.51-1.47-6.72-2.28-2.59-18.11-5.52-34.89-8.74-50.45,8.89-5.05,19.44-9.11,31.15-11.92,1.46,21.9,2.67,45.04,3.84,69.53-6.56-1.24-12.95-2.83-19.12-4.76Zm22.65,5.42c-1.23-25.77-2.49-49.28-3.95-70.97,10.51-2.26,21.87-3.53,33.73-3.65v77.2c-10.17-.09-20.15-.95-29.78-2.58Zm-15.25-176.32c-4.6-27.31-10.6-51.42-18.3-73.25,20.16-7.01,41.57-10.77,63.33-10.96v80.27c-15.42.15-30.48,2.26-44.66,6.18-.12-.75-.24-1.5-.37-2.25Zm45.03-.44v98.63c-11.91.11-23.35,1.38-33.96,3.65-2.51-36.47-5.62-67.79-10.13-96.13,13.98-3.9,28.86-6.01,44.1-6.16Zm63.07,168.89c-8.26,3.02-17.05,5.45-26.25,7.2,1.17-24.5,2.38-47.63,3.84-69.53,11.7,2.81,22.25,6.88,31.15,11.92-3.22,15.55-6.14,32.31-8.73,50.41Zm-29.79,7.84c-9.55,1.62-19.52,2.53-29.78,2.62v-77.22c11.85.11,23.22,1.38,33.73,3.65-1.46,21.69-2.72,45.19-3.95,70.95Zm-29.78-78.1v-98.63c15.24.15,30.11,2.25,44.1,6.16-4.51,28.34-7.62,59.66-10.13,96.13-10.62-2.27-22.05-3.54-33.96-3.65Zm-3.5-185.91c-22.17.19-43.97,4.02-64.51,11.17-6.13-16.8-13.3-32.24-21.65-46.75,27.47-10.66,56.63-16.35,86.16-16.57v52.15Zm-121.92,47.15c16.52-13.52,35.23-24.11,55.24-31.49,8.12,23.11,14.06,48.05,18.57,75.28-16.13,4.84-31.04,12.06-43.92,21.4-1.07.78-2.12,1.57-3.15,2.37-10.22-24.91-21.52-44.95-33.38-61.83,2.15-1.95,4.36-3.87,6.64-5.74Zm31.94,68.02c12.45-9.03,26.85-16.02,42.43-20.75,4.67,29.18,7.76,60.96,10.15,95.91-11.81,2.81-22.52,6.86-31.65,11.91-7.04-33.16-15.44-60.77-24.77-84.16,1.25-.99,2.53-1.96,3.84-2.91Zm17.75,88.92c-7.02,4.24-12.98,9.11-17.62,14.47-7.78-27.54-17.35-51.44-28.88-72.04,5.24-9.37,12.69-18.23,22.06-26.12,9.22,23.26,17.5,50.72,24.44,83.69Zm-19.12,22.25c1.38,5.21,2.72,10.59,4,16.15-.89-.58-1.8-1.14-2.67-1.74-2.08-1.42-4.07-2.87-5.99-4.37,1.04-3.48,2.61-6.84,4.66-10.05Zm8.18,18.73c-1.73-7.74-3.59-15.22-5.56-22.45,4.35-5.56,10.21-10.59,17.24-14.98,3,14.6,5.73,30.27,8.18,47.11-7-2.77-13.64-6.01-19.86-9.68Zm29.52,16.81c16.64,5.23,34.83,8.05,53.65,8.21v15.57c-26.54-.22-52.13-5.37-75.3-14.93,12.3-10.24,20.62-9.06,21.65-8.85Zm57.15,27.28c28.06-.23,54.58-5.94,78.13-15.93,6.55,6.11,14.06,15.43,22.1,29.56-31.03,12-65.25,18.6-100.24,18.81v-32.45Zm78.88-20.05c-6.87-6.05-12.75-8.83-17.21-10.05,8.42-3.15,16.3-6.9,23.5-11.17.3-.08.56-.25.77-.47,4.53-2.73,8.79-5.66,12.74-8.79.33-.13.6-.36.79-.64,1.66-1.33,3.26-2.7,4.8-4.1.29-.14.53-.36.7-.64.87-.8,1.72-1.62,2.55-2.44.17-.09.33-.21.47-.36.1-.11,6.78-6.91,25.64,1.2-14.98,15.39-33.61,28.19-54.77,37.46Zm29.7-44.34c5.89-13.66,11.98-25.68,18.32-36.13-2.13,13.13-8.56,25.39-18.32,36.13Zm-18.72-6.22c-4.64-5.37-10.61-10.23-17.62-14.47,6.94-32.97,15.23-60.42,24.44-83.69,9.38,7.89,16.82,16.75,22.06,26.12-11.53,20.6-21.1,44.5-28.88,72.04Zm-20.81-16.32c-9.13-5.05-19.84-9.1-31.65-11.91,2.4-34.95,5.48-66.74,10.15-95.91,15.59,4.73,29.98,11.72,42.43,20.75,1.31.95,2.59,1.92,3.84,2.91-9.34,23.39-17.73,51-24.77,84.16Zm22.99-89.91c-12.88-9.34-27.79-16.55-43.92-21.4,4.57-27.61,10.62-52.87,18.92-76.25,20.17,6.89,38.78,16.83,54.92,29.54,2.76,2.18,5.42,4.43,7.98,6.73-12.36,17.27-24.13,37.89-34.74,63.74-1.03-.8-2.08-1.59-3.15-2.37Zm-27.2-102.06c-20.42-6.59-42.33-10.11-64.84-10.29v-52.15c29.72.21,58.96,5.76,86.4,16.15-8.31,14.37-15.45,29.67-21.56,46.29Zm-68.34-65.94c-30.15.22-59.92,6.06-87.94,17.01-9.65-16.42-18.74-31.59-27.08-45.32,36.09-13.41,75.05-20.54,115.01-20.75v49.06ZM49.46,169.14c11.1,11.04,22.15,23.33,32.78,38.1-12.69,11.87-22.84,24.85-30.12,38.32-14.62-12.68-29.21-21.35-42.6-28.58,10.49-16.87,23.99-33.14,39.94-47.84Zm34.84,41c11.78,16.82,22.99,36.82,33.12,61.71-9.5,7.84-17.16,16.66-22.7,26.01-6.43-11.06-13.45-21.15-21.07-30.31-6.16-7.4-12.43-13.82-18.7-19.49,7.09-13.34,17.03-26.26,29.36-37.92Zm8.48,91.17c-5.02,9.47-7.91,19.41-8.41,29.42-13.93-19.81-27.98-31.15-41.86-37.63.16-13.69,3.91-27.92,10.75-41.77,13.89,12.58,27.33,28.57,39.52,49.99Zm-44.22-1.13c12.81,7.73,24.68,19.88,35.8,36.69.25,5.38,1.18,10.69,2.76,15.86-4.57-4.86-10.38-9.15-18.36-11.81-5.45-1.82-11.51-2.75-18.22-2.78-4.95-13.2-7.67-27.06-8-41.24,2.01.98,4.01,2.07,6.02,3.28Zm19.09,44.06c13.21,4.41,20.14,13.8,25.48,22.5,2.43,4.32,5.35,8.51,8.73,12.53-.64-.1-1.3-.18-2.02-.23-4.8-.31-11.54.68-20.67,4.82-11.89-12.8-21.05-27.03-27.25-42.18,5.76.15,11.01.99,15.73,2.56Zm39.48,40.79c4.76,4.79,10.21,9.3,16.33,13.47,2.01,1.37,4.08,2.67,6.19,3.93.06.05.14.08.21.13,7.38,4.42,15.36,8.23,23.82,11.39-4.46,1.23-10.34,4.03-17.18,10.09-15.65-6.85-30.13-15.74-42.95-26.52-4.18-3.51-8.12-7.18-11.82-10.97,16.73-7.22,23.9-2.72,25.4-1.52Zm-15.83,15.17c12.71,10.68,27,19.54,42.42,26.44-6.6,6.46-13.99,15.93-21.81,29.75-26.12-10.49-49.87-24.83-69.78-42.43,15.05-13.39,26.95-21.32,36.24-25.86,4.03,4.19,8.33,8.24,12.93,12.1Zm124.15,79.77v53.08c-45.05-.22-89.23-8.88-129.24-24.66,13.09-22.8,23.48-40.94,27.26-47.64,31.56,12.26,66.38,19,101.98,19.22Zm3.5,0c35.59-.21,70.41-6.97,101.97-19.23,3.78,6.69,14.2,24.89,27.33,47.76-40.02,15.71-84.19,24.34-129.3,24.55v-53.08Zm103.53-23.59c-7.85-13.87-15.26-23.36-21.88-29.82,21.4-9.58,40.22-22.73,55.34-38.5,9.29,4.53,21.21,12.46,36.29,25.87-19.89,17.6-43.63,31.96-69.75,42.45Zm61.33-118.24c-6.69.04-12.73.97-18.16,2.78-8.01,2.67-13.83,6.98-18.41,11.87,1.6-5.16,2.55-10.48,2.81-15.92,11.12-16.82,22.99-28.97,35.8-36.69,2.01-1.21,4.01-2.3,6.02-3.28-.33,14.34-3.13,28.19-8.06,41.24Zm-33.77-7.41c-.5-10-3.39-19.95-8.41-29.42,12.49-21.94,26.29-38.19,40.54-50.91,6.24,13.76,9.59,28.21,9.73,42.7-13.88,6.48-27.93,17.82-41.86,37.63Zm10.73-63.18c-7.63,9.16-14.64,19.25-21.07,30.31-5.55-9.36-13.2-18.17-22.7-26.01,10.52-25.84,22.21-46.41,34.48-63.63,12.44,11.72,22.26,24.89,29.11,38.84-6.65,5.9-13.29,12.65-19.82,20.49Zm-7.23-62.19c10.45-14.27,21.3-26.22,32.19-36.99,15.96,14.69,29.43,31.1,39.85,48.25-13.26,7.13-27.73,15.65-42.26,28.06-7.08-14.14-17.13-27.46-29.78-39.32Zm28.21-45.23c-21.39-18.34-45.52-32.83-71.3-43.08,9.51-16.16,18.46-31.1,26.68-44.64,32.47,12.54,62.12,29.92,87.51,51.02-15.53,16.35-29.31,30.59-39,40.1-1.28-1.15-2.58-2.29-3.89-3.41Zm-74.61-44.35c-27.99-10.67-57.84-16.37-88.19-16.58v-49.06c40.35.21,79.26,7.69,114.86,21-8.22,13.54-17.17,28.49-26.67,44.64Zm-88.19-69.14V12.12c50.16.15,96.97,6.95,139.23,19.47-6.52,10.42-14.01,22.51-22.27,36.08-36.58-13.6-76.22-20.84-116.96-21.04Zm-3.5,0c-40.61.2-80.21,7.49-116.87,21.2-8.3-13.64-15.82-25.79-22.37-36.25,42.26-12.51,89.07-19.3,139.24-19.45v34.51Zm-120.19,22.47c-32.12,12.41-61.92,29.76-88.08,51.61-1.22-1.29-2.45-2.58-3.69-3.89v-55.8c21.32-11.32,44.48-20.86,69.23-28.41,6.58,10.5,14.15,22.73,22.53,36.49ZM4.52,122.99c-.34.29-.68.58-1.02.87v-1.95c.34.36.68.72,1.02,1.08Zm2.41,2.54c16.03,16.88,30.23,31.56,40.03,41.15-16.18,14.94-29.88,31.48-40.53,48.65-.24-.13-.47-.25-.71-.38-.73-.39-1.47-.78-2.22-1.18v-85.27c1.13-1,2.28-1.99,3.43-2.97Zm-2.85,92.51c.17.09.35.18.52.28-.38.63-.74,1.26-1.1,1.89v-2.48c.19.1.39.21.58.31Zm3.6,1.93c14.1,7.64,28.62,16.55,42.75,28.83-7.06,14.03-10.98,28.52-11.39,42.77-12.06-4.96-23.97-6.46-35.54-6.89v-57.37c1.33-2.45,2.72-4.9,4.18-7.33Zm31.33,75.3c.14,14.77,2.8,29.2,7.81,42.94-12.29.51-26.66,3.84-43.32,9.99v-60.02c11.7.43,23.57,1.96,35.51,7.09Zm9.12,46.41c6.23,15.71,15.56,30.47,27.74,43.75-9.57,4.84-21.52,12.95-36.29,26.12-.02.02-.04.04-.06.05-4.07-3.72-7.98-7.56-11.7-11.55-9.7-10.42-17.82-21.37-24.32-32.75v-15.38c17.41-6.53,32.19-9.92,44.63-10.25Zm-22.88,60.76c3.7,3.97,7.58,7.79,11.62,11.49-8.48,7.41-19.89,16.79-33.38,27.52v-67.32c6.07,9.79,13.33,19.25,21.76,28.31Zm14.23,13.86c20.17,17.89,44.23,32.49,70.69,43.17-3.99,7.06-14.32,25.1-27.25,47.61-29.22-11.87-56.13-27.58-79.43-46.56v-14.6c14.65-11.63,27-21.75,35.99-29.62Zm41.69,93.84c-11.86,20.67-25.7,44.74-38.77,67.46-13.42-6.31-26.41-13.36-38.91-21.11v-91.45c22.94,18.3,49.22,33.5,77.68,45.1Zm3.28,1.31c40.54,16.06,85.33,24.87,131,25.09v79.55c-59.93-.25-117.99-13.18-169.86-37.02,13.11-22.8,26.99-46.94,38.86-67.62Zm134.5,25.09c45.72-.22,90.5-9,131.06-24.99,11.86,20.66,25.72,44.77,38.81,67.53-51.88,23.84-109.93,36.76-169.87,37.01v-79.55Zm216.15-79.04c-24.29,20.42-52.64,37.19-83.56,49.7-12.97-22.59-23.34-40.69-27.33-47.75,26.46-10.69,50.51-25.29,70.66-43.19,9.84,8.62,23.71,19.93,40.22,32.98v8.26Zm0-12.72c-15.35-12.15-28.27-22.72-37.62-30.89,3.92-3.6,7.7-7.31,11.29-11.16,10.64-11.39,19.43-23.44,26.33-35.96v78.01Zm0-94.98c-18.48-7.18-34.26-11.04-47.59-11.58,4.99-13.6,7.73-28.01,7.88-42.94,13.37-5.74,26.66-6.98,39.71-7.21v61.73Zm0-65.23c-12.88.23-26.21,1.45-39.73,7.01-.36-14.82-3.95-29.56-10.45-43.58,14.04-12.04,28.46-20.82,42.45-28.37,2.82,4.83,5.4,9.7,7.73,14.61v50.33Zm0-58.16c-1.47-2.83-3.02-5.64-4.65-8.43,1.49-.79,3.04-1.62,4.65-2.47v10.91Zm0-14.88c-2.23,1.2-4.38,2.34-6.42,3.42,0,0-.01,0-.02,0-10.58-17.45-24.24-34.14-40.44-49.06,9.73-9.56,23.54-23.83,39.08-40.2,2.64,2.25,5.25,4.53,7.79,6.86v78.97Zm0-84.17c-1.68-1.51-3.38-3.01-5.1-4.49,1.68-1.77,3.38-3.57,5.1-5.39v9.88Zm0-14.97c-2.62,2.78-5.21,5.52-7.76,8.21-.28-.24-.55-.48-.83-.71-25.83-21.56-55.36-38.68-87.27-50.94,8.34-13.69,15.88-25.86,22.43-36.31,26.39,8.06,50.97,18.38,73.44,30.71v49.05Zm0-108.88v56.41c-22.2-12.04-46.26-22.06-71.75-29.97,6.85-10.91,12.54-19.81,16.81-26.44h54.94Zm-59.11,0c-4.23,6.57-9.67,15.1-16.11,25.37-43.58-13.13-91.26-20.08-140.94-20.24V3.5h157.05Zm-160.55,0v5.12c-49.68.16-97.36,7.11-140.94,20.24-6.44-10.26-11.88-18.79-16.1-25.36h157.05Zm-161.21,0c4.27,6.63,9.96,15.52,16.81,26.43-23.89,7.41-46.53,16.69-67.56,27.74V3.5h50.75ZM3.5,560.34c11.98,7.32,24.44,14.03,37.27,20.09-15.04,26.14-28.88,50.2-37.27,64.78v-84.87Zm3.3,86.16c8.45-14.68,22.22-38.61,37.16-64.59,4.14,1.91,8.31,3.78,12.53,5.55,50.26,21.1,103.74,31.9,158.97,32.12v26.91H6.8Zm212.16,0v-26.91c55.25-.22,108.76-11.04,159.05-32.16,4.19-1.76,8.33-3.62,12.45-5.51,14.94,25.97,28.71,49.91,37.16,64.58h-208.66Zm216.15,0h-3.45c-8.31-14.43-22.53-39.14-38.01-66.06,14.35-6.77,28.21-14.37,41.47-22.71v88.77Z" style="fill: #ff57b8;"/>
  </g>
</svg>