<?xml version="1.0" encoding="UTF-8"?>
<svg id="Layer_2" data-name="Layer 2" xmlns="http://www.w3.org/2000/svg" viewBox="0 0 92.18 92.07">
  <g id="_ÎÓÈ_1" data-name="—ÎÓÈ_1">
    <g>
      <path d="m44.48,92.07c-7.27,0-14.86-2.06-21.81-6.24-.45-.27-.89-.55-1.32-.83l-.28-.18c-.43-.28-.78-.52-1.12-.76l-.27-.19c-.37-.26-.74-.53-1.11-.81-.02-.01-.08-.06-.09-.07-.18-.14-.34-.27-.51-.39l-.32-.25c-.18-.14-.36-.28-.54-.43-.16-.13-.3-.25-.45-.38l-.34-.29c-.17-.14-.34-.29-.51-.43-.17-.14-.33-.29-.49-.44l-.28-.25c-.16-.15-.33-.29-.49-.44-.15-.14-.29-.28-.44-.42l-.66-.64s-.08-.09-.1-.1l-.39-.4c-.25-.25-.49-.51-.72-.76l-.4-.44c-.22-.24-.44-.49-.66-.74l-.38-.44c-.22-.26-.44-.53-.66-.79l-.46-.57c-.25-.32-.51-.66-.77-1-.33-.45-.62-.86-.91-1.27l-.26-.39c-.2-.29-.39-.58-.58-.88l-1.08-1.75c-.21-.36-.42-.72-.61-1.08l-.13-.24c-.24-.44-.47-.88-.69-1.32l-.29-.59c-.08-.17-.17-.33-.24-.5l-.07-.16c-.12-.27-.21-.47-.3-.66-.12-.27-.24-.55-.36-.83l-.24-.58c-.12-.29-.23-.57-.33-.85l-.22-.59c-.1-.28-.2-.57-.3-.86l-.27-.79c-.04-.11-.07-.21-.1-.32l-.05-.15c-.1-.32-.2-.64-.29-.96-.06-.23-.12-.45-.19-.68-.08-.31-.16-.62-.24-.94l-.16-.69c-.07-.31-.14-.63-.2-.94l-.13-.69c-.06-.33-.11-.65-.16-.97l-.19-1.34c-.04-.29-.07-.57-.1-.86l-.06-.65c-.03-.28-.05-.57-.06-.86-.01-.21-.03-.42-.04-.64-.01-.29-.02-.57-.03-.85v-.64c-.02-.29-.01-.58,0-.88,0-.19,0-.4,0-.61,0-.3.03-.6.04-.9l.03-.58c.02-.34.06-.67.09-1v-.14c.02-.12.03-.23.05-.35.05-.48.12-.97.19-1.46.53-3.42,1.55-6.68,3.03-9.71.21-.43.43-.86.66-1.27l.23-.4c.16-.28.32-.56.48-.83l.09-.15s.07-.11.12-.18c.23-.37.42-.66.6-.93.1-.16.21-.31.32-.46.17-.25.36-.51.55-.77l.32-.43c.21-.27.42-.53.63-.79l.29-.35c.3-.36.61-.71.93-1.05.03-.03.06-.06.08-.09.24-.26.53-.56.83-.86l14.56-14.38c.84-.83,2.21-.83,3.04.02.83.84.83,2.2-.02,3.04,0,0,0,0,0,0h0c-.26.26-.51.52-.76.79-.29.31-.56.62-.83.93l-.24.3c-.19.23-.37.45-.54.68-.09.12-.18.24-.27.36-.17.23-.33.45-.49.68l-.27.39c-.16.24-.32.49-.48.74l-.22.35c-.14.24-.28.47-.41.71h0s-.2.35-.2.35c-.2.36-.39.73-.57,1.1-1.29,2.64-2.18,5.49-2.64,8.47-.07.43-.12.86-.17,1.29l-.04.43c-.03.3-.06.59-.08.87l-.03.53c-.01.26-.03.52-.04.79v.55c-.01.26-.02.51-.01.77v.57c.02.24.03.5.04.75l.03.58c.02.25.04.5.06.76.02.19.03.38.05.57.03.26.06.52.09.77l.07.57c.03.21.06.42.1.63.05.29.09.58.15.87.04.21.08.42.12.62.06.28.12.57.18.85.04.2.09.41.14.61.07.29.14.57.22.86.05.2.11.4.17.61.08.29.17.58.26.87l.37,1.14c.09.26.18.52.27.78l.2.53c.1.25.2.51.3.76l.22.53c.11.26.22.51.33.76l.24.53c.13.28.27.57.41.86l.17.35c.2.4.41.8.62,1.2l.12.22c.18.32.36.65.55.97l.24.4c.15.26.32.52.48.78l.26.41c.17.27.35.54.53.8l.24.35c.26.38.53.75.8,1.12.29.39.56.74.84,1.09l.31.39c.19.24.39.48.59.72l.35.41c.2.23.4.45.6.68l.36.4c.21.23.43.46.66.69l.33.34c.15.16.31.3.46.45l.25.24c.13.13.26.26.4.39.15.14.3.27.45.41l.7.63c.14.12.29.25.43.37l.33.28c.14.12.28.24.42.35.15.12.3.24.45.36l.36.28c.14.11.27.21.41.32.36.27.73.54,1.1.81l.25.18c.31.21.62.43.94.64l.33.22c.4.26.8.51,1.21.76,13.82,8.31,30.32,7.34,40.13-2.35h0c.84-.84,2.2-.83,3.04.02.83.84.83,2.21-.02,3.04,0,0-.01.01-.02.02l-14.54,14.37c-6.18,6.11-14.63,9.22-23.56,9.22ZM11.86,27.47s-.05.06-.08.09c-.23.25-.5.56-.77.87l-.25.3c-.19.23-.37.45-.55.68l-.28.37c-.16.22-.32.44-.48.67l-.27.39c-.16.24-.32.49-.47.74l-.22.35c-.14.23-.28.47-.41.71l-.2.35c-.2.36-.39.73-.57,1.11-1.29,2.64-2.18,5.49-2.64,8.47-.07.43-.12.86-.17,1.29l-.04.42c-.03.3-.06.59-.08.88l-.03.51c-.01.27-.03.54-.04.8,0,.18,0,.36,0,.54,0,.27,0,.52,0,.77v.58c.02.25.03.5.04.76,0,.19.02.38.03.57.02.26.04.51.06.76l.05.58c.03.25.06.5.09.76l.07.57s.02.12.02.14l.08.5c.05.29.09.58.15.86l.12.63c.06.28.12.56.18.84l.15.63c.07.28.14.56.21.84.06.21.11.42.17.62.08.29.17.57.26.86l.37,1.13c.09.27.18.53.28.79l.2.54c.1.26.2.51.3.76l.22.54c.11.25.22.5.33.75.08.18.15.35.23.52l.58,1.22c.2.4.41.8.63,1.2l.12.21c.19.34.37.66.56.98l.99,1.59c.17.27.35.53.53.79l.24.35c.26.38.53.75.8,1.12.26.34.49.65.73.96l.41.51c.2.24.39.48.59.72l.35.41c.2.23.4.45.6.68l.37.4c.21.23.43.46.65.69l.33.34s.08.08.08.09l.65.63c.12.12.25.24.38.36.14.13.28.26.42.39l.29.26c.14.13.28.26.43.39.15.13.29.25.44.38l.75.63c.15.12.31.25.47.37l.33.26c.14.11.28.22.43.33.01.01.08.06.1.07.33.25.67.49,1.01.73l.24.17c.32.22.63.44.95.64l.33.21c.4.26.8.51,1.21.76,13.82,8.31,30.33,7.34,40.13-2.35l3.34-3.3c-9.79,2.59-21.11.97-31.13-5.05-.45-.27-.89-.55-1.32-.83l-.37-.24c-.34-.23-.69-.46-1.03-.7l-.28-.2c-.4-.29-.81-.58-1.2-.88-.16-.12-.32-.25-.48-.37l-.35-.27c-.17-.14-.35-.27-.52-.41-.16-.13-.33-.27-.49-.41l-.31-.26c-.17-.14-.33-.28-.5-.42-.16-.14-.31-.27-.46-.41l-.29-.26c-.17-.15-.34-.31-.51-.47-.16-.15-.31-.3-.46-.45l-.23-.23c-.18-.17-.35-.34-.52-.52l-.37-.38c-.24-.25-.48-.5-.72-.76l-.4-.43c-.23-.25-.44-.5-.66-.74l-.39-.45c-.22-.26-.44-.52-.65-.79l-.34-.42c-.3-.38-.6-.76-.89-1.16-.33-.45-.62-.86-.91-1.27l-.26-.38c-.2-.3-.4-.59-.59-.88l-.28-.45c-.18-.29-.36-.58-.54-.87l-.26-.43c-.21-.36-.41-.72-.61-1.08l-.13-.23c-.24-.45-.47-.89-.69-1.33l-.19-.38c-.15-.31-.31-.63-.45-.95l-.25-.56c-.13-.29-.25-.57-.37-.85l-.24-.59c-.12-.28-.22-.56-.33-.84l-.22-.6c-.1-.29-.2-.57-.3-.85l-.2-.59c-.06-.19-.12-.38-.18-.57l-.03-.11c-.1-.32-.2-.63-.29-.95-.06-.23-.12-.45-.19-.68-.08-.32-.17-.63-.24-.95-.05-.23-.11-.46-.16-.69-.07-.32-.14-.63-.2-.94-.05-.24-.09-.47-.13-.7-.06-.32-.11-.64-.16-.96-.04-.23-.08-.47-.11-.7l-.08-.64c-.04-.29-.07-.58-.1-.86-.02-.21-.04-.43-.06-.64-.02-.29-.05-.57-.06-.85l-.04-.65c-.01-.28-.02-.56-.03-.84v-.65c-.01-.29-.01-.58,0-.87v-.14c0-.16,0-.33.01-.49,0-.29.02-.59.04-.89l.03-.59c.02-.32.05-.65.09-.99l.05-.49c.05-.48.12-.98.19-1.47.21-1.37.5-2.72.87-4.04l-3.25,3.21c-.25.25-.5.5-.74.76Z" style="fill: #ff57b8;"/>
      <path d="m59.08,77.74c-7.36,0-14.96-2.14-21.86-6.29-15.64-9.4-24.79-27.46-22.24-43.92h0c.53-3.41,1.55-6.68,3.03-9.7C21.93,9.82,28.87,4,37.54,1.44c10.19-3.01,21.84-1.24,31.98,4.86,15.64,9.4,24.79,27.46,22.24,43.91-.53,3.41-1.55,6.68-3.03,9.71-3.92,8.01-10.85,13.83-19.52,16.4-3.26.96-6.66,1.44-10.12,1.44ZM19.23,28.19c-2.29,14.77,6.02,31.04,20.21,39.57,9.11,5.48,19.52,7.08,28.55,4.41,7.5-2.22,13.5-7.25,16.88-14.16,1.29-2.64,2.18-5.49,2.64-8.48,2.29-14.77-6.02-31.04-20.21-39.57-9.11-5.47-19.51-7.09-28.54-4.42-7.5,2.22-13.5,7.25-16.88,14.16-1.29,2.64-2.18,5.49-2.64,8.47h0Z" style="fill: #ff57b8;"/>
    </g>
  </g>
</svg>