<?xml version="1.0" encoding="UTF-8"?>
<svg id="Layer_2" data-name="Layer 2" xmlns="http://www.w3.org/2000/svg" viewBox="0 0 124.5 153.2">
  <g id="_ÎÓÈ_1" data-name="—ÎÓÈ_1">
    <path d="m124.49,2.27c.11-.79-.27-1.57-.95-1.98-.68-.41-1.55-.38-2.2.09L4.87,84.01c-1.35.48-2.46,1.16-3.27,2.07-1.68,1.89-2.88,5.49.89,11.94,8.35,14.26,37.15,35.49,64.21,47.32,11.9,5.21,21.65,7.87,28.39,7.87,4.02,0,6.98-.95,8.68-2.86,1.02-1.15,1.86-2.94,1.51-5.61L124.49,2.27Zm-4.58,4.06l-17.66,131.04c-9.09-14.23-37.16-34.74-63.57-46.3-10.56-4.62-19.41-7.23-25.99-7.76L119.9,6.33ZM4.59,88.73c.86-.96,2.72-1.53,5.53-1.53,5.48,0,14.59,2.13,26.95,7.54,26.4,11.55,54.37,32.04,62.36,45.68,1.16,1.98,2.88,5.55,1.36,7.26-2.53,2.84-13.77,2.18-32.48-6.01-26.4-11.55-54.37-32.04-62.36-45.68-1.16-1.98-2.88-5.55-1.36-7.26Z" style="fill: #ff57b8;"/>
  </g>
</svg>