<?xml version="1.0" encoding="UTF-8"?>
<svg id="Layer_2" data-name="Layer 2" xmlns="http://www.w3.org/2000/svg" viewBox="0 0 228.78 207.73">
  <g id="_ÎÓÈ_1" data-name="—ÎÓÈ_1">
    <path d="m114.39,207.73c-.51,0-1.03-.18-1.44-.55-21.09-18.94-72.36-66.25-93-96.24C7.24,92.46.35,73.27.01,55.44-.33,36.98,6.41,21.38,19.52,10.32,30.13,1.37,43.82-1.85,59.11,1.02c21.39,4.01,43.59,19.56,55.28,38.4C126.08,20.58,148.28,5.03,169.67,1.02c15.29-2.87,28.98.35,39.59,9.31h0c13.1,11.06,19.85,26.66,19.5,45.12-.33,17.83-7.23,37.02-19.94,55.49-20.64,29.99-71.91,77.3-93,96.24-.41.37-.92.55-1.44.55ZM48.56,4.31c-10.02,0-18.98,3.15-26.27,9.31C-1.96,34.07-1.48,72.2,23.5,108.5c20.37,29.61,72.97,78.03,90.89,94.19,17.93-16.17,70.53-64.59,90.89-94.19,24.97-36.29,25.46-74.42,1.21-94.88h0c-9.59-8.1-22.06-10.99-36.03-8.37-21.08,3.95-43.87,20.55-54.18,39.47-.38.69-1.1,1.12-1.89,1.12s-1.51-.43-1.89-1.12C102.19,25.8,79.4,9.2,58.32,5.24c-3.34-.63-6.6-.94-9.75-.94Z" style="fill: #ff57b8;"/>
  </g>
</svg>