<?xml version="1.0" encoding="UTF-8"?>
<svg id="Layer_2" data-name="Layer 2" xmlns="http://www.w3.org/2000/svg" viewBox="0 0 404.07 390.85">
  <g id="_ÎÓÈ_1" data-name="—ÎÓÈ_1">
    <g>
      <g>
        <g>
          <g>
            <path d="m276.54,292.45c-.58,0-1.16-.01-1.75-.04-19.44-.82-37.94-14.76-50.77-38.26-8.32-12.94-9.84-29.68-3.87-42.67,4.85-10.55,14.07-17.26,25.98-18.92,5.98-1.25,12.92-1.03,19.63-.82,7.23.23,14.7.46,20.78-1.15,4.64-.99,10.02-4.75,15.71-8.72,5.94-4.16,12.09-8.45,18.55-10.59,7.32-2.42,14.48-1.92,20.15,1.4,5.52,3.24,9.21,8.91,10.66,16.42,0,.05.02.1.02.15,2.76,25.69-15.77,54.69-29.95,74.26-12.35,18.71-28.33,28.94-45.15,28.95Zm-18.53-97.37c-3.97,0-7.81.2-11.22.92-.04,0-.08.02-.12.02-10.71,1.47-19,7.48-23.34,16.92-5.49,11.95-4.05,27.4,3.67,39.37.02.04.04.07.07.11,12.23,22.43,29.69,35.73,47.88,36.5,16.39.69,31.58-8.79,43.87-27.4,13.87-19.15,31.95-47.35,29.36-71.83-1.26-6.45-4.37-11.29-8.98-13.99-4.8-2.81-10.94-3.2-17.29-1.1-5.98,1.98-11.91,6.13-17.65,10.14-5.99,4.19-11.64,8.14-16.9,9.26-6.49,1.73-14.23,1.48-21.71,1.25-2.54-.08-5.12-.16-7.64-.16Z" style="fill: #ff57b8;"/>
            <path d="m261.26,336.23c-21.37,0-40.97-14.09-56.07-26.88-3.94-3.33-7.95-7.02-12.63-11.59-.02-.02-.04-.04-.06-.06-13.56-14.56-30.26-34.46-39.16-59.36-7.24-20.26-9.8-49.22,4.71-69.72,7.74-10.94,17.8-18.4,29.11-21.58,11.15-3.14,21.85-2.46,33.17-1.74l.51.03c3.66.23,7.34.61,10.89.97,7.58.78,15.42,1.58,23.16.97,10.13-.79,20.46-3.75,32.5-9.31,5.94-2.74,11.96-6.22,17.77-9.58,14.27-8.25,29.02-16.78,45.96-16.9.1,0,.21,0,.31,0,9.69,0,17.69,3.41,23.78,10.15,10.59,11.71,12.74,30.78,11.22,44.73-2.38,21.87-10,44.82-22.66,68.22-11.83,21.88-24.58,41.25-38.98,59.22-7.41,9.26-15.63,17.82-24.41,25.45-10.64,9.24-21.32,14.76-31.75,16.4-2.48.39-4.95.58-7.39.58Zm-66.22-40.95c4.61,4.5,8.56,8.12,12.42,11.39,16.25,13.77,37.84,29.11,60.65,25.52,9.77-1.54,19.86-6.78,30-15.59,8.63-7.49,16.69-15.9,23.98-25,14.26-17.81,26.9-37,38.63-58.69,12.44-23,19.93-45.52,22.26-66.93,1.43-13.19-.53-31.15-10.34-42-5.46-6.04-12.65-9.06-21.47-9-16.02.12-30.36,8.41-44.24,16.43-5.88,3.4-11.97,6.92-18.06,9.73-12.43,5.74-23.13,8.79-33.69,9.62-8.06.63-16.06-.19-23.79-.98-3.53-.36-7.17-.73-10.76-.96l-.51-.03c-11.01-.7-21.42-1.36-32,1.61-10.53,2.96-19.94,9.96-27.2,20.23-13.73,19.41-11.21,47.09-4.27,66.52,8.67,24.29,25.07,43.82,38.39,58.12Z" style="fill: #ff57b8;"/>
            <path d="m250.41,363.79c-5.17,0-10.49-1.03-16.08-3.1-12.14-4.49-24.47-11.99-38.8-23.58-13.4-10.84-24.21-20.45-34.01-30.24-6.04-6.04-10.83-11.14-15.07-16.05-22.74-24.31-37.73-53.18-42.22-81.28-5.56-34.81,3.8-66.52,25.69-87,11.23-10.51,27.18-16.55,43.75-16.56h.07c15.51,0,29.88,5.11,44.44,10.81,1.31.51,2.61,1.04,3.91,1.57,5.47,2.22,10.65,4.32,16.28,5.19,6.93,1.06,13.96.09,20.9-2.89,9.26-3.98,17.12-11.09,24.72-17.98,3.08-2.79,6.27-5.68,9.49-8.29,22.88-18.6,56.6-41.15,85.13-22.25,31.39,20.8,24.22,69.84,21.28,84.37-5.49,27.07-17.48,55.98-35.65,85.93-17.54,28.91-34.94,53.9-53.21,76.38-7.17,8.83-15.6,18.95-25.04,27.48-2.14,1.93-4.3,3.76-6.44,5.43-5.53,4.33-12.94,9.53-21.23,11.26-2.6.54-5.23.82-7.89.82Zm-76.68-254.32h-.06c-15.7.02-30.77,5.71-41.36,15.62-21.03,19.68-30,50.25-24.63,83.89,4.32,27.04,19.39,56.01,41.35,79.47.02.02.03.03.05.05,4.19,4.86,8.93,9.91,14.92,15.89,9.71,9.7,20.43,19.23,33.73,29.99,14.03,11.35,26.05,18.66,37.82,23.02,7.84,2.9,15.05,3.6,22.04,2.14,7.58-1.59,14.56-6.49,19.79-10.59,2.07-1.62,4.17-3.4,6.25-5.27,9.25-8.36,17.59-18.37,24.67-27.09,18.16-22.36,35.47-47.22,52.93-75.99,17.96-29.61,29.81-58.14,35.22-84.81,2.83-13.99,9.79-61.17-19.78-80.76-26.6-17.62-58.96,4.14-80.99,22.05-3.15,2.56-6.3,5.41-9.35,8.17-7.81,7.08-15.89,14.39-25.69,18.6-7.55,3.24-15.23,4.3-22.82,3.13-6.04-.93-11.64-3.2-17.06-5.41-1.29-.52-2.57-1.04-3.86-1.55-14.24-5.57-28.27-10.56-43.17-10.56Z" style="fill: #ff57b8;"/>
            <path d="m238.34,378.94c-3.3,0-6.59-.6-9.87-1.81-10.81-3.98-20.55-10.54-28.65-16.43-16.04-11.66-32.65-25.55-52.29-43.71-3.44-3.18-6.99-6.67-11.48-11.32-19.47-19.18-33.21-36.46-43.24-54.36-12.72-22.72-19.63-47.1-19.98-70.49-.37-25.23,7.03-49.26,20.84-67.68,15.76-21.02,38.86-32.4,63.37-31.2,11.4.56,22.59,3.24,33.28,7.97,7.4,3.27,14.29,7.41,20.95,11.41,2.76,1.66,5.62,3.37,8.47,5,1.65.94,3.27,1.65,5,2.39.64.28,1.29.56,1.95.85.26.04.52.07.78.1.93.12,1.89.24,2.86.47,10.05-.23,18.11-4.33,26.11-13.28,7.38-8.26,15.01-16.8,23.33-24.71,19.54-18.57,39.13-29.66,58.23-32.96,23.91-4.13,46.31,8.01,57.06,30.92,4.9,10.44,7.73,22.39,8.4,35.5.05.97-.69,1.79-1.66,1.84-.94.05-1.79-.69-1.84-1.66-.65-12.65-3.36-24.16-8.07-34.19-10.07-21.45-30.99-32.82-53.3-28.96-18.41,3.18-37.39,13.96-56.42,32.05-8.21,7.81-15.8,16.3-23.13,24.5-8.65,9.68-17.82,14.27-28.88,14.46-.16,0-.31-.02-.46-.05-.84-.21-1.73-.33-2.67-.45-.36-.05-.72-.09-1.08-.14-.16-.02-.32-.07-.48-.14-.72-.33-1.42-.63-2.12-.93-1.73-.75-3.53-1.53-5.34-2.56-2.89-1.65-5.76-3.37-8.54-5.04-6.57-3.94-13.37-8.02-20.56-11.21-10.15-4.49-21.23-7.14-32.04-7.67-23.34-1.14-45.35,9.72-60.4,29.8-13.35,17.8-20.5,41.07-20.14,65.53.33,22.81,7.09,46.61,19.53,68.83,9.86,17.61,23.42,34.64,42.67,53.61,4.48,4.62,7.98,8.07,11.37,11.21,19.54,18.06,36.05,31.87,51.97,43.45,7.91,5.75,17.39,12.15,27.8,15.98,9.38,3.45,19.04,1.2,28.7-6.68,2.11-1.72,4.2-3.6,6.39-5.73.69-.67,1.8-.66,2.47.03.67.69.66,1.8-.03,2.47-2.26,2.21-4.43,4.15-6.62,5.94-7.39,6.04-14.84,9.06-22.25,9.06Z" style="fill: #ff57b8;"/>
            <path d="m227.62,387.84c-.29,0-.57-.01-.85-.04-7.01-.59-12.33-3.8-17.96-7.19l-.18-.11c-8.31-5.01-16.06-11.19-23.56-17.16-1.47-1.17-2.94-2.35-4.41-3.5-17.81-14.05-36.13-30.06-54.45-47.6-3.76-3.6-8.19-7.88-12.52-12.36-19.97-19.53-34.74-38.68-45.12-58.51-11.81-22.56-18.1-47.17-18.18-71.17-.09-25.71,8.16-51.41,22.63-70.51,8.89-11.74,18.17-20.02,28.37-25.32,11.19-5.82,23.64-8.71,37.09-8.59,27.63.24,51.45,15.01,66.57,27.36,1.58,1.29,3.13,2.47,4.77,3.73.58.44,1.16.89,1.75,1.34.95.34,1.79.8,2.62,1.25.2.11.4.22.6.32l.4.06c.93.13,1.89.27,2.86.48,6.51-.43,11.16-2.14,15.07-5.53,2.93-2.54,5.36-5.96,7.71-9.27,1.14-1.61,2.32-3.27,3.55-4.82,9-11.34,17.1-20.16,25.49-27.74,22.53-20.38,44.42-31.18,65.04-32.1,21.3-.95,40.85,11.2,52.25,32.52.46.85.13,1.91-.72,2.37-.85.46-1.91.13-2.37-.72-10.75-20.1-29.08-31.56-49-30.67-19.79.88-40.94,11.38-62.85,31.2-8.24,7.45-16.22,16.13-25.09,27.32-1.17,1.47-2.27,3.02-3.44,4.67-2.47,3.48-5.02,7.07-8.27,9.89-4.58,3.97-9.95,5.94-17.41,6.4-.18.01-.35,0-.51-.05-.89-.21-1.82-.35-2.8-.48l-.71-.1c-.19-.03-.38-.09-.55-.18-.31-.16-.62-.33-.93-.5-.8-.44-1.55-.85-2.3-1.09-.2-.06-.38-.16-.54-.28-.66-.51-1.32-1.01-1.97-1.51-1.59-1.21-3.23-2.47-4.85-3.8-14.69-11.99-37.78-26.34-64.39-26.57-12.83-.11-24.77,2.65-35.44,8.2-9.72,5.06-18.62,13.02-27.19,24.33-14.02,18.5-22.01,43.42-21.92,68.38.08,23.45,6.23,47.5,17.78,69.56,10.21,19.5,24.77,38.37,44.5,57.67,4.32,4.47,8.72,8.72,12.46,12.3,18.25,17.46,36.48,33.4,54.2,47.38,1.47,1.16,2.95,2.34,4.43,3.52,7.41,5.91,15.07,12.01,23.18,16.9l.18.11c5.5,3.32,10.25,6.18,16.45,6.7,3.9.33,10.02-2.99,14.9-5.91.83-.5,1.91-.23,2.4.6.5.83.23,1.9-.6,2.4-5.61,3.36-11.42,6.43-16.14,6.43Z" style="fill: #ff57b8;"/>
            <path d="m206.12,95.97c-1.09,0-2.17-.11-3.22-.32-.95-.19-1.56-1.11-1.37-2.06.19-.95,1.11-1.56,2.06-1.37,1.74.35,3.49.34,5.36-.04,7.66-1.56,11.78-7.76,16.15-14.33,1.03-1.54,2.09-3.14,3.18-4.64,12.78-17.5,27.19-32.05,42.83-43.27,21.95-15.73,42.55-22.46,61.21-19.99,10.39,1.37,19.97,5.94,28.47,13.57.72.65.78,1.75.13,2.47-.64.72-1.75.78-2.47.13-7.96-7.15-16.91-11.42-26.59-12.7-17.76-2.35-37.51,4.17-58.71,19.36-15.34,11-29.49,25.29-42.05,42.49-1.05,1.44-2.05,2.93-3.1,4.51-4.57,6.87-9.3,13.96-18.37,15.82-1.19.24-2.37.36-3.53.36Z" style="fill: #ff57b8;"/>
            <path d="m217.16,390.29c-1.76,0-3.01-.12-4.38-.26-.44-.04-.89-.09-1.38-.13-2.06-.17-3.87-.94-5.61-1.69l-.71-.3c-.16-.07-.31-.16-.45-.27-3.26-2.73-6.8-5.33-10.23-7.84-2.84-2.08-5.78-4.23-8.57-6.48-7.47-5.99-14.16-11.47-20.45-16.77l-3.01-2.53c-12.04-10.12-24.48-20.58-36.24-31.46-6.37-5.89-13.76-12.75-20.9-19.53-19.62-19.63-35.59-36.25-48.06-56.74-13.82-22.69-22.19-47.76-24.22-72.51-2.09-25.57,3.67-51.57,16.23-73.21,14.81-25.52,36.56-41.46,61.23-44.88,23.78-3.29,49.75,4.52,69.46,20.91.74.62.84,1.72.23,2.46-.62.74-1.72.84-2.46.23-18.97-15.77-43.92-23.3-66.74-20.14-23.58,3.27-44.43,18.6-58.69,43.17-12.2,21.03-17.8,46.3-15.77,71.17,1.98,24.21,10.18,48.75,23.72,70.98,12.27,20.15,28.1,36.62,47.52,56.05,7.09,6.74,14.47,13.58,20.83,19.47,11.69,10.82,24.11,21.26,36.11,31.35l3.01,2.53c6.28,5.28,12.95,10.75,20.39,16.72,2.74,2.19,5.64,4.32,8.45,6.38,3.4,2.49,6.92,5.07,10.21,7.81l.49.21c1.56.66,3.04,1.29,4.54,1.42.5.04.97.09,1.42.13,2.14.21,3.83.37,7.75.08.98-.07,1.8.65,1.87,1.62.07.96-.65,1.8-1.62,1.87-1.61.12-2.88.16-3.96.16Z" style="fill: #ff57b8;"/>
            <path d="m177.27,76.82c-.58,0-1.14-.28-1.47-.8-.52-.81-.29-1.9.52-2.42,5.68-3.67,10.47-9.2,15.1-14.56,1.82-2.11,3.71-4.29,5.59-6.28,8.86-9.38,16.09-16.2,23.44-22.11,13.24-10.65,26.24-17.89,38.65-21.52.93-.27,1.9.26,2.17,1.19.27.93-.26,1.9-1.19,2.17-11.96,3.5-24.56,10.53-37.44,20.89-7.22,5.81-14.34,12.53-23.09,21.79-1.83,1.94-3.61,3.99-5.49,6.17-4.79,5.54-9.74,11.28-15.85,15.21-.29.19-.62.28-.95.28Z" style="fill: #ff57b8;"/>
            <path d="m65.4,274.29c-.46,0-.93-.18-1.27-.55-18.82-19.94-32.97-40.36-42.06-60.7-10.67-23.87-15.3-48.96-13.41-72.55,2.08-25.85,12.32-50.06,28.83-68.17,17.27-18.94,42.8-29.53,65.05-26.97.96.11,1.65.98,1.54,1.94-.11.96-.97,1.65-1.94,1.54-21.16-2.43-45.52,7.72-62.06,25.85-15.99,17.53-25.9,41.01-27.92,66.09-1.85,23.01,2.68,47.5,13.11,70.84,8.93,19.98,22.87,40.08,41.41,59.73.66.7.63,1.81-.07,2.47-.34.32-.77.48-1.2.48Z" style="fill: #ff57b8;"/>
            <path d="m185.86,82.55c-.69,0-1.34-.41-1.62-1.08-.37-.89.05-1.92.94-2.29,2.04-.85,3.83-1.96,5.49-3.41,2.96-2.58,5.41-6.03,7.79-9.37,1.06-1.49,2.15-3.02,3.27-4.46,4.46-5.72,8.34-10.3,12.2-14.43,7.64-8.16,16.95-17.56,28.02-25.43C256.23,11.93,275.47.29,297.78.29c.08,0,.16,0,.24,0,.97,0,1.75.79,1.74,1.76,0,.96-.79,1.74-1.75,1.74-.04,0-.16,0-.24,0-21.33,0-39.95,11.29-53.8,21.15-10.82,7.69-19.97,16.94-27.49,24.97-3.79,4.05-7.6,8.55-12,14.19-1.07,1.38-2.1,2.81-3.18,4.34-2.49,3.51-5.07,7.14-8.34,9.98-1.95,1.7-4.06,3-6.45,4-.22.09-.45.13-.67.13Z" style="fill: #ff57b8;"/>
            <path d="m194.59,89.19c-.83,0-1.56-.59-1.72-1.43-.18-.95.45-1.86,1.4-2.04,4.6-.85,9-3.62,12.07-7.59,2.34-3.03,4.58-6.23,6.74-9.32,2.88-4.12,5.86-8.37,9.16-12.35,14.97-18.04,31.43-32.13,48.92-41.86,13.11-7.29,38.86-17.89,64.08-6.94.89.39,1.29,1.42.91,2.3-.39.89-1.41,1.29-2.3.91-23.84-10.35-48.44-.19-60.99,6.79-17.11,9.52-33.24,23.33-47.93,41.04-3.21,3.87-6.15,8.07-8.98,12.13-2.19,3.13-4.45,6.36-6.84,9.46-3.59,4.64-8.76,7.88-14.2,8.89-.11.02-.22.03-.32.03Z" style="fill: #ff57b8;"/>
          </g>
          <path d="m202.31,385.76c-1.74,0-3.5-.08-5.29-.25-.96-.09-1.67-.94-1.58-1.91.09-.96.94-1.67,1.91-1.58,13.6,1.28,25.64-2.68,35.79-11.78,23.53-21.11,37.01-69.86,37.98-137.28,1.21-85.05-52.31-125.26-72.46-140.41l-1.08-.81c-.77-.58-.93-1.68-.35-2.45.58-.77,1.68-.93,2.45-.35l1.08.81c20.54,15.43,75.1,56.43,73.86,143.25-.98,68.41-14.88,118.07-39.14,139.84-9.57,8.58-20.7,12.91-33.16,12.91Z" style="fill: #ff57b8;"/>
          <path d="m169.44,364.93c-.96,0-1.74-.77-1.75-1.73-.01-.97.76-1.76,1.73-1.77,13.83-.15,24.5-4.33,32.64-12.77,17.67-18.33,24.73-58.44,22.88-130.05-3.39-131.72-86.26-162.04-111.58-168.19-.94-.23-1.52-1.17-1.29-2.11.23-.94,1.17-1.52,2.11-1.29,29.35,7.13,56.23,24.7,75.67,49.45,24.31,30.95,37.3,72.02,38.58,122.05,1.9,73.6-5.24,113.25-23.86,132.57-8.82,9.15-20.31,13.68-35.12,13.84,0,0-.01,0-.02,0Z" style="fill: #ff57b8;"/>
          <path d="m136.3,338.77c-.81,0-1.53-.56-1.71-1.38-.2-.94.4-1.88,1.34-2.08,11.53-2.48,25.79-8.11,33.86-29.82,8.45-22.74,9.12-59.23,2.06-111.56-9.42-69.82-35.89-102.99-56.45-118.52-25.36-19.17-50.05-19.03-62.52-17.25-.96.14-1.84-.53-1.98-1.48-.14-.96.53-1.84,1.48-1.98,13-1.86,38.75-2.02,65.12,17.92,21.08,15.93,48.23,49.83,57.8,120.84,7.14,52.91,6.4,89.96-2.25,113.25-8.66,23.3-24,29.35-36.4,32.02-.12.03-.25.04-.37.04Z" style="fill: #ff57b8;"/>
          <path d="m90.31,296.07c-.95,0-1.91-.04-2.9-.12-.96-.08-1.68-.92-1.61-1.88.08-.96.93-1.68,1.88-1.61,10.67.83,18.84-3.47,24.29-12.78,21.35-36.46-3.19-134.59-23.83-165.48-14.07-21.05-34.72-29.28-49.35-29.95-9.29-.43-16.97,1.95-20.54,6.35-.61.75-1.71.86-2.46.26-.75-.61-.87-1.71-.26-2.46,4.27-5.27,13.03-8.13,23.42-7.65,20.06.93,39.53,12.7,52.1,31.51,11.13,16.65,22.54,49.99,28.4,82.97,4,22.52,8.75,63.68-4.46,86.23-5.68,9.71-13.98,14.61-24.69,14.61Z" style="fill: #ff57b8;"/>
          <path d="m48.23,248.44c-5.28,0-8.45-2.43-8.61-2.55-.76-.6-.9-1.7-.3-2.46.6-.76,1.7-.89,2.46-.3.13.1,3.42,2.54,8.96,1.58,5.71-.99,9.6-6.18,11.56-15.44,6.18-29.14-9.27-83.28-23.18-92.58-7.12-4.76-13.92-6.11-20.21-4.01-7.96,2.66-13.1,10.22-15.26,16.41-.32.91-1.31,1.39-2.23,1.07-.91-.32-1.39-1.32-1.08-2.23,2.44-6.97,8.3-15.51,17.46-18.58,7.26-2.43,15.31-.9,23.27,4.42,16.23,10.85,30.74,67.5,24.66,96.22-2.85,13.44-9.4,17.29-14.39,18.16-1.1.19-2.14.27-3.1.27Z" style="fill: #ff57b8;"/>
          <path d="m265.98,364.43c-.45,0-.9-.17-1.24-.52-.68-.69-.67-1.79,0-2.47.23-.23,22.78-23.13,36.2-78.73,21.2-87.83,4.43-127.02-33.93-168.61-36.97-40.09-83.63-32.89-84.09-32.81-.96.16-1.85-.49-2.01-1.44-.16-.95.48-1.85,1.44-2.01.49-.08,48.95-7.63,87.24,33.89,23.05,24.99,35.28,46.27,40.88,71.14,5.99,26.59,4.04,58.58-6.12,100.66-13.68,56.68-36.19,79.45-37.14,80.39-.34.34-.79.51-1.23.51Z" style="fill: #ff57b8;"/>
          <path d="m400.17,146.9c-.05,0-.11,0-.17,0-.96-.09-1.67-.94-1.58-1.91,5.82-61.58-16.46-104.36-66.2-127.13-37.3-17.07-85.63-2.2-86.11-2.05-.92.29-1.9-.22-2.19-1.14-.29-.92.22-1.9,1.14-2.19,2.03-.64,50.08-15.44,88.62,2.2,22.5,10.3,39.79,24.95,51.41,43.55,14.43,23.11,20.09,52.41,16.82,87.09-.09.91-.85,1.59-1.74,1.59Z" style="fill: #ff57b8;"/>
          <path d="m290.2,341.57c-.4,0-.79-.13-1.12-.41-.74-.62-.84-1.72-.22-2.46,51.15-61.26,75.09-158,21.9-224.38-46.62-58.18-98.73-55.27-133.87-48.02-.95.2-1.87-.41-2.07-1.36-.2-.95.41-1.87,1.36-2.07,36.04-7.43,89.48-10.41,137.31,49.26,25.12,31.34,35.21,71.33,29.2,115.64-5.42,39.97-23.59,80.16-51.14,113.17-.35.41-.84.63-1.34.63Z" style="fill: #ff57b8;"/>
          <path d="m374.49,222.37c-.21,0-.43-.04-.63-.12-.9-.35-1.35-1.36-1-2.27,26.95-69.32,17.84-125.4-27.09-166.69-60.16-55.29-142.08-8.99-142.86-8.48l-.93-1.41h-.09s-1.71-.36-1.71-.36c.16-.77.25-1.24,8.12-4.9,4.16-1.94,10.89-4.82,19.28-7.53,27.25-8.83,79.16-17.95,120.57,20.1,21.12,19.41,34.67,42.49,40.27,68.59,6.45,30.08,2.32,64.38-12.29,101.94-.27.69-.93,1.12-1.63,1.12ZM203.63,43.52h0,0Z" style="fill: #ff57b8;"/>
        </g>
        <path d="m352.78,259.51c-.22,0-.44-.04-.65-.13-.9-.36-1.33-1.38-.97-2.28,18.74-46.46,19.39-92.74,2.01-141.51-10.79-30.26-34.17-50.52-75.8-65.68-32.6-11.87-62.55-2.09-80.45,3.76-2.99.98-5.57,1.82-7.77,2.43-.94.26-1.9-.29-2.15-1.22-.26-.93.29-1.9,1.22-2.15,2.12-.59,4.67-1.42,7.61-2.38,17.12-5.59,49-16.01,82.73-3.72,42.7,15.55,66.73,36.46,77.9,67.79,17.44,48.92,16.75,97.36-2.06,143.99-.28.68-.93,1.1-1.62,1.1Z" style="fill: #ff57b8;"/>
      </g>
      <path d="m215.72,390.85c-14.95,0-27.45-10.21-39.63-20.16-1.7-1.39-3.38-2.76-5.07-4.11-33.1-25.13-61.23-48.8-85.96-72.33-20.58-19.56-41.99-40.76-57.77-65.77-11.77-17.24-20.09-36.84-24.03-56.65-.02-.06-.04-.12-.06-.19-8.59-36.51.36-73.25,23.94-98.3,21.62-22.95,51.84-32.43,85.09-26.68,19.86,3.55,38.58,10.4,55.65,20.38.22.12.5.32.8.53.22.15.58.41.83.54,2.77-2.21,5.54-4.54,8.22-6.79,2.21-1.86,4.5-3.79,6.79-5.64,1.01-.85,2.01-1.71,3.01-2.57,1.19-1.02,2.38-2.04,3.58-3.05C217.95,26.15,259.32-4.99,308.31.68c24.43,2.58,47.84,15.03,65.9,35.06,17.79,19.73,28.15,44.17,29.18,68.84,6.01,65.14-28.91,125.56-63.85,176.05-18.72,27.8-34.27,45.47-49.31,62.55-1.54,1.75-3.08,3.5-4.62,5.26-17.49,19.95-43.05,33.7-43.3,33.84-3.42,2.05-10.76,4.86-11.52,5.15-5.32,2.4-10.32,3.43-15.07,3.43ZM6.54,170.52c.04.1.07.21.09.32,3.82,19.45,11.97,38.72,23.58,55.71,15.6,24.73,36.84,45.75,57.26,65.16,24.63,23.44,52.66,47.02,85.69,72.1,1.73,1.38,3.43,2.77,5.14,4.16,15.24,12.45,31,25.32,51.1,16.23.03-.02.07-.03.1-.04.08-.03,7.75-2.94,11.08-4.94.33-.18,25.33-13.64,42.39-33.1,1.54-1.76,3.09-3.51,4.63-5.26,14.97-17,30.44-34.58,49.04-62.21,34.6-49.99,69.16-109.73,63.25-173.84-2.11-50.4-43.36-95.51-91.97-100.65C271.69-.04,235.3,15.38,193.41,52.69c-1.22,1.04-2.41,2.05-3.59,3.07-1.01.87-2.02,1.73-3.04,2.59,0,0-.02.02-.03.02-2.26,1.84-4.55,3.76-6.76,5.62-2.84,2.39-5.78,4.86-8.73,7.2-.11.09-.23.16-.36.22-1.72.79-3.29-.32-4.23-.97-.19-.13-.36-.26-.52-.35-16.74-9.79-35.07-16.5-54.52-19.97-21.28-3.68-41.26-.9-58.38,7.84-.13.16-.3.3-.49.4l-.03.02c-.21.11-.44.18-.67.2-8.19,4.35-15.71,10.1-22.37,17.17C6.98,99.85-1.67,135.27,6.54,170.52ZM185.64,57.02h0,0Z" style="fill: #ff57b8;"/>
    </g>
  </g>
</svg>