<?xml version="1.0" encoding="UTF-8"?>
<svg id="Layer_2" data-name="Layer 2" xmlns="http://www.w3.org/2000/svg" viewBox="0 0 150.11 150.11">
  <g id="_ÎÓÈ_1" data-name="—ÎÓÈ_1">
    <path d="m85.05,150.11h-20c-1.19,0-2.15-.96-2.15-2.15v-11.86l-4.71,11.37c-.22.53-.64.95-1.16,1.16-.53.22-1.12.22-1.65,0l-18.48-7.65c-1.1-.45-1.62-1.71-1.16-2.81l4.68-11.31-8.33,8.34c-.81.81-2.23.81-3.04,0l-14.14-14.14c-.4-.4-.63-.95-.63-1.52s.23-1.12.63-1.52l7.79-7.79-10.54,4.36c-.53.22-1.12.22-1.65,0-.53-.22-.95-.64-1.16-1.16l-7.65-18.48c-.45-1.1.07-2.35,1.16-2.81l11.91-4.93H2.15c-1.19,0-2.15-.96-2.15-2.15v-20c0-1.19.96-2.15,2.15-2.15h10.65l-9.93-4.11c-1.1-.45-1.62-1.71-1.16-2.81l7.65-18.48c.22-.53.64-.95,1.16-1.16.53-.22,1.12-.22,1.65,0l11.93,4.94-9.19-9.19c-.4-.4-.63-.95-.63-1.52s.23-1.12.63-1.52l14.14-14.14c.84-.84,2.2-.84,3.04,0l7.76,7.76-4.1-9.91c-.22-.53-.22-1.12,0-1.65.22-.53.64-.95,1.16-1.16l18.48-7.65c.53-.22,1.12-.22,1.65,0,.53.22.95.64,1.16,1.16l4.71,11.37V2.15c0-1.19.96-2.15,2.15-2.15h20c1.19,0,2.15.96,2.15,2.15v11.79l4.34-10.48c.22-.53.64-.95,1.16-1.16.53-.22,1.12-.22,1.65,0l18.48,7.65c1.1.45,1.62,1.71,1.16,2.81l-4.36,10.54,8.38-8.38c.81-.81,2.23-.81,3.04,0l14.14,14.14c.4.4.63.95.63,1.52s-.23,1.12-.63,1.52l-8.93,8.93,11.31-4.68c.53-.22,1.12-.22,1.65,0,.53.22.95.64,1.16,1.16l7.65,18.48c.45,1.1-.07,2.35-1.16,2.81l-9.93,4.11h11.02c1.19,0,2.15.96,2.15,2.15v20c0,1.19-.96,2.15-2.15,2.15h-12.99l11.91,4.93c1.1.45,1.62,1.71,1.16,2.81l-7.65,18.48c-.22.53-.64.95-1.16,1.16-.53.22-1.12.22-1.65,0l-9.91-4.1,7.53,7.53c.4.4.63.95.63,1.52s-.23,1.12-.63,1.52l-14.14,14.14c-.84.84-2.2.84-3.04,0l-8.96-8.96,4.94,11.93c.45,1.1-.07,2.35-1.16,2.81l-18.48,7.65c-.53.22-1.12.22-1.65,0-.53-.22-.95-.64-1.16-1.16l-4.34-10.48v10.97c0,1.19-.96,2.15-2.15,2.15Zm-17.85-4.3h15.7v-19.63c0-1.03.72-1.91,1.73-2.11,1.01-.2,2.01.34,2.41,1.29l7.65,18.48,14.51-6.01-8.26-19.93c-.39-.95-.06-2.04.79-2.61.85-.57,1.99-.46,2.71.27l15.08,15.08,11.1-11.1-13.65-13.65c-.72-.73-.84-1.86-.27-2.71.57-.85,1.66-1.18,2.61-.79l17.91,7.42,6.01-14.5-19.91-8.25c-.95-.39-1.49-1.4-1.29-2.41s1.08-1.73,2.11-1.73h21.65v-15.7h-19.68c-1.03,0-1.91-.72-2.11-1.73-.2-1.01.34-2.01,1.29-2.41l17.93-7.43-6.01-14.5-19.31,8c-.95.39-2.04.06-2.61-.79-.57-.85-.46-1.99.27-2.71l15.05-15.05-11.1-11.1-14.5,14.51c-.73.72-1.86.84-2.71.27-.85-.57-1.18-1.66-.79-2.61l7.68-18.54-14.51-6.01-7.65,18.48c-.39.95-1.39,1.49-2.41,1.29-1.01-.2-1.73-1.08-1.73-2.11V4.3h-15.7v21.33c0,1.03-.72,1.91-1.73,2.11-1.01.2-2.01-.34-2.41-1.29l-8.02-19.37-14.5,6.01,7.42,17.91c.39.95.06,2.04-.79,2.61-.85.57-1.99.46-2.71-.27l-13.88-13.88-11.1,11.1,15.31,15.31c.72.73.84,1.86.27,2.71-.57.85-1.66,1.18-2.61.79l-19.93-8.26-6.01,14.5,17.93,7.43c.95.39,1.49,1.4,1.29,2.41-.2,1.01-1.08,1.73-2.11,1.73H4.3v15.7h21.29c1.03,0,1.91.72,2.11,1.73s-.34,2.01-1.29,2.41l-19.91,8.25,6.01,14.5,18.54-7.68c.95-.39,2.04-.06,2.61.79.57.85.46,1.99-.27,2.71l-13.91,13.91,11.1,11.1,14.46-14.46c.72-.72,1.86-.84,2.71-.27.85.57,1.18,1.66.79,2.61l-8,19.31,14.5,6.01,8.02-19.37c.39-.95,1.4-1.49,2.41-1.29,1.01.2,1.73,1.08,1.73,2.11v20.52Z" style="fill: #ff57b8;"/>
  </g>
</svg>