<?xml version="1.0" encoding="UTF-8"?>
<svg id="Layer_2" data-name="Layer 2" xmlns="http://www.w3.org/2000/svg" viewBox="0 0 223.86 296.96">
  <g id="_ÎÓÈ_1" data-name="—ÎÓÈ_1">
    <g>
      <path d="m111.93,296.96c-29.66,0-57.58-5.95-78.61-16.77C11.83,269.15,0,254.3,0,238.38s11.83-30.77,33.32-41.81c21.03-10.81,48.95-16.77,78.61-16.77s57.58,5.95,78.61,16.77c21.49,11.05,33.32,25.9,33.32,41.81s-11.83,30.77-33.32,41.81c-21.03,10.81-48.95,16.77-78.61,16.77Zm0-112.86c-59.35,0-107.63,24.35-107.63,54.28s48.28,54.28,107.63,54.28,107.63-24.35,107.63-54.28-48.28-54.28-107.63-54.28Z" style="fill: #ff57b8;"/>
      <path d="m111.93,237.03c-29.66,0-57.58-5.95-78.61-16.77C11.83,209.22,0,194.37,0,178.45s11.83-30.77,33.32-41.81c21.03-10.81,48.95-16.77,78.61-16.77s57.58,5.95,78.61,16.77c21.49,11.05,33.32,25.9,33.32,41.81s-11.83,30.77-33.32,41.81c-21.03,10.81-48.95,16.77-78.61,16.77Zm0-112.86c-59.35,0-107.63,24.35-107.63,54.28s48.28,54.28,107.63,54.28,107.63-24.35,107.63-54.28-48.28-54.28-107.63-54.28Z" style="fill: #ff57b8;"/>
      <path d="m111.93,177.09c-29.66,0-57.58-5.95-78.61-16.77C11.83,149.28,0,134.43,0,118.51s11.83-30.77,33.32-41.81c21.03-10.81,48.95-16.77,78.61-16.77s57.58,5.95,78.61,16.77c21.49,11.05,33.32,25.9,33.32,41.81s-11.83,30.77-33.32,41.81c-21.03,10.81-48.95,16.77-78.61,16.77Zm0-112.86c-59.35,0-107.63,24.35-107.63,54.28s48.28,54.28,107.63,54.28,107.63-24.35,107.63-54.28-48.28-54.28-107.63-54.28Z" style="fill: #ff57b8;"/>
      <path d="m111.93,117.16c-29.66,0-57.58-5.95-78.61-16.77C11.83,89.35,0,74.5,0,58.58S11.83,27.81,33.32,16.77C54.35,5.95,82.27,0,111.93,0s57.58,5.95,78.61,16.77c21.49,11.05,33.32,25.9,33.32,41.81s-11.83,30.77-33.32,41.81c-21.03,10.81-48.95,16.77-78.61,16.77Zm0-112.86C52.58,4.3,4.3,28.65,4.3,58.58s48.28,54.28,107.63,54.28,107.63-24.35,107.63-54.28S171.28,4.3,111.93,4.3Z" style="fill: #ff57b8;"/>
    </g>
  </g>
</svg>