<?xml version="1.0" encoding="UTF-8"?>
<svg id="Layer_2" data-name="Layer 2" xmlns="http://www.w3.org/2000/svg" viewBox="0 0 106.19 611.23">
  <g id="_ÎÓÈ_1" data-name="—ÎÓÈ_1">
    <g style="fill: none; isolation: isolate;">
      <path d="m40.05,611.23c-.32,0-.64-.08-.94-.23l-38.05-20.13C.41,590.52,0,589.84,0,589.1L1.1,10.61c0-.7.37-1.35.97-1.71.6-.36,1.35-.38,1.97-.05l38.05,20.13c.66.35,1.07,1.03,1.06,1.77l-1.1,578.49c0,.7-.37,1.35-.97,1.71-.32.19-.67.29-1.03.29Zm-36.05-23.33l34.06,18.02,1.1-573.97L5.1,13.93l-1.1,573.97Z" style="fill: #ff57b8;"/>
      <path d="m41.16,32.74c-.32,0-.65-.08-.94-.23L2.17,12.38c-.77-.41-1.19-1.26-1.03-2.12.15-.86.84-1.52,1.7-1.63L65.87.02c.41-.06.84.02,1.21.21l38.05,20.13c.77.41,1.19,1.26,1.03,2.12-.15.86-.84,1.52-1.7,1.63l-63.03,8.61c-.09.01-.18.02-.27.02ZM9.54,11.75l31.99,16.92,56.23-7.69-31.99-16.92L9.54,11.75Z" style="fill: #ff57b8;"/>
      <path d="m40.05,611.23c-.48,0-.95-.17-1.32-.49-.44-.38-.68-.93-.68-1.51l1.1-578.49c0-1,.74-1.84,1.73-1.98l63.03-8.61c.57-.08,1.15.1,1.59.48.44.38.68.93.68,1.51l-1.1,578.49c0,1-.74,1.84-1.73,1.98l-63.03,8.61c-.09.01-.18.02-.27.02Zm3.1-578.74l-1.1,574.45,59.03-8.07,1.1-574.45-59.03,8.07Z" style="fill: #ff57b8;"/>
    </g>
  </g>
</svg>