<?xml version="1.0" encoding="UTF-8"?>
<svg id="Layer_2" data-name="Layer 2" xmlns="http://www.w3.org/2000/svg" viewBox="0 0 153.91 153.91">
  <g id="_ÎÓÈ_1" data-name="—ÎÓÈ_1">
    <g>
      <path d="m151.76,153.91H2.15c-1.19,0-2.15-.96-2.15-2.15,0-42.43,34.52-76.95,76.95-76.95s76.96,34.52,76.96,76.95c0,1.19-.96,2.15-2.15,2.15Zm-147.43-4.3h145.25c-1.14-39.07-33.28-70.5-72.62-70.5S5.47,110.54,4.33,149.61Z" style="fill: #ff57b8;"/>
      <path d="m76.95,79.1C34.52,79.1,0,44.58,0,2.15,0,.96.96,0,2.15,0h149.61c.57,0,1.12.23,1.52.63s.63.95.63,1.52c0,42.43-34.52,76.95-76.96,76.95ZM4.33,4.3c1.14,39.07,33.28,70.5,72.62,70.5S148.44,43.37,149.58,4.3H4.33Z" style="fill: #ff57b8;"/>
    </g>
  </g>
</svg>