<?xml version="1.0" encoding="UTF-8"?>
<svg id="Layer_2" data-name="Layer 2" xmlns="http://www.w3.org/2000/svg" viewBox="0 0 197.9 269.75">
  <g id="_ÎÓÈ_1" data-name="—ÎÓÈ_1">
    <g>
      <path d="m144.02,269.75c-2.53,0-4.87-1.37-6.42-3.78-1.68-2.6-2.47-5.54-3.03-8.07-.86-3.92-1.36-7.93-1.84-11.8-.45-3.63-.91-7.38-1.67-10.99-.35-1.64-.69-3.05-1.05-4.31l-.1-.33c-.98-3.26-3.26-10.9-6.06-11.84-.38-.13-1-.21-2.05.55-.65.53-1.4,1.19-2.17,1.86-4.04,3.5-8.61,7.47-13.51,6.87-2.61-.32-4.96-1.92-6.97-4.77-2.33-3.23-4.14-6.79-5.9-10.24-3.6-7.07-6.99-13.75-14.44-16.59-1.98-.83-3.89-1.34-5.73-1.85l-.15-.04C30,182.76.01,143.49.01,98.94.01,44.39,44.4,0,98.95,0s98.94,44.39,98.94,98.94c0,3.75-.21,7.52-.63,11.22-.21,1.85-.47,3.7-.78,5.49-1.31,10.56-2.24,16.29-3.15,21.82-.45,2.74-.87,5.32-1.32,8.39-5.37,36.61-11,41.78-14.76,42.49-1.76.33-4.37-.2-6.86-4.58-.36-.14-2.3.4-5.19,3.36-2.62,2.68-5.4,8.84-5.84,12.91-.61,5.69-1.12,11.37-1.61,16.85l-.06.66c-.97,10.88-1.97,22.14-3.71,33.15-.55,3.5-1.17,6.89-1.83,10.08-.37,1.78-.78,3.5-1.72,5.06-1.48,2.45-3.78,3.87-6.31,3.91-.03,0-.07,0-.1,0Zm-20.62-54.69c.61,0,1.14.11,1.58.26,4.16,1.4,6.38,7.76,8.29,14.15l.1.35c.39,1.36.75,2.85,1.11,4.57.79,3.76,1.26,7.58,1.72,11.28.47,3.79.96,7.71,1.78,11.48.49,2.22,1.17,4.79,2.55,6.92.91,1.4,2.2,2.2,3.53,2.17,1.32-.02,2.51-.81,3.37-2.22.66-1.08.97-2.43,1.29-3.96.65-3.13,1.26-6.47,1.8-9.91,1.72-10.89,2.72-22.08,3.68-32.91l.06-.66c.49-5.5,1-11.19,1.61-16.92.47-4.34,3.32-11.39,6.81-14.98,1.76-1.81,5.16-4.78,8.12-4.4,1.13.15,2.06.77,2.62,1.76,1.11,1.96,2.3,3.03,3.17,2.86,1.48-.28,6.73-3.95,11.95-39.56.46-3.1.88-5.7,1.33-8.45.9-5.5,1.83-11.19,3.14-21.77.31-1.81.56-3.59.76-5.37.4-3.57.61-7.21.61-10.83,0-52.63-42.82-95.44-95.44-95.44S3.51,46.32,3.51,98.94c0,42.97,28.93,80.85,70.34,92.11l.15.04c1.96.53,3.98,1.08,6.12,1.97,8.65,3.31,12.52,10.91,16.26,18.26,1.69,3.33,3.44,6.76,5.63,9.79,1.45,2.05,2.93,3.14,4.54,3.33,3.36.41,7.31-3.02,10.79-6.04.8-.69,1.58-1.37,2.33-1.98,1.42-1.03,2.69-1.36,3.72-1.36Z" style="fill: #ff57b8;"/>
      <g>
        <path d="m93.23,211.06c-.64,0-1.25-.35-1.56-.96-21.29-41.74-16.46-91.43-12.2-135.27l.32-3.29c.18-1.58.35-3.09.53-4.58,5.2-43.47,11.68-57.01,17.33-64.52C99.36.2,101.24-.01,103.02.1c.96.06,1.7.89,1.64,1.85-.06.96-.89,1.7-1.85,1.64-1.2-.07-1.65.04-2.35.97-5.37,7.14-11.55,20.18-16.65,62.83-.18,1.47-.35,2.98-.53,4.52l-.32,3.26c-4.42,45.48-8.99,92.51,11.83,133.34.44.86.1,1.91-.76,2.35-.25.13-.53.19-.79.19Z" style="fill: #ff57b8;"/>
        <path d="m81.2,197.24c-.28,0-.56-.07-.82-.2-1.54-.81-3.4-1.58-6.03-2.48-1.26-.41-2.52-.87-3.71-1.37-12.41-5.17-21.43-15.65-26.84-31.15-9.47-27.19-6.52-48.29-1.32-75.13C54.1,27.02,77.55,11.64,98.62,1.92c2.07-.95,4.4-1.47,7.33-1.63.97-.05,1.79.69,1.84,1.65.05.97-.69,1.79-1.65,1.84-2.51.14-4.38.54-6.05,1.31-20.28,9.35-42.87,24.21-54.16,82.47-5.1,26.29-7.99,46.95,1.19,73.31,5.13,14.73,13.27,24.24,24.88,29.07,1.12.47,2.26.88,3.47,1.28,2.84.97,4.85,1.81,6.56,2.71.85.45,1.18,1.51.73,2.36-.31.59-.92.93-1.55.93Z" style="fill: #ff57b8;"/>
        <path d="m39.39,177.5c-.41,0-.83-.15-1.16-.44-.43-.38-.85-.76-1.28-1.13-5.27-4.64-10.72-9.43-16.9-23.9-10.94-25.62-11.76-50-2.52-74.55C39.57,18.97,72.57,9.47,99.08,1.83c2.5-.72,6.66-.77,10.33-.81,1.11-.01,2.14-.02,2.99-.06.96-.04,1.78.72,1.81,1.68.04.97-.72,1.78-1.68,1.81-.88.03-1.94.05-3.08.06-3.28.04-7.36.08-9.4.67-25.76,7.42-57.82,16.66-79.24,73.52-8.91,23.66-8.1,47.19,2.46,71.94,5.87,13.74,10.79,18.07,15.99,22.65.43.38.86.76,1.29,1.14.72.64.79,1.75.14,2.47-.35.39-.83.59-1.31.59Z" style="fill: #ff57b8;"/>
        <path d="m6.96,69.03c-.25,0-.5-.05-.74-.17-.88-.41-1.25-1.45-.84-2.33C31.41,11.11,80.04,2.77,99.74,1.76c3.81-.2,19.41.57,26.81,2.16.95.2,1.55,1.13,1.34,2.08-.2.94-1.14,1.55-2.08,1.34-7.01-1.51-22.32-2.27-25.9-2.09-19.07.98-66.15,9.05-91.38,62.77-.3.63-.93,1.01-1.59,1.01Z" style="fill: #ff57b8;"/>
      </g>
      <g>
        <path d="m107.1,227.98c-.83,0-1.56-.59-1.72-1.43-.17-.95.45-1.86,1.41-2.04,3.36-.62,4.5-3.89,5.17-8.62,0-.05.02-.1.03-.14,10.29-44.76,8.67-88.06,3.06-139.3-.23-2.01-.46-4.01-.7-6.02-.67-5.54-1.43-11.41-2.31-17.95-.21-1.42-.43-2.82-.65-4.18-4.59-28.37-9.89-38.28-14-43.74-.7-.93-1.15-1.05-2.35-.97-.96.06-1.79-.67-1.85-1.64-.06-.96.67-1.79,1.64-1.85,1.78-.11,3.66.1,5.36,2.36,6.55,8.71,10.94,22.26,14.66,45.29.22,1.37.44,2.79.66,4.24.89,6.58,1.65,12.46,2.32,18.02.24,2.01.48,4.03.71,6.05,5.64,51.57,7.27,95.18-3.11,140.39-.45,3.14-1.52,10.3-8,11.49-.11.02-.21.03-.32.03Z" style="fill: #ff57b8;"/>
        <path d="m140.86,250.9c-1.42,0-2.78-.66-3.89-1.91-1.87-1.91-3.24-5.72-4.44-9.08-.37-1.03-.72-2.01-1.02-2.73-.37-.89.05-1.92.94-2.29.89-.37,1.92.05,2.29.94.34.81.7,1.82,1.09,2.9.98,2.74,2.33,6.49,3.67,7.83.03.03.05.06.08.08.79.9,1.34.78,1.57.73,1.88-.41,4.57-4.22,5.78-8.19,1.67-8.21,3.16-15.6,4.54-22.9.36-1.89.71-3.78,1.05-5.67,0-.05.02-.09.03-.13,11.59-43.9,5.65-89.47-1.68-128.26-.38-1.69-.82-3.49-1.31-5.45-1.39-5.44-2.95-10.89-4.65-16.17-.48-1.44-.97-2.85-1.48-4.27-12.47-33.59-30.11-44.05-45.67-51.22-1.68-.77-3.54-1.18-6.05-1.31-.97-.05-1.71-.88-1.65-1.84.05-.96.87-1.7,1.84-1.65,2.93.16,5.26.68,7.33,1.63,16.19,7.46,34.54,18.34,47.49,53.2.53,1.46,1.03,2.9,1.52,4.38,1.73,5.37,3.31,10.88,4.72,16.4.51,1.99.95,3.82,1.35,5.6,7.42,39.22,13.41,85.25,1.66,129.8-.34,1.87-.69,3.75-1.04,5.62-1.39,7.35-2.89,14.78-4.56,23.03-.01.05-.02.1-.04.15-1.14,3.81-4.32,9.79-8.41,10.68-.34.07-.68.11-1.02.11Z" style="fill: #ff57b8;"/>
        <path d="m163.95,187.67c-.2,0-.41-.04-.61-.11-.91-.34-1.37-1.34-1.03-2.25,3.28-8.82,7.51-9.41,11.56-9.25,2.28.09,2.76.11,3.18-2.83l.71-4.86c4.38-29.8,8.92-60.61-.78-89.65-.53-1.43-1.12-2.97-1.79-4.64C153.85,21.34,122.76,12.39,97.78,5.19c-2.05-.59-6.13-.64-9.41-.67-1.14-.01-2.21-.02-3.08-.06-.97-.04-1.72-.85-1.68-1.81.04-.97.86-1.72,1.81-1.68.85.03,1.88.04,2.99.06,3.67.04,7.83.09,10.33.81,25.71,7.41,57.7,16.62,79.7,70.93.68,1.71,1.29,3.27,1.85,4.79,9.98,29.89,5.38,61.12.94,91.32l-.71,4.86c-.88,6.05-4.29,5.92-6.78,5.82-2.69-.1-5.47-.21-8.15,6.98-.26.7-.93,1.14-1.64,1.14Z" style="fill: #ff57b8;"/>
        <path d="m190.87,69.03c-.66,0-1.29-.37-1.59-1.01C164.05,14.31,116.97,6.24,97.9,5.26c-3.57-.18-18.88.58-25.9,2.09-.94.2-1.88-.4-2.08-1.34-.2-.94.4-1.88,1.34-2.08,7.4-1.59,23-2.36,26.81-2.16,19.7,1.01,68.33,9.34,94.37,64.78.41.87.03,1.92-.84,2.33-.24.11-.49.17-.74.17Z" style="fill: #ff57b8;"/>
      </g>
      <path d="m145.54,195.45c-1.56,0-3.09-.55-4.3-1.55-1.3-1.08-2.07-2.54-2.7-3.96-.44-.99-.87-2.06-1.27-3.17-1.29-3.57-2.2-7.26-3.09-10.84-.36-1.48-.73-2.96-1.12-4.43-1.45-5.43-3.24-10.03-5.48-14.07-.79-1.42-1.59-2.6-2.37-3.52-.05-.06-.1-.12-.14-.18-.5-.77-1.44-1.37-2.4-1.54-.5-.09-1.21-.1-1.85.33-1.79,1.84-2.9,4.16-4.06,6.62-1.42,3-2.89,6.1-5.74,8.64-1.68,1.35-5.17,2.93-10.4-1-.07-.05-.13-.1-.19-.16-3.94-3.94-6.87-8.97-9.71-13.83-4.83-8.29-9.4-16.12-18.38-18.33-1.31-.18-2.63-.32-3.91-.45l-.45-.05C26.69,129.72,0,117.91,0,103.87c0-.97.78-1.75,1.75-1.75s1.75.78,1.75,1.75c0,11.75,26.67,22.7,64.85,26.61l.45.05c1.34.14,2.72.28,4.13.48.06,0,.11.02.17.03,10.48,2.54,15.66,11.41,20.66,19.99,2.7,4.63,5.5,9.42,9.07,13.03,2.51,1.85,4.5,2.2,5.94,1.05,2.25-2,3.51-4.65,4.83-7.46,1.26-2.66,2.56-5.41,4.84-7.69.06-.06.12-.11.19-.16,1.29-.97,2.94-1.34,4.64-1.04,1.88.33,3.61,1.44,4.66,2.97.93,1.09,1.81,2.41,2.71,4.02,2.38,4.29,4.28,9.16,5.8,14.87.4,1.49.77,2.99,1.14,4.49.86,3.49,1.75,7.09,2.98,10.48.37,1.03.77,2.02,1.18,2.93.53,1.19,1.03,2.1,1.74,2.69.65.54,1.54.81,2.39.72.85-.09,1.66-.55,2.18-1.22.49-.63.79-1.48,1.12-2.51.18-.56.37-1.13.56-1.7.67-2.01,1.35-4.08,1.67-6.05.06-.39.09-.78.12-1.18.04-.58.09-1.17.22-1.82.22-1.08.42-2.24.64-3.66.17-1.1.33-2.2.49-3.3.56-3.9,1.13-7.93,2.32-11.83.74-2.45,1.69-4.7,2.82-6.7.03-.05.06-.11.1-.16,1.78-2.49,4.39-3.27,6.69-3.96,1.8-.54,3.35-1,4.31-2.15,4.52-5.78,8.14-12.18,11.64-18.38,3.99-7.07,8.12-14.37,13.69-20.97.62-.74,1.73-.83,2.47-.21.74.62.83,1.73.21,2.47-5.36,6.34-9.41,13.5-13.32,20.43-3.57,6.31-7.25,12.83-11.97,18.86-1.67,2-3.98,2.69-6.03,3.3-1.98.59-3.7,1.1-4.79,2.57-.98,1.76-1.82,3.75-2.47,5.91-1.11,3.64-1.66,7.54-2.2,11.31-.16,1.11-.32,2.23-.49,3.34-.23,1.47-.44,2.68-.67,3.81-.09.44-.12.9-.16,1.4-.04.49-.08.98-.16,1.48-.36,2.25-1.1,4.46-1.81,6.59-.19.56-.37,1.11-.54,1.66-.33,1.02-.77,2.43-1.69,3.6-1.11,1.42-2.77,2.35-4.57,2.54-.24.03-.47.04-.71.04Z" style="fill: #ff57b8;"/>
      <path d="m141.76,118.4c-.06,0-.12,0-.17,0-1.95-.04-3.95-.63-6.28-1.86-3.03-1.6-5.71-3.72-7.96-6.3-1.14-1.3-2.14-2.73-3.11-4.11-2.32-3.28-4.5-6.38-8.2-7.52-2.06-.63-4.32-.68-6.55-.14-1.99.48-3.48,1.5-5.2,2.69-.36.24-.72.49-1.09.74-1.71,1.14-3.69,1.02-5.43.91-.51-.03-1.03-.07-1.54-.07-.14,0-.29-.02-.42-.05-3.97-.99-7.35-3.01-10.62-4.95-4.24-2.52-8.24-4.91-13.25-5.01-.06,0-.12,0-.18-.01l-1.65-.2c-.86-.1-1.71-.21-2.56-.32-37.08-4.01-61.06-14.59-61.06-26.94,0-.84.11-1.68.32-2.5.24-.94,1.2-1.5,2.13-1.26.94.24,1.5,1.2,1.26,2.13-.14.54-.21,1.09-.21,1.63,0,10.12,23.84,19.76,57.97,23.46.87.11,1.72.21,2.57.32l1.57.19c5.89.14,10.46,2.86,14.88,5.5,3.13,1.87,6.1,3.63,9.48,4.52.52,0,1.03.04,1.54.07,1.36.09,2.54.16,3.27-.33.36-.24.71-.48,1.05-.71,1.92-1.32,3.74-2.57,6.35-3.2,2.84-.69,5.74-.62,8.4.2,4.84,1.49,7.47,5.23,10.03,8.85.96,1.36,1.87,2.65,2.89,3.82,1.97,2.26,4.31,4.11,6.96,5.51,1.83.97,3.33,1.43,4.71,1.46,1.54.03,2.93-.57,3.65-1.55.48-.66.74-1.55,1.01-2.56,1.71-6.44,3.64-13.74,8.85-19.41,4.42-4.81,10.06-9.07,16.76-12.68,3.01-1.62,6.21-3.11,9.78-4.55,1.01-.72,1.92-1.45,2.69-2.19,2.35-2.23,3.53-4.49,3.53-6.71,0-.45-.05-.9-.14-1.34-.2-.95.4-1.87,1.35-2.07.95-.2,1.87.4,2.07,1.35.14.68.22,1.38.22,2.06,0,3.22-1.56,6.33-4.62,9.25-.94.89-2.03,1.78-3.25,2.63-.11.08-.23.14-.35.19-3.52,1.42-6.67,2.87-9.62,4.46-6.36,3.42-11.69,7.44-15.85,11.96-4.63,5.03-6.37,11.59-8.05,17.94-.35,1.31-.73,2.59-1.57,3.73-1.37,1.88-3.74,2.99-6.37,2.99Zm40.79-42.7h.01-.01Z" style="fill: #ff57b8;"/>
      <path d="m98.95,53.92c-34.6,0-71.36-7.32-71.36-20.89,0-1.11.26-2.21.77-3.27.42-.87,1.46-1.24,2.33-.82.87.42,1.24,1.46.82,2.33-.29.6-.43,1.18-.43,1.77,0,8.23,27.87,17.39,67.86,17.39s67.86-9.16,67.86-17.39c0-.59-.14-1.17-.43-1.77-.42-.87-.05-1.92.82-2.33.87-.42,1.92-.05,2.33.82.51,1.07.77,2.17.77,3.28,0,13.57-36.77,20.89-71.36,20.89Z" style="fill: #ff57b8;"/>
      <path d="m98.74,22.09c-19.22,0-39.9-3.42-39.9-10.93,0-1.11.44-2.16,1.32-3.13.65-.72,1.75-.77,2.47-.13.72.65.77,1.75.13,2.47-.19.21-.42.52-.42.78,0,2.52,12.85,7.43,36.4,7.43s36.4-4.91,36.4-7.43c0-.25-.2-.58-.57-.94-.69-.68-.7-1.79-.02-2.47.68-.69,1.78-.7,2.47-.02,1.07,1.05,1.62,2.21,1.62,3.44,0,7.51-20.68,10.93-39.9,10.93Z" style="fill: #ff57b8;"/>
      <path d="m143.8,241.5c-1.02,0-2.06-.41-2.91-1.19-.92-.85-1.43-1.93-1.83-2.8-3.33-7.16-4.4-15.05-5.42-22.68-.82-6.07-1.66-12.34-3.66-18.06-.59-1.7-1.26-3.32-1.98-4.82-.25-.34-.5-.71-.76-1.08-1.26-1.84-2.26-3.14-3.27-3.06-3.26,1.4-4.91,4.95-6.19,8.17-1.64,4.09-3.47,8.43-6.32,12.57-.57.83-1.3,1.74-2.41,2.27-1.73.82-3.98.39-5.6-1.06-1.25-1.12-1.95-2.56-2.56-3.94-1.47-3.33-2.68-6.7-3.66-9.56-1.97-5.69-5.01-11.68-8.56-16.87-1.9-2.77-6.96-9.32-12.98-10.43-1.28-.23-2.58-.4-3.9-.56-29.82-3.6-52.64-12.8-61.04-24.62-.56-.79-.38-1.88.41-2.44.79-.56,1.88-.38,2.44.41,7.72,10.86,30.18,19.74,58.61,23.17,1.38.17,2.73.34,4.11.59,7.32,1.34,13.09,8.76,15.24,11.89,3.73,5.44,6.92,11.73,8.99,17.71.96,2.79,2.14,6.07,3.56,9.29.47,1.08.96,2.09,1.69,2.75.56.5,1.32.71,1.77.5.36-.17.72-.64,1.02-1.08,2.64-3.84,4.39-7.98,5.95-11.88,1.7-4.24,3.88-8.41,8.32-10.19.1-.04.2-.07.31-.09,3.41-.68,5.46,2.31,6.97,4.49.26.38.52.76.78,1.11.07.09.12.18.17.28.81,1.67,1.55,3.46,2.2,5.34,2.11,6.05,2.98,12.5,3.82,18.74,1.04,7.71,2.02,14.99,5.13,21.66.3.65.62,1.33,1.03,1.71.24.22.5.28.57.26.45-.3,1.1-2.13,1.35-2.82.1-.28.19-.53.27-.75.76-1.96,1.48-4.08,2.12-6.28,1.15-3.93,2.1-8.18,3-13.39.33-1.93.64-3.88.93-5.83.76-13.89,2.2-39.62,21.14-39.3,5.46.07,9.74-10.52,12.85-18.26,1.15-2.86,2.24-5.57,3.3-7.61.45-.86,1.5-1.19,2.36-.74.86.45,1.19,1.5.74,2.36-.98,1.88-2.04,4.51-3.15,7.29-3.68,9.17-8.31,20.59-16.16,20.46-14.4-.22-16.63,18.49-17.59,36.07,0,.05,0,.11-.02.16-.3,2-.61,4-.96,5.99-.92,5.34-1.9,9.72-3.09,13.78-.67,2.3-1.42,4.51-2.22,6.57-.07.19-.15.41-.24.65-.61,1.7-1.43,4.03-3.21,4.83-.47.21-.97.31-1.47.31Z" style="fill: #ff57b8;"/>
    </g>
  </g>
</svg>