<?xml version="1.0" encoding="UTF-8"?>
<svg id="Layer_2" data-name="Layer 2" xmlns="http://www.w3.org/2000/svg" viewBox="0 0 191.56 191.56">
  <g id="_ÎÓÈ_1" data-name="—ÎÓÈ_1">
    <g>
      <g>
        <path d="m116.29,190.81c-.5,0-1.01-.19-1.39-.57-.79-.77-.81-2.04-.04-2.83,10.79-11.1,18.03-27.51,20.38-46.21,2.01-28.66-25-44.71-52.67-47.9-8.24-.82-15.46-5.1-20.83-12.37-7.82-10.57-11-26.73-8.12-41.17,3.47-15.04,10.36-28.25,19.93-38.27.76-.8,2.03-.83,2.83-.06.8.76.83,2.03.06,2.83-9.08,9.5-15.62,22.07-18.91,36.35-2.66,13.33.24,28.25,7.42,37.95,4.69,6.34,10.93,10.06,18.05,10.78,29.62,3.42,58.47,20.88,56.23,52.21,0,.04,0,.07-.01.11-1.73,13.85-6.86,33.52-21.49,48.55-.39.4-.91.61-1.43.61Z" style="fill: #ff57b8;"/>
        <path d="m54.54,139.04c-18.42,0-37.63-7.46-52.77-20.46-.84-.72-.93-1.98-.21-2.82.72-.84,1.98-.93,2.82-.21,14.43,12.39,32.69,19.5,50.1,19.5,25.93-.79,32.65-20.6,39.78-41.58,2.22-6.52,4.51-13.27,7.41-19.34,5.34-11.44,14.99-18.69,27.9-20.94,19.68-3.43,45.27,5.47,60.85,21.16.78.78.77,2.05-.01,2.83-.78.78-2.05.77-2.83-.01-14.73-14.84-38.84-23.26-57.33-20.04-11.57,2.02-20.2,8.48-24.97,18.71-2.81,5.87-5.06,12.5-7.24,18.92-7.25,21.35-14.75,43.42-43.51,44.29Z" style="fill: #ff57b8;"/>
        <path d="m44.99,178.26c-1.1,0-2-.89-2-2,0-1.1.89-2,2-2,20.62-.02,43.41-11.85,54.18-28.14,5.17-7.82,9.99-20.34,3.55-35.52-2.07-4.72-5.04-9.36-8.2-14.27-7.95-12.39-16.97-26.44-10.34-43.83,10.76-26.3,39.56-37.34,62.94-38.91,1.1-.07,2.06.76,2.13,1.86.07,1.1-.76,2.06-1.86,2.13-22.17,1.49-49.44,11.84-59.49,36.39-5.89,15.46,2.18,28.04,9.99,40.2,3.1,4.83,6.3,9.82,8.5,14.85,5.66,13.33,4.31,26.92-3.89,39.31-11.46,17.33-35.65,29.91-57.51,29.93h0Z" style="fill: #ff57b8;"/>
        <path d="m175.89,149.46s-.02,0-.03,0c-1.1-.02-1.99-.93-1.97-2.03.33-21.43-11.72-44.81-28.65-55.58-8.24-5.25-21.46-9.85-37.63-2-4.47,2.06-8.55,4.99-12.87,8.08-9.11,6.52-18.53,13.26-31.78,11.71-14.71-2.1-27.28-10.17-36.4-23.35-7.98-11.53-12.72-26.09-13.35-41.01-.05-1.1.81-2.04,1.91-2.08,1.1-.05,2.04.81,2.08,1.91,1.14,26.97,17.4,56.44,46.27,60.56,11.66,1.37,20.05-4.63,28.94-10.99,4.28-3.06,8.71-6.23,13.49-8.44,14.08-6.84,28.44-6.07,41.49,2.24,18.02,11.47,30.85,36.29,30.5,59.02-.02,1.09-.91,1.97-2,1.97Z" style="fill: #ff57b8;"/>
      </g>
      <g>
        <path d="m150.08,176.1c-.2,0-.41-.03-.62-.1-1.05-.34-1.63-1.47-1.28-2.52,7.75-23.84,5.99-46.03-4.97-62.5-8.36-11.12-22.72-21.05-37.98-15.6-.05.02-.1.03-.16.05-16.51,4.4-33.57,8.95-49.58-2.48-.03-.02-.06-.04-.09-.07-23.8-19.04-26.24-52.46-16.35-75.64.43-1.02,1.61-1.49,2.62-1.05,1.02.43,1.49,1.61,1.05,2.62-9.29,21.77-7.08,53.11,15.12,70.91,14.44,10.28,29.82,6.2,46.1,1.86,17.3-6.13,33.28,4.78,42.48,17.04.02.03.04.06.06.09,11.68,17.51,13.62,40.95,5.47,66-.27.84-1.06,1.38-1.9,1.38Z" style="fill: #ff57b8;"/>
        <path d="m44.59,157.38c-9.15,0-18.49-1.56-27.13-4.72-1.04-.38-1.57-1.53-1.19-2.57.38-1.04,1.53-1.57,2.57-1.19,18.85,6.9,41.1,5.79,56.7-2.84,11.47-6.34,18.95-16.38,21.63-29.02,1.52-7.08-.77-13.7-3.2-20.7-2.5-7.22-5.08-14.68-3.33-22.85,2.81-13.66,10.7-24.44,22.8-31.16,16.62-9.23,40.75-10.25,61.48-2.6,1.04.38,1.57,1.53,1.18,2.57-.38,1.04-1.53,1.57-2.57,1.18-19.68-7.27-42.51-6.35-58.15,2.34-11.21,6.23-18.22,15.81-20.83,28.49-1.52,7.09.77,13.71,3.2,20.72,2.5,7.22,5.08,14.68,3.33,22.85-2.93,13.8-11.09,24.76-23.6,31.69-9.37,5.18-20.97,7.82-32.88,7.82Z" style="fill: #ff57b8;"/>
        <path d="m79.32,191.56c-.75,0-1.46-.42-1.8-1.14-.48-1-.06-2.19.94-2.67,19.49-9.34,33.49-24.86,39.44-43.69,6.97-24.41-9.99-37.47-27.94-51.29-3.18-2.45-6.48-4.99-9.53-7.53-14.61-11.23-14.1-32.79-7.09-49.14.02-.04.03-.07.05-.11C81.1,20.55,94.33,8.17,111.64.18c1-.46,2.19-.02,2.65.98.46,1,.02,2.19-.98,2.65-16.46,7.59-29.02,19.31-36.33,33.91-6.38,14.93-7.01,34.42,5.94,44.39,3.06,2.55,6.32,5.06,9.48,7.49,17.38,13.38,37.07,28.54,29.33,55.62-6.3,19.96-21.05,36.33-41.54,46.15-.28.13-.57.2-.86.2Z" style="fill: #ff57b8;"/>
        <path d="m61.01,122.72c-24.84,0-48.72-16.47-60.82-41.97-.47-1-.05-2.19.95-2.66,1-.47,2.19-.05,2.66.95,11.27,23.73,34.26,39.68,57.21,39.68,15.29,0,23.09-11.02,31.34-22.68,3.94-5.57,8.02-11.33,13.02-15.98,10.33-9.93,23.19-13.65,37.16-10.75,19.96,4.15,40.05,21.82,48.86,42.97.42,1.02-.06,2.19-1.08,2.62-1.02.43-2.19-.06-2.62-1.08-8.33-20-27.24-36.7-45.98-40.6-12.62-2.63-24.24.74-33.6,9.74-4.73,4.39-8.68,9.98-12.51,15.38-8.48,11.98-17.24,24.37-34.61,24.37Z" style="fill: #ff57b8;"/>
      </g>
    </g>
  </g>
</svg>