<?xml version="1.0" encoding="UTF-8"?>
<svg id="Layer_2" data-name="Layer 2" xmlns="http://www.w3.org/2000/svg" viewBox="0 0 530.17 236.91">
  <g id="_ÎÓÈ_1" data-name="—ÎÓÈ_1">
    <g>
      <path d="m265.09,236.91c-70.38,0-136.57-5.88-186.38-16.57C42.8,212.64,0,199.11,0,178.36s42.8-34.28,78.71-41.99c49.81-10.68,116-16.57,186.38-16.57s136.57,5.88,186.38,16.57c35.91,7.7,78.71,21.24,78.71,41.99s-42.8,34.28-78.71,41.98c-49.81,10.68-116,16.57-186.38,16.57Zm0-112.81c-70.09,0-135.96,5.85-185.47,16.47-47.86,10.27-75.31,24.04-75.31,37.78s27.45,27.51,75.31,37.78c49.52,10.62,115.39,16.47,185.47,16.47s135.95-5.85,185.47-16.47c47.86-10.27,75.31-24.04,75.31-37.78s-27.45-27.51-75.31-37.78c-49.52-10.62-115.39-16.47-185.47-16.47Z" style="fill: #ff57b8;"/>
      <path d="m265.09,177.01c-70.38,0-136.57-5.88-186.38-16.57C42.8,152.74,0,139.2,0,118.46s42.8-34.28,78.71-41.99c49.81-10.68,116-16.57,186.38-16.57s136.57,5.88,186.38,16.57c35.91,7.7,78.71,21.24,78.71,41.99s-42.8,34.28-78.71,41.99c-49.81,10.68-116,16.57-186.38,16.57Zm0-112.81c-70.09,0-135.96,5.85-185.47,16.47C31.75,90.94,4.3,104.71,4.3,118.46s27.45,27.51,75.31,37.78c49.52,10.62,115.39,16.47,185.47,16.47s135.95-5.85,185.47-16.47c47.86-10.27,75.31-24.04,75.31-37.78s-27.45-27.51-75.31-37.78c-49.52-10.62-115.39-16.47-185.47-16.47Z" style="fill: #ff57b8;"/>
      <path d="m265.09,117.11c-70.38,0-136.57-5.88-186.38-16.57C42.8,92.84,0,79.3,0,58.55S42.8,24.27,78.71,16.57C128.52,5.88,194.71,0,265.09,0s136.57,5.88,186.38,16.57c35.91,7.7,78.71,21.24,78.71,41.98s-42.8,34.28-78.71,41.99c-49.81,10.68-116,16.57-186.38,16.57Zm0-112.81c-70.09,0-135.96,5.85-185.47,16.47C31.75,31.04,4.3,44.81,4.3,58.55s27.45,27.51,75.31,37.78c49.52,10.62,115.39,16.47,185.47,16.47s135.95-5.85,185.47-16.47c47.86-10.27,75.31-24.04,75.31-37.78s-27.45-27.51-75.31-37.78c-49.52-10.62-115.39-16.47-185.47-16.47Z" style="fill: #ff57b8;"/>
    </g>
  </g>
</svg>