<?xml version="1.0" encoding="UTF-8"?>
<svg id="Layer_2" data-name="Layer 2" xmlns="http://www.w3.org/2000/svg" viewBox="0 0 168.29 168.29">
  <g id="_ÎÓÈ_1" data-name="—ÎÓÈ_1">
    <path d="m84.15,168.29c-1.04,0-1.93-.74-2.12-1.77l-9.72-53.81-44.92,31.18c-.86.59-2.01.49-2.75-.25-.74-.74-.84-1.89-.25-2.75l31.18-44.92L1.77,86.26c-1.02-.18-1.77-1.08-1.77-2.12s.75-1.93,1.77-2.12l53.81-9.72L24.4,27.39c-.59-.85-.49-2.01.25-2.75.73-.74,1.89-.84,2.75-.25l44.92,31.18L82.03,1.77c.19-1.02,1.08-1.77,2.12-1.77s1.93.74,2.12,1.77l9.72,53.81,44.92-31.18c.85-.59,2.01-.49,2.75.25.74.74.84,1.89.25,2.75l-31.18,44.92,53.81,9.72c1.02.18,1.77,1.08,1.77,2.12s-.75,1.93-1.77,2.12l-53.81,9.72,31.18,44.92c.59.85.49,2.01-.25,2.75-.74.74-1.89.84-2.75.25l-44.92-31.18-9.72,53.81c-.19,1.02-1.08,1.77-2.12,1.77Zm-10.31-61.4c.28,0,.56.05.82.16.68.28,1.16.88,1.29,1.6l8.19,45.39,8.19-45.39c.13-.72.62-1.32,1.29-1.6.68-.28,1.45-.2,2.05.22l37.89,26.3-26.3-37.89c-.42-.6-.5-1.37-.22-2.05.28-.68.88-1.16,1.6-1.29l45.38-8.19-45.38-8.19c-.72-.13-1.32-.62-1.6-1.29-.28-.68-.2-1.45.22-2.05l26.3-37.89-37.89,26.3c-.6.42-1.37.5-2.05.22-.68-.28-1.16-.88-1.29-1.6l-8.19-45.39-8.19,45.39c-.13.72-.62,1.32-1.29,1.6-.68.28-1.45.2-2.05-.22l-37.89-26.3,26.3,37.89c.42.6.5,1.37.22,2.05s-.88,1.16-1.6,1.29l-45.39,8.19,45.39,8.19c.72.13,1.32.62,1.6,1.29s.2,1.45-.22,2.05l-26.3,37.89,37.89-26.3c.37-.25.79-.38,1.23-.38Z" style="fill: #ff57b8;"/>
  </g>
</svg>