<?xml version="1.0" encoding="UTF-8"?>
<svg id="Layer_2" data-name="Layer 2" xmlns="http://www.w3.org/2000/svg" viewBox="0 0 597.52 353.42">
  <g id="_ÎÓÈ_1" data-name="—ÎÓÈ_1">
    <g>
      <path d="m207.9,353.42c-43.58,0-81.19-6.06-112.47-18.17-51.44-19.92-83.53-56.03-92.79-104.44C-11.31,157.9,23.44,61.15,268.24,14.3c244.8-46.84,312.82,30.24,326.77,103.15,9.26,48.4-7.22,93.81-47.68,131.32-45.33,42.02-118.23,72.88-216.67,91.72-45.03,8.62-86.02,12.92-122.76,12.92ZM6.08,230.15c9.02,47.16,40.36,82.37,90.62,101.83,57.02,22.08,135.52,23.79,233.3,5.07,97.79-18.71,170.11-49.28,214.95-90.85,39.52-36.64,55.65-80.94,46.62-128.09C571.99,15.8,460.41-18.91,268.9,17.74,77.38,54.39-13.5,127.84,6.08,230.15Z" style="fill: #ff57b8;"/>
      <path d="m201.4,141.11c-9.56,0-18.61-.4-27.03-1.2-32.67-3.13-52.06-12.17-54.6-25.47-5.19-27.13,61.59-61.94,152.03-79.25,42.78-8.19,83.96-11.01,115.94-7.95,32.67,3.13,52.06,12.17,54.6,25.47,2.54,13.29-12.14,28.86-41.34,43.83-28.6,14.65-67.91,27.23-110.69,35.42-31.52,6.03-62.17,9.15-88.91,9.15Zm-78.19-27.33c2.19,11.46,20.96,19.72,51.5,22.64,31.66,3.03,72.49.22,114.95-7.9,42.46-8.13,81.44-20.59,109.75-35.1,27.3-13.99,41.7-28.59,39.5-40.05-2.19-11.46-20.96-19.72-51.5-22.64-31.66-3.03-72.49-.22-114.95,7.9-42.46,8.13-81.44,20.59-109.75,35.1-27.3,13.99-41.7,28.59-39.5,40.05Z" style="fill: #ff57b8;"/>
      <path d="m162.81,138.45c-.34,0-.68-.1-.98-.3-4.39-2.99-6.59-5.98-7.36-10-2.07-10.82,9.84-23.45,33.54-35.55,23.09-11.79,54.81-21.92,89.32-28.52,73.09-13.99,133.64-7.76,137.84,14.18.71,3.71-.2,7.64-2.69,11.7-.51.82-1.58,1.08-2.41.57-.82-.51-1.08-1.58-.57-2.41,2.02-3.29,2.77-6.39,2.23-9.21-3.7-19.35-64.95-24.57-133.74-11.4-34.2,6.54-65.59,16.56-88.39,28.2-21.87,11.16-33.42,22.75-31.69,31.77.59,3.06,2.29,5.31,5.89,7.77.8.54,1,1.63.46,2.43-.34.5-.89.76-1.45.76Z" style="fill: #ff57b8;"/>
      <path d="m187.29,140.8c-.5,0-1-.22-1.35-.64-.62-.75-.51-1.85.24-2.46,18.11-14.95,55.03-29.14,96.34-37.05,42.22-8.08,82.22-8.37,104.38-.75.91.31,1.4,1.31,1.09,2.22-.31.91-1.31,1.4-2.22,1.09-21.62-7.43-60.93-7.09-102.59.88-40.77,7.8-77.08,21.71-94.77,36.31-.33.27-.72.4-1.11.4Z" style="fill: #ff57b8;"/>
      <path d="m182.51,148.68c-11.96,0-23.29-.51-33.82-1.54-40.04-3.91-63.81-15.04-66.93-31.32h0c-3.12-16.29,14.87-35.4,50.64-53.82,35.17-18.11,83.53-33.63,136.17-43.7,52.65-10.07,103.32-13.5,142.69-9.66,40.04,3.91,63.81,15.03,66.93,31.32,3.12,16.29-14.87,35.4-50.64,53.82-35.17,18.11-83.53,33.63-136.17,43.7-38.57,7.38-76.09,11.2-108.87,11.2ZM377.42,10.61c-32.55,0-69.83,3.79-108.2,11.14-52.33,10.01-100.35,25.42-135.23,43.38-33.77,17.39-51.56,35.63-48.8,50.05,2.76,14.42,26.03,24.8,63.83,28.5,39.04,3.81,89.36.4,141.69-9.61,52.33-10.01,100.35-25.42,135.23-43.38,33.77-17.39,51.56-35.63,48.8-50.05-2.76-14.42-26.03-24.8-63.83-28.5-10.42-1.02-21.64-1.52-33.49-1.52Z" style="fill: #ff57b8;"/>
      <path d="m164.19,171.12c-14.93,0-29.04-.66-42.13-2.01-47.79-4.9-76.17-18.43-79.93-38.08-2.5-13.06,6.24-27.9,25.28-42.92.76-.6,1.86-.47,2.46.29.6.76.47,1.86-.29,2.46-17.95,14.15-26.25,27.82-24.01,39.51,3.4,17.74,31.41,30.59,76.85,35.26,46.78,4.8,107.04.84,169.68-11.14,62.63-11.98,120.09-30.55,161.8-52.29,40.51-21.11,61.8-43.4,58.41-61.14-2.37-12.36-17.19-24.35-37.77-30.55-.93-.28-1.45-1.26-1.17-2.18s1.26-1.45,2.18-1.17c21.81,6.57,37.59,19.63,40.2,33.25,3.76,19.65-17.63,42.7-60.23,64.9-42,21.89-99.8,40.58-162.76,52.62-45.47,8.7-89.74,13.19-128.56,13.19Z" style="fill: #ff57b8;"/>
      <path d="m156.8,204.76c-18.76,0-36.47-.93-52.77-2.8-54.52-6.27-87-22.53-91.45-45.79-.37-1.94-.58-3.5-.52-5.7.02-.97.83-1.73,1.79-1.71.97.02,1.73.83,1.71,1.79-.05,1.91.12,3.17.46,4.96,4.08,21.32,36.3,36.98,88.41,42.97,53.53,6.16,122.37,2.01,193.85-11.66,71.48-13.68,136.99-35.24,184.46-60.73,46.22-24.81,70.38-51.26,66.3-72.58-1.22-6.37-4.88-12.27-10.89-17.54-.73-.64-.8-1.74-.16-2.47.64-.73,1.74-.8,2.47-.16,6.61,5.8,10.66,12.36,12.02,19.51,4.45,23.26-19.73,50.36-68.09,76.32-47.78,25.65-113.64,47.34-185.46,61.08-50.08,9.58-98.9,14.51-142.14,14.51Z" style="fill: #ff57b8;"/>
      <path d="m160.58,246.05c-87.06,0-149.91-18.7-160.07-52.64-.28-.93.25-1.9,1.17-2.18.92-.28,1.9.25,2.18,1.17,7.03,23.47,42.07,40.12,98.67,46.89,57.29,6.85,130.29,2.7,205.56-11.71,76.98-14.73,147.45-38.41,198.42-66.69,50.41-27.97,75.59-56.88,70.9-81.43-.15-.77-.33-1.54-.53-2.3-.25-.93.3-1.89,1.23-2.15.93-.25,1.89.3,2.15,1.23.23.84.43,1.7.59,2.56,5,26.15-20.79,56.39-72.64,85.15-51.29,28.45-122.12,52.27-199.46,67.07-53.16,10.17-103.81,15.03-148.16,15.03Z" style="fill: #ff57b8;"/>
      <path d="m169.83,288.18c-19.41,0-37.89-.92-55.09-2.77-57.43-6.18-96.49-22.35-110-45.53-.49-.84-.2-1.91.63-2.39.84-.49,1.91-.2,2.39.63,12.93,22.19,51.05,37.75,107.35,43.81,57.15,6.15,128.56,1.9,201.07-11.98,78.72-15.06,150.7-39.69,202.68-69.35,51.44-29.35,77.02-59.93,72.01-86.11-.18-.95.44-1.87,1.39-2.05.95-.18,1.87.44,2.05,1.39,5.31,27.77-20.86,59.66-73.71,89.81-52.31,29.84-124.67,54.61-203.76,69.75-51.04,9.77-101.57,14.79-147.02,14.79Z" style="fill: #ff57b8;"/>
      <path d="m179.36,322.66c-66.21,0-120.06-10.83-148.49-31.72-.78-.57-.95-1.67-.37-2.45.57-.78,1.67-.95,2.45-.37,22.02,16.18,62.15,26.83,113.02,29.99,52.83,3.28,113.99-1.35,176.88-13.38,66.09-12.65,126.94-32.03,175.98-56.06,47.34-23.2,79.69-49.2,91.06-73.22.41-.87,1.46-1.25,2.33-.83.87.41,1.25,1.46.83,2.33-24.43,51.57-135.27,105.53-269.55,131.22-50.92,9.74-100.25,14.51-144.14,14.51Z" style="fill: #ff57b8;"/>
      <path d="m196.46,345.24c-4.46,0-8.86-.05-13.21-.16-43.27-1.07-80.26-7.45-106.95-18.45-.89-.37-1.32-1.39-.95-2.28.37-.89,1.39-1.32,2.28-.95,54.16,22.31,149.87,24.29,249.78,5.18,107.95-20.66,202.05-62.62,239.73-106.92.63-.74,1.73-.82,2.47-.2.74.63.83,1.73.2,2.47-38.17,44.86-133.05,87.29-241.74,108.09-45.49,8.7-90.68,13.24-131.6,13.24Z" style="fill: #ff57b8;"/>
      <g>
        <path d="m304.72,344.91c-15.52,0-29.22-86.73-31.83-104.32-4.37-29.36-7.02-56-7.46-75-.69-29.49,3.9-33.59,7.41-34.11.95-.14,1.85.52,1.99,1.47.14.96-.52,1.85-1.47,1.99-.52.08-5.1,1.6-4.43,30.57.44,18.86,3.08,45.34,7.43,74.57,10.35,69.6,22.88,101.34,28.28,101.35.07,0,.13,0,.2-.01.96-.14,1.85.52,1.99,1.47.14.96-.52,1.85-1.47,1.99-.21.03-.41.05-.61.05Z" style="fill: #ff57b8;"/>
        <path d="m256.49,350.8c-10.51,0-20.26-10.35-28.26-30.07-7.63-18.8-13.25-45.3-15.83-74.62-5.47-62.11,6.44-108.58,28.3-110.5.96-.08,1.81.63,1.9,1.59.09.96-.63,1.81-1.59,1.9-19.52,1.72-30.32,47.59-25.12,106.71,2.55,28.98,8.09,55.12,15.59,73.61,7.61,18.77,16.89,28.66,26.13,27.84.96-.08,1.81.63,1.9,1.59.09.96-.63,1.81-1.59,1.9-.47.04-.95.06-1.42.06Z" style="fill: #ff57b8;"/>
        <path d="m215.92,352.95c-17.28,0-32.15-10.58-43.03-30.65-10.29-18.97-16.23-45.58-16.74-74.93-1.13-65.11,20.87-109.26,54.75-109.85.95-.02,1.76.75,1.78,1.72.02.97-.75,1.76-1.72,1.78-20.2.35-32.12,17.2-38.56,31.27-8.74,19.08-13.27,45.73-12.76,75.01.5,28.8,6.3,54.84,16.32,73.32,10.23,18.87,24.04,28.82,39.97,28.82.22,0,.44,0,.67,0,.95-.02,1.76.75,1.78,1.72.02.97-.75,1.76-1.72,1.78-.25,0-.5,0-.74,0Z" style="fill: #ff57b8;"/>
        <path d="m172.84,351.5c-.09,0-.18,0-.27-.02-44.9-7-70.5-49.57-66.83-111.09,1.7-28.46,10.64-54.8,25.17-74.17,14.56-19.4,33.09-29.75,52.18-29.14.97.03,1.72.84,1.69,1.81-.03.97-.83,1.73-1.81,1.69-17.91-.57-35.41,9.28-49.26,27.74-14.12,18.83-22.81,44.5-24.47,72.28-3.56,59.56,20.92,100.72,63.88,107.42.95.15,1.61,1.04,1.46,2-.13.86-.88,1.48-1.73,1.48Z" style="fill: #ff57b8;"/>
        <path d="m107.58,338.92c-.12,0-.24-.01-.36-.04-20.21-4.26-53.22-53.01-43.53-105.84,10.79-58.81,48.81-98.54,94.61-98.87.93,0,1.76.77,1.76,1.74,0,.97-.77,1.76-1.74,1.76-44.07.31-80.72,38.89-91.19,96-5.57,30.37,3.96,56.05,10.14,68.65,8.58,17.51,21.2,31.14,30.68,33.14.95.2,1.55,1.13,1.35,2.07-.17.82-.9,1.39-1.71,1.39Z" style="fill: #ff57b8;"/>
        <path d="m75.71,325.54c-.29,0-.58-.07-.85-.22-12.03-6.71-54.6-43.78-43.1-102.63,6.72-34.38,22.31-59.95,46.34-76.01,24.56-16.41,50.23-17.7,63.35-17,.97.05,1.71.87,1.66,1.84-.05.97-.88,1.71-1.84,1.66-42.31-2.24-92.4,20.28-106.06,90.19-11.1,56.78,29.81,92.45,41.37,98.9.84.47,1.15,1.54.68,2.38-.32.57-.92.9-1.53.9Z" style="fill: #ff57b8;"/>
        <path d="m17.11,268.3c-.7,0-1.36-.42-1.63-1.12-11.28-29.03-7.63-63.98,9.76-93.5,12.77-21.68,34.22-38.64,58.85-46.53,26.11-8.37,52.78-5.79,75.11,7.26.83.49,1.12,1.56.63,2.39s-1.56,1.12-2.39.63c-47.5-27.78-105.14-2.76-129.17,38.03-16.85,28.6-20.41,62.42-9.52,90.46.35.9-.1,1.92-1,2.27-.21.08-.42.12-.63.12Z" style="fill: #ff57b8;"/>
        <path d="m281.3,133.51c-.83,0-1.56-.59-1.72-1.43-.13-.73-13.62-73.16-29.85-111.87-.37-.89.05-1.92.94-2.29.89-.37,1.92.05,2.29.94,16.38,39.06,29.93,111.86,30.07,112.59.18.95-.45,1.86-1.4,2.04-.11.02-.21.03-.32.03Z" style="fill: #ff57b8;"/>
        <path d="m262.45,135.71c-.8,0-1.53-.56-1.71-1.38-.18-.83-18.5-83.14-44.82-99.38-4.07-2.51-7.99-3.24-11.97-2.23-.94.24-1.89-.33-2.13-1.26-.24-.94.33-1.89,1.26-2.13,4.88-1.24,9.82-.35,14.67,2.64,27.58,17.02,45.64,98.16,46.4,101.61.21.94-.39,1.88-1.33,2.08-.13.03-.25.04-.38.04Z" style="fill: #ff57b8;"/>
        <path d="m244.07,138.67c-.78,0-1.5-.53-1.7-1.32-.17-.68-17.47-68.05-51.34-87.69-9.28-5.38-19.08-6.69-29.11-3.87-.93.26-1.9-.28-2.16-1.21-.26-.93.28-1.9,1.21-2.16,10.98-3.08,21.68-1.66,31.81,4.22,35.14,20.38,52.26,87.03,52.97,89.86.24.94-.33,1.89-1.27,2.12-.14.04-.29.05-.43.05Z" style="fill: #ff57b8;"/>
        <path d="m226.54,140.12c-.75,0-1.44-.48-1.67-1.23-.18-.59-18.69-58.86-56.5-76.76-14.42-6.82-29.96-6.95-46.19-.37-.9.36-1.92-.07-2.28-.96-.36-.9.07-1.92.96-2.28,17.18-6.96,33.67-6.81,49.01.45,39.21,18.56,57.58,76.42,58.34,78.88.29.92-.23,1.9-1.15,2.19-.17.05-.35.08-.52.08Z" style="fill: #ff57b8;"/>
        <path d="m210.84,140.53c-.66,0-1.3-.38-1.59-1.02-.24-.52-24.41-52.16-65.3-66.21-17.73-6.09-36.17-4.28-54.82,5.37-.86.44-1.91.11-2.36-.75-.44-.86-.11-1.91.75-2.36,19.54-10.11,38.91-11.98,57.58-5.56,42.31,14.54,66.32,65.87,67.32,68.05.4.88.02,1.92-.86,2.32-.24.11-.49.16-.73.16Z" style="fill: #ff57b8;"/>
        <path d="m197.37,141c-.6,0-1.18-.31-1.51-.86-.13-.22-13.04-21.89-35.2-38.48-29.5-22.08-60.56-25.17-92.34-9.18-.86.43-1.92.09-2.35-.78-.43-.86-.09-1.92.78-2.35,41.22-20.73,75.01-6.24,96.09,9.57,22.7,17.02,35.9,39.22,36.04,39.44.49.83.21,1.91-.62,2.4-.28.16-.58.24-.89.24Z" style="fill: #ff57b8;"/>
        <path d="m184.02,140.27c-.56,0-1.12-.27-1.45-.77-.13-.2-13.51-19.82-37.3-32.72-31.78-17.24-66.11-14.98-102.05,6.71-.83.5-1.9.23-2.4-.59-.5-.83-.23-1.9.59-2.4,46.24-27.92,82.98-19.07,105.65-6.73,24.51,13.34,37.86,32.95,38.42,33.78.54.8.33,1.89-.48,2.43-.3.2-.64.3-.97.3Z" style="fill: #ff57b8;"/>
        <path d="m16.26,148.42c-.39,0-.78-.13-1.1-.39-.75-.61-.86-1.71-.25-2.46,30.06-36.93,64.74-42.7,88.54-41.04,33.96,2.37,63.11,20.82,70.27,32.67.5.83.23,1.9-.59,2.4-.83.5-1.9.23-2.4-.59-5.95-9.85-33.6-28.62-67.51-30.99-22.98-1.61-56.47,3.99-85.58,39.76-.35.42-.85.65-1.36.65Z" style="fill: #ff57b8;"/>
        <path d="m2.25,199.44c-.17,0-.35-.03-.53-.08-.92-.29-1.43-1.27-1.14-2.19,18.64-59.21,56.42-77.07,84.83-81.63,35.48-5.69,69.48,7.8,78.23,19.98.56.78.38,1.88-.4,2.44-.78.56-1.88.39-2.44-.4-8.23-11.45-40.68-24.05-74.84-18.57-27.44,4.4-63.94,21.72-82.05,79.22-.24.75-.93,1.22-1.67,1.22Z" style="fill: #ff57b8;"/>
      </g>
      <g>
        <path d="m355.27,335.37c-.79,0-1.51-.54-1.7-1.35-.22-.94.36-1.88,1.3-2.1.53-.12,5.07-2.04,2.34-30.99-1.83-19.37-6.48-45.58-13.11-73.82-17.38-74.07-31.32-99.92-36.03-98.82-.94.22-1.88-.36-2.1-1.3-.22-.94.36-1.88,1.3-2.1,3.46-.81,9.24,1.31,19.48,28.97,6.6,17.82,13.97,43.56,20.75,72.46,6.66,28.38,11.34,54.77,13.18,74.29,2.78,29.42-1.54,33.91-5.02,34.73-.13.03-.27.05-.4.05Z" style="fill: #ff57b8;"/>
        <path d="m401.51,323.48c-.75,0-1.45-.49-1.68-1.25-.28-.93.25-1.9,1.18-2.18,18.23-5.45,18.82-51.68,1.41-109.94-8.2-27.46-19.14-51.74-30.79-68.39-11.59-16.56-22.94-24.2-31.95-21.5-.93.28-1.9-.25-2.18-1.18-.28-.93.25-1.9,1.18-2.18,10.73-3.21,23.12,4.7,35.82,22.85,11.86,16.95,22.97,41.59,31.27,69.4,8.42,28.18,12.96,54.93,12.79,75.32-.19,22.32-5.91,35.8-16.55,38.97-.17.05-.34.07-.5.07Z" style="fill: #ff57b8;"/>
        <path d="m440.55,310.45c-.71,0-1.37-.43-1.64-1.13-.34-.9.12-1.91,1.02-2.26,15.17-5.72,24.57-20.24,27.17-41.97,2.51-21-1.7-47.41-11.86-74.36-10.38-27.52-24.37-50.71-39.38-65.3-11.13-10.81-28.35-22.21-47.19-15.11-.9.34-1.91-.12-2.26-1.02-.34-.9.12-1.91,1.02-2.26,16.27-6.14,33.86-.65,50.87,15.87,15.37,14.94,29.66,38.58,40.22,66.58,10.36,27.46,14.64,54.46,12.07,76.01-2.77,23.11-12.94,38.61-29.41,44.83-.2.08-.41.11-.62.11Z" style="fill: #ff57b8;"/>
        <path d="m480.89,292.98c-.6,0-1.18-.31-1.51-.86-.49-.83-.21-1.91.62-2.4,37.49-22.11,45.01-69.56,19.61-123.83-11.8-25.22-29.38-45.9-49.5-58.23-19.74-12.1-39.66-14.83-56.1-7.69-.89.39-1.92-.02-2.3-.91-.39-.89.02-1.92.91-2.3,17.51-7.62,38.58-4.8,59.32,7.91,20.7,12.69,38.75,33.9,50.84,59.73,26.23,56.04,18.19,105.21-21,128.32-.28.16-.59.24-.89.24Z" style="fill: #ff57b8;"/>
        <path d="m536.88,257.34c-.54,0-1.07-.25-1.41-.72-.57-.78-.4-1.87.38-2.45,15.86-11.63,27.15-67.47.35-110.27-30.38-48.5-80.24-71.23-121.25-55.28-.9.35-1.91-.1-2.27-1-.35-.9.1-1.91,1-2.27,21.04-8.19,44.25-7.05,67.09,3.29,22.78,10.31,42.97,28.77,58.39,53.39,16.87,26.93,17.46,55.2,16.31,69.65-1.64,20.6-8.69,38.8-17.56,45.3-.31.23-.67.34-1.03.34Z" style="fill: #ff57b8;"/>
        <path d="m561.48,232.59c-.39,0-.78-.13-1.11-.39-.75-.61-.86-1.71-.25-2.46,8.36-10.26,33.21-58.52,1.93-107.18-18.44-28.7-41.63-46.3-68.92-52.33-28.02-6.19-51.46,1.74-62.94,7.02-.88.4-1.92.02-2.32-.86-.4-.88-.02-1.92.86-2.32,11.88-5.46,36.14-13.67,65.16-7.26,28.22,6.24,52.15,24.36,71.11,53.86,32.42,50.44,6.54,100.61-2.16,111.29-.35.42-.85.64-1.36.64Z" style="fill: #ff57b8;"/>
        <path d="m595.15,157.69c-.96,0-1.74-.77-1.75-1.74-.23-29.87-16.14-59.96-42.58-80.49-37.41-29.05-100-31.31-133.56,11.61-.6.76-1.7.9-2.46.3-.76-.6-.9-1.69-.3-2.46,15.9-20.34,39.65-32.46,66.87-34.11,25.58-1.56,51.67,6.42,71.6,21.89,27.27,21.18,43.7,52.29,43.93,83.23,0,.97-.77,1.76-1.74,1.76h-.01Z" style="fill: #ff57b8;"/>
        <path d="m299.52,130.02c-.82,0-1.55-.58-1.71-1.41-.14-.73-14.42-73.39-13.63-115.74.02-.97.81-1.73,1.78-1.72.97.02,1.73.82,1.72,1.78-.79,41.97,13.42,114.27,13.56,114.99.19.95-.43,1.87-1.38,2.06-.11.02-.23.03-.34.03Z" style="fill: #ff57b8;"/>
        <path d="m317.84,125.11c-.84,0-1.58-.61-1.72-1.47-.57-3.48-13.74-85.56,5.6-111.56,3.4-4.58,7.66-7.23,12.66-7.87.96-.12,1.84.55,1.96,1.51.12.96-.55,1.84-1.51,1.96-4.07.53-7.44,2.65-10.3,6.49-18.46,24.81-5.1,108.07-4.96,108.91.16.95-.49,1.85-1.44,2.01-.1.02-.19.02-.28.02Z" style="fill: #ff57b8;"/>
        <path d="m336.02,121.07c-.86,0-1.62-.64-1.73-1.52-.38-2.9-9.12-71.4,16.05-103.36,7.24-9.19,16.65-14.45,27.96-15.65.96-.1,1.82.6,1.92,1.56.1.96-.6,1.82-1.56,1.92-10.34,1.09-18.95,5.91-25.58,14.33-24.26,30.8-15.42,100.04-15.33,100.74.13.96-.55,1.84-1.51,1.96-.08.01-.16.02-.23.02Z" style="fill: #ff57b8;"/>
        <path d="m352.85,115.95c-.91,0-1.68-.7-1.74-1.62-.19-2.58-4.33-63.52,25.44-95.35C388.14,6.58,403.41.35,421.89.48c.97,0,1.74.8,1.74,1.76,0,.97-.82,1.73-1.76,1.74-17.48-.12-31.85,5.73-42.75,17.38-28.72,30.7-24.56,92.09-24.51,92.7.07.96-.65,1.8-1.62,1.87-.04,0-.09,0-.13,0Z" style="fill: #ff57b8;"/>
        <path d="m367.6,110.53s-.07,0-.1,0c-.97-.05-1.7-.88-1.65-1.84.13-2.41,3.65-59.27,37.78-88.49,15-12.84,33.68-18.25,55.52-16.07.96.1,1.66.95,1.57,1.91-.1.96-.95,1.66-1.91,1.57-20.85-2.08-38.64,3.05-52.89,15.24-32.99,28.23-36.54,85.46-36.57,86.03-.05.93-.82,1.65-1.75,1.65Z" style="fill: #ff57b8;"/>
        <path d="m380.38,105.46c-.1,0-.21,0-.32-.03-.95-.17-1.58-1.09-1.41-2.04.05-.25,4.81-25.61,20.29-49.65,14.38-22.33,41.16-48.1,87.1-44.05.96.08,1.67.93,1.59,1.9-.08.96-.94,1.67-1.9,1.59-35.45-3.13-63.64,11.13-83.79,42.37-15.14,23.46-19.8,48.23-19.85,48.48-.15.84-.89,1.44-1.72,1.44Z" style="fill: #ff57b8;"/>
        <path d="m392.43,100.39c-.13,0-.26-.01-.39-.05-.94-.22-1.53-1.16-1.31-2.1.22-.97,5.7-24.12,23.86-45.55,16.8-19.82,48.01-41.59,101.28-32.72.95.16,1.6,1.06,1.44,2.01-.16.95-1.06,1.6-2.01,1.44-41.42-6.9-74.37,3.68-97.95,31.43-17.65,20.77-23.15,43.94-23.2,44.17-.19.81-.91,1.36-1.7,1.36Z" style="fill: #ff57b8;"/>
        <path d="m403.37,95.02c-.1,0-.19,0-.29-.02-.95-.16-1.6-1.06-1.44-2.01,2.24-13.43,22.39-40.98,52.94-55.66,21.71-10.43,56.39-17.96,98.25,5.43.84.47,1.15,1.54.67,2.38-.47.84-1.54,1.15-2.38.67-40.56-22.66-74.06-15.41-95.03-5.33-30.5,14.66-49.14,41.93-51,53.08-.14.86-.88,1.46-1.72,1.46Z" style="fill: #ff57b8;"/>
        <path d="m411.76,90.33c-.14,0-.28-.02-.43-.05-.94-.23-1.51-1.18-1.27-2.12,3.62-14.5,30.27-39.53,65.44-47.36,28.24-6.29,70.14-3.66,109.39,44.56.61.75.5,1.85-.25,2.46-.75.61-1.85.5-2.46-.25-38.12-46.83-78.64-49.42-105.91-43.35-33.86,7.54-59.4,31.17-62.8,44.79-.2.8-.91,1.33-1.7,1.33Z" style="fill: #ff57b8;"/>
      </g>
    </g>
  </g>
</svg>