<?xml version="1.0" encoding="UTF-8"?>
<svg id="Layer_2" data-name="Layer 2" xmlns="http://www.w3.org/2000/svg" viewBox="0 0 342.83 328.99">
  <g id="_ÎÓÈ_1" data-name="—ÎÓÈ_1">
    <g>
      <g style="fill: none; isolation: isolate;">
        <path d="m131.24,328.99c-.29,0-.58-.07-.84-.21L1.69,258.76c-.56-.31-.91-.9-.91-1.54L1.19,31.18c0-.62.33-1.19.86-1.5.53-.31,1.19-.33,1.73-.03l128.72,70.02c.56.31.91.9.91,1.54l-.42,226.04c0,.62-.33,1.19-.86,1.5-.27.16-.58.24-.89.24ZM4.28,256.18l125.22,68.12.41-222.06L4.69,34.12l-.41,222.06Z" style="fill: #ff57b8;"/>
        <path d="m131.66,102.95c-.29,0-.58-.07-.84-.21L2.11,32.72c-.66-.36-1.02-1.11-.89-1.85.13-.74.73-1.32,1.48-1.42L212.12.02c.37-.05.75.02,1.08.2l128.72,70.02c.66.36,1.02,1.11.89,1.85-.13.74-.73,1.32-1.48,1.42l-209.42,29.43c-.08.01-.16.02-.24.02ZM8.44,32.18l123.55,67.21,203.6-28.61L212.04,3.56,8.44,32.18Z" style="fill: #ff57b8;"/>
        <path d="m131.24,328.99c-.42,0-.83-.15-1.15-.43-.38-.33-.6-.82-.6-1.32l.42-226.04c0-.87.64-1.61,1.51-1.73l209.42-29.43c.5-.07,1.01.08,1.39.41.38.33.6.82.6,1.32l-.42,226.04c0,.87-.64,1.61-1.51,1.73l-209.42,29.43c-.08.01-.16.02-.24.02Zm2.17-226.26l-.41,222.5,205.92-28.94.41-222.5-205.92,28.94Z" style="fill: #ff57b8;"/>
      </g>
      <path d="m173.23,97.11c-.28,0-.57-.07-.83-.21L43.68,26.88c-.85-.46-1.16-1.52-.7-2.37.46-.85,1.53-1.16,2.37-.7l128.72,70.02c.85.46,1.16,1.52.7,2.37-.32.58-.92.91-1.54.91Z" style="fill: #ff57b8;"/>
      <path d="m214.96,91.21c-.28,0-.57-.07-.83-.21L85.4,20.97c-.85-.46-1.16-1.52-.7-2.37.46-.85,1.53-1.16,2.37-.7l128.72,70.02c.85.46,1.16,1.52.7,2.37-.32.58-.92.91-1.54.91Z" style="fill: #ff57b8;"/>
      <path d="m256.61,85.42c-.28,0-.57-.07-.83-.21L127.06,15.18c-.85-.46-1.16-1.52-.7-2.37.46-.85,1.53-1.16,2.37-.7l128.72,70.02c.85.46,1.16,1.52.7,2.37-.32.58-.92.91-1.54.91Z" style="fill: #ff57b8;"/>
      <path d="m299.7,79.23c-.28,0-.57-.07-.83-.21L170.15,9c-.85-.46-1.16-1.52-.7-2.37.46-.85,1.53-1.16,2.37-.7l128.72,70.02c.85.46,1.16,1.52.7,2.37-.32.58-.92.91-1.54.91Z" style="fill: #ff57b8;"/>
      <path d="m130.47,146.9c-.28,0-.57-.07-.83-.21L.91,76.66c-.85-.46-1.16-1.52-.7-2.37.46-.85,1.53-1.16,2.37-.7l128.72,70.02c.85.46,1.16,1.52.7,2.37-.32.58-.92.91-1.54.91Z" style="fill: #ff57b8;"/>
      <path d="m130.47,193.21c-.28,0-.57-.07-.83-.21L.91,122.98c-.85-.46-1.16-1.52-.7-2.37.46-.85,1.53-1.16,2.37-.7l128.72,70.02c.85.46,1.16,1.52.7,2.37-.32.58-.92.91-1.54.91Z" style="fill: #ff57b8;"/>
      <path d="m130.47,238.62c-.28,0-.57-.07-.83-.21L.91,168.38c-.85-.46-1.16-1.52-.7-2.37.46-.85,1.53-1.16,2.37-.7l128.72,70.02c.85.46,1.16,1.52.7,2.37-.32.58-.92.91-1.54.91Z" style="fill: #ff57b8;"/>
      <path d="m130.47,283.77c-.28,0-.57-.07-.83-.21L.91,213.53c-.85-.46-1.16-1.52-.7-2.37.46-.85,1.53-1.16,2.37-.7l128.72,70.02c.85.46,1.16,1.52.7,2.37-.32.58-.92.91-1.54.91Z" style="fill: #ff57b8;"/>
      <path d="m103.72,314.27h0c-.97,0-1.75-.79-1.75-1.75l.42-226.04c0-.97.78-1.75,1.75-1.75h0c.97,0,1.75.79,1.75,1.75l-.42,226.04c0,.97-.78,1.75-1.75,1.75Z" style="fill: #ff57b8;"/>
      <path d="m75.72,299.56h0c-.97,0-1.75-.79-1.75-1.75l.42-226.04c0-.97.78-1.75,1.75-1.75h0c.97,0,1.75.79,1.75,1.75l-.42,226.04c0,.97-.78,1.75-1.75,1.75Z" style="fill: #ff57b8;"/>
      <path d="m48.99,283.94h0c-.97,0-1.75-.79-1.75-1.75l.42-226.04c0-.97.78-1.75,1.75-1.75h0c.97,0,1.75.79,1.75,1.75l-.42,226.04c0,.97-.78,1.75-1.75,1.75Z" style="fill: #ff57b8;"/>
      <path d="m24.15,270.26h0c-.97,0-1.75-.79-1.75-1.75l.42-226.04c0-.97.78-1.75,1.75-1.75h0c.97,0,1.75.79,1.75,1.75l-.42,226.04c0,.97-.78,1.75-1.75,1.75Z" style="fill: #ff57b8;"/>
      <path d="m103.72,88.24c-.86,0-1.61-.63-1.73-1.51-.13-.96.53-1.84,1.49-1.98l209.42-29.43c.96-.13,1.84.53,1.98,1.49.13.96-.53,1.84-1.49,1.98l-209.42,29.43c-.08.01-.16.02-.25.02Z" style="fill: #ff57b8;"/>
      <path d="m75.92,72.62c-.86,0-1.61-.63-1.73-1.51-.13-.96.53-1.84,1.49-1.98l209.42-29.43c.96-.14,1.84.53,1.98,1.49.13.96-.53,1.84-1.49,1.98l-209.42,29.43c-.08.01-.16.02-.25.02Z" style="fill: #ff57b8;"/>
      <path d="m49.4,58.94c-.86,0-1.61-.63-1.73-1.51-.13-.96.53-1.84,1.49-1.98l209.42-29.43c.96-.13,1.84.53,1.98,1.49.13.96-.53,1.84-1.49,1.98L49.65,58.92c-.08.01-.16.02-.25.02Z" style="fill: #ff57b8;"/>
      <path d="m23.19,44.22c-.86,0-1.61-.63-1.73-1.51-.13-.96.53-1.84,1.49-1.98L232.37,11.3c.96-.14,1.84.53,1.98,1.49.13.96-.53,1.84-1.49,1.98L23.43,44.2c-.08.01-.16.02-.25.02Z" style="fill: #ff57b8;"/>
      <path d="m131.66,146.9c-.86,0-1.61-.63-1.73-1.51-.13-.96.53-1.84,1.49-1.98l209.42-29.43c.96-.14,1.84.53,1.98,1.49.13.96-.53,1.84-1.49,1.98l-209.42,29.43c-.08.01-.16.02-.25.02Z" style="fill: #ff57b8;"/>
      <path d="m131.66,193.21c-.86,0-1.61-.63-1.73-1.51-.13-.96.53-1.84,1.49-1.98l209.42-29.43c.96-.14,1.84.53,1.98,1.49.13.96-.53,1.84-1.49,1.98l-209.42,29.43c-.08.01-.16.02-.25.02Z" style="fill: #ff57b8;"/>
      <path d="m131.66,238.62c-.86,0-1.61-.63-1.73-1.51-.13-.96.53-1.84,1.49-1.98l209.42-29.43c.96-.13,1.84.53,1.98,1.49.13.96-.53,1.84-1.49,1.98l-209.42,29.43c-.08.01-.16.02-.25.02Z" style="fill: #ff57b8;"/>
      <path d="m131.66,284.03c-.86,0-1.61-.63-1.73-1.51-.13-.96.53-1.84,1.49-1.98l209.42-29.43c.96-.13,1.84.53,1.98,1.49.13.96-.53,1.84-1.49,1.98l-209.42,29.43c-.08.01-.16.02-.25.02Z" style="fill: #ff57b8;"/>
      <path d="m175.37,323.15h0c-.97,0-1.75-.79-1.75-1.75l.42-226.04c0-.97.82-1.72,1.75-1.75.97,0,1.75.79,1.75,1.75l-.42,226.04c0,.97-.78,1.75-1.75,1.75Z" style="fill: #ff57b8;"/>
      <path d="m215.87,316.63h0c-.97,0-1.75-.79-1.75-1.75l.42-226.04c0-.97.78-1.75,1.75-1.75h0c.97,0,1.75.79,1.75,1.75l-.42,226.04c0,.97-.78,1.75-1.75,1.75Z" style="fill: #ff57b8;"/>
      <path d="m257.35,311.45h0c-.97,0-1.75-.79-1.75-1.75l.42-226.04c0-.97.78-1.75,1.75-1.75h0c.97,0,1.75.79,1.75,1.75l-.42,226.04c0,.97-.78,1.75-1.75,1.75Z" style="fill: #ff57b8;"/>
      <path d="m297.65,306.23h0c-.97,0-1.75-.79-1.75-1.75l.42-226.04c0-.97.78-1.75,1.75-1.75h0c.97,0,1.75.79,1.75,1.75l-.42,226.04c0,.97-.78,1.75-1.75,1.75Z" style="fill: #ff57b8;"/>
    </g>
  </g>
</svg>