<?xml version="1.0" encoding="UTF-8"?>
<svg id="Layer_2" data-name="Layer 2" xmlns="http://www.w3.org/2000/svg" viewBox="0 0 130.14 130.14">
  <g id="_ÎÓÈ_1" data-name="—ÎÓÈ_1">
    <path d="m65.07,130.14c-20.34,0-39.14-9.26-51.57-25.41C4.67,93.26,0,79.55,0,65.07s4.67-28.19,13.5-39.66C25.93,9.26,44.73,0,65.07,0c35.88,0,65.07,29.19,65.07,65.07s-29.19,65.07-65.07,65.07Zm0-125.84c-18.99,0-36.55,8.65-48.17,23.74-8.25,10.71-12.6,23.51-12.6,37.03s4.36,26.33,12.6,37.03c11.62,15.08,29.17,23.74,48.17,23.74,33.51,0,60.77-27.26,60.77-60.77S98.58,4.3,65.07,4.3Z" style="fill: #ff57b8;"/>
  </g>
</svg>