<?xml version="1.0" encoding="UTF-8"?>
<svg id="Layer_2" data-name="Layer 2" xmlns="http://www.w3.org/2000/svg" viewBox="0 0 77.23 74.4">
  <g id="_ÎÓÈ_1" data-name="—ÎÓÈ_1">
    <g style="fill: none; isolation: isolate;">
      <path d="m47.39,74.4c-.35,0-.71-.09-1.02-.28-.61-.36-.98-1.01-.98-1.72l-.09-48.89c0-.73.4-1.41,1.04-1.76l27.84-15.14c.62-.34,1.37-.32,1.98.04.61.36.98,1.01.98,1.72l.09,48.89c0,.73-.4,1.41-1.04,1.76l-27.84,15.14c-.3.16-.63.24-.96.24Zm1.91-49.7l.08,44.34,23.84-12.97-.08-44.34-23.84,12.97Z" style="fill: #ff57b8;"/>
      <path d="m47.3,25.51c-.09,0-.19,0-.28-.02L1.72,19.13c-.85-.12-1.54-.77-1.69-1.62-.15-.85.25-1.7,1.01-2.11L28.88.24c.38-.21.81-.28,1.23-.22l45.3,6.37c.85.12,1.54.77,1.69,1.62.15.85-.25,1.7-1.01,2.11l-27.84,15.14c-.29.16-.62.24-.96.24ZM8.28,16.01l38.64,5.43,21.94-11.93L30.22,4.07l-21.94,11.93Z" style="fill: #ff57b8;"/>
      <path d="m47.39,74.4c-.09,0-.19,0-.28-.02L1.81,68.01c-.99-.14-1.72-.98-1.72-1.98L0,17.15c0-.58.25-1.13.69-1.51.44-.38,1.02-.55,1.59-.47l45.3,6.37c.99.14,1.72.98,1.72,1.98l.09,48.89c0,.58-.25,1.13-.69,1.51-.37.32-.83.49-1.31.49Zm-43.3-10.11l41.29,5.8-.08-44.85L4,19.45l.08,44.85Z" style="fill: #ff57b8;"/>
    </g>
  </g>
</svg>