<?xml version="1.0" encoding="UTF-8"?>
<svg id="Layer_2" data-name="Layer 2" xmlns="http://www.w3.org/2000/svg" viewBox="0 0 249.79 133.43">
  <g id="_ÎÓÈ_1" data-name="—ÎÓÈ_1">
    <path d="m247.64,133.43h-90.39c-1.19,0-2.15-.96-2.15-2.15v-6.39c0-16.65-13.55-30.2-30.2-30.2s-30.2,13.55-30.2,30.2v6.39c0,1.19-.96,2.15-2.15,2.15H2.15c-1.19,0-2.15-.96-2.15-2.15v-6.39C0,56.03,56.03,0,124.9,0s124.9,56.03,124.9,124.9v6.39c0,1.19-.96,2.15-2.15,2.15Zm-88.24-4.3h86.09v-4.24c0-66.5-54.1-120.6-120.6-120.6S4.3,58.4,4.3,124.9v4.24h86.09v-4.24c0-19.02,15.48-34.5,34.5-34.5s34.5,15.48,34.5,34.5v4.24Z" style="fill: #ff57b8;"/>
  </g>
</svg>