<?xml version="1.0" encoding="UTF-8"?>
<svg id="Layer_2" data-name="Layer 2" xmlns="http://www.w3.org/2000/svg" viewBox="0 0 143.43 143.43">
  <g id="_ÎÓÈ_1" data-name="—ÎÓÈ_1">
    <path d="m71.71,143.43c-.85,0-1.62-.5-1.97-1.28l-10.51-23.86-21.03,15.41c-.69.5-1.61.55-2.35.13-.74-.43-1.15-1.25-1.06-2.1l2.83-25.92-25.92,2.83c-.84.09-1.67-.32-2.1-1.06-.43-.74-.38-1.66.13-2.35l15.41-21.03L1.28,73.68c-.78-.34-1.28-1.12-1.28-1.97s.5-1.62,1.28-1.97l23.86-10.51-15.41-21.03c-.5-.69-.55-1.61-.13-2.35.43-.74,1.25-1.15,2.1-1.06l25.92,2.83-2.83-25.92c-.09-.85.32-1.67,1.06-2.1.74-.43,1.66-.38,2.35.13l21.03,15.41L69.75,1.28c.34-.78,1.12-1.28,1.97-1.28s1.62.5,1.97,1.28l10.51,23.86,21.03-15.41c.69-.5,1.61-.55,2.35-.13.74.43,1.15,1.25,1.06,2.1l-2.83,25.92,25.92-2.83c.83-.09,1.67.32,2.1,1.06.43.74.38,1.66-.13,2.35l-15.41,21.03,23.86,10.51c.78.34,1.28,1.12,1.28,1.97s-.5,1.62-1.28,1.97l-23.86,10.51,15.41,21.03c.5.69.55,1.61.13,2.35-.43.74-1.26,1.15-2.1,1.06l-25.92-2.83,2.83,25.92c.09.85-.32,1.67-1.06,2.1-.74.43-1.66.38-2.35-.13l-21.03-15.41-10.51,23.86c-.34.78-1.12,1.28-1.97,1.28Zm-11.59-30.61c.19,0,.37.02.56.07.63.17,1.15.61,1.41,1.21l9.62,21.85,9.62-21.85c.26-.6.78-1.04,1.41-1.21.63-.17,1.3-.04,1.83.34l19.25,14.11-2.59-23.73c-.07-.65.16-1.29.62-1.75.46-.46,1.1-.69,1.75-.62l23.73,2.59-14.11-19.25c-.38-.53-.51-1.2-.34-1.83.17-.63.61-1.15,1.21-1.41l21.84-9.62-21.84-9.62c-.6-.26-1.04-.78-1.21-1.41-.17-.63-.04-1.3.34-1.83l14.11-19.25-23.73,2.59c-.65.07-1.29-.16-1.75-.62-.46-.46-.69-1.11-.62-1.75l2.59-23.73-19.25,14.11c-.53.39-1.2.51-1.83.34-.63-.17-1.15-.61-1.41-1.21l-9.62-21.85-9.62,21.85c-.26.6-.78,1.04-1.41,1.21-.63.17-1.3.04-1.83-.34l-19.25-14.11,2.59,23.73c.07.65-.16,1.29-.62,1.75-.46.46-1.1.69-1.75.62l-23.73-2.59,14.11,19.25c.38.53.51,1.2.34,1.83-.17.63-.61,1.15-1.21,1.41l-21.84,9.62,21.84,9.62c.6.26,1.04.78,1.21,1.41.17.63.04,1.3-.34,1.83l-14.11,19.25,23.73-2.59c.65-.07,1.29.16,1.75.62.46.46.69,1.11.62,1.75l-2.59,23.73,19.25-14.11c.37-.27.82-.42,1.27-.42Z" style="fill: #ff57b8;"/>
  </g>
</svg>