<?xml version="1.0" encoding="UTF-8"?>
<svg id="Layer_2" data-name="Layer 2" xmlns="http://www.w3.org/2000/svg" viewBox="0 0 88.14 80.32">
  <g id="_ÎÓÈ_1" data-name="—ÎÓÈ_1">
    <path d="m44.07,80.32c-.48,0-.96-.17-1.34-.51-7.94-7.14-27.26-24.96-35.08-36.32-10.23-14.87-10.21-30.68.05-39.33C11.97.56,17.45-.74,23.55.4c7.75,1.45,15.77,6.79,20.52,13.43C48.82,7.19,56.84,1.86,64.59.4c6.1-1.14,11.58.15,15.84,3.75h0c10.26,8.66,10.28,24.46.05,39.33-7.81,11.36-27.13,29.18-35.08,36.32-.38.34-.86.51-1.34.51ZM19.39,4.01c-2.88,0-6.17.73-9.1,3.21C1.69,14.47,1.95,28.14,10.95,41.22c7.29,10.59,25.77,27.75,33.12,34.4,7.34-6.65,25.83-23.81,33.12-34.4,9-13.08,9.27-26.75.67-34.01h0c-4.19-3.53-9.12-3.52-12.53-2.88-7.59,1.42-15.79,7.4-19.5,14.21-.35.64-1.02,1.04-1.76,1.04s-1.41-.4-1.76-1.04c-3.71-6.81-11.91-12.78-19.5-14.21-1.02-.19-2.19-.33-3.42-.33Z" style="fill: #ff57b8;"/>
  </g>
</svg>