<?xml version="1.0" encoding="UTF-8"?>
<svg id="Layer_2" data-name="Layer 2" xmlns="http://www.w3.org/2000/svg" viewBox="0 0 120.5 120.55">
  <g id="_ÎÓÈ_1" data-name="—ÎÓÈ_1">
    <path d="m15.22,120.55c-4.2,0-7.96-1.5-10.84-4.38-3.72-3.72-5.14-8.91-3.99-14.61,1.18-5.87,5.04-12.21,11.17-18.34,8.58-8.58,26.62-18.45,38.25-22.94-11.62-4.49-29.66-14.36-38.25-22.94C5.43,31.2,1.56,24.86.39,18.99c-1.14-5.7.27-10.89,3.99-14.61C8.1.66,13.29-.76,18.99.39c5.87,1.18,12.21,5.04,18.34,11.17,8.58,8.58,18.45,26.62,22.94,38.25,4.49-11.62,14.36-29.66,22.94-38.25,14.82-14.81,27.01-13.13,32.96-7.18,5.94,5.95,7.63,18.14-7.18,32.96-8.58,8.58-26.62,18.45-38.25,22.94,11.62,4.49,29.66,14.36,38.25,22.94,14.81,14.81,13.13,27.01,7.18,32.96-5.95,5.94-18.14,7.63-32.96-7.18-8.58-8.58-18.45-26.62-22.94-38.25-4.49,11.62-14.35,29.66-22.94,38.25-6.13,6.13-12.48,10-18.34,11.17-1.29.26-2.55.39-3.78.39Zm-.02-116.25c-3.06,0-5.71,1.06-7.77,3.12-2.71,2.71-3.68,6.42-2.82,10.73,1.01,5.03,4.47,10.62,10,16.15,9.8,9.8,33.53,21.82,42.67,23.88.98.22,1.68,1.09,1.68,2.1s-.7,1.88-1.68,2.1c-9.15,2.07-32.88,14.09-42.67,23.88-5.53,5.53-8.99,11.12-10,16.15-.86,4.31.11,8.02,2.82,10.73,2.71,2.71,6.41,3.68,10.73,2.82,5.03-1.01,10.62-4.47,16.15-10,9.8-9.8,21.82-33.53,23.88-42.67.22-.98,1.09-1.68,2.1-1.68,1,0,1.88.7,2.1,1.68,2.07,9.15,14.09,32.88,23.88,42.67,10.34,10.34,20.89,13.16,26.88,7.18,5.98-5.98,3.16-16.53-7.18-26.88-9.8-9.8-33.53-21.82-42.67-23.88-.98-.22-1.68-1.09-1.68-2.1s.7-1.88,1.68-2.1c9.15-2.07,32.88-14.09,42.67-23.88,10.34-10.34,13.16-20.89,7.18-26.88-5.98-5.98-16.53-3.16-26.88,7.18-9.8,9.8-21.82,33.53-23.88,42.67-.22.98-1.09,1.68-2.1,1.68h0c-1,0-1.88-.7-2.1-1.68-2.07-9.15-14.08-32.87-23.88-42.67-5.53-5.53-11.12-8.99-16.15-10-1.02-.2-2.01-.31-2.95-.31Z" style="fill: #ff57b8;"/>
  </g>
</svg>