<?xml version="1.0" encoding="UTF-8"?>
<svg id="Layer_2" data-name="Layer 2" xmlns="http://www.w3.org/2000/svg" viewBox="0 0 496.83 496.83">
  <g id="_ÎÓÈ_1" data-name="—ÎÓÈ_1">
    <g>
      <path d="m248.88,281.67c-18.16,0-32.93-14.77-32.93-32.93s14.77-32.93,32.93-32.93,32.93,14.77,32.93,32.93-14.77,32.93-32.93,32.93Zm0-61.57c-15.79,0-28.63,12.84-28.63,28.63s12.84,28.63,28.63,28.63,28.63-12.84,28.63-28.63-12.84-28.63-28.63-28.63Z" style="fill: #ff57b8;"/>
      <path d="m248.88,312.46c-35.13,0-63.72-28.58-63.72-63.72s28.58-63.72,63.72-63.72,63.72,28.58,63.72,63.72-28.58,63.72-63.72,63.72Zm0-123.13c-32.76,0-59.42,26.65-59.42,59.42s26.65,59.42,59.42,59.42,59.42-26.65,59.42-59.42-26.65-59.42-59.42-59.42Z" style="fill: #ff57b8;"/>
      <path d="m248.42,342.91c-52.11,0-94.5-42.39-94.5-94.5s42.39-94.5,94.5-94.5,94.5,42.39,94.5,94.5-42.39,94.5-94.5,94.5Zm0-184.7c-49.74,0-90.2,40.46-90.2,90.2s40.46,90.2,90.2,90.2,90.2-40.46,90.2-90.2-40.46-90.2-90.2-90.2Z" style="fill: #ff57b8;"/>
      <path d="m248.42,373.7c-69.08,0-125.28-56.2-125.28-125.28s56.2-125.28,125.28-125.28,125.28,56.2,125.28,125.28-56.2,125.28-125.28,125.28Zm0-246.26c-66.71,0-120.98,54.27-120.98,120.98s54.27,120.98,120.98,120.98,120.98-54.27,120.98-120.98-54.27-120.98-120.98-120.98Z" style="fill: #ff57b8;"/>
      <path d="m248.42,404.48c-86.05,0-156.07-70.01-156.07-156.07S162.36,92.35,248.42,92.35s156.07,70.01,156.07,156.07-70.01,156.07-156.07,156.07Zm0-307.83c-83.68,0-151.77,68.08-151.77,151.77s68.08,151.77,151.77,151.77,151.76-68.08,151.76-151.77-68.08-151.77-151.76-151.77Z" style="fill: #ff57b8;"/>
      <path d="m248.42,435.26c-103.03,0-186.85-83.82-186.85-186.85S145.39,61.57,248.42,61.57s186.85,83.82,186.85,186.85-83.82,186.85-186.85,186.85Zm0-369.4c-100.66,0-182.55,81.89-182.55,182.55s81.89,182.55,182.55,182.55,182.55-81.89,182.55-182.55-81.89-182.55-182.55-182.55Z" style="fill: #ff57b8;"/>
      <path d="m248.42,466.05c-58.13,0-112.78-22.64-153.89-63.74-41.11-41.11-63.74-95.76-63.74-153.89s22.64-112.78,63.74-153.89c41.1-41.11,95.76-63.74,153.89-63.74s112.78,22.64,153.89,63.74c41.11,41.11,63.74,95.76,63.74,153.89s-22.64,112.78-63.74,153.89c-41.11,41.11-95.76,63.74-153.89,63.74Zm0-430.96c-117.63,0-213.33,95.7-213.33,213.33s95.7,213.33,213.33,213.33,213.33-95.7,213.33-213.33S366.05,35.08,248.42,35.08Z" style="fill: #ff57b8;"/>
      <path d="m248.42,496.83c-66.35,0-128.74-25.84-175.66-72.76C25.84,377.15,0,314.77,0,248.41S25.84,119.68,72.76,72.76C119.68,25.84,182.06,0,248.42,0s128.74,25.84,175.66,72.76c46.92,46.92,72.76,109.3,72.76,175.66s-25.84,128.74-72.76,175.66c-46.92,46.92-109.3,72.76-175.66,72.76Zm0-492.53C113.81,4.3,4.3,113.81,4.3,248.41s109.51,244.11,244.11,244.11,244.11-109.51,244.11-244.11S383.02,4.3,248.42,4.3Z" style="fill: #ff57b8;"/>
    </g>
  </g>
</svg>