<?xml version="1.0" encoding="UTF-8"?>
<svg id="Layer_2" data-name="Layer 2" xmlns="http://www.w3.org/2000/svg" viewBox="0 0 132.48 132.33">
  <g id="_ÎÓÈ_1" data-name="—ÎÓÈ_1">
    <path d="m99.9,9.03C85.35.29,68.65-2.26,54.06,2.05c-7.29,2.15-13.72,5.94-18.91,11.01-.07.05-.13.1-.2.16,0,0,0,0,0,0l-21.28,21.02c-.43.42-.85.86-1.27,1.31-.47.5-.92,1.02-1.36,1.54-.1.11-.19.23-.29.35l-.12.15c-.3.37-.6.74-.9,1.13-.16.2-.31.41-.46.61-.27.36-.53.73-.79,1.1-.15.21-.3.43-.44.64-.27.4-.53.81-.78,1.22l-.09.14c-.06.09-.12.19-.18.28l-.1.17c-.23.38-.46.78-.68,1.17l-.12.2c-.07.13-.15.25-.22.38-.32.6-.64,1.2-.94,1.82-2.11,4.32-3.57,8.99-4.32,13.86-.11.7-.2,1.4-.28,2.1-.02.15-.03.3-.04.45l-.02.25c-.05.47-.09.94-.13,1.42-.01.19-.02.38-.03.57v.26c-.04.43-.06.86-.07,1.29,0,.26-.01.52-.01.78v.11c0,.41-.01.83,0,1.24,0,.31.01.61.02.92.01.41.02.81.04,1.23.02.31.03.62.05.93.03.41.06.81.09,1.22.03.31.05.62.09.92.04.41.09.82.15,1.33.03.27.07.54.11.82l.05.36c.02.14.04.27.07.41l.04.25c.07.46.15.92.23,1.38.06.33.13.66.19,1,.09.45.19.9.29,1.35.08.33.15.66.23,1,.11.45.23.9.36,1.41.08.31.16.62.25.92.13.46.27.91.41,1.37l.07.25c.04.14.08.28.13.42l.39,1.15c.14.41.28.82.43,1.23.1.29.21.57.32.86.15.4.31.8.47,1.2.12.28.23.57.35.85.17.4.34.8.55,1.26.11.25.23.51.34.76l.16.36c.12.26.25.51.37.77l.39.79c.32.64.65,1.27,1,1.91l.19.34c.28.52.58,1.03.88,1.54l.53.89c.1.16.19.33.3.49l.73,1.14c.27.42.55.84.84,1.26l.38.56c.41.59.83,1.18,1.31,1.82.37.49.74.98,1.11,1.46l.66.81c.31.38.62.76.94,1.14.18.22.37.43.55.64.31.36.63.71.95,1.07.19.21.38.42.58.63.34.37.69.73,1.04,1.09l.69.71c.15.16.31.31.47.46l.47.45c.21.21.43.42.65.62.24.22.48.44.72.66l.39.36c.23.21.46.41.69.62.24.21.48.41.72.61l.47.4c.22.19.45.38.68.57.25.2.5.4.75.59l.49.38c.23.18.46.36.74.57.01.01.1.08.11.09.52.39,1.06.78,1.6,1.16l.39.27c.49.34.99.68,1.51,1.03l.5.32c.63.41,1.26.81,1.9,1.19,9.99,6,20.88,8.96,31.3,8.96,12.76,0,24.82-4.44,33.64-13.15l21.26-21.01s.02-.02.02-.02c.06-.06.1-.12.15-.19,3.46-3.46,6.37-7.49,8.59-12.03,2.12-4.32,3.57-8.99,4.33-13.86,3.66-23.6-9.49-49.53-31.97-63.04Zm28.02,62.43c-.69,4.48-2.03,8.76-3.97,12.72-5.09,10.4-14.1,17.97-25.38,21.3-13.51,3.99-29.06,1.6-42.65-6.57-21.13-12.7-33.5-36.97-30.08-59.01.69-4.48,2.03-8.75,3.96-12.72,5.09-10.4,14.11-17.97,25.39-21.3,13.51-3.99,29.05-1.59,42.64,6.57,21.13,12.7,33.5,36.96,30.08,59Zm-93.28,48.48c-.61-.36-1.2-.74-1.79-1.12l-.49-.32c-.47-.31-.94-.63-1.4-.95l-.37-.26c-.51-.36-1.01-.72-1.54-1.12-.01,0-.09-.07-.11-.08-.21-.16-.43-.33-.64-.5l-.51-.4c-.23-.18-.46-.36-.68-.54-.21-.17-.41-.34-.62-.52l-.48-.41c-.22-.19-.44-.37-.66-.56-.21-.19-.42-.38-.63-.57l-.41-.37c-.22-.2-.45-.4-.66-.61-.2-.19-.39-.38-.59-.57l-.5-.48c-.14-.13-.27-.26-.46-.45l-.6-.62c-.33-.34-.66-.68-.98-1.03l-.54-.59c-.3-.33-.6-.67-.89-1l-.52-.61c-.3-.35-.59-.71-.88-1.07l-.62-.76c-.36-.45-.71-.91-1.09-1.43-.41-.55-.8-1.11-1.19-1.66l-.36-.53c-.27-.39-.53-.79-.79-1.19l-1.47-2.38c-.28-.48-.55-.96-.82-1.45l-.18-.32c-.32-.59-.63-1.19-.93-1.79l-.38-.77c-.11-.23-.23-.46-.34-.69l-.15-.34c-.11-.23-.21-.47-.35-.77-.17-.37-.33-.75-.49-1.12-.11-.27-.22-.53-.33-.8-.15-.37-.3-.75-.44-1.12-.1-.27-.2-.53-.3-.8-.14-.38-.28-.77-.41-1.15l-.55-1.7c-.13-.43-.26-.85-.39-1.28-.08-.29-.16-.57-.25-.92-.11-.42-.22-.84-.32-1.26-.08-.31-.15-.62-.22-.93-.09-.42-.18-.84-.27-1.26-.06-.31-.12-.62-.18-.93-.08-.43-.15-.85-.22-1.28l-.15-.96c-.04-.25-.07-.5-.1-.75,0,0-.01-.1-.01-.1-.05-.38-.09-.76-.13-1.15-.03-.29-.06-.57-.08-.86-.03-.38-.06-.76-.09-1.13-.02-.29-.03-.58-.05-.86-.02-.38-.03-.76-.04-1.14,0-.28-.01-.57-.02-.85,0-.38,0-.77,0-1.15v-.11c0-.24,0-.47.01-.71.01-.4.03-.79.06-1.19l.04-.77c.03-.44.07-.87.12-1.31l.06-.64c.07-.65.16-1.3.26-1.94.69-4.48,2.03-8.75,3.96-12.72.28-.56.56-1.12.86-1.66l.3-.53c.2-.36.41-.72.62-1.08l.33-.53c.23-.37.47-.74.72-1.11.13-.2.26-.39.4-.58.24-.34.48-.67.72-1.01.14-.19.28-.37.42-.56.27-.35.54-.69.82-1.03l.37-.45c.4-.48.82-.95,1.25-1.41.38-.4.76-.8,1.15-1.18l8.15-8.06c-.04.1-.07.2-.11.3-.23.61-.45,1.23-.66,1.85-.06.19-.13.38-.19.57-.24.74-.46,1.49-.67,2.24-.03.1-.05.2-.07.3-.18.67-.34,1.35-.49,2.03-.04.2-.09.41-.13.61-.16.78-.31,1.56-.43,2.35-.02.14-.03.27-.05.41-.08.56-.16,1.13-.22,1.7,0,0,0,.01,0,.02-.02.18-.03.37-.05.55v.13c-.06.47-.1.94-.14,1.42,0,.02,0,.04,0,.06-.01.21-.02.42-.04.63v.18c-.03.42-.05.84-.07,1.26,0,.04,0,.08,0,.12,0,.2,0,.4-.01.6v.18c0,.41-.01.82,0,1.24,0,.08,0,.15,0,.23,0,.17,0,.34.01.51,0,.06,0,.12,0,.18.01.41.02.81.04,1.22,0,.13.01.26.02.39,0,.11.01.21.02.32,0,.08,0,.15.01.23.03.41.06.81.09,1.22.03.31.05.62.09.93.04.41.09.82.15,1.27.04.29.07.58.11.87.04.28.08.56.13.83l.03.19c.07.46.15.92.23,1.38.06.33.13.66.19,1,.09.45.19.9.29,1.35.07.33.15.66.23.99.11.45.23.9.36,1.4.08.31.17.62.25.93.13.46.27.92.41,1.38l.07.24c.08.25.15.49.23.74.08.24.16.47.24.71l.04.13c.14.41.28.82.43,1.23.1.29.21.57.32.86.15.4.31.8.47,1.2.12.29.23.57.35.85.17.4.34.8.52,1.19l.05.12c.11.24.21.47.32.71.21.46.43.92.66,1.37l.27.54c.32.64.65,1.27.99,1.9l.19.35c.28.51.57,1.03.87,1.54l.38.63c.25.42.51.84.77,1.25l.41.64c.27.42.55.84.84,1.26l.38.56c.41.59.83,1.19,1.31,1.82.42.56.85,1.12,1.28,1.67l.49.6c.31.38.62.76.94,1.13.18.22.37.43.56.65.31.36.63.71.94,1.06.19.21.38.42.57.63.34.37.69.73,1.04,1.09l.53.54c.23.23.46.45.69.68l.43.42c.21.2.42.41.63.61.23.22.47.43.71.65l.43.39c.22.2.45.41.67.61.24.21.48.41.72.62l.46.39c.23.19.46.39.69.58.25.2.5.4.75.6l.48.38c.23.18.47.37.71.55.57.43,1.15.86,1.74,1.28l.2.14s0,0,.01,0l.18.13c.49.34.99.68,1.53,1.03l.09.06c.13.08.26.17.39.25h0c.63.41,1.26.81,1.9,1.2.91.54,1.82,1.06,2.74,1.55.16.08.31.17.47.25.95.5,1.9.97,2.86,1.42,0,0,0,0,0,0,8.19,3.83,16.85,5.8,25.29,5.8,4.95,0,9.82-.68,14.48-2.05,1.09-.32,2.16-.69,3.21-1.09l-8.21,8.11c-14.71,14.54-39.41,16.02-60.07,3.6Z" style="fill: #ff57b8;"/>
  </g>
</svg>