<?xml version="1.0" encoding="UTF-8"?>
<svg id="Layer_2" data-name="Layer 2" xmlns="http://www.w3.org/2000/svg" viewBox="0 0 733.92 102.6">
  <g id="_ÎÓÈ_1" data-name="—ÎÓÈ_1">
    <path d="m718.52,102.6c-4.22,0-10.31-3.41-15.3-19.64l-19.1-62.05c-3.2-10.4-7.39-16.61-11.2-16.61s-7.99,6.21-11.2,16.61l-19.1,62.05c-5,16.24-11.08,19.64-15.31,19.64s-10.31-3.41-15.3-19.64l-19.1-62.05c-3.2-10.4-7.39-16.61-11.2-16.61s-7.99,6.21-11.2,16.61l-19.1,62.05c-5,16.24-11.08,19.64-15.31,19.64s-10.31-3.41-15.3-19.64l-19.1-62.05c-3.2-10.4-7.39-16.61-11.2-16.61s-7.99,6.21-11.2,16.61l-19.1,62.05c-5,16.24-11.08,19.64-15.3,19.64s-10.31-3.41-15.31-19.64l-19.1-62.05c-.03-.11-.06-.22-.07-.33-3.19-10.2-7.32-16.28-11.09-16.28s-7.99,6.21-11.2,16.61l-19.1,62.05c-5,16.24-11.08,19.64-15.31,19.64s-10.31-3.41-15.3-19.64l-19.1-62.05c-3.2-10.4-7.39-16.61-11.2-16.61s-7.99,6.21-11.2,16.61l-19.1,62.05c-5,16.24-11.08,19.64-15.31,19.64s-10.31-3.41-15.3-19.64l-19.1-62.05c-3.2-10.4-7.39-16.61-11.2-16.61s-7.99,6.21-11.2,16.61l-19.1,62.05c-5,16.24-11.08,19.64-15.31,19.64s-10.31-3.41-15.3-19.64l-19.1-62.05c-3.2-10.4-7.39-16.61-11.2-16.61s-7.99,6.21-11.2,16.61l-19.1,62.05c-5,16.24-11.08,19.64-15.3,19.64s-10.31-3.41-15.31-19.64l-19.1-62.05c-3.2-10.4-7.39-16.61-11.2-16.61s-7.99,6.21-11.2,16.61L4.21,82.95c-.35,1.14-1.55,1.77-2.69,1.42-1.13-.35-1.77-1.55-1.42-2.69L19.2,19.64C24.2,3.41,30.28,0,34.5,0c4.22,0,10.31,3.41,15.3,19.64l19.1,62.05c3.2,10.4,7.39,16.61,11.2,16.61s7.99-6.21,11.2-16.61l19.1-62.05C115.4,3.41,121.49,0,125.71,0c4.22,0,10.31,3.41,15.3,19.64l19.1,62.05c3.2,10.4,7.39,16.61,11.2,16.61s7.99-6.21,11.2-16.61l19.1-62.05C206.61,3.41,212.69,0,216.92,0c4.22,0,10.31,3.41,15.3,19.64l19.1,62.05c3.2,10.4,7.39,16.61,11.2,16.61s7.99-6.21,11.2-16.61l19.1-62.05C297.81,3.41,303.9,0,308.12,0c4.22,0,10.31,3.41,15.3,19.64l19.1,62.05c3.2,10.4,7.39,16.61,11.2,16.61s7.99-6.21,11.2-16.61l19.1-62.05C389.02,3.41,395.1,0,399.33,0c4.22,0,10.31,3.41,15.3,19.64.03.11.06.22.07.33l19,61.71c3.2,10.4,7.39,16.61,11.2,16.61s7.99-6.21,11.2-16.61l19.1-62.05C480.2,3.41,486.28,0,490.5,0c4.22,0,10.31,3.41,15.3,19.64l19.1,62.05c3.2,10.4,7.39,16.61,11.2,16.61s7.99-6.21,11.2-16.61l19.1-62.05C571.4,3.41,577.49,0,581.71,0c4.22,0,10.31,3.41,15.3,19.64l19.1,62.05c3.2,10.4,7.39,16.61,11.2,16.61s7.99-6.21,11.2-16.61l19.1-62.05C662.61,3.41,668.69,0,672.92,0c4.22,0,10.31,3.41,15.3,19.64l19.1,62.05c3.2,10.4,7.39,16.61,11.2,16.61s7.99-6.21,11.2-16.61c.35-1.14,1.55-1.77,2.69-1.42,1.13.35,1.77,1.55,1.42,2.69-5,16.23-11.08,19.64-15.31,19.64Z" style="fill: #ff57b8;"/>
  </g>
</svg>