<?xml version="1.0" encoding="UTF-8"?>
<svg id="Layer_2" data-name="Layer 2" xmlns="http://www.w3.org/2000/svg" viewBox="0 0 178.3 178.3">
  <g id="_ÎÓÈ_1" data-name="—ÎÓÈ_1">
    <path d="m96.76,178.3c-.91,0-1.73-.58-2.03-1.45l-5.58-16.16-5.58,16.16c-.32.93-1.23,1.52-2.22,1.44-.98-.09-1.78-.83-1.94-1.8l-2.69-16.88-8.3,14.94c-.48.86-1.48,1.29-2.44,1.03-.95-.26-1.61-1.13-1.59-2.11l.28-17.09-10.77,13.27c-.62.77-1.69,1.01-2.58.59-.89-.42-1.39-1.39-1.2-2.36l3.25-16.78-12.91,11.2c-.75.65-1.83.7-2.64.14-.81-.57-1.13-1.61-.77-2.53l6.11-15.96-14.66,8.79c-.85.51-1.93.37-2.63-.32-.7-.7-.83-1.78-.32-2.63l8.79-14.66-15.96,6.11c-.92.35-1.96.03-2.53-.77-.57-.81-.51-1.9.14-2.64l11.2-12.91-16.78,3.25c-.96.19-1.94-.31-2.36-1.2-.42-.89-.17-1.96.59-2.58l13.27-10.77-17.09.28c-1,.02-1.86-.64-2.11-1.59-.25-.95.17-1.96,1.03-2.44l14.94-8.3-16.88-2.69c-.97-.16-1.72-.95-1.8-1.94s.51-1.9,1.44-2.22l16.16-5.58-16.16-5.58c-.93-.32-1.53-1.24-1.44-2.22.09-.98.83-1.78,1.8-1.94l16.88-2.69-14.94-8.3c-.86-.48-1.29-1.48-1.03-2.44.25-.95,1.11-1.62,2.11-1.59l17.09.28-13.27-10.77c-.77-.62-1.01-1.68-.59-2.58.42-.89,1.39-1.39,2.36-1.2l16.78,3.25-11.2-12.91c-.65-.74-.7-1.83-.14-2.64.57-.81,1.61-1.13,2.53-.77l15.96,6.11-8.79-14.66c-.51-.85-.37-1.93.32-2.63.7-.7,1.78-.83,2.63-.32l14.66,8.79-6.11-15.96c-.35-.92-.03-1.96.77-2.53.81-.56,1.9-.51,2.64.14l12.91,11.2-3.25-16.78c-.19-.97.31-1.94,1.2-2.36.89-.42,1.96-.17,2.58.59l10.77,13.27-.28-17.09c-.02-.99.64-1.86,1.59-2.11.96-.26,1.96.17,2.44,1.03l8.3,14.94,2.69-16.88c.16-.97.95-1.72,1.94-1.8,1-.08,1.9.51,2.22,1.44l5.58,16.16,5.58-16.16c.32-.93,1.23-1.53,2.22-1.44.98.09,1.78.83,1.94,1.8l2.69,16.88,8.3-14.94c.48-.86,1.48-1.29,2.44-1.03.95.26,1.61,1.13,1.59,2.11l-.28,17.09,10.77-13.27c.62-.77,1.69-1.01,2.58-.59.89.42,1.39,1.39,1.2,2.36l-3.25,16.78,12.91-11.2c.75-.65,1.84-.7,2.64-.14.81.57,1.13,1.61.77,2.53l-6.11,15.96,14.66-8.79c.85-.51,1.93-.37,2.63.32.7.7.83,1.78.32,2.63l-8.79,14.66,15.96-6.11c.92-.35,1.96-.03,2.53.77.57.81.51,1.9-.14,2.64l-11.2,12.91,16.78-3.25c.97-.19,1.94.31,2.36,1.2.42.89.17,1.96-.59,2.58l-13.27,10.77,17.09-.28c.98-.03,1.86.64,2.11,1.59.25.95-.17,1.96-1.03,2.44l-14.94,8.3,16.88,2.69c.97.16,1.72.95,1.8,1.94.09.98-.51,1.9-1.44,2.22l-16.16,5.58,16.16,5.58c.93.32,1.53,1.24,1.44,2.22-.09.98-.83,1.78-1.8,1.94l-16.88,2.69,14.94,8.3c.86.48,1.29,1.48,1.03,2.44-.26.95-1.14,1.61-2.11,1.59l-17.09-.28,13.27,10.77c.77.62,1.01,1.68.59,2.58-.42.89-1.39,1.39-2.36,1.2l-16.78-3.25,11.2,12.91c.65.74.7,1.83.14,2.64-.57.81-1.61,1.13-2.53.77l-15.96-6.11,8.79,14.66c.51.85.37,1.93-.32,2.63-.7.7-1.78.83-2.63.32l-14.66-8.79,6.11,15.96c.35.92.03,1.96-.77,2.53-.81.56-1.9.51-2.64-.14l-12.91-11.2,3.25,16.78c.19.97-.31,1.94-1.2,2.36-.89.42-1.96.17-2.58-.59l-10.77-13.27.28,17.09c.02.99-.64,1.86-1.59,2.11-.95.26-1.96-.17-2.44-1.03l-8.3-14.94-2.69,16.88c-.16.97-.95,1.72-1.94,1.8-.06,0-.13,0-.19,0Zm-7.61-26.34c.92,0,1.73.58,2.03,1.45l4.81,13.92,2.32-14.54c.14-.91.85-1.62,1.75-1.78.91-.16,1.81.27,2.25,1.07l7.15,12.87-.24-14.73c-.02-.92.55-1.74,1.41-2.06.86-.31,1.83-.05,2.41.67l9.28,11.44-2.8-14.46c-.17-.9.24-1.81,1.04-2.27.79-.46,1.79-.36,2.48.24l11.12,9.65-5.27-13.75c-.33-.86-.08-1.83.63-2.42.7-.59,1.7-.67,2.49-.2l12.63,7.57-7.57-12.63c-.47-.79-.39-1.79.2-2.49.59-.7,1.56-.95,2.42-.63l13.75,5.27-9.65-11.12c-.6-.69-.7-1.69-.24-2.48.46-.79,1.37-1.21,2.27-1.04l14.46,2.8-11.44-9.28c-.71-.58-.98-1.54-.67-2.41.31-.86,1.11-1.44,2.06-1.41l14.73.24-12.88-7.15c-.8-.45-1.23-1.35-1.07-2.25.16-.9.87-1.61,1.78-1.75l14.55-2.32-13.92-4.81c-.87-.3-1.45-1.12-1.45-2.03s.58-1.73,1.45-2.03l13.92-4.81-14.55-2.32c-.91-.14-1.62-.85-1.78-1.75-.16-.9.27-1.81,1.07-2.25l12.88-7.15-14.73.24c-.88.03-1.74-.55-2.06-1.41-.31-.86-.05-1.83.67-2.41l11.44-9.28-14.46,2.8c-.9.17-1.81-.24-2.27-1.04-.46-.79-.36-1.79.24-2.48l9.65-11.12-13.75,5.27c-.86.33-1.83.08-2.42-.63-.59-.7-.67-1.7-.2-2.49l7.57-12.63-12.63,7.57c-.79.47-1.79.39-2.49-.2-.7-.59-.95-1.56-.63-2.42l5.27-13.75-11.12,9.65c-.69.6-1.69.7-2.48.24-.79-.46-1.21-1.37-1.04-2.27l2.8-14.46-9.28,11.44c-.58.71-1.55.98-2.41.67-.86-.31-1.43-1.14-1.41-2.06l.24-14.73-7.15,12.87c-.45.8-1.35,1.23-2.25,1.07-.9-.16-1.61-.87-1.75-1.78l-2.32-14.54-4.81,13.92c-.3.87-1.12,1.45-2.03,1.45s-1.73-.58-2.03-1.45l-4.81-13.92-2.32,14.54c-.14.91-.85,1.62-1.75,1.78-.9.16-1.81-.27-2.25-1.07l-7.15-12.87.24,14.73c.02.92-.55,1.74-1.41,2.06-.86.31-1.83.05-2.41-.67l-9.28-11.44,2.8,14.46c.17.9-.24,1.81-1.04,2.27-.79.46-1.79.36-2.48-.24l-11.12-9.65,5.27,13.75c.33.86.08,1.83-.63,2.42-.7.59-1.7.67-2.49.2l-12.63-7.57,7.57,12.63c.47.79.39,1.79-.2,2.49-.59.7-1.56.95-2.42.63l-13.75-5.27,9.65,11.12c.6.69.7,1.69.24,2.48-.46.79-1.38,1.21-2.27,1.04l-14.46-2.8,11.44,9.28c.71.58.98,1.54.67,2.4-.31.85-1.12,1.41-2.02,1.41-.01,0-.02,0-.04,0l-14.73-.24,12.87,7.15c.8.45,1.23,1.35,1.07,2.25s-.87,1.61-1.78,1.75l-14.54,2.32,13.92,4.81c.87.3,1.45,1.12,1.45,2.03s-.58,1.73-1.45,2.03l-13.92,4.81,14.54,2.32c.91.14,1.62.85,1.78,1.75s-.27,1.81-1.07,2.25l-12.87,7.15,14.73-.24c.92-.02,1.74.55,2.06,1.41s.05,1.83-.67,2.4l-11.44,9.28,14.46-2.8c.89-.17,1.81.24,2.27,1.04.46.79.36,1.79-.24,2.48l-9.65,11.12,13.75-5.27c.86-.33,1.83-.08,2.42.63.59.7.67,1.7.2,2.49l-7.57,12.63,12.63-7.57c.79-.47,1.79-.39,2.49.2.7.59.95,1.56.63,2.42l-5.27,13.75,11.12-9.65c.69-.6,1.69-.7,2.48-.24.79.46,1.21,1.37,1.04,2.27l-2.8,14.46,9.28-11.44c.58-.71,1.55-.98,2.41-.67.86.31,1.43,1.14,1.41,2.06l-.24,14.73,7.15-12.87c.45-.8,1.35-1.23,2.25-1.07.9.16,1.61.87,1.75,1.78l2.32,14.54,4.81-13.92c.3-.87,1.12-1.45,2.03-1.45Z" style="fill: #ff57b8;"/>
  </g>
</svg>