<?xml version="1.0" encoding="UTF-8"?>
<svg id="Layer_2" data-name="Layer 2" xmlns="http://www.w3.org/2000/svg" viewBox="0 0 151.05 224.43">
  <g id="_ÎÓÈ_1" data-name="—ÎÓÈ_1">
    <g>
      <path d="m148.9,224.43H2.15c-1.19,0-2.15-.96-2.15-2.15,0-41.65,33.88-75.53,75.53-75.53s75.53,33.88,75.53,75.53c0,1.19-.96,2.15-2.15,2.15Zm-144.57-4.3h142.39c-1.14-38.28-32.64-69.08-71.19-69.08S5.47,181.84,4.33,220.13Z" style="fill: #ff57b8;"/>
      <path d="m2.15,151.05c-.57,0-1.12-.23-1.52-.63s-.63-.95-.63-1.52c0-41.65,33.88-75.53,75.53-75.53s75.53,33.88,75.53,75.53c0,1.19-.96,2.15-2.15,2.15H2.15Zm73.38-73.38c-38.55,0-70.05,30.79-71.19,69.08h142.39c-1.14-38.28-32.64-69.08-71.19-69.08Z" style="fill: #ff57b8;"/>
      <path d="m148.9,77.68H2.15c-1.19,0-2.15-.96-2.15-2.15C0,33.88,33.88,0,75.53,0s75.53,33.88,75.53,75.53c0,1.19-.96,2.15-2.15,2.15ZM4.33,73.38h142.39c-1.14-38.28-32.64-69.08-71.19-69.08S5.47,35.09,4.33,73.38Z" style="fill: #ff57b8;"/>
    </g>
  </g>
</svg>