<?xml version="1.0" encoding="UTF-8"?>
<svg id="Layer_2" data-name="Layer 2" xmlns="http://www.w3.org/2000/svg" viewBox="0 0 460.44 294.2">
  <g id="_ÎÓÈ_1" data-name="—ÎÓÈ_1">
    <g>
      <path d="m319.2,294.2c-36.68,0-79.28-7.28-127.37-21.8-74.9-22.62-129-52.5-160.8-88.83C2.6,151.09-6.53,114.41,4.62,77.48,21.4,21.89,80.54-32.57,266.92,23.71c186.38,56.28,205.49,134.36,188.71,189.95-11.15,36.93-39.06,62.43-80.71,73.74-16.67,4.53-35.28,6.79-55.71,6.79ZM6.29,77.98l1.68.51c-10.78,35.71-1.9,71.25,25.69,102.77,31.36,35.83,84.92,65.36,159.18,87.78,74.26,22.42,135.21,27.46,181.16,14.98,40.43-10.98,67.5-35.66,78.28-71.37,23.41-77.53-41.04-141.7-186.37-185.59C120.57-16.82,31.38.96,7.97,78.49l-1.68-.51Z" style="fill: #ff57b8;"/>
      <path d="m330.29,129.32c-.5,0-1,0-1.51,0-25.09-.22-56.84-5.75-89.39-15.58-68.95-20.82-118.04-53.45-111.75-74.28,3.11-10.28,19.01-15.82,44.79-15.6,25.09.22,56.84,5.75,89.39,15.58,68.95,20.82,118.04,53.45,111.75,74.28-3.04,10.08-18.39,15.6-43.28,15.6ZM170.92,27.35c-22.89,0-37.41,4.76-39.93,13.12-5.53,18.32,44.57,50.33,109.41,69.91,32.24,9.74,63.64,15.22,88.41,15.43,23.75.21,38.83-4.57,41.41-13.11,5.53-18.32-44.57-50.33-109.41-69.91-32.24-9.74-63.64-15.22-88.41-15.43-.5,0-.99,0-1.48,0Z" style="fill: #ff57b8;"/>
      <path d="m316.84,128.83c-.46,0-.93-.18-1.27-.55-12.21-12.91-39.42-26.86-71.03-36.4-30.93-9.34-60.98-12.86-78.42-9.19-.95.2-1.87-.41-2.07-1.35-.2-.95.41-1.87,1.35-2.07,17.98-3.79,48.7-.24,80.16,9.26,32.15,9.71,59.96,24.02,72.56,37.35.66.7.63,1.81-.07,2.47-.34.32-.77.48-1.2.48Z" style="fill: #ff57b8;"/>
      <path d="m363.77,155.08c-.17,0-.33,0-.49,0-36.97-.07-83.71-8.08-131.6-22.54s-91.24-33.66-122.08-54.06c-31.4-20.77-46.17-40.54-41.61-55.66,3.04-10.08,14.55-17.26,33.29-20.77.95-.18,1.86.45,2.04,1.4s-.45,1.86-1.4,2.04c-17.37,3.26-27.94,9.6-30.58,18.35-4.02,13.31,10.63,32.17,40.19,51.73,30.56,20.22,73.59,39.27,121.16,53.63,47.57,14.36,93.95,22.32,130.59,22.39,35.47.07,58.08-7.53,62.1-20.84,2.8-9.26-3.07-22.75-14.95-34.39-.69-.68-.7-1.78-.03-2.47.68-.69,1.78-.7,2.47-.03,12.79,12.53,19.01,27.41,15.85,37.9-4.54,15.05-27.61,23.33-64.97,23.33Z" style="fill: #ff57b8;"/>
      <path d="m370.95,214.75c-44.47,0-99.02-9.12-154.67-25.92C96.38,152.63,8.7,92.04,16.66,50.9c.18-.95,1.1-1.57,2.05-1.39.95.18,1.57,1.1,1.39,2.05-3.6,18.6,14.53,42.64,51.05,67.7,37.07,25.44,88.97,48.95,146.15,66.22,58.48,17.66,115.69,26.78,161.09,25.68,44.12-1.07,72.58-12.12,78.08-30.34.17-.57.33-1.16.46-1.75.21-.94,1.14-1.54,2.08-1.33.94.21,1.54,1.14,1.33,2.08-.15.68-.32,1.35-.52,2.01-6.05,20.05-34.94,31.71-81.34,32.83-2.47.06-4.98.09-7.51.09Z" style="fill: #ff57b8;"/>
      <path d="m350.64,272.64c-43.16,0-96.74-8.48-152.06-25.18C101.38,218.11,22.54,170.71,2.4,129.51c-.42-.87-.06-1.92.8-2.34.87-.42,1.92-.06,2.34.8,9.33,19.08,33.15,40.9,67.09,61.44,35.29,21.36,79.19,40.27,126.96,54.7,101.18,30.55,196.14,33.57,230.92,7.34.77-.58,1.87-.43,2.45.34.58.77.43,1.87-.34,2.45-16.34,12.32-45.43,18.4-81.98,18.4Z" style="fill: #ff57b8;"/>
      <g>
        <path d="m138.49,253.28c-.22,0-.45-.04-.67-.13-8.16-3.4-11.58-14.42-9.88-31.86,1.53-15.79,7.25-36.17,16.08-57.39,16.1-38.67,41.89-73.87,60.03-66.32.89.37,1.31,1.4.94,2.29-.37.89-1.4,1.31-2.29.94-13.91-5.79-37.75,21.91-55.45,64.43-8.71,20.91-14.33,40.93-15.83,56.38-1.51,15.54,1.24,25.58,7.75,28.29.89.37,1.31,1.4.94,2.29-.28.67-.93,1.08-1.62,1.08Z" style="fill: #ff57b8;"/>
        <path d="m79.55,223.08c-.36,0-.73-.11-1.04-.34-28.66-21.21-30.99-60.08-6.09-101.44,11.51-19.11,27.27-34.13,44.38-42.29,17.19-8.2,33.86-8.64,46.95-1.25.84.48,1.14,1.54.66,2.38-.48.84-1.54,1.14-2.38.66-12.06-6.81-27.59-6.33-43.72,1.36-16.5,7.87-31.73,22.41-42.89,40.94-23.89,39.68-21.91,76.78,5.17,96.82.78.57.94,1.67.37,2.45-.34.46-.87.71-1.41.71Z" style="fill: #ff57b8;"/>
        <path d="m21.84,170.01c-.57,0-1.13-.28-1.47-.79-5.92-9.03-22.01-50.27,7.37-86.95,17.15-21.41,37.25-33.48,59.77-35.9,23.01-2.47,41.3,5.97,50.16,11.22.83.49,1.11,1.57.61,2.4-.49.83-1.57,1.11-2.4.61-28.29-16.77-70.83-19.31-105.41,23.85-28.06,35.03-12.8,74.26-7.17,82.84.53.81.3,1.89-.51,2.42-.3.19-.63.29-.96.29Z" style="fill: #ff57b8;"/>
        <path d="m233.34,111.71c-.17,0-.34-.03-.52-.08-.92-.29-1.44-1.27-1.16-2.19.17-.55,17.04-55.43,19.83-88.01.08-.96.93-1.68,1.89-1.59.96.08,1.68.93,1.59,1.89-2.82,32.95-19.8,88.19-19.97,88.75-.23.75-.92,1.23-1.67,1.23Z" style="fill: #ff57b8;"/>
        <path d="m205.76,101.81c-.14,0-.27-.02-.41-.05-.94-.23-1.52-1.17-1.29-2.11.13-.53,12.51-53.18-3.7-78.86-4.41-6.98-10.62-11.37-18.46-13.03-.95-.2-1.55-1.13-1.35-2.08.2-.95,1.13-1.55,2.08-1.35,8.8,1.87,15.77,6.78,20.7,14.59,16.99,26.93,4.68,79.32,4.14,81.54-.19.8-.91,1.34-1.7,1.34Z" style="fill: #ff57b8;"/>
        <path d="m182.12,91.07s-.06,0-.09,0c-.96-.05-1.71-.87-1.66-1.84.02-.44,1.99-44.71-21.06-69.08-9.97-10.54-23.27-15.92-39.54-16-.97,0-1.75-.79-1.74-1.76,0-.97.74-1.75,1.76-1.74,17.27.08,31.42,5.84,42.08,17.11,24.08,25.47,22.1,69.78,22,71.65-.05.93-.82,1.66-1.75,1.66Z" style="fill: #ff57b8;"/>
        <path d="m163.68,81.19c-.88,0-1.64-.66-1.74-1.56-.02-.18-2.16-18.51-13.89-35.96-15.64-23.27-40.06-34.06-72.58-32.08-.97.06-1.79-.68-1.85-1.64-.06-.96.68-1.79,1.64-1.85,42.23-2.57,64.51,16.93,75.77,33.74,12.16,18.16,14.3,36.63,14.39,37.41.11.96-.59,1.82-1.55,1.93-.07,0-.13.01-.19.01Z" style="fill: #ff57b8;"/>
        <path d="m149.34,71.94c-.86,0-1.61-.63-1.73-1.5-1.53-10.79-19.28-31.06-44.73-39.59-20.45-6.85-51.78-8.08-84.95,24.96-.68.68-1.79.68-2.47,0-.68-.68-.68-1.79,0-2.47C49.9,19.03,82.61,20.36,103.99,27.53c26.71,8.95,45.43,30.74,47.08,42.41.14.96-.53,1.84-1.49,1.98-.08.01-.17.02-.25.02Z" style="fill: #ff57b8;"/>
      </g>
      <g>
        <path d="m212.03,278.01c-.37,0-.72-.05-1.04-.14-.94-.24-1.5-1.19-1.26-2.13.24-.94,1.19-1.5,2.13-1.26.04.01,3.77.7,12.38-20.34,5.74-14.03,12-33.81,17.63-55.69,5.74-22.3,9.93-42.61,11.8-57.19,2.88-22.47-.63-23.64-.67-23.65-.94-.24-1.5-1.19-1.26-2.13.24-.94,1.19-1.5,2.13-1.26,3.06.79,6.2,4.62,3.27,27.48-1.89,14.72-6.11,35.18-11.88,57.61-5.67,22.03-11.99,41.97-17.78,56.14-7.85,19.18-12.51,22.54-15.45,22.54Z" style="fill: #ff57b8;"/>
        <path d="m283.11,291.79c-1.31,0-2.63-.08-3.96-.24-.96-.12-1.64-.99-1.52-1.95s.99-1.64,1.95-1.52c15.66,1.91,26.91-9.28,33.59-19,9.3-13.55,15.92-33.26,18.63-55.49,2.78-22.72,1.51-43.74-3.57-59.19-3.74-11.39-11.43-25.37-26.82-27.25-.96-.12-1.64-.99-1.52-1.95.12-.96.99-1.64,1.95-1.52,13.62,1.66,23.9,11.91,29.72,29.63,5.24,15.93,6.56,37.5,3.72,60.71-2.78,22.78-9.61,43.04-19.22,57.05-9.36,13.64-20.68,20.74-32.94,20.74Z" style="fill: #ff57b8;"/>
        <path d="m365.12,289.71c-.85,0-1.6-.62-1.73-1.49-.14-.96.51-1.85,1.47-1.99,15.05-2.28,42.82-36.58,39.8-75.65-3.43-44.31-29.51-77.91-63.44-81.7-.96-.11-1.65-.97-1.54-1.93.11-.96.97-1.65,1.93-1.54,17.61,1.97,33.31,11.2,45.43,26.69,12.06,15.42,19.36,35.55,21.11,58.22,3.22,41.63-26.22,76.87-42.77,79.38-.09.01-.18.02-.26.02Z" style="fill: #ff57b8;"/>
        <path d="m441.44,241.94c-.27,0-.54-.06-.8-.19-.86-.44-1.2-1.5-.76-2.36,10.6-20.62,10.48-47.04-.31-70.68-15.26-33.43-57.47-57.52-95.97-40.1-.88.4-1.92,0-2.32-.87-.4-.88,0-1.92.87-2.32,40.4-18.28,84.64,6.87,100.6,41.83,11.23,24.6,11.32,52.17.24,73.73-.31.6-.92.95-1.56.95Z" style="fill: #ff57b8;"/>
        <path d="m261.63,119.12c-.18,0-.37-.03-.55-.09-.92-.3-1.41-1.29-1.11-2.21.87-2.62,21.51-64.24,44.42-75.28,4.11-1.98,8.11-2.27,11.89-.88.91.33,1.37,1.34,1.04,2.25-.33.91-1.34,1.37-2.25,1.04-2.9-1.07-5.9-.83-9.16.75-21.59,10.4-42.41,72.6-42.62,73.22-.24.73-.93,1.2-1.66,1.2Z" style="fill: #ff57b8;"/>
        <path d="m289.13,125.46c-.23,0-.47-.05-.69-.14-.89-.38-1.29-1.41-.91-2.3.8-1.86,20.06-45.6,52.29-56.88,12.6-4.41,25.5-3.18,38.32,3.65.85.45,1.18,1.51.72,2.37-.45.85-1.51,1.18-2.37.72-11.93-6.35-23.88-7.5-35.52-3.43-30.8,10.78-50.05,54.53-50.24,54.97-.29.66-.93,1.06-1.61,1.06Z" style="fill: #ff57b8;"/>
        <path d="m311.94,128.17c-.38,0-.76-.12-1.08-.37-.76-.6-.9-1.69-.3-2.46.51-.65,12.63-16.02,32.09-27.06,18.1-10.28,46.07-18.44,76.51,1.08.81.52,1.05,1.6.53,2.42-.52.81-1.6,1.05-2.42.53-23.22-14.89-47.72-15.24-72.8-1.04-18.88,10.7-31.03,26.07-31.15,26.23-.35.44-.86.67-1.38.67Z" style="fill: #ff57b8;"/>
        <path d="m452,149.18c-.57,0-1.13-.28-1.47-.79-19.73-30.19-45.38-37.27-63.42-37.89-26.25-.91-48.84,11.1-54.12,18.07-.58.77-1.68.92-2.45.34-.77-.58-.92-1.68-.34-2.45,6.46-8.53,30.49-20.37,57.03-19.46,18.87.65,45.67,8.03,66.23,39.47.53.81.3,1.89-.51,2.42-.3.19-.63.29-.96.29Z" style="fill: #ff57b8;"/>
      </g>
    </g>
  </g>
</svg>