<?xml version="1.0" encoding="UTF-8"?>
<svg id="Layer_2" data-name="Layer 2" xmlns="http://www.w3.org/2000/svg" viewBox="0 0 107.1 107.1">
  <g id="_ÎÓÈ_1" data-name="—ÎÓÈ_1">
    <g>
      <path d="m53.55,107.1c-1.1,0-2-.9-2-2V2c0-1.1.9-2,2-2s2,.9,2,2v103.1c0,1.1-.9,2-2,2Z" style="fill: #ff57b8;"/>
      <path d="m105.1,55.55H2c-1.1,0-2-.9-2-2s.9-2,2-2h103.1c1.1,0,2,.9,2,2s-.9,2-2,2Z" style="fill: #ff57b8;"/>
      <path d="m17.1,92c-.51,0-1.02-.2-1.41-.59-.78-.78-.78-2.05,0-2.83L88.59,15.68c.78-.78,2.05-.78,2.83,0s.78,2.05,0,2.83L18.51,91.42c-.39.39-.9.59-1.41.59Z" style="fill: #ff57b8;"/>
      <path d="m90,92c-.51,0-1.02-.2-1.41-.59L15.68,18.51c-.78-.78-.78-2.05,0-2.83.78-.78,2.05-.78,2.83,0l72.9,72.9c.78.78.78,2.05,0,2.83-.39.39-.9.59-1.41.59Z" style="fill: #ff57b8;"/>
    </g>
  </g>
</svg>