<?xml version="1.0" encoding="UTF-8"?>
<svg id="Layer_2" data-name="Layer 2" xmlns="http://www.w3.org/2000/svg" viewBox="0 0 371.67 454.3">
  <g id="_ÎÓÈ_1" data-name="—ÎÓÈ_1">
    <g>
      <path d="m185.83,104.3C81.63,104.3,0,81.39,0,52.15S81.63,0,185.83,0s185.83,22.91,185.83,52.15-81.63,52.15-185.83,52.15Zm0-100C87.43,4.3,4.3,26.21,4.3,52.15s83.13,47.85,181.53,47.85,181.53-21.91,181.53-47.85S284.24,4.3,185.83,4.3Z" style="fill: #ff57b8;"/>
      <path d="m185.83,254.3c-49.34,0-95.75-7.86-130.7-22.13C19.58,217.66,0,198.11,0,177.15s19.58-40.51,55.14-55.02c34.95-14.27,81.36-22.13,130.7-22.13s95.75,7.86,130.7,22.13c35.56,14.52,55.14,34.06,55.14,55.02s-19.58,40.51-55.14,55.02c-34.95,14.27-81.36,22.13-130.7,22.13Zm0-150c-48.79,0-94.63,7.74-129.07,21.81-33.83,13.81-52.46,31.94-52.46,51.04s18.63,37.23,52.46,51.04c34.44,14.06,80.28,21.81,129.07,21.81s94.63-7.74,129.07-21.81c33.83-13.81,52.46-31.94,52.46-51.04s-18.63-37.23-52.46-51.04c-34.44-14.06-80.28-21.81-129.07-21.81Z" style="fill: #ff57b8;"/>
      <path d="m185.83,454.3c-49.42,0-95.91-10.49-130.91-29.55C19.5,405.47,0,379.68,0,352.15s19.5-53.32,54.92-72.6c35-19.06,81.5-29.55,130.91-29.55s95.91,10.49,130.91,29.55c35.42,19.28,54.92,45.06,54.92,72.6s-19.5,53.32-54.92,72.6c-35,19.06-81.5,29.55-130.91,29.55Zm0-200c-100.1,0-181.53,43.9-181.53,97.85s81.44,97.85,181.53,97.85,181.53-43.9,181.53-97.85-81.44-97.85-181.53-97.85Z" style="fill: #ff57b8;"/>
    </g>
  </g>
</svg>