<?xml version="1.0" encoding="UTF-8"?>
<svg id="Layer_2" data-name="Layer 2" xmlns="http://www.w3.org/2000/svg" viewBox="0 0 82.94 82.94">
  <g id="_ÎÓÈ_1" data-name="—ÎÓÈ_1">
    <path d="m63.66,82.94c-5.49,0-11.1-2.18-15.42-6.5-3.21-3.21-5.36-9.41-6.79-16.09-1.43,6.69-3.58,12.88-6.79,16.09-8.29,8.29-21.36,8.7-29.13.93C1.76,73.6-.2,68.45.02,62.87c.21-5.49,2.5-10.69,6.45-14.63,3.21-3.21,9.41-5.35,16.09-6.79-6.69-1.43-12.88-3.58-16.09-6.79C2.52,30.72.23,25.52.02,20.03c-.21-5.57,1.75-10.72,5.52-14.5C9.31,1.76,14.46-.2,20.03.02c5.49.21,10.69,2.5,14.63,6.45,3.21,3.21,5.36,9.41,6.79,16.09,1.43-6.69,3.58-12.88,6.79-16.09C52.19,2.52,57.39.23,62.88.02c5.58-.21,10.72,1.75,14.5,5.52,3.77,3.77,5.73,8.92,5.52,14.5-.21,5.49-2.5,10.69-6.45,14.63-3.21,3.21-9.41,5.36-16.09,6.79,6.69,1.43,12.88,3.58,16.09,6.79,8.29,8.29,8.7,21.36.93,29.13-3.72,3.72-8.67,5.57-13.71,5.57Zm-22.21-37.81c1.02,0,1.88.77,1.99,1.79,1.41,13.52,4.19,23.25,7.63,26.69,6.73,6.73,17.26,7.14,23.47.93,6.22-6.22,5.8-16.75-.93-23.47-3.44-3.44-13.17-6.22-26.69-7.63-1.02-.11-1.79-.96-1.79-1.99s.77-1.88,1.79-1.99c13.52-1.41,23.25-4.19,26.69-7.63,3.23-3.23,5.11-7.48,5.28-11.96.17-4.45-1.37-8.54-4.35-11.52-2.98-2.98-7.07-4.52-11.52-4.35-4.48.17-8.73,2.05-11.96,5.28-3.44,3.44-6.22,13.17-7.63,26.69-.11,1.02-.96,1.79-1.99,1.79s-1.88-.77-1.99-1.79c-1.41-13.52-4.19-23.25-7.63-26.69-3.23-3.23-7.48-5.11-11.96-5.28-4.45-.17-8.54,1.37-11.52,4.35-2.98,2.98-4.52,7.07-4.35,11.52.17,4.48,2.05,8.73,5.28,11.96,3.44,3.44,13.17,6.22,26.69,7.63,1.02.11,1.79.96,1.79,1.99s-.77,1.88-1.79,1.99c-13.52,1.41-23.25,4.19-26.69,7.63-3.23,3.23-5.11,7.48-5.28,11.96-.17,4.45,1.37,8.54,4.35,11.52,6.22,6.22,16.75,5.8,23.47-.93,3.44-3.44,6.22-13.17,7.63-26.69.11-1.02.96-1.79,1.99-1.79Z" style="fill: #ff57b8;"/>
  </g>
</svg>