<?xml version="1.0" encoding="UTF-8"?>
<svg id="Layer_2" data-name="Layer 2" xmlns="http://www.w3.org/2000/svg" viewBox="0 0 440.41 393.57">
  <g id="_ÎÓÈ_1" data-name="—ÎÓÈ_1">
    <g>
      <g>
        <g>
          <path d="m220.15,302.63c-27.15,0-58.03-9.89-89.3-28.6-28.89-17.29-57.23-41.79-79.8-68.99C12.93,159.08-4.96,111.57,1.96,74.69c.18-.95,1.09-1.58,2.04-1.4.95.18,1.58,1.09,1.4,2.04-6.73,35.86,10.89,82.32,48.35,127.46,47.81,57.62,114.68,96.33,166.4,96.33.97,0,1.75.78,1.75,1.75s-.78,1.75-1.75,1.75Z" style="fill: #ff57b8;"/>
          <path d="m220.15,86.48c-45.8,0-80.62-17.23-101.77-31.68-24.95-17.05-39.99-36.73-41.47-46.59-.81-5.4,2.37-6.98,3.77-7.41.92-.28,1.9.24,2.19,1.16.28.92-.24,1.9-1.16,2.19-.49.15-1.78.55-1.33,3.55,2.72,18.15,58.27,75.28,139.77,75.28.97,0,1.75.78,1.75,1.75s-.78,1.75-1.75,1.75Z" style="fill: #ff57b8;"/>
          <path d="m220.15,340.79c-29.47,0-70.51-20.54-112.59-56.36-39.62-33.73-74.48-76.05-93.24-113.21-.44-.86-.09-1.92.77-2.35.86-.44,1.92-.09,2.35.77,18.56,36.76,53.1,78.68,92.38,112.12,41.46,35.29,81.67,55.53,110.32,55.53.97,0,1.75.78,1.75,1.75s-.78,1.75-1.75,1.75Z" style="fill: #ff57b8;"/>
          <path d="m220.15,75.97c-56.24,0-97.32-48.6-98.31-64.74-.2-3.32,1.36-5.52,4.2-5.87.96-.12,1.83.56,1.95,1.52.12.96-.56,1.83-1.52,1.95-.47.06-1.26.16-1.13,2.18.42,6.89,10.89,22.52,27.05,35.75,11.73,9.6,36.13,25.71,67.77,25.71.97,0,1.75.78,1.75,1.75s-.78,1.75-1.75,1.75Z" style="fill: #ff57b8;"/>
          <path d="m220.15,365.54c-31.91,0-65.17-28.26-105.34-65.21-.71-.65-.76-1.76-.1-2.47.65-.71,1.76-.76,2.47-.1,39.6,36.42,72.32,64.28,102.97,64.28.97,0,1.75.78,1.75,1.75s-.78,1.75-1.75,1.75Z" style="fill: #ff57b8;"/>
          <path d="m220.15,71.13c-28.33,0-53.2-28.09-53.69-38.68-.13-2.91,1.5-4.87,4.26-5.13.96-.09,1.81.62,1.9,1.58.09.96-.62,1.81-1.58,1.9-.69.06-1.15.2-1.09,1.48.4,8.66,23.48,35.34,50.19,35.34.97,0,1.75.78,1.75,1.75s-.78,1.75-1.75,1.75Z" style="fill: #ff57b8;"/>
          <path d="m220.15,382.29c-20.6,0-29.04-7.94-43.03-21.11l-.58-.55c-.7-.66-.74-1.77-.08-2.47.66-.7,1.77-.74,2.47-.08l.58.55c13.81,13,21.42,20.15,40.63,20.15.97,0,1.75.78,1.75,1.75s-.78,1.75-1.75,1.75Z" style="fill: #ff57b8;"/>
          <path d="m220.15,117.51c-93.2,0-152.18-48.31-169.09-80.78-5.51-10.58-6.53-19.29-2.86-24.52.55-.79,1.65-.98,2.44-.43.79.55.98,1.65.43,2.44-2.79,3.99-1.63,11.8,3.1,20.89,16.51,31.71,74.34,78.9,165.99,78.9.97,0,1.75.78,1.75,1.75s-.78,1.75-1.75,1.75Z" style="fill: #ff57b8;"/>
          <path d="m220.15,177.54c-39.82,0-78.93-10.21-113.09-29.52-29.59-16.73-53.83-39.27-68.25-63.48-13.32-22.36-16.34-43.7-8.3-58.55.46-.85,1.52-1.17,2.37-.7.85.46,1.17,1.52.7,2.37-7.44,13.73-4.44,33.81,8.23,55.09,26.18,43.97,93.16,91.29,178.33,91.29.97,0,1.75.78,1.75,1.75s-.78,1.75-1.75,1.75Z" style="fill: #ff57b8;"/>
          <path d="m220.15,239.63c-32.78,0-70.22-11.34-105.42-31.92-33.93-19.84-62.86-46.32-81.47-74.56C11.84,100.63,6.24,68.29,17.49,42.08c.38-.89,1.41-1.3,2.3-.92.89.38,1.3,1.41.92,2.3-13.81,32.16.8,65.47,15.48,87.76,38.76,58.83,119.57,104.91,183.96,104.91.97,0,1.75.78,1.75,1.75s-.78,1.75-1.75,1.75Z" style="fill: #ff57b8;"/>
          <path d="m219.2,393.57c-7.2,0-11.51-3.98-16.92-8.95l-1.03-.95c-8.4-7.7-16.73-15.42-24.76-22.96-17.4-16.34-32.81-31.21-47.12-45.46-18.74-18.66-33.64-34.14-46.89-48.72-14.15-15.56-29.05-32.51-42.11-51.03-12.7-18-22.75-36.97-29.87-56.36C1.59,134.91-1.74,110.59.86,88.84c2.96-24.73,13.31-46.6,29.95-63.25C47.35,9.04,69.33-.02,92.69,0c18.85.04,38.68,5.28,58.92,15.57,18.48,9.39,35.72,22.39,49.85,37.58l1.12,1.21c5.78,6.25,9.59,10.38,17.45,9.84.96-.07,1.8.66,1.87,1.63.07.96-.66,1.8-1.63,1.87-9.52.65-14.5-4.73-20.26-10.96l-1.11-1.2c-13.86-14.9-30.76-27.64-48.88-36.85-19.75-10.04-39.04-15.15-57.34-15.19-22.76-.06-43.29,8.45-59.39,24.56C17.21,44.15,7.2,65.31,4.33,89.25c-2.54,21.21.73,44.96,9.44,68.69,7.01,19.11,16.92,37.8,29.45,55.55,12.96,18.37,27.77,35.22,41.84,50.69,13.21,14.53,28.08,29.97,46.77,48.59,14.28,14.23,29.67,29.07,47.05,45.39,8.02,7.53,16.34,15.25,24.73,22.93l1.04.95c5.45,5.01,9.04,8.33,15.41,8,.96-.05,1.79.69,1.84,1.66.05.97-.69,1.79-1.66,1.84-.35.02-.7.03-1.04.03Z" style="fill: #ff57b8;"/>
        </g>
        <path d="m217.78,393.15c-.31,0-.62-.08-.9-.25-10.25-6.14-16.65-39.76-23.61-124.03-5.58-67.59-1.97-123.56,3.27-153.4,5-28.48,16.92-51.02,17.04-51.24.46-.85,1.52-1.17,2.37-.72.85.46,1.17,1.52.72,2.37-.12.22-11.79,22.28-16.68,50.19-5.2,29.63-8.78,85.25-3.22,152.51,6.59,79.77,13.14,116.05,21.92,121.31.83.5,1.1,1.57.6,2.4-.33.55-.91.85-1.5.85Z" style="fill: #ff57b8;"/>
        <g>
          <path d="m189.83,374.43c-.47,0-.94-.19-1.29-.56-7.91-8.58-19.22-44.73-28.17-89.96-10.06-50.87-14.5-98.85-12.17-131.64,3.06-43.27,13.77-74.89,30.15-89.02,7.19-6.2,15.36-9,24.29-8.32.96.07,1.68.92,1.61,1.88-.07.96-.91,1.69-1.88,1.61-7.96-.61-15.28,1.91-21.73,7.48-15.67,13.52-25.95,44.28-28.94,86.61-5.27,74.51,25.02,203.35,39.42,218.98.66.71.61,1.82-.1,2.47-.34.31-.76.46-1.19.46Z" style="fill: #ff57b8;"/>
          <path d="m142.51,327.51c-.69,0-1.34-.4-1.62-1.08-20.81-49.89-38.26-137.8-29.61-202.48,7.28-54.29,35.5-91.31,68.65-90.03.97.04,1.72.85,1.68,1.82-.04.97-.86,1.72-1.82,1.68-15.21-.59-29.55,7.51-41.47,23.42-11.82,15.78-20.2,38.36-23.58,63.58-8.56,64.07,8.75,151.21,29.38,200.67.37.89-.05,1.92-.94,2.29-.22.09-.45.14-.67.14Z" style="fill: #ff57b8;"/>
          <path d="m97.16,282.98c-.71,0-1.37-.43-1.64-1.13-14.82-39.29-36.4-121.78-23.3-181.8,4.94-22.6,16.15-43.98,31.56-60.21,15.03-15.83,32.38-24.65,47.61-24.2.97.03,1.73.84,1.7,1.8-.03.97-.84,1.73-1.8,1.7-30.57-.91-65.93,37.24-75.64,81.66-12.92,59.22,8.48,140.89,23.16,179.82.34.9-.12,1.91-1.02,2.26-.2.08-.41.11-.62.11Z" style="fill: #ff57b8;"/>
          <path d="m62.74,245.15c-.73,0-1.4-.45-1.65-1.18-25.74-74.43-34.39-116.32-17.59-167.74,6.86-20.96,17.36-38.61,30.37-51.03,13.93-13.3,30.09-20.4,48.04-21.1.96-.03,1.78.71,1.82,1.68.04.97-.71,1.78-1.68,1.82-33.24,1.3-61.35,27.36-75.21,69.72-16.49,50.46-7.9,91.84,17.57,165.51.32.91-.17,1.91-1.08,2.23-.19.07-.38.1-.57.1Z" style="fill: #ff57b8;"/>
          <path d="m33.26,204.48c-.63,0-1.24-.34-1.56-.95C15.34,171.93-.38,127.38,23.42,62.8,37.56,24.43,62.41,2.72,95.29.02c.97-.08,1.81.64,1.89,1.6.08.96-.64,1.81-1.6,1.89-31.42,2.58-55.24,23.5-68.87,60.5-23.33,63.29-7.92,106.95,8.11,137.91.44.86.11,1.91-.75,2.36-.26.13-.53.2-.8.2Z" style="fill: #ff57b8;"/>
        </g>
      </g>
      <g>
        <g>
          <path d="m220.26,302.63c-.97,0-1.75-.78-1.75-1.75s.78-1.75,1.75-1.75c51.73,0,118.6-38.71,166.4-96.33,37.46-45.14,55.08-91.6,48.35-127.46-.18-.95.45-1.86,1.4-2.04.95-.18,1.86.45,2.04,1.4,6.93,36.89-10.97,84.4-49.09,130.34-22.57,27.21-50.91,51.71-79.8,68.99-31.27,18.71-62.14,28.6-89.3,28.6Z" style="fill: #ff57b8;"/>
          <path d="m220.26,86.48c-.97,0-1.75-.78-1.75-1.75s.78-1.75,1.75-1.75c81.5,0,137.05-57.13,139.77-75.28.45-3-.85-3.4-1.33-3.55-.92-.28-1.44-1.26-1.16-2.19.28-.92,1.26-1.44,2.19-1.16,1.4.43,4.58,2.02,3.77,7.41-1.48,9.86-16.51,29.54-41.47,46.59-21.15,14.45-55.97,31.68-101.77,31.68Z" style="fill: #ff57b8;"/>
          <path d="m220.26,340.79c-.97,0-1.75-.78-1.75-1.75s.78-1.75,1.75-1.75c28.65,0,68.86-20.24,110.32-55.53,39.29-33.44,73.82-75.36,92.38-112.12.44-.86,1.49-1.21,2.35-.77.86.44,1.21,1.49.77,2.35-18.76,37.16-53.62,79.48-93.24,113.21-42.08,35.82-83.12,56.36-112.59,56.36Z" style="fill: #ff57b8;"/>
          <path d="m220.26,75.97c-.97,0-1.75-.78-1.75-1.75s.78-1.75,1.75-1.75c31.64,0,56.04-16.11,67.77-25.71,16.16-13.23,26.62-28.86,27.05-35.75.12-2.02-.66-2.12-1.13-2.18-.96-.12-1.64-.99-1.52-1.95.12-.96.99-1.64,1.95-1.52,2.83.35,4.4,2.54,4.2,5.87-.99,16.14-42.07,64.74-98.31,64.74Z" style="fill: #ff57b8;"/>
          <path d="m220.26,365.54c-.97,0-1.75-.78-1.75-1.75s.78-1.75,1.75-1.75c30.65,0,63.37-27.86,102.97-64.28.71-.65,1.82-.61,2.47.1.65.71.61,1.82-.1,2.47-40.16,36.95-73.42,65.21-105.34,65.21Z" style="fill: #ff57b8;"/>
          <path d="m220.26,71.13c-.97,0-1.75-.78-1.75-1.75s.78-1.75,1.75-1.75c26.71,0,49.79-26.69,50.19-35.34.06-1.28-.39-1.41-1.09-1.48-.96-.09-1.67-.94-1.58-1.9.09-.96.94-1.67,1.9-1.58,2.76.26,4.39,2.22,4.26,5.13-.49,10.6-25.36,38.68-53.69,38.68Z" style="fill: #ff57b8;"/>
          <path d="m220.26,382.29c-.97,0-1.75-.78-1.75-1.75s.78-1.75,1.75-1.75c19.21,0,26.82-7.16,40.63-20.15l.58-.55c.7-.66,1.81-.63,2.47.08.66.7.63,1.81-.08,2.47l-.58.55c-13.99,13.16-22.43,21.11-43.03,21.11Z" style="fill: #ff57b8;"/>
          <path d="m220.26,117.51c-.97,0-1.75-.78-1.75-1.75s.78-1.75,1.75-1.75c91.64,0,149.47-47.18,165.99-78.9,4.73-9.09,5.89-16.9,3.1-20.9-.55-.79-.36-1.88.43-2.44.79-.55,1.88-.36,2.44.43,3.66,5.23,2.64,13.94-2.86,24.52-16.91,32.47-75.89,80.78-169.09,80.78Z" style="fill: #ff57b8;"/>
          <path d="m220.26,177.54c-.97,0-1.75-.78-1.75-1.75s.78-1.75,1.75-1.75c85.17,0,152.15-47.32,178.33-91.29,12.67-21.28,15.67-41.36,8.23-55.09-.46-.85-.14-1.91.7-2.37.85-.46,1.91-.14,2.37.7,8.04,14.84,5.02,36.19-8.3,58.55-14.42,24.21-38.66,46.76-68.25,63.48-34.16,19.31-73.27,29.52-113.09,29.52Z" style="fill: #ff57b8;"/>
          <path d="m220.26,239.63c-.97,0-1.75-.78-1.75-1.75s.78-1.75,1.75-1.75c64.39,0,145.2-46.08,183.96-104.91,14.68-22.29,29.29-55.6,15.48-87.76-.38-.89.03-1.92.92-2.3.89-.38,1.92.03,2.3.92,11.25,26.21,5.65,58.55-15.77,91.06-18.61,28.24-47.54,54.72-81.47,74.56-35.2,20.58-72.63,31.92-105.42,31.92Z" style="fill: #ff57b8;"/>
          <path d="m221.21,393.57c-.34,0-.69,0-1.04-.03-.97-.05-1.71-.87-1.66-1.84.05-.97.88-1.71,1.84-1.66,6.37.32,9.96-2.99,15.41-8l1.04-.95c8.4-7.69,16.72-15.41,24.73-22.93,17.37-16.32,32.76-31.16,47.05-45.39,18.69-18.62,33.56-34.06,46.77-48.59,14.07-15.47,28.88-32.32,41.84-50.69,12.52-17.75,22.43-36.44,29.45-55.55,8.71-23.73,11.98-47.48,9.44-68.69-2.86-23.94-12.87-45.1-28.95-61.19-16.06-16.07-36.53-24.56-59.2-24.56-.06,0-.13,0-.19,0-18.3.04-37.59,5.15-57.34,15.19-18.12,9.21-35.02,21.95-48.88,36.85l-1.11,1.2c-5.76,6.23-10.74,11.61-20.26,10.96-.96-.07-1.69-.9-1.63-1.87.07-.96.9-1.69,1.87-1.63,7.85.54,11.67-3.59,17.45-9.84l1.12-1.21c14.13-15.19,31.37-28.19,49.85-37.58C309.04,5.28,328.87.04,347.72,0c23.4-.07,45.34,9.04,61.88,25.59,16.64,16.65,27,38.52,29.95,63.25,2.6,21.75-.73,46.07-9.63,70.31-7.12,19.39-17.17,38.36-29.87,56.36-13.07,18.52-27.96,35.47-42.11,51.03-13.26,14.57-28.16,30.05-46.89,48.72-14.31,14.25-29.72,29.12-47.12,45.46-8.02,7.53-16.35,15.26-24.76,22.96l-1.03.95c-5.4,4.97-9.72,8.95-16.92,8.95Z" style="fill: #ff57b8;"/>
        </g>
        <path d="m222.63,393.15c-.57,0-1.13-.28-1.47-.8-.53-.81-.3-1.89.51-2.42,8.09-5.25,14.13-41.54,20.21-121.33,5.12-67.27,1.82-122.91-2.98-152.55-4.52-27.93-15.29-50-15.4-50.22-.43-.87-.07-1.92.8-2.34.87-.43,1.92-.07,2.34.8.11.22,11.1,22.74,15.71,51.21,4.83,29.84,8.16,85.8,3.01,153.37-6.42,84.25-12.32,117.85-21.79,124-.29.19-.62.28-.95.28Z" style="fill: #ff57b8;"/>
        <g>
          <path d="m251.52,374.43c-.43,0-.86-.16-1.2-.47-.7-.66-.74-1.77-.08-2.47,7.99-8.51,20.13-45.46,29.53-89.86,10.79-50.94,15.47-97.99,12.84-129.09-2.49-29.36-8.61-53.51-17.72-69.84-9.58-17.17-21.98-25.33-36.87-24.27-.96.07-1.8-.66-1.87-1.62-.07-.96.66-1.8,1.62-1.87,16.13-1.15,30.02,7.86,40.17,26.06,9.35,16.76,15.63,41.39,18.15,71.25,5.84,69.14-25.45,202.61-43.31,221.64-.34.37-.81.55-1.28.55Z" style="fill: #ff57b8;"/>
          <path d="m297.9,327.51c-.22,0-.45-.04-.67-.14-.89-.37-1.31-1.4-.94-2.29,20.63-49.46,37.94-136.6,29.38-200.67-3.38-25.22-11.75-47.8-23.58-63.58-11.92-15.91-26.25-24-41.47-23.42-.97.04-1.78-.72-1.82-1.68-.04-.97.72-1.78,1.68-1.82,33.14-1.28,61.37,35.74,68.65,90.03,8.64,64.68-8.81,152.6-29.61,202.48-.28.67-.93,1.08-1.62,1.08Z" style="fill: #ff57b8;"/>
          <path d="m343.26,282.98c-.21,0-.41-.04-.62-.11-.9-.34-1.36-1.35-1.02-2.26,14.68-38.93,36.08-120.6,23.16-179.82-9.72-44.42-45.05-82.56-75.64-81.66-.97.03-1.77-.73-1.8-1.7-.03-.97.73-1.77,1.7-1.8,15.23-.46,32.58,8.36,47.61,24.2,15.41,16.23,26.62,37.62,31.56,60.21,13.1,60.02-8.49,142.52-23.3,181.8-.26.7-.93,1.13-1.64,1.13Z" style="fill: #ff57b8;"/>
          <path d="m377.67,245.15c-.19,0-.38-.03-.57-.1-.91-.32-1.4-1.31-1.08-2.23,25.48-73.67,34.06-115.04,17.57-165.51-13.86-42.35-41.98-68.42-75.21-69.72-.97-.04-1.72-.85-1.68-1.82.04-.97.86-1.72,1.82-1.68,17.95.7,34.11,7.8,48.04,21.1,13.01,12.42,23.51,30.06,30.37,51.03,16.8,51.42,8.15,93.31-17.59,167.74-.25.72-.93,1.18-1.65,1.18Z" style="fill: #ff57b8;"/>
          <path d="m407.15,204.48c-.27,0-.55-.06-.8-.2-.86-.44-1.19-1.5-.75-2.36,16.03-30.96,31.43-74.62,8.11-137.91-13.64-37-37.45-57.92-68.87-60.5-.96-.08-1.68-.92-1.6-1.89.08-.96.93-1.68,1.89-1.6,32.88,2.7,57.73,24.41,71.87,62.78,23.8,64.57,8.07,109.13-8.28,140.73-.31.6-.92.95-1.56.95Z" style="fill: #ff57b8;"/>
        </g>
      </g>
    </g>
  </g>
</svg>