<?xml version="1.0" encoding="UTF-8"?>
<svg id="Layer_2" data-name="Layer 2" xmlns="http://www.w3.org/2000/svg" viewBox="0 0 158.1 158.1">
  <g id="_ÎÓÈ_1" data-name="—ÎÓÈ_1">
    <path d="m79.05,158.1c-10.75,0-20.61-6.07-26.13-15.97-10.9,3.1-22.17.42-29.77-7.18-7.6-7.6-10.28-18.87-7.18-29.77-9.9-5.52-15.97-15.38-15.97-26.13s6.07-20.61,15.97-26.13c-3.1-10.9-.42-22.17,7.18-29.77,7.6-7.6,18.86-10.28,29.77-7.18C58.44,6.07,68.3,0,79.05,0s20.61,6.07,26.13,15.97c10.9-3.1,22.17-.42,29.77,7.18,7.6,7.6,10.28,18.87,7.18,29.77,9.9,5.52,15.97,15.38,15.97,26.13s-6.07,20.61-15.97,26.13c3.1,10.9.42,22.17-7.18,29.77-7.6,7.6-18.87,10.28-29.77,7.18-5.52,9.9-15.38,15.97-26.13,15.97Zm-25.06-20.71c.8,0,1.56.45,1.93,1.21,4.58,9.38,13.45,15.2,23.12,15.2s18.54-5.83,23.12-15.2c.48-.97,1.61-1.44,2.63-1.09,9.87,3.39,20.26,1.24,27.1-5.6,6.84-6.84,8.99-17.23,5.6-27.1-.35-1.03.11-2.15,1.09-2.63,9.38-4.58,15.2-13.45,15.2-23.12s-5.83-18.54-15.2-23.12c-.97-.48-1.44-1.6-1.09-2.63,3.39-9.87,1.24-20.26-5.6-27.1-6.84-6.84-17.23-8.99-27.1-5.6-1.02.35-2.15-.11-2.63-1.09-4.58-9.38-13.45-15.2-23.12-15.2s-18.54,5.83-23.12,15.2c-.48.97-1.6,1.44-2.63,1.09-9.87-3.39-20.26-1.24-27.1,5.6-6.84,6.84-8.99,17.23-5.6,27.1.35,1.03-.11,2.15-1.09,2.63-9.38,4.59-15.2,13.45-15.2,23.12s5.83,18.54,15.2,23.12c.97.48,1.44,1.6,1.09,2.63-3.39,9.87-1.24,20.26,5.6,27.1,6.84,6.84,17.23,8.99,27.1,5.6.23-.08.47-.12.7-.12Z" style="fill: #ff57b8;"/>
  </g>
</svg>