<?xml version="1.0" encoding="UTF-8"?>
<svg id="Layer_2" data-name="Layer 2" xmlns="http://www.w3.org/2000/svg" viewBox="0 0 173.02 173.02">
  <g id="_ÎÓÈ_1" data-name="—ÎÓÈ_1">
    <path d="m109.11,173.01c-.77,0-1.49-.41-1.88-1.11l-20.72-37.31-20.72,37.31c-.48.86-1.48,1.29-2.44,1.03-.95-.26-1.61-1.13-1.59-2.11l.71-42.67-36.6,21.95c-.85.51-1.93.37-2.63-.32-.7-.7-.83-1.78-.32-2.63l21.95-36.6-42.67.71c-1,.01-1.86-.64-2.11-1.59-.25-.95.17-1.96,1.03-2.44l37.31-20.72L1.11,65.78c-.86-.48-1.29-1.48-1.03-2.44.25-.95,1.11-1.61,2.11-1.59l42.67.71L22.91,25.86c-.51-.85-.37-1.93.32-2.63.7-.7,1.78-.83,2.63-.32l36.6,21.95-.71-42.67c-.02-.99.64-1.86,1.59-2.11.96-.26,1.96.17,2.44,1.03l20.72,37.31L107.23,1.11c.48-.86,1.48-1.29,2.44-1.03.95.26,1.61,1.13,1.59,2.11l-.71,42.67,36.6-21.95c.85-.51,1.93-.37,2.63.32.7.7.83,1.78.32,2.63l-21.95,36.6,42.67-.71c.98-.01,1.86.64,2.11,1.59.25.95-.17,1.96-1.03,2.44l-37.31,20.72,37.31,20.72c.86.48,1.29,1.48,1.03,2.44-.26.95-1.14,1.61-2.11,1.59l-42.67-.71,21.95,36.6c.51.85.37,1.93-.32,2.63-.7.7-1.78.83-2.63.32l-36.6-21.95.71,42.67c.02.99-.64,1.86-1.59,2.11-.19.05-.37.07-.56.07Zm-22.6-44.99c.78,0,1.5.42,1.88,1.11l18.43,33.18-.63-37.95c-.01-.78.4-1.51,1.07-1.9.68-.39,1.51-.38,2.18.02l32.55,19.52-19.52-32.55c-.4-.67-.41-1.5-.02-2.18.39-.68,1.14-1.09,1.9-1.07l37.95.63-33.18-18.43c-.68-.38-1.11-1.1-1.11-1.88s.42-1.5,1.11-1.88l33.18-18.43-37.95.63c-.76.01-1.51-.4-1.9-1.07-.39-.68-.38-1.51.02-2.18l19.52-32.55-32.55,19.52c-.67.4-1.5.41-2.18.02-.68-.39-1.09-1.12-1.07-1.9l.63-37.95-18.43,33.18c-.38.68-1.1,1.11-1.88,1.11s-1.5-.42-1.88-1.11l-18.43-33.18.63,37.95c.01.78-.4,1.51-1.07,1.9-.68.39-1.51.38-2.18-.02L31.02,31.02l19.52,32.55c.4.67.41,1.5.02,2.18-.39.68-1.11,1.09-1.9,1.07l-37.95-.63,33.18,18.43c.68.38,1.11,1.1,1.11,1.88s-.42,1.5-1.11,1.88l-33.18,18.43,37.95-.63c.78-.01,1.51.4,1.9,1.07.39.68.38,1.51-.02,2.18l-19.52,32.55,32.55-19.52c.67-.4,1.5-.41,2.18-.02.68.39,1.09,1.12,1.07,1.9l-.63,37.95,18.43-33.18c.38-.68,1.1-1.11,1.88-1.11Z" style="fill: #ff57b8;"/>
  </g>
</svg>