<?xml version="1.0" encoding="UTF-8"?>
<svg id="Layer_2" data-name="Layer 2" xmlns="http://www.w3.org/2000/svg" viewBox="0 0 446.25 278.09">
  <g id="_ÎÓÈ_1" data-name="—ÎÓÈ_1">
    <g>
      <g>
        <path d="m76.11,278.09c-20.58,0-39.83-14.64-54.19-41.22C7.79,210.7,0,175.96,0,139.04c0-1.19.96-2.15,2.15-2.15s2.15.96,2.15,2.15c0,74.3,32.21,134.74,71.81,134.74s71.81-60.45,71.81-134.74c0-1.19.96-2.15,2.15-2.15s2.15.96,2.15,2.15c0,36.92-7.79,71.66-21.92,97.82-14.36,26.58-33.61,41.22-54.19,41.22Z" style="fill: #ff57b8;"/>
        <path d="m150.07,141.19c-1.19,0-2.15-.96-2.15-2.15,0-36.34-4.83-70.47-13.6-96.1-8.4-24.56-19.73-38.64-31.09-38.64s-22.68,14.08-31.09,38.64c-8.77,25.64-13.6,59.77-13.6,96.1,0,1.19-.96,2.15-2.15,2.15s-2.15-.96-2.15-2.15C54.24,61.08,75.76,0,103.23,0s48.99,61.08,48.99,139.04c0,1.19-.96,2.15-2.15,2.15Z" style="fill: #ff57b8;"/>
        <path d="m204.3,141.19c-1.19,0-2.15-.96-2.15-2.15,0-36.34-4.83-70.47-13.6-96.1-8.4-24.56-19.73-38.64-31.09-38.64s-22.68,14.08-31.09,38.64c-8.77,25.64-13.6,59.77-13.6,96.1,0,1.19-.96,2.15-2.15,2.15s-2.15-.96-2.15-2.15C108.47,61.08,129.99,0,157.46,0s48.99,61.08,48.99,139.04c0,1.19-.96,2.15-2.15,2.15Z" style="fill: #ff57b8;"/>
        <path d="m258.54,141.19c-1.19,0-2.15-.96-2.15-2.15,0-36.34-4.83-70.47-13.6-96.1-8.4-24.56-19.73-38.64-31.09-38.64s-22.68,14.08-31.09,38.64c-8.77,25.64-13.6,59.77-13.6,96.1,0,1.19-.96,2.15-2.15,2.15s-2.15-.96-2.15-2.15C162.71,61.08,184.23,0,211.7,0s48.99,61.08,48.99,139.04c0,1.19-.96,2.15-2.15,2.15Z" style="fill: #ff57b8;"/>
        <path d="m312.78,141.19c-1.19,0-2.15-.96-2.15-2.15,0-36.34-4.83-70.47-13.6-96.1-8.4-24.56-19.73-38.64-31.09-38.64s-22.68,14.08-31.09,38.64c-8.77,25.64-13.6,59.77-13.6,96.1,0,1.19-.96,2.15-2.15,2.15s-2.15-.96-2.15-2.15C216.95,61.08,238.47,0,265.94,0s48.99,61.08,48.99,139.04c0,1.19-.96,2.15-2.15,2.15Z" style="fill: #ff57b8;"/>
        <path d="m367.01,141.19c-1.19,0-2.15-.96-2.15-2.15,0-36.34-4.83-70.47-13.6-96.1-8.4-24.56-19.73-38.64-31.09-38.64s-22.68,14.08-31.09,38.64c-8.77,25.64-13.6,59.77-13.6,96.1,0,1.19-.96,2.15-2.15,2.15s-2.15-.96-2.15-2.15C271.18,61.08,292.7,0,320.17,0s48.99,61.08,48.99,139.04c0,1.19-.96,2.15-2.15,2.15Z" style="fill: #ff57b8;"/>
        <path d="m130.35,278.09c-20.58,0-39.83-14.64-54.19-41.22-14.14-26.16-21.92-60.9-21.92-97.82,0-1.19.96-2.15,2.15-2.15s2.15.96,2.15,2.15c0,74.3,32.21,134.74,71.81,134.74s71.81-60.45,71.81-134.74c0-1.19.96-2.15,2.15-2.15s2.15.96,2.15,2.15c0,36.92-7.79,71.66-21.92,97.82-14.36,26.58-33.61,41.22-54.19,41.22Z" style="fill: #ff57b8;"/>
        <path d="m184.58,278.09c-20.58,0-39.83-14.64-54.19-41.22-14.14-26.16-21.92-60.9-21.92-97.82,0-1.19.96-2.15,2.15-2.15s2.15.96,2.15,2.15c0,74.3,32.21,134.74,71.81,134.74s71.81-60.45,71.81-134.74c0-1.19.96-2.15,2.15-2.15s2.15.96,2.15,2.15c0,36.92-7.79,71.66-21.92,97.82-14.36,26.58-33.61,41.22-54.19,41.22Z" style="fill: #ff57b8;"/>
        <path d="m238.82,278.09c-20.58,0-39.83-14.64-54.19-41.22-14.14-26.16-21.92-60.9-21.92-97.82,0-1.19.96-2.15,2.15-2.15s2.15.96,2.15,2.15c0,74.3,32.21,134.74,71.81,134.74s71.81-60.45,71.81-134.74c0-1.19.96-2.15,2.15-2.15s2.15.96,2.15,2.15c0,36.92-7.79,71.66-21.92,97.82-14.36,26.58-33.61,41.22-54.19,41.22Z" style="fill: #ff57b8;"/>
        <path d="m293.06,278.09c-20.58,0-39.83-14.64-54.19-41.22-14.14-26.16-21.92-60.9-21.92-97.82,0-1.19.96-2.15,2.15-2.15s2.15.96,2.15,2.15c0,74.3,32.21,134.74,71.81,134.74s71.81-60.45,71.81-134.74c0-1.19.96-2.15,2.15-2.15s2.15.96,2.15,2.15c0,36.92-7.79,71.66-21.92,97.82-14.36,26.58-33.61,41.22-54.19,41.22Z" style="fill: #ff57b8;"/>
        <path d="m347.29,278.09c-20.58,0-39.83-14.64-54.19-41.22-14.14-26.16-21.92-60.9-21.92-97.82,0-1.19.96-2.15,2.15-2.15s2.15.96,2.15,2.15c0,74.3,32.21,134.74,71.81,134.74,22.44,0,38.69-24.12,48.37-44.36,11.91-24.92,20.68-58.78,23.45-90.57,5.24-60.18,6.05-79.01,6.06-79.19.05-1.19,1.06-2.11,2.24-2.06,1.19.05,2.11,1.05,2.06,2.24,0,.18-.82,19.07-6.07,79.39-5.02,57.66-31.95,138.86-76.1,138.86Z" style="fill: #ff57b8;"/>
      </g>
      <path d="m444.1,165.48c-1.05,0-1.96-.77-2.12-1.83l-14.66-98.22-33.49,93.49c-.4,1.12-1.64,1.7-2.75,1.3-1.12-.4-1.7-1.63-1.3-2.75l36.38-101.55c.33-.93,1.25-1.51,2.23-1.41.98.1,1.77.85,1.92,1.82l15.93,106.69c.18,1.17-.63,2.27-1.81,2.44-.11.02-.21.02-.32.02Z" style="fill: #ff57b8;"/>
    </g>
  </g>
</svg>