<?xml version="1.0" encoding="UTF-8"?>
<svg id="Layer_2" data-name="Layer 2" xmlns="http://www.w3.org/2000/svg" viewBox="0 0 158.1 158.1">
  <g id="_ÎÓÈ_1" data-name="—ÎÓÈ_1">
    <path d="m79.05,158.1c-8.41,0-18.23-7.43-18.23-28.38,0-2.4.23-5.19.67-8.28-1.87,2.49-3.68,4.62-5.38,6.32-6.13,6.13-12.48,10-18.34,11.17-5.7,1.14-10.89-.27-14.61-3.99-3.72-3.72-5.14-8.91-3.99-14.61,1.18-5.87,5.04-12.21,11.17-18.34,1.7-1.7,3.83-3.51,6.33-5.38-3.09.44-5.87.67-8.28.67-20.95,0-28.38-9.82-28.38-18.23s7.43-18.23,28.38-18.23c2.4,0,5.19.23,8.28.67-2.49-1.87-4.62-3.68-6.33-5.38-6.13-6.13-10-12.48-11.17-18.34-1.14-5.7.27-10.89,3.99-14.61,3.72-3.72,8.91-5.14,14.61-3.99,5.87,1.18,12.21,5.04,18.34,11.17,1.7,1.7,3.51,3.83,5.38,6.32-.44-3.09-.67-5.87-.67-8.28C60.82,7.43,70.64,0,79.05,0s18.23,7.43,18.23,28.38c0,2.4-.23,5.19-.67,8.28,1.87-2.49,3.68-4.63,5.38-6.32,14.82-14.81,27.01-13.13,32.96-7.18,5.94,5.94,7.63,18.14-7.18,32.96-1.7,1.7-3.83,3.51-6.33,5.38,3.09-.44,5.87-.67,8.28-.67,20.95,0,28.38,9.82,28.38,18.23s-7.43,18.23-28.38,18.23c-2.4,0-5.19-.23-8.28-.67,2.49,1.87,4.62,3.68,6.33,5.38,14.81,14.81,13.13,27.01,7.18,32.96-5.95,5.94-18.15,7.63-32.96-7.18-1.7-1.7-3.51-3.83-5.38-6.32.44,3.09.67,5.87.67,8.28,0,20.95-9.82,28.38-18.23,28.38Zm-13.41-48.83c.28,0,.55.05.82.16.98.4,1.52,1.46,1.27,2.49-1.71,7.07-2.61,13.22-2.61,17.79,0,14.63,5.47,24.08,13.92,24.08s13.93-9.45,13.93-24.08c0-4.57-.9-10.72-2.61-17.79-.25-1.03.29-2.09,1.27-2.49.98-.4,2.11-.04,2.66.87,3.79,6.21,7.51,11.19,10.74,14.43,10.34,10.34,20.89,13.16,26.88,7.18,5.98-5.98,3.16-16.53-7.18-26.88-3.23-3.23-8.22-6.95-14.43-10.74-.9-.55-1.27-1.68-.87-2.66.41-.98,1.46-1.52,2.49-1.27,7.07,1.71,13.22,2.61,17.79,2.61,14.63,0,24.08-5.47,24.08-13.93s-9.45-13.93-24.08-13.93c-4.57,0-10.72.9-17.79,2.61-1.04.25-2.09-.29-2.49-1.27-.41-.98-.04-2.11.87-2.66,6.2-3.79,11.19-7.5,14.43-10.74,10.34-10.34,13.16-20.89,7.18-26.88-5.98-5.98-16.53-3.16-26.88,7.18-3.23,3.23-6.95,8.22-10.74,14.43-.55.9-1.68,1.27-2.66.87-.98-.41-1.51-1.46-1.27-2.49,1.71-7.07,2.61-13.22,2.61-17.79,0-14.63-5.47-24.08-13.93-24.08s-13.92,9.45-13.92,24.08c0,4.57.9,10.72,2.61,17.79.25,1.03-.29,2.09-1.27,2.49-.98.4-2.1.04-2.66-.87-3.79-6.2-7.5-11.19-10.74-14.43-5.53-5.53-11.12-8.99-16.15-10-4.31-.87-8.02.11-10.73,2.82-2.71,2.71-3.68,6.42-2.82,10.73,1.01,5.03,4.47,10.62,10,16.15,3.23,3.23,8.22,6.95,14.43,10.74.9.55,1.27,1.68.87,2.66-.41.98-1.46,1.52-2.49,1.27-7.07-1.71-13.22-2.61-17.79-2.61-14.63,0-24.08,5.47-24.08,13.93s9.45,13.93,24.08,13.93c4.57,0,10.73-.9,17.79-2.61,1.03-.25,2.09.29,2.49,1.27.41.98.04,2.11-.87,2.66-6.21,3.79-11.19,7.51-14.43,10.74-5.53,5.53-8.99,11.12-10,16.15-.86,4.31.11,8.02,2.82,10.73,2.71,2.71,6.41,3.68,10.73,2.82,5.03-1.01,10.62-4.47,16.15-10,3.23-3.23,6.95-8.22,10.74-14.43.4-.66,1.11-1.03,1.84-1.03Z" style="fill: #ff57b8;"/>
  </g>
</svg>