<?xml version="1.0" encoding="UTF-8"?>
<svg id="Layer_2" data-name="Layer 2" xmlns="http://www.w3.org/2000/svg" viewBox="0 0 247.79 252.68">
  <g id="_ÎÓÈ_1" data-name="—ÎÓÈ_1">
    <path d="m174.45,252.68c-1.1,0-2.03-.83-2.14-1.93-4.18-40.35-17.74-76.56-37.2-99.34-2.82-3.3-6.9-5.19-11.21-5.19-4.31,0-8.39,1.89-11.21,5.19-19.47,22.78-33.03,58.99-37.21,99.34-.11,1.1-1.04,1.93-2.14,1.93s-2.03-.83-2.14-1.93c-6.43-62.08-34.44-111.26-69.7-122.36-.9-.28-1.5-1.11-1.5-2.05s.61-1.77,1.5-2.05C36.77,113.18,64.78,64.01,71.21,1.93c.11-1.1,1.04-1.93,2.14-1.93s2.03.83,2.14,1.93c4.18,40.35,17.74,76.56,37.21,99.34,2.82,3.3,6.9,5.19,11.21,5.19,4.31,0,8.39-1.89,11.21-5.19,19.47-22.78,33.03-58.99,37.2-99.34.11-1.1,1.04-1.93,2.14-1.93s2.03.83,2.14,1.93c6.43,62.08,34.44,111.26,69.7,122.36.9.28,1.5,1.11,1.5,2.05s-.61,1.77-1.5,2.05c-35.26,11.11-63.28,60.28-69.7,122.36-.11,1.1-1.04,1.93-2.14,1.93ZM8.34,126.34c16.12,6.87,30.69,21.13,42.42,41.59,10.72,18.69,18.42,41.46,22.6,66.54,5.84-34.77,18.65-65.47,36.07-85.85,3.63-4.25,8.91-6.69,14.48-6.69,5.57,0,10.84,2.44,14.48,6.69,17.42,20.38,30.22,51.08,36.07,85.85,4.17-25.08,11.88-47.84,22.6-66.54,11.73-20.46,26.3-34.72,42.42-41.59-16.12-6.87-30.69-21.13-42.42-41.59-10.72-18.69-18.42-41.46-22.6-66.54-5.84,34.77-18.65,65.47-36.07,85.85-3.63,4.25-8.91,6.69-14.48,6.69h0c-5.57,0-10.84-2.44-14.48-6.69-17.42-20.38-30.22-51.08-36.07-85.85-4.17,25.08-11.88,47.84-22.6,66.54-11.73,20.46-26.3,34.72-42.42,41.59Z" style="fill: #ff57b8;"/>
  </g>
</svg>