<?xml version="1.0" encoding="UTF-8"?>
<svg id="Layer_2" data-name="Layer 2" xmlns="http://www.w3.org/2000/svg" viewBox="0 0 56.86 593.46">
  <g id="_ÎÓÈ_1" data-name="—ÎÓÈ_1">
    <g>
      <path d="m28.43,593.46h0c-1.19,0-2.15-.97-2.14-2.16.04-8.14-.44-18.55-4.45-26.85-1.09-2.26-2.22-4.51-3.34-6.75-3.31-6.62-6.73-13.47-9.3-20.61-4.79-13.31-6.31-26.09-4.52-37.99,1.58-10.49,6.55-19.62,11.35-28.45,1.29-2.38,2.63-4.84,3.89-7.29,4.17-8.15,6.4-17.25,6.45-26.31.05-9.07-.17-17.83-3.42-25.33-1.71-3.95-3.6-7.93-5.42-11.79-2.07-4.38-4.21-8.91-6.13-13.46-2.35-5.56-4.02-10.25-5.25-14.76-1.19-4.38-1.28-8-1.38-12.2l-.02-.86c-.42-16.58,5.21-29.62,11.36-41.25,4.13-7.8,8.81-16.65,9.78-25.98.96-9.09.73-18.55-.67-27.34-1.43-9.06-5.67-17.21-10.15-25.84-3.03-5.83-6.16-11.85-8.3-18.14-4.35-12.74-3.02-29.57,3.65-46.18,1.4-3.49,3.12-6.97,4.79-10.33,2.64-5.34,5.37-10.85,6.77-16.37,2.26-8.91,4.29-17.72,4.29-27.46V2.15c0-1.19.96-2.15,2.15-2.15s2.15.96,2.15,2.15v117.59c0,10.23-2.09,19.32-4.43,28.51-1.51,5.95-4.34,11.68-7.08,17.22-1.63,3.29-3.31,6.69-4.65,10.02-6.29,15.67-7.59,31.41-3.57,43.19,2.04,5.98,5.09,11.86,8.05,17.55,4.44,8.55,9.04,17.4,10.58,27.15,1.45,9.16,1.69,19,.7,28.47-1.07,10.16-5.95,19.39-10.26,27.54-5.88,11.11-11.26,23.54-10.86,39.13l.02.87c.1,3.92.18,7.3,1.23,11.18,1.18,4.32,2.78,8.84,5.06,14.21,1.89,4.47,4.01,8.95,6.06,13.29,1.83,3.88,3.73,7.9,5.47,11.91,3.58,8.27,3.83,17.52,3.78,27.07-.06,9.73-2.45,19.5-6.92,28.24-1.28,2.5-2.63,4.99-3.94,7.39-4.84,8.89-9.41,17.29-10.88,27.04-1.68,11.19-.23,23.27,4.31,35.9,2.49,6.91,5.85,13.64,9.1,20.15,1.13,2.26,2.26,4.52,3.36,6.8,4.4,9.1,4.92,20.14,4.88,28.74,0,1.18-.97,2.14-2.15,2.14Z" style="fill: #ff57b8;"/>
      <path d="m54.7,112.42c-.97,0-1.85-.66-2.09-1.64L28.43,11.25,4.24,110.78c-.28,1.15-1.44,1.86-2.6,1.58-1.15-.28-1.86-1.44-1.58-2.6L26.34,1.64c.23-.96,1.1-1.64,2.09-1.64s1.85.68,2.09,1.64l26.28,108.12c.28,1.15-.43,2.32-1.58,2.6-.17.04-.34.06-.51.06Z" style="fill: #ff57b8;"/>
    </g>
  </g>
</svg>