<?xml version="1.0" encoding="UTF-8"?>
<svg id="Layer_2" data-name="Layer 2" xmlns="http://www.w3.org/2000/svg" viewBox="0 0 158.47 158.48">
  <g id="_ÎÓÈ_1" data-name="—ÎÓÈ_1">
    <g>
      <g>
        <path d="m96.1,157.86c-.54,0-1.08-.2-1.5-.61-.85-.83-.87-2.19-.04-3.04,8.79-9.04,14.69-22.42,16.61-37.68,1.62-23.22-20.35-36.22-42.85-38.82-6.91-.69-12.97-4.28-17.48-10.37-6.51-8.8-9.16-22.24-6.76-34.25,2.88-12.46,8.58-23.41,16.51-31.71.82-.86,2.18-.89,3.04-.07.86.82.89,2.18.07,3.04-7.4,7.74-12.73,17.99-15.42,29.64-2.16,10.81.19,22.92,6.01,30.78,3.77,5.09,8.77,8.08,14.48,8.66,24.59,2.84,48.54,17.37,46.68,43.46,0,.04,0,.08-.01.11-1.43,11.46-5.68,27.74-17.8,40.2-.42.43-.98.65-1.54.65Z" style="fill: #ff57b8;"/>
        <path d="m45.35,115.31c-15.27,0-31.18-6.18-43.72-16.94-.9-.77-1-2.13-.23-3.03.77-.9,2.13-1,3.03-.23,11.77,10.11,26.66,15.91,40.86,15.91,20.95-.64,26.42-16.76,32.22-33.84,1.83-5.38,3.71-10.94,6.11-15.95,4.46-9.56,12.52-15.61,23.31-17.49,16.33-2.85,37.55,4.53,50.47,17.54.84.84.83,2.2-.01,3.04-.84.84-2.21.83-3.04-.01-12-12.09-31.63-18.96-46.68-16.33-9.34,1.63-16.31,6.85-20.16,15.09-2.3,4.8-4.14,10.24-5.93,15.5-6.01,17.71-12.23,36.03-36.23,36.75h0Z" style="fill: #ff57b8;"/>
        <path d="m37.49,147.55c-1.19,0-2.15-.96-2.15-2.15,0-1.19.96-2.15,2.15-2.15,16.79-.01,35.35-9.64,44.12-22.9,4.19-6.33,8.08-16.45,2.87-28.72-1.68-3.84-4.12-7.64-6.7-11.66-6.6-10.29-14.08-21.95-8.55-36.48,8.94-21.85,32.81-31.01,52.18-32.31,1.18-.08,2.21.82,2.29,2,.08,1.18-.82,2.21-2,2.29-18.07,1.22-40.3,9.63-48.47,29.6-4.75,12.46,1.53,22.23,8.17,32.58,2.56,3.98,5.2,8.11,7.03,12.28,4.72,11.13,3.6,22.46-3.24,32.79-9.51,14.37-29.57,24.82-47.7,24.83h0Z" style="fill: #ff57b8;"/>
        <path d="m145.09,123.87s-.02,0-.03,0c-1.19-.02-2.13-1-2.12-2.18.27-17.45-9.54-36.48-23.31-45.26-6.66-4.24-17.36-7.97-30.44-1.61-3.64,1.68-6.98,4.07-10.51,6.6-7.57,5.42-15.38,11.02-26.48,9.71-27.03-3.86-40.37-30.38-41.34-53.39-.05-1.19.87-2.19,2.06-2.24,1.19-.05,2.19.87,2.24,2.06.93,21.96,14.14,45.95,37.6,49.3,9.39,1.1,16.2-3.78,23.42-8.95,3.54-2.53,7.2-5.15,11.17-6.99,11.73-5.7,23.71-5.06,34.59,1.87,14.95,9.52,25.59,30.11,25.3,48.95-.02,1.18-.98,2.12-2.15,2.12Z" style="fill: #ff57b8;"/>
      </g>
      <g>
        <path d="m123.88,145.77c-.22,0-.44-.03-.67-.11-1.13-.37-1.75-1.58-1.38-2.71,3.66-11.26,8.01-32.84-4.02-50.93-6.77-9-18.36-17.03-30.63-12.64-.05.02-.11.04-.17.05-13.68,3.65-27.83,7.42-41.18-2.12-.03-.02-.06-.05-.09-.07-19.76-15.81-21.79-43.54-13.59-62.77.47-1.09,1.73-1.6,2.82-1.13,1.09.47,1.6,1.73,1.13,2.82-7.56,17.72-5.77,43.21,12.27,57.69,11.67,8.3,24.19,4.99,37.44,1.45,14.47-5.11,27.81,3.97,35.47,14.19.02.03.05.06.07.1,9.69,14.53,11.3,33.95,4.56,54.69-.3.91-1.14,1.49-2.05,1.49Z" style="fill: #ff57b8;"/>
        <path d="m37.16,130.38c-7.58,0-15.31-1.29-22.47-3.91-1.12-.41-1.69-1.64-1.28-2.76.41-1.12,1.64-1.69,2.76-1.28,15.36,5.63,33.49,4.72,46.19-2.3,9.29-5.14,15.36-13.27,17.53-23.52,1.22-5.68-.64-11.06-2.61-16.75-2.08-6-4.22-12.2-2.76-19.05,2.34-11.37,8.91-20.35,18.99-25.95,13.78-7.66,33.79-8.51,50.96-2.17,1.11.41,1.68,1.65,1.27,2.76-.41,1.11-1.65,1.68-2.76,1.27-16.04-5.92-34.64-5.18-47.38,1.89-9.08,5.04-14.76,12.81-16.87,23.08-1.22,5.69.64,11.07,2.61,16.76,2.08,6,4.22,12.2,2.76,19.05-2.44,11.49-9.23,20.62-19.65,26.38-7.77,4.3-17.4,6.49-27.28,6.49Z" style="fill: #ff57b8;"/>
        <path d="m65.71,158.48c-.8,0-1.57-.45-1.94-1.22-.51-1.07-.06-2.35,1.01-2.87,15.89-7.62,27.31-20.26,32.16-35.61,5.63-19.72-8.18-30.36-22.8-41.61-2.62-2.02-5.33-4.1-7.85-6.21-12.21-9.39-11.81-27.36-5.97-40.98.02-.04.04-.08.05-.11,6.4-12.8,17.36-23.06,31.69-29.67,1.08-.5,2.36-.03,2.85,1.05.5,1.08.03,2.36-1.05,2.85-13.42,6.19-23.66,15.74-29.62,27.63-5.16,12.09-5.7,27.85,4.73,35.87,2.52,2.1,5.2,4.16,7.79,6.15,14.41,11.09,30.74,23.67,24.29,46.26-5.23,16.55-17.44,30.12-34.42,38.25-.3.14-.62.21-.93.21Z" style="fill: #ff57b8;"/>
        <path d="m50.66,101.89c-20.62,0-40.42-13.65-50.45-34.79-.51-1.07-.05-2.35,1.02-2.86,1.08-.51,2.36-.05,2.86,1.02,9.18,19.34,27.89,32.33,46.57,32.33,12.31,0,18.64-8.95,25.35-18.43,3.26-4.6,6.62-9.36,10.78-13.21,8.61-8.28,19.33-11.38,30.99-8.96,16.56,3.45,33.22,18.1,40.53,35.63.46,1.1-.06,2.35-1.16,2.81-1.1.46-2.36-.06-2.81-1.16-6.79-16.3-22.18-29.9-37.43-33.07-10.21-2.12-19.6.6-27.17,7.87-3.85,3.58-7.09,8.15-10.22,12.57-7.04,9.95-14.33,20.24-28.86,20.24Z" style="fill: #ff57b8;"/>
      </g>
    </g>
  </g>
</svg>