<?xml version="1.0" encoding="UTF-8"?>
<svg id="Layer_2" data-name="Layer 2" xmlns="http://www.w3.org/2000/svg" viewBox="0 0 715.78 691.39">
  <g id="_ÎÓÈ_1" data-name="—ÎÓÈ_1">
    <g>
      <g>
        <g>
          <path d="m359.26,687.76c-.12,0-.25-.01-.38-.04-8.24-1.8-14.45-7.07-19.93-11.72-1.26-1.07-2.44-2.07-3.61-2.99-14.1-11.2-27.85-22.31-40.87-33.02-28.18-23.2-52.86-44.3-75.44-64.5-27.48-24.58-50.79-46.81-71.28-67.98-28.72-29.67-49.36-55.61-64.97-81.66-17.15-28.61-29.36-59.55-36.29-91.95-7.77-36.29-7.41-73.36,1.03-107.19,8.7-34.87,25.51-66.7,48.6-92.05,22.53-24.72,52.32-40.68,83.89-44.93,28.03-3.78,58.32,1.01,87.6,13.85,7.35,3.22,14.63,6.96,21.63,11.11.83.49,1.11,1.57.61,2.4-.49.83-1.57,1.11-2.4.61-6.88-4.08-14.04-7.75-21.26-10.92-28.69-12.58-58.33-17.28-85.72-13.59-30.76,4.14-59.8,19.71-81.77,43.82-22.71,24.92-39.23,56.22-47.79,90.54-8.31,33.32-8.66,69.84-1,105.61,6.86,32.02,18.92,62.6,35.87,90.89,15.46,25.81,35.95,51.55,64.48,81.02,20.43,21.1,43.68,43.28,71.1,67.8,22.54,20.17,47.18,41.23,75.33,64.4,13,10.7,26.73,21.8,40.82,32.98,1.21.96,2.41,1.98,3.69,3.07,5.17,4.38,11.02,9.35,18.41,10.97.94.21,1.54,1.14,1.34,2.08-.18.82-.9,1.38-1.71,1.38Z" style="fill: #ff57b8;"/>
          <path d="m352.41,159.42c-.9,0-1.67-.69-1.74-1.61-.08-.96.64-1.81,1.6-1.89,10.6-.87,20.99-8.87,30.9-23.78,9.93-14.95,21.18-29.38,33.44-42.89,25.78-28.43,53.1-50.14,81.19-64.54,25.1-12.86,62.51-25.34,98.2-11.75,6.78,2.58,13.37,6.03,19.58,10.26.8.54,1.01,1.63.46,2.43-.54.8-1.63,1.01-2.43.46-5.98-4.07-12.33-7.4-18.86-9.88-34.48-13.13-70.89-.94-95.35,11.6-27.72,14.2-54.7,35.66-80.2,63.78-12.14,13.38-23.28,27.67-33.11,42.47-10.68,16.06-21.64,24.35-33.52,25.33-.05,0-.1,0-.15,0Z" style="fill: #ff57b8;"/>
          <path d="m471.95,547.96c-1.43,0-2.86-.03-4.3-.09-22.94-.97-46.25-9.93-67.41-25.94-21.15-15.99-40.37-39.19-55.6-67.09-20.09-31.18-23.78-71.51-9.42-102.77,11.57-25.19,33.64-41.22,62.13-45.15,14.18-2.99,30.13-3.41,45.55-3.81,17.41-.46,35.41-.93,51.01-5.08,12.97-2.76,28.2-11.45,44.31-20.65,18.14-10.36,36.9-21.06,54.12-24.21,26.35-4.81,46.49,11.71,52.56,43.12,0,.05.02.1.02.15,3.05,28.38-2.47,60.64-16.38,95.88-14.19,35.91-33.68,66.25-47.53,85.38-15.99,24.22-34.2,42.57-54.1,54.47-17.53,10.49-36,15.79-54.96,15.79Zm129.04-292.09c-2.59,0-5.27.25-8.01.75-16.63,3.04-35.13,13.6-53.01,23.81-16.36,9.34-31.81,18.16-45.23,21.02-15.91,4.23-34.12,4.71-51.73,5.17-15.29.4-31.1.82-44.98,3.75-.04,0-.08.02-.12.02-27.3,3.75-48.42,19.07-59.49,43.16-13.89,30.22-10.27,69.27,9.22,99.47.02.04.05.07.07.11,30.59,56.07,74.37,89.33,120.12,91.26,1.41.06,2.83.09,4.24.09,39.74,0,76.35-23.69,106.1-68.76,21.63-29.87,71-106.94,63.32-178.82-5.03-25.95-20.21-41.02-40.47-41.02Z" style="fill: #ff57b8;"/>
          <path d="m490.02,507.23c-.93,0-1.86-.02-2.79-.06-31.27-1.32-61.08-23.83-81.8-61.78-13.37-20.77-15.83-47.65-6.26-68.49,7.73-16.83,22.47-27.55,41.51-30.18,9.61-2.02,20.87-1.66,31.75-1.32,11.85.37,24.11.76,34.17-1.91,7.73-1.65,16.57-7.83,25.94-14.37,9.62-6.72,19.56-13.67,29.93-17.11,11.61-3.85,22.95-3.07,31.92,2.19,8.71,5.11,14.54,14.1,16.84,26,0,.05.02.1.02.15,4.45,41.46-25.6,88.46-48.58,120.19-19.93,30.19-45.64,46.69-72.65,46.69Zm-30.18-158.59c-6.52,0-12.86.33-18.5,1.52-.04,0-.08.02-.12.02-17.84,2.45-31.64,12.46-38.86,28.19-9.1,19.8-6.72,45.38,6.05,65.18.02.04.05.07.07.11,20.12,36.88,48.88,58.75,78.91,60.02,27.13,1.14,52.17-14.46,72.41-45.13,22.68-31.31,52.27-77.51,47.99-117.76-2.11-10.85-7.35-19-15.16-23.57-8.09-4.74-18.41-5.41-29.05-1.89-9.89,3.27-19.62,10.08-29.03,16.66-9.66,6.75-18.79,13.13-27.13,14.91-10.47,2.79-22.99,2.39-35.09,2.01-4.15-.13-8.35-.26-12.48-.26Z" style="fill: #ff57b8;"/>
          <path d="m518.62,460.68c-5.08,0-17.41-2.98-27.98-10.11-12.69-8.57-19.17-20.69-18.74-35.05.29-9.49,2.45-15.67,6.62-18.89,5.79-4.47,14.19-2.55,23.08-.51,6.15,1.41,12.5,2.87,18.29,2.31,2.86-.58,7.34-3.72,11.69-6.76,8.25-5.78,16.79-11.75,21.99-6.92,6.61,6.14,9.12,14.25,7.46,24.1-3.59,21.2-26.65,45.51-40.45,51.57-.4.17-1.06.27-1.95.27Zm-44.97-45.1l1.75.05c-.36,11.8,4.23,21.69,13.62,29.38,12.06,9.87,28.03,12.6,30.22,12.17,13.11-5.8,34.94-28.84,38.34-48.91,1.46-8.61-.69-15.66-6.39-20.95-3.13-2.91-11.16,2.71-17.6,7.22-4.9,3.43-9.52,6.67-13.11,7.35-.05,0-.1.02-.15.02-6.38.63-13.05-.89-19.5-2.37-8.06-1.85-15.67-3.59-20.15-.13-3.29,2.54-5.01,7.85-5.26,16.22l-1.75-.05Zm45.52,41.63s0,0,0,0c0,0,0,0,0,0Z" style="fill: #ff57b8;"/>
          <path d="m461.53,594.82c-37.74,0-72.49-25-99.27-47.69-7-5.93-14.15-12.49-22.49-20.63-.02-.02-.04-.04-.06-.06-24.13-25.9-53.85-61.31-69.65-105.56-12.81-35.87-17.37-87.09,8.23-123.28,13.63-19.27,31.36-32.42,51.25-38.02,19.7-5.54,38.69-4.33,58.8-3.06l.91.06c6.51.41,13.07,1.08,19.41,1.73,13.6,1.39,27.67,2.83,41.62,1.74,18.26-1.43,36.86-6.75,58.52-16.74,10.67-4.92,21.44-11.15,31.85-17.17,25.33-14.64,51.53-29.79,81.42-30.01,17.18-.13,31.28,5.82,42,17.68,18.6,20.58,22.37,54.21,19.7,78.82-4.22,38.88-17.79,79.71-40.32,121.35-21.1,39.01-43.83,73.54-69.49,105.57-13.19,16.46-27.8,31.7-43.44,45.28-18.81,16.34-37.66,26.09-56.03,28.98-4.36.69-8.69,1.01-12.98,1.01Zm-119.29-70.8c8.27,8.07,15.34,14.57,22.28,20.44,29.26,24.79,68.13,52.4,109.45,45.9,17.71-2.79,35.97-12.26,54.27-28.17,15.48-13.44,29.94-28.53,43-44.83,25.52-31.87,48.14-66.23,69.14-105.05,22.31-41.24,35.74-81.64,39.92-120.07,2.59-23.86-.99-56.38-18.82-76.1-10.02-11.09-23.3-16.65-39.38-16.53-28.97.22-54.76,15.12-79.7,29.54-10.48,6.06-21.32,12.33-32.14,17.32-22.05,10.17-41.02,15.59-59.71,17.06-14.26,1.12-28.49-.34-42.25-1.75-6.31-.65-12.84-1.31-19.27-1.72l-.91-.06c-19.8-1.26-38.5-2.45-57.63,2.93-19.12,5.38-36.18,18.06-49.34,36.67-24.83,35.1-20.31,85.04-7.79,120.08,15.58,43.63,45,78.67,68.89,104.32Z" style="fill: #ff57b8;"/>
          <path d="m452.97,623.59c-25.02,0-47.49-11.66-64.37-21.91-20.47-12.43-38.7-27.24-59.78-45.64-8.14-7.11-16.45-15.22-25.4-24.78-39.77-40.58-66.39-82.13-79.14-123.52-8.08-26.25-22.9-92.82,13.97-143.88,16.49-22.83,37.55-37.67,62.6-44.11,20.82-5.35,45.2-4.45,72.45,2.68,4.43,1.16,8.9,2.41,13.22,3.63,18.41,5.17,37.45,10.51,57.08,9.43,20.59-1.13,42.14-10.06,64.05-26.54l.17-.13c18.73-14.08,38.1-28.64,58.74-40.27,17.65-9.94,44.33-22.79,72.18-19.54,25.68,3,44.85,18.81,55.44,45.73,8.09,20.58,11.07,47.86,8.19,74.84-4.56,42.6-20.23,87.7-49.31,141.93-21.48,40.05-48.38,80.59-82.24,123.94-16.67,21.34-33.3,39.59-50.85,55.8-22.72,20.99-44.66,31.87-65.22,32.33-.6.01-1.2.02-1.8.02Zm-123.44-403.79c-9.88,0-19.16,1.11-27.8,3.33-24.24,6.23-44.64,20.62-60.63,42.77-35.96,49.78-21.4,115.05-13.47,140.8,12.58,40.85,38.92,81.93,78.3,122.11,0,0,.02.02.03.03,8.87,9.48,17.1,17.52,25.16,24.55,20.94,18.29,39.04,32.99,59.3,45.29,16.88,10.25,39.43,21.94,64.27,21.38,19.68-.44,40.85-11.01,62.92-31.4,17.41-16.08,33.91-34.2,50.46-55.39,33.73-43.19,60.53-83.56,81.91-123.44,28.86-53.82,44.41-98.51,48.91-140.64,2.83-26.44-.07-53.12-7.96-73.19-10.22-26.01-27.92-40.66-52.59-43.54-26.84-3.13-52.84,9.41-70.06,19.11-20.44,11.52-39.71,26.01-58.35,40.02l-.17.13c-22.48,16.9-44.67,26.06-65.96,27.24-20.21,1.11-39.53-4.31-58.22-9.55-4.31-1.21-8.76-2.46-13.16-3.61-15.29-4-29.63-6-42.9-6Z" style="fill: #ff57b8;"/>
          <path d="m442.14,644.06c-9.08,0-18.42-1.81-28.26-5.45-21.54-7.97-43.44-21.29-68.93-41.9-23.9-19.33-43.17-36.46-60.64-53.91-10.78-10.77-19.32-19.86-26.87-28.62-40.44-43.23-67.1-94.54-75.08-144.49-9.86-61.71,6.71-117.91,45.47-154.18,19.81-18.54,47.95-29.18,77.21-29.21.04,0,.08,0,.12,0,27.47,0,52.99,9.08,78.89,19.21,2.33.91,4.65,1.85,6.96,2.79,9.42,3.83,19.17,7.79,29.38,9.35,12.63,1.94,25.45.17,38.09-5.26,16.75-7.19,30.87-19.98,44.53-32.36,5.49-4.97,11.17-10.11,16.89-14.77,40.54-32.96,100.23-72.93,150.43-39.67,21.28,14.1,34.77,37.07,40.1,68.28,4.05,23.72,3.1,52.49-2.68,81.01-9.76,48.19-31.13,99.68-63.51,153.05-31.3,51.59-62.35,96.17-94.93,136.28-12.77,15.72-27.8,33.77-44.58,48.93-3.81,3.44-7.65,6.68-11.43,9.64-9.76,7.65-22.82,16.81-37.35,19.85-4.55.95-9.15,1.43-13.81,1.43Zm-136.98-454.27s-.08,0-.12,0c-28.38.03-55.65,10.33-74.82,28.27-37.9,35.46-54.08,90.53-44.41,151.07,7.76,48.56,34.81,100.57,74.21,142.68.02.02.03.03.05.05,7.51,8.7,16,17.75,26.72,28.46,17.38,17.36,36.56,34.41,60.36,53.67,25.18,20.36,46.77,33.5,67.94,41.34,14.25,5.28,27.38,6.54,40.13,3.88,13.82-2.89,26.45-11.77,35.91-19.18,3.71-2.91,7.49-6.1,11.24-9.48,16.6-14.99,31.52-32.92,44.21-48.54,32.48-39.99,63.44-84.44,94.66-135.89,32.17-53.02,53.39-104.14,63.07-151.93,5.11-25.21,17.61-110.21-35.92-145.68-48.27-31.98-106.61,7.21-146.29,39.47-5.65,4.59-11.29,9.7-16.75,14.65-13.87,12.56-28.22,25.56-45.5,32.98-13.25,5.69-26.71,7.54-40.01,5.5-10.62-1.63-20.56-5.67-30.17-9.57-2.3-.93-4.6-1.87-6.92-2.77-25.57-9.99-50.75-18.97-77.61-18.97Z" style="fill: #ff57b8;"/>
          <path d="m432.28,659.52c-10.65,0-20.72-3.24-30.21-6.99-25.15-9.93-47.26-27.5-68.64-44.5l-4.13-3.28c-22.48-17.82-44.64-37.56-65.85-58.67-8.99-8.95-19.49-19.6-29.16-30.78-20.92-23.39-38.2-47.41-51.34-71.37-14.29-26.06-24.05-53.67-28.99-82.07-5.37-30.81-4.13-61.91,3.58-89.93,8.32-30.23,23.27-56.17,43.24-75.01,22.53-21.25,51.26-33.47,80.91-34.41,25.72-.82,53.22,6.01,84.06,20.87,4.4,2.12,8.77,4.41,12.99,6.63,8.04,4.22,16.36,8.58,24.98,11.79,12.88,4.8,27.2,4.04,40.31-2.15,11.52-5.43,20.93-14.53,30.04-23.33.89-.86,1.79-1.73,2.68-2.58,3.66-3.52,7.34-7.14,10.89-10.64,6.53-6.43,13.28-13.08,20.22-19.36,26.82-24.27,50.69-39.88,75.13-49.13,15.07-5.7,53.53-16.65,84.93,4.83,23.16,15.84,38.7,42.17,44.93,76.14,4.65,25.34,3.73,53.74-2.81,86.8-.19.95-1.11,1.56-2.06,1.38-.95-.19-1.56-1.11-1.38-2.06,6.45-32.62,7.37-60.59,2.8-85.49-6.15-33.51-20.77-58.36-43.46-73.88-30.05-20.54-67.16-9.95-81.72-4.44-24.02,9.09-47.54,24.48-74.02,48.45-6.89,6.24-13.62,12.86-20.12,19.26-3.56,3.51-7.25,7.14-10.93,10.67-.89.86-1.78,1.71-2.67,2.58-9.31,8.99-18.93,18.29-30.97,23.97-13.98,6.59-29.26,7.4-43.03,2.26-8.83-3.29-17.25-7.71-25.38-11.97-4.2-2.2-8.55-4.48-12.89-6.57-30.32-14.61-57.28-21.33-82.43-20.53-28.79.91-56.71,12.8-78.62,33.46-19.51,18.4-34.12,43.77-42.27,73.39-7.57,27.53-8.79,58.1-3.51,88.4,4.88,28.02,14.51,55.27,28.61,80.98,13.01,23.72,30.14,47.52,50.9,70.74,9.61,11.12,20.05,21.71,29,30.61,21.13,21.02,43.18,40.67,65.56,58.41l4.13,3.28c21.18,16.84,43.09,34.25,67.75,43.98,12.75,5.03,26.57,9.14,41.18,5.1,11.86-3.27,23.52-10.43,36.67-22.53,7.23-6.65,14.39-13.84,21.9-21.97.66-.71,1.76-.76,2.47-.1.71.66.76,1.76.1,2.47-7.57,8.21-14.8,15.47-22.1,22.18-8.55,7.86-21.79,18.82-38.11,23.33-4.49,1.24-8.89,1.77-13.19,1.77Z" style="fill: #ff57b8;"/>
          <path d="m420.56,671.1c-5.73,0-11.45-1.04-17.13-3.13-19.15-7.04-36.44-18.7-50.84-29.17-28.6-20.8-58.24-45.58-93.28-77.97-6.06-5.6-12.56-12.01-20.46-20.16-34.7-34.18-59.18-64.96-77.02-96.82-22.62-40.39-34.9-83.7-35.5-125.25-.66-44.76,12.47-87.39,36.95-120.05,27.88-37.18,68.72-57.29,112.03-55.18,20.18.99,40.02,5.73,58.96,14.11,13.13,5.81,25.4,13.17,37.26,20.3,4.94,2.97,10.05,6.03,15.16,8.95,3.01,1.72,5.94,2.99,9.05,4.34,1.2.52,2.41,1.04,3.64,1.6.53.07,1.07.14,1.6.21,1.68.21,3.42.43,5.13.85,18.44-.37,33.2-7.84,47.81-24.19,13.17-14.74,26.79-29.98,41.59-44.05,34.69-32.98,69.45-52.67,103.3-58.52,42.08-7.27,81.5,14.11,100.44,54.47,8.68,18.5,13.68,39.66,14.87,62.89.05.97-.69,1.79-1.66,1.84-.96.05-1.79-.69-1.84-1.66-1.16-22.78-6.06-43.5-14.54-61.58-18.25-38.89-56.2-59.5-96.68-52.51-33.16,5.73-67.3,25.11-101.49,57.61-14.7,13.98-28.27,29.16-41.39,43.85-15.38,17.21-30.98,25.03-50.59,25.36-.16,0-.31-.02-.46-.05-1.58-.4-3.21-.61-4.94-.83-.64-.08-1.27-.16-1.9-.25-.16-.02-.32-.07-.48-.14-1.29-.59-2.56-1.14-3.81-1.68-3.2-1.39-6.23-2.7-9.4-4.51-5.15-2.94-10.27-6.01-15.22-8.99-11.77-7.07-23.94-14.38-36.88-20.1-18.28-8.09-38.24-12.87-57.72-13.82-42.15-2.06-81.89,17.55-109.06,53.78-24.02,32.04-36.9,73.91-36.25,117.9.6,40.97,12.72,83.71,35.06,123.6,17.68,31.57,41.97,62.09,76.45,96.06,7.88,8.14,14.34,14.5,20.35,20.06,34.93,32.3,64.47,56.99,92.96,77.71,14.2,10.33,31.25,21.82,49.99,28.71,17.25,6.35,34.94,2.25,52.6-12.16,3.8-3.1,7.56-6.48,11.5-10.32.69-.67,1.8-.66,2.47.03.67.69.66,1.8-.03,2.47-4.02,3.91-7.85,7.36-11.73,10.52-12.94,10.57-25.97,15.87-38.89,15.87Z" style="fill: #ff57b8;"/>
          <path d="m410.8,680.19c-5.97,0-11.98-1.32-18.14-3.98-19.26-8.29-36.92-21.28-51.95-32.81-32.39-24.83-64.2-51.72-94.55-79.91-7.03-6.53-14.47-13.51-21.4-20.78-36.97-35.94-63.03-68.03-81.97-100.93-23.19-40.3-36.17-83.57-37.54-125.13-1.55-47.08,10.63-90.78,35.24-126.37,27.37-39.6,68.03-62.56,111.54-63,38.68-.39,78.59,14.82,118.63,45.23,2.09,1.59,4.33,3.04,6.5,4.44,1.89,1.22,3.84,2.48,5.72,3.85.53.18,1.05.35,1.58.52,1.57.52,3.2,1.06,4.8,1.65,1.58.37,3.15.77,4.72,1.17l1.67.42c11.13-.22,19.24-2.95,27.94-9.41,7.48-5.55,13.58-13.02,19.48-20.25l1.12-1.37c11.46-14.02,25.4-30.39,41.84-45.58,37.51-34.64,72.98-53.94,108.42-59.03,41.21-5.91,80.77,17.68,100.78,60.1,3.42,7.25,6.3,15.03,8.56,23.13.26.93-.28,1.9-1.22,2.16-.93.26-1.9-.28-2.16-1.22-2.2-7.91-5.01-15.5-8.35-22.58-19.34-41-57.46-63.81-97.12-58.13-34.72,4.98-69.57,23.99-106.54,58.13-16.29,15.04-30.12,31.3-41.51,45.22l-1.11,1.37c-6.03,7.39-12.27,15.03-20.1,20.85-9.28,6.89-18.31,9.91-30.2,10.1-.15,0-.31-.02-.46-.05l-1.9-.48c-1.58-.4-3.17-.81-4.76-1.18-.07-.02-.14-.04-.21-.06-1.57-.58-3.2-1.12-4.78-1.64-.62-.2-1.24-.41-1.86-.62-.17-.06-.33-.14-.48-.25-1.87-1.37-3.85-2.65-5.77-3.89-2.22-1.44-4.52-2.92-6.72-4.59-39.41-29.92-78.6-44.9-116.48-44.51-42.36.43-81.98,22.84-108.7,61.49-24.17,34.97-36.14,77.94-34.62,124.27,1.35,40.99,14.17,83.7,37.08,123.5,18.77,32.62,44.64,64.46,81.42,100.22,6.92,7.25,14.31,14.19,21.3,20.68,30.27,28.12,62,54.94,94.3,79.7,14.87,11.4,32.31,24.24,51.21,32.37,10.2,4.39,19.92,4.85,29.74,1.4,5.41-1.9,13.26-6.85,23.33-14.72.76-.6,1.86-.46,2.46.3.6.76.46,1.86-.3,2.46-10.37,8.1-18.55,13.24-24.32,15.27-4.72,1.66-9.42,2.49-14.14,2.49Z" style="fill: #ff57b8;"/>
          <path d="m401.46,687.02c-.48,0-.96-.02-1.42-.06-12.21-1.03-21.57-6.68-31.49-12.65l-.31-.19c-14.77-8.9-28.57-19.91-41.92-30.55-2.64-2.1-5.27-4.2-7.9-6.27-31.77-25.07-64.46-53.64-97.16-84.93-6.69-6.41-14.58-14.03-22.32-22.03-35.59-34.81-61.89-68.9-80.37-104.2-21-40.1-32.17-83.84-32.32-126.49-.16-45.63,14.48-91.23,40.15-125.1,15.76-20.8,32.18-35.47,50.21-44.84,19.78-10.29,41.86-15.4,65.6-15.2,48.95.43,91.22,26.64,118.05,48.56,2.83,2.31,5.6,4.43,8.52,6.67,1.1.84,2.21,1.69,3.32,2.55,1.67.57,3.2,1.4,4.67,2.21.43.24.86.47,1.29.7l.94.14c1.7.24,3.46.49,5.2.89,12.04-.77,20.67-3.93,27.94-10.23,5.36-4.65,9.74-10.82,13.98-16.8,2.03-2.86,4.13-5.82,6.29-8.55,16.03-20.2,30.45-35.89,45.37-49.39,40.01-36.18,78.81-55.35,115.32-56.98,37.53-1.67,71.94,19.77,92.05,57.36.46.85.13,1.91-.72,2.37-.85.46-1.91.13-2.37-.72-19.46-36.37-52.65-57.13-88.81-55.51-35.68,1.59-73.74,20.46-113.13,56.08-14.78,13.36-29.07,28.92-44.98,48.97-2.11,2.66-4.18,5.57-6.18,8.4-4.36,6.14-8.87,12.5-14.54,17.42-7.94,6.88-17.28,10.3-30.27,11.09-.17.01-.35,0-.51-.05-1.66-.4-3.35-.64-5.13-.89l-1.25-.18c-.19-.03-.38-.09-.55-.18-.54-.28-1.08-.58-1.63-.87-1.49-.81-2.89-1.58-4.35-2.04-.2-.06-.38-.16-.54-.28-1.19-.92-2.37-1.83-3.55-2.73-2.82-2.16-5.74-4.39-8.61-6.74-26.4-21.56-67.94-47.36-115.87-47.77-23.18-.2-44.69,4.78-63.96,14.8-17.55,9.13-33.59,23.48-49.03,43.85-25.22,33.28-39.59,78.1-39.43,122.98.14,42.1,11.18,85.28,31.92,124.88,18.31,34.97,44.4,68.77,79.75,103.35,7.73,7.99,15.59,15.59,22.26,21.97,32.62,31.21,65.23,59.71,96.91,84.71,2.64,2.08,5.27,4.18,7.91,6.28,13.26,10.57,26.98,21.51,41.55,30.29l.31.19c9.97,6.01,18.58,11.2,29.98,12.16,7.32.62,17.98-5.09,27.44-10.75.83-.5,1.9-.23,2.4.6.5.83.23,1.9-.6,2.4-9.85,5.9-20.02,11.3-28.11,11.3Z" style="fill: #ff57b8;"/>
          <path d="m371.9,172.15c-.13,0-.25-.01-.37-.04l-1.46-.32c-1.39-.3-2.78-.61-4.17-.91-.1-.02-.19-.05-.28-.09-.75-.3-1.49-.59-2.24-.88-.9-.35-1.34-1.37-.99-2.27s1.37-1.34,2.27-.99c.71.28,1.42.56,2.13.84,1.35.29,2.69.58,4.04.88l1.22.27c11.98-.78,19.72-3.72,26.65-10.11,5.05-4.65,9.08-10.56,12.99-16.27,1.96-2.87,3.99-5.85,6.14-8.64,15.93-20.76,29.15-35.73,42.86-48.52,41.39-38.62,79.55-58.84,116.66-61.82,23.55-1.89,45.37,3.91,63.1,16.77,8.69,6.31,16.56,13.95,23.39,22.7.59.76.46,1.86-.3,2.46-.76.59-1.86.46-2.46-.3-6.63-8.5-14.26-15.91-22.68-22.02-17.04-12.37-38.05-17.94-60.76-16.12-36.29,2.91-73.76,22.83-114.55,60.89-13.56,12.65-26.66,27.49-42.47,48.09-2.09,2.72-4.09,5.65-6.02,8.48-4.02,5.88-8.17,11.96-13.51,16.87-9.47,8.72-20,10.48-29.05,11.04-.04,0-.07,0-.11,0Z" style="fill: #ff57b8;"/>
          <path d="m388.88,691.3c-9.96,0-19.57-6.74-26.74-11.77l-.19-.14c-17.76-12.45-34.73-25.42-50.42-38.53l-8.95-7.47c-28.76-24-58.5-48.81-86.16-75.1-8.18-7.78-16.46-15.75-24.19-23.21-33.93-34.7-63.75-66.55-85.44-105.35-23.6-42.21-36.49-87.82-37.25-131.89-.84-48.03,13.41-94.69,40.1-131.38,14.6-20.07,32.15-35.72,52.17-46.52,21.11-11.38,43.94-16.76,67.86-15.98,53.11,1.72,94.5,29.07,119.88,51.72.72.64.78,1.75.14,2.47-.64.72-1.75.78-2.47.14-24.94-22.26-65.6-49.15-117.66-50.83-45.78-1.48-87.36,20.2-117.08,61.06-26.25,36.09-40.25,81.99-39.43,129.26.76,43.49,13.49,88.53,36.81,130.24,21.49,38.43,51.14,70.1,84.86,104.58,7.69,7.42,15.96,15.39,24.13,23.15,27.58,26.22,57.27,50.99,85.99,74.95l8.95,7.48c15.62,13.05,32.51,25.95,50.19,38.35l.19.14c7.75,5.44,17.4,12.2,26.96,10.99,4.21-.53,9.27-1.55,17.66-5.33.88-.4,1.92,0,2.31.88.4.88,0,1.92-.88,2.31-7.12,3.21-12.53,4.84-18.66,5.61-.89.11-1.78.17-2.67.17Z" style="fill: #ff57b8;"/>
          <path d="m363.03,165.66c-1.86,0-3.69-.18-5.48-.54-.95-.19-1.56-1.11-1.37-2.06.19-.95,1.12-1.56,2.06-1.37,3.29.67,6.61.64,10.12-.08,14.23-2.91,22.11-14.74,29.73-26.18,1.83-2.74,3.71-5.58,5.65-8.24,22.73-31.13,48.37-57.03,76.2-76.98,38.91-27.89,75.37-39.82,108.36-35.46,18.29,2.42,35.15,10.46,50.12,23.89.72.65.78,1.75.13,2.47-.65.72-1.75.78-2.47.13-14.44-12.96-30.67-20.71-48.24-23.03-32.08-4.24-67.7,7.48-105.86,34.83-27.53,19.73-52.9,45.37-75.41,76.2-1.9,2.6-3.76,5.4-5.57,8.11-8.01,12.03-16.29,24.47-31.94,27.67-2.03.41-4.05.62-6.03.62Z" style="fill: #ff57b8;"/>
          <path d="m382.75,691.39c-3.09,0-5.3-.22-7.71-.45-.79-.08-1.6-.16-2.48-.23-3.46-.29-6.58-1.62-9.6-2.91l-1.28-.54c-.16-.07-.31-.16-.45-.27-5.86-4.91-12.21-9.56-18.34-14.06-5.06-3.71-10.3-7.54-15.27-11.53-13.33-10.69-25.28-20.48-36.51-29.93l-5.4-4.54c-21.48-18.05-43.68-36.72-64.65-56.13-11.93-11.04-24.64-22.83-37.31-34.87-34.95-34.98-63.42-64.61-85.62-101.06-24.57-40.35-39.46-84.93-43.06-128.92-3.71-45.4,6.52-91.55,28.81-129.97,26.24-45.21,64.73-73.45,108.37-79.49,40.35-5.59,85.86,7.17,124.87,35,.79.56.97,1.65.41,2.44-.56.79-1.65.97-2.44.41-38.29-27.32-82.88-39.85-122.35-34.38-42.56,5.9-80.14,33.52-105.83,77.78-21.94,37.8-32.01,83.23-28.35,127.92,3.55,43.45,18.27,87.5,42.56,127.39,22,36.12,50.33,65.6,85.08,100.38,12.63,12,25.33,23.78,37.25,34.81,20.9,19.35,43.08,37.99,64.52,56.02l5.4,4.54c11.21,9.43,23.14,19.21,36.45,29.88,4.91,3.94,10.11,7.75,15.15,11.44,6.11,4.48,12.43,9.11,18.32,14.03l1.06.45c2.89,1.23,5.63,2.39,8.53,2.64.89.08,1.72.16,2.52.23,3.73.36,6.95.68,14.07.15.96-.07,1.8.65,1.87,1.62.07.96-.65,1.8-1.62,1.87-2.82.21-5.06.29-6.96.29Z" style="fill: #ff57b8;"/>
          <path d="m301.36,125.04c-.55,0-1.1-.26-1.44-.75-.55-.79-.36-1.88.44-2.44,4.4-3.07,8.86-6.55,13.25-10.34,3.17-2.74,6.32-5.48,9.47-8.23,11.95-10.42,24.31-21.2,37.16-30.98.77-.59,1.87-.44,2.45.33.59.77.44,1.87-.33,2.45-12.76,9.71-25.07,20.45-36.98,30.83-3.15,2.75-6.31,5.5-9.48,8.24-4.48,3.87-9.03,7.42-13.53,10.56-.3.21-.65.31-1,.31Z" style="fill: #ff57b8;"/>
          <path d="m7.08,305.42c-.8,0-1.53-.56-1.71-1.37-4.36-19.69-6.08-39.32-5.12-58.34,1.62-31.99,10.16-61.58,24.72-85.57,3.44-5.68,7.19-11.11,11.13-16.16.59-.76,1.69-.9,2.46-.3.76.59.9,1.69.3,2.46-3.85,4.94-7.52,10.26-10.89,15.82-14.25,23.5-22.63,52.52-24.21,83.94-.95,18.7.75,38.02,5.04,57.4.21.94-.39,1.88-1.33,2.09-.13.03-.25.04-.38.04Z" style="fill: #ff57b8;"/>
          <path d="m304.93,127.21c-.55,0-1.09-.26-1.43-.74-.56-.79-.38-1.88.41-2.44,8.42-6,16.22-13.35,22.88-19.77,2.94-2.84,5.86-5.69,8.78-8.54,17.69-17.27,35.99-35.12,57.33-49,4.75-3.09,9.45-5.94,13.96-8.47.84-.47,1.91-.17,2.38.67.47.84.17,1.91-.67,2.38-4.45,2.5-9.08,5.31-13.77,8.36-21.05,13.69-39.22,31.42-56.8,48.57-2.92,2.85-5.85,5.71-8.79,8.55-6.74,6.51-14.66,13.97-23.28,20.11-.31.22-.66.32-1.01.32Z" style="fill: #ff57b8;"/>
          <path d="m49.51,405.83c-.57,0-1.12-.27-1.46-.78-8.43-12.66-15.47-24.96-21.5-37.6C7.01,326.51-1.68,282.77,1.42,240.98c3.25-43.78,20.23-83.44,49.09-114.7,10.86-11.76,24.61-21.64,39.75-28.56.88-.4,1.92-.01,2.32.86.4.88.01,1.92-.86,2.32-14.72,6.73-28.08,16.32-38.63,27.75-28.32,30.67-44.98,69.59-48.17,112.58-3.06,41.19,5.52,84.31,24.8,124.7,5.96,12.49,12.92,24.65,21.26,37.17.54.8.32,1.89-.49,2.43-.3.2-.64.29-.97.29Z" style="fill: #ff57b8;"/>
          <path d="m311.49,131.46c-.57,0-1.14-.28-1.47-.8-.52-.81-.29-1.9.52-2.42,10.32-6.65,18.93-16.62,27.26-26.26,3.24-3.76,6.6-7.64,9.94-11.18,15.78-16.71,28.65-28.85,41.73-39.37,23.51-18.91,46.58-31.76,68.56-38.19.93-.27,1.9.26,2.17,1.19.27.93-.26,1.9-1.19,2.17-21.54,6.3-44.21,18.94-67.35,37.56-12.95,10.42-25.71,22.46-41.38,39.05-3.29,3.49-6.47,7.17-9.84,11.06-8.49,9.83-17.27,19.99-28.01,26.92-.29.19-.62.28-.95.28Z" style="fill: #ff57b8;"/>
          <path d="m119.73,490.9c-.45,0-.9-.17-1.25-.52-1.26-1.28-2.6-2.59-3.95-3.91-2.07-2.02-4.2-4.12-6.13-6.16-26.4-28.02-56.13-62.33-76.37-104.27-20.28-42.02-29.65-85.65-27.09-126.19,3.01-47.61,19.61-89.86,48-122.16,22.11-25.15,53.43-41.64,85.93-45.22.96-.11,1.83.59,1.93,1.55.11.96-.59,1.83-1.55,1.93-31.64,3.49-62.15,19.55-83.69,44.06-27.88,31.71-44.18,73.23-47.14,120.07-2.52,39.94,6.73,82.97,26.75,124.44,20.04,41.52,49.55,75.56,75.77,103.39,1.88,1.99,3.99,4.06,6.03,6.06,1.36,1.33,2.71,2.66,3.99,3.95.68.69.67,1.8-.02,2.47-.34.34-.79.5-1.23.5Z" style="fill: #ff57b8;"/>
          <path d="m318.55,136.18c-.6,0-1.19-.31-1.51-.87-.49-.84-.2-1.91.63-2.39,1.58-.92,3.22-1.99,4.85-3.18,10.45-7.59,18.97-18.48,27.21-29,4.33-5.53,8.8-11.24,13.48-16.37,15.34-16.82,30.08-30.43,45.06-41.61,31.83-23.77,60.21-36.68,86.77-39.47.96-.1,1.82.6,1.92,1.56.1.96-.6,1.82-1.56,1.92-25.91,2.73-53.73,15.42-85.04,38.8-14.8,11.05-29.37,24.51-44.56,41.16-4.58,5.02-9.02,10.69-13.3,16.16-8.39,10.72-17.06,21.8-27.91,29.68-1.73,1.26-3.46,2.39-5.15,3.37-.28.16-.58.24-.88.24Z" style="fill: #ff57b8;"/>
          <path d="m244.17,603.08c-.39,0-.78-.13-1.1-.39-6.31-5.1-12.65-10.37-18.78-15.47-2.83-2.35-5.65-4.7-8.48-7.04-34.64-28.64-67.16-59.92-94.4-86.75-1.72-1.81-3.41-3.57-5.1-5.33-1.91-1.98-3.81-3.97-5.7-5.97-35.59-37.71-59.45-71.57-75.09-106.54-18.96-42.43-27.2-87.01-23.83-128.92,3.69-45.88,21.85-88.83,51.14-120.94,30.69-33.66,75.2-50.29,119.06-44.49.96.13,1.63,1.01,1.51,1.96-.13.96-1.01,1.63-1.96,1.51-42.73-5.65-86.1,10.57-116.01,43.38-28.76,31.55-46.6,73.76-50.23,118.87-3.33,41.33,4.81,85.32,23.54,127.21,15.47,34.61,39.12,68.15,74.44,105.57,1.88,1.99,3.78,3.97,5.68,5.95,1.7,1.77,3.39,3.53,5.07,5.31,27.14,26.73,59.59,57.95,94.13,86.5,2.83,2.34,5.66,4.69,8.49,7.05,6.12,5.09,12.45,10.35,18.74,15.44.75.61.87,1.71.26,2.46-.35.43-.85.65-1.36.65Z" style="fill: #ff57b8;"/>
          <path d="m326.84,141.69c-.69,0-1.34-.41-1.62-1.08-.37-.89.05-1.92.94-2.29,3.78-1.57,7.11-3.64,10.19-6.32,5.41-4.71,9.84-10.95,14.13-16.98,1.88-2.64,3.82-5.38,5.8-7.92,7.95-10.19,14.85-18.35,21.71-25.68,13.61-14.52,30.17-31.26,49.84-45.24C463.72,10.66,497.18-1.4,527.28.34c.96.06,1.7.88,1.65,1.85-.06.97-.88,1.7-1.85,1.65-29.29-1.69-62,10.15-97.22,35.2-19.42,13.81-35.82,30.39-49.31,44.78-6.79,7.25-13.63,15.33-21.51,25.44-1.94,2.48-3.85,5.18-5.71,7.79-4.41,6.2-8.96,12.61-14.68,17.6-3.36,2.93-7.01,5.19-11.14,6.91-.22.09-.45.13-.67.13Z" style="fill: #ff57b8;"/>
          <path d="m307.58,653.1c-.35,0-.7-.1-1.01-.32-7.36-5.21-14-10.37-21.02-15.83l-3.42-2.66c-17.97-13.95-35.13-28.25-49.55-40.41-29.39-24.77-63.79-54.56-96.11-87.6-3.87-3.8-7.68-7.74-11.36-11.56-37.48-38.81-62.68-73.5-79.3-109.19-20.01-42.94-28.96-88.61-25.89-132.05,3.37-47.78,22.19-92.71,53-126.52,32.29-35.43,78.01-51.56,125.46-44.26,7.74,1.19,15.63,2.99,23.46,5.36.93.28,1.45,1.26,1.17,2.18-.28.93-1.26,1.45-2.18,1.17-7.67-2.31-15.4-4.08-22.98-5.25-46.26-7.12-90.85,8.61-122.34,43.16-30.28,33.22-48.78,77.41-52.09,124.41-3.02,42.85,5.82,87.92,25.58,130.33,16.46,35.32,41.45,69.72,78.65,108.23,3.67,3.8,7.46,7.72,11.32,11.51,32.24,32.96,66.56,62.67,95.88,87.39,14.39,12.13,31.52,26.41,49.44,40.32l3.43,2.66c6.99,5.44,13.59,10.58,20.89,15.74.79.56.98,1.65.42,2.44-.34.48-.88.74-1.43.74Z" style="fill: #ff57b8;"/>
          <path d="m334.47,147.26c-.76,0-1.46-.5-1.68-1.26-.27-.93.26-1.9,1.19-2.17,5.32-1.56,9.78-4.02,14.04-7.75,5.14-4.5,9.18-10.51,13.09-16.32,1.92-2.85,3.9-5.79,5.98-8.53,7.49-9.81,13.98-17.84,20.42-25.28,14.91-17.21,31.21-32.53,48.46-45.53,31.67-23.86,79.03-49.68,124.81-37.16.93.26,1.48,1.22,1.23,2.15-.25.93-1.22,1.48-2.15,1.23-44.4-12.14-90.73,13.19-121.78,36.58-17.06,12.85-33.18,28-47.92,45.02-6.39,7.38-12.84,15.36-20.29,25.11-2.02,2.65-3.97,5.55-5.86,8.36-4.03,6-8.21,12.2-13.69,17-4.59,4.02-9.62,6.79-15.36,8.47-.16.05-.33.07-.49.07Z" style="fill: #ff57b8;"/>
          <path d="m352.97,685.55c-.24,0-.48-.05-.71-.15-1.54-.69-9.94-5.46-16.08-9.96-12.98-9.51-26-19.51-38.72-29.73-23.59-18.95-48.08-39.43-72.79-60.85-22.54-19.55-46.43-40.69-68.38-62.85-3.11-2.91-6.2-6.04-9.18-9.08l-1.45-1.47c-28.24-28.66-60.11-63.56-82.32-105.09-21.75-40.67-33.52-85.28-34.03-129.01-.53-45.57,12.96-89.7,39.01-127.62,28.49-41.47,70.39-65.48,114.97-65.88,21.85-.2,43.77,4.01,65.18,12.5.9.36,1.34,1.37.98,2.27-.36.9-1.37,1.34-2.27.98-20.98-8.32-42.47-12.44-63.85-12.25-43.42.39-84.28,23.85-112.11,64.36-25.64,37.33-38.92,80.76-38.4,125.6.5,43.16,12.13,87.22,33.62,127.4,22.01,41.14,53.66,75.81,81.73,104.29l1.45,1.47c2.96,3.01,6.01,6.11,9.12,9.02,21.92,22.12,45.75,43.21,68.24,62.71,24.68,21.4,49.14,41.85,72.69,60.77,12.67,10.18,25.66,20.15,38.59,29.63,5.96,4.37,14.15,9.01,15.45,9.59.88.4,1.28,1.43.88,2.31-.29.65-.93,1.03-1.6,1.03Z" style="fill: #ff57b8;"/>
          <path d="m342.44,153.55c-.83,0-1.56-.59-1.72-1.43-.18-.95.45-1.86,1.4-2.04,8.55-1.58,16.71-6.71,22.39-14.06,4.2-5.44,8.21-11.17,12.09-16.71,5.12-7.33,10.42-14.9,16.29-21.97,26.63-32.09,55.9-57.14,86.99-74.45,39.6-22.04,80.98-25.99,113.51-10.85.88.41,1.26,1.45.85,2.32-.41.88-1.45,1.26-2.32.85-31.51-14.67-71.72-10.76-110.33,10.73-30.72,17.09-59.65,41.87-86,73.63-5.77,6.96-11.03,14.47-16.11,21.74-3.9,5.58-7.93,11.34-12.19,16.84-6.2,8.02-15.14,13.62-24.53,15.36-.11.02-.22.03-.32.03Z" style="fill: #ff57b8;"/>
        </g>
        <path d="m380.05,691.12c-7.15,0-14.31-1.16-21.47-3.49-.92-.3-1.42-1.29-1.12-2.21.3-.92,1.29-1.42,2.21-1.12,20.37,6.63,40.83,3.29,60.8-9.94,52.45-34.73,90.35-130.96,96.68-203.93,13.73-158.26-24.82-203.72-52.97-236.9-3.23-3.81-6.28-7.41-9.19-11.06-42.01-52.93-109.38-66.81-110.05-66.95-.95-.19-1.56-1.11-1.38-2.06.19-.95,1.11-1.56,2.06-1.38.69.14,69.28,14.24,112.11,68.21,2.87,3.61,5.9,7.19,9.11,10.98,14.77,17.41,31.5,37.14,43.06,72.87,13.36,41.32,16.87,95.82,10.73,166.6-3.29,37.89-14.77,80.91-31.51,118.04-12.99,28.82-35.11,67.57-66.72,88.5-13.92,9.22-28.09,13.84-42.34,13.84Z" style="fill: #ff57b8;"/>
        <path d="m114.46,481.07c-1.61,0-3.26-.08-4.94-.23-.96-.09-1.67-.94-1.59-1.9.09-.96.93-1.67,1.9-1.59,12.63,1.14,22.97-2.34,30.71-10.35,17.72-18.32,22.66-60,14.7-123.88-5.77-46.3-18.87-86.72-37.88-116.88-15.22-24.15-33.63-40.7-50.5-45.4-28.58-7.96-50.21,10.69-58.96,32.7-.36.9-1.38,1.34-2.27.98-.9-.36-1.34-1.37-.98-2.27,9.33-23.47,32.48-43.32,63.16-34.78,17.7,4.93,36.84,22.02,52.52,46.9,19.28,30.59,32.56,71.5,38.39,118.31,8.1,64.98,2.83,107.62-15.66,126.74-7.47,7.73-17.08,11.63-28.6,11.63Z" style="fill: #ff57b8;"/>
        <path d="m276.44,626.14c-1.44,0-2.89-.05-4.35-.14-.96-.06-1.7-.89-1.63-1.86.06-.96.9-1.7,1.86-1.63,21.03,1.35,39.12-7.61,53.76-26.62,45.17-58.64,49.22-204.46,9.02-325.06-53.77-161.31-133.02-183.54-196.06-184.88-.97-.02-1.73-.82-1.71-1.79.02-.97.83-1.74,1.79-1.71,26.61.57,66.39,4.65,104.33,33.46,39.38,29.9,70.44,80.21,94.98,153.81,19.4,58.21,29.24,124.27,27.69,185.99-1.57,62.63-14.8,113.17-37.26,142.31-14.38,18.67-32,28.11-52.41,28.11Z" style="fill: #ff57b8;"/>
        <path d="m201.98,567.09c-.81,0-1.53-.56-1.71-1.39-.2-.95.4-1.88,1.35-2.08,22.28-4.75,39-19.83,49.71-44.81,16.02-37.38,18.23-96.37,6.21-166.11-10.28-59.63-30.36-120.05-51.16-153.92-41.24-67.15-121.67-88.64-153.69-69.81-.83.49-1.91.21-2.4-.62-.49-.83-.21-1.91.62-2.4,17.64-10.37,47.36-9.24,77.55,2.97,33.55,13.56,62.28,37.72,80.9,68.03,21.02,34.22,41.29,95.12,51.63,155.16,12.13,70.4,9.85,130.09-6.44,168.09-11.18,26.09-28.74,41.85-52.2,46.85-.12.03-.25.04-.37.04Z" style="fill: #ff57b8;"/>
        <path d="m339.56,664.92c-9.65,0-17.25-2.38-21.53-3.72-.92-.29-1.44-1.27-1.15-2.19.29-.92,1.27-1.44,2.19-1.15,18.7,5.85,46.96,9.15,76.38-29.68,37.94-50.07,49.32-126.86,40.56-273.88-9.56-160.53-143.96-234.53-184.92-253.39-.88-.4-1.26-1.44-.86-2.32.4-.88,1.44-1.26,2.32-.86,20.84,9.59,61.5,31.25,99.64,68.49,53.62,52.35,83,115.56,87.31,187.87,4.37,73.38,3.72,127.17-2.05,169.27-6.3,45.97-18.76,79.94-39.21,106.93-21.35,28.17-42.79,34.63-58.68,34.63Z" style="fill: #ff57b8;"/>
        <path d="m357.48,683.32c-3.05,0-6.15-.15-9.29-.44-.96-.09-1.67-.94-1.58-1.91.09-.96.95-1.67,1.91-1.58,24.54,2.31,46.21-4.79,64.41-21.12,41.84-37.54,65.84-125.09,67.57-246.53,2.17-151.8-94.36-224.23-130.7-251.49l-2.5-1.88c-.77-.58-.93-1.68-.35-2.45.58-.77,1.68-.93,2.45-.35l2.49,1.87c36.73,27.56,134.29,100.76,132.1,254.34-.84,58.58-6.75,109.39-17.57,151.04-11.72,45.11-28.94,78.1-51.16,98.04-16.62,14.91-36.03,22.44-57.79,22.44Z" style="fill: #ff57b8;"/>
        <path d="m298.55,646.09c-.96,0-1.74-.77-1.75-1.73-.01-.97.76-1.76,1.73-1.77,24.92-.28,44.15-7.79,58.78-22.97,31.91-33.1,44.08-102.95,40.72-233.55-6.04-234.59-154.88-288.89-200.36-299.95-.94-.23-1.52-1.17-1.29-2.11.23-.94,1.18-1.52,2.11-1.29,37,8.99,90.35,31.38,134.4,86.95,43.25,54.56,66.34,127.33,68.63,216.31,3.39,131.62-9.08,202.22-41.7,236.06-15.32,15.89-35.36,23.76-61.26,24.04,0,0-.01,0-.02,0Z" style="fill: #ff57b8;"/>
        <path d="m239.71,599.35c-.81,0-1.53-.56-1.71-1.38-.2-.94.4-1.88,1.34-2.08,20.79-4.47,46.49-14.67,60.77-54.11,14.73-40.67,15.73-106.08,3.07-199.95-13.29-98.53-47.69-171.3-99.47-210.43-44.97-33.99-89.79-33.6-112.49-30.34-.96.14-1.84-.53-1.98-1.48-.14-.96.53-1.84,1.48-1.98,23.25-3.33,69.11-3.74,115.1,31.01,24.57,18.57,45.38,44.5,61.86,77.08,18.7,36.98,31.81,82.63,38.97,135.68,12.74,94.45,11.68,160.39-3.25,201.61-14.87,41.06-41.65,51.68-63.33,56.34-.12.03-.25.04-.37.04Z" style="fill: #ff57b8;"/>
        <path d="m157.15,522.89c-1.65,0-3.33-.07-5.04-.2-.96-.08-1.68-.92-1.61-1.88.08-.96.92-1.68,1.88-1.61,19.56,1.53,34.53-6.32,44.49-23.32,16.6-28.34,19.13-83.24,6.95-150.61-10.54-58.27-30.77-117.11-50.36-146.42-21.58-32.3-53.73-52.47-85.99-53.96-16.06-.74-29.62,3.72-36.28,11.93-.61.75-1.71.87-2.46.26-.75-.61-.87-1.71-.26-2.46,7.36-9.07,21.99-14.02,39.16-13.22,33.37,1.54,66.54,22.29,88.74,55.51,19.83,29.67,40.28,89.04,50.89,147.74,7.24,40.07,15.92,113.23-7.37,153-9.82,16.77-24.18,25.25-42.74,25.25Z" style="fill: #ff57b8;"/>
        <path d="m80.97,438.03c-8.57,0-12.52-4.03-12.72-4.23-.67-.7-.64-1.81.06-2.47.7-.67,1.81-.64,2.47.06.17.17,4.6,4.51,14.92,2.72,10.81-1.87,18.13-11.51,21.76-28.64,10.35-48.83-14.76-148.6-41.98-166.8-12.96-8.67-24.96-11.25-35.67-7.67-11.29,3.78-21.15,14.95-26.37,29.9-.32.91-1.32,1.39-2.23,1.07-.91-.32-1.39-1.32-1.07-2.23,2.68-7.66,10.82-26.13,28.57-32.06,11.79-3.94,24.82-1.22,38.72,8.08,13.07,8.74,27,36.71,36.35,73,9.54,37.02,12.2,73.45,7.11,97.44-3.9,18.41-12.4,29.25-24.59,31.37-1.94.34-3.72.48-5.33.48Z" style="fill: #ff57b8;"/>
        <path d="m59.83,408.81c-2.98,0-6.64-.88-11.12-3.17-.86-.44-1.2-1.49-.76-2.35.44-.86,1.49-1.2,2.35-.76,7.52,3.84,12.83,3.77,16.24-.22,5.58-6.53,6.13-23.98,1.49-46.69-4.03-19.67-11.45-40.15-17.65-48.69-7.94-10.93-17.38-14.98-25.9-11.12-8.63,3.91-13.88,14.88-11.7,24.46.21.94-.38,1.88-1.32,2.09-.94.21-1.88-.38-2.09-1.32-2.52-11.11,3.61-23.86,13.67-28.42,4.82-2.18,17.39-5.36,30.18,12.25,13.49,18.58,30.22,83.08,16,99.71-1.88,2.2-4.85,4.23-9.37,4.23Z" style="fill: #ff57b8;"/>
        <path d="m469.95,645.2c-.45,0-.9-.17-1.24-.52-.68-.69-.67-1.79.01-2.47.41-.4,40.95-41.5,65.03-141.27,38.02-157.49,7.92-227.79-60.93-302.44-34.83-37.77-73.64-51.89-100.06-57.09-28.6-5.62-49.14-2.3-49.35-2.27-.95.16-1.86-.48-2.02-1.44-.16-.95.48-1.86,1.44-2.01.86-.14,21.39-3.46,50.6,2.29,26.93,5.3,66.49,19.69,101.96,58.15,41,44.46,62.74,82.27,72.68,126.45,10.64,47.28,7.17,104.22-10.92,179.18-24.35,100.85-65.56,142.53-65.97,142.94-.34.34-.79.51-1.23.51Z" style="fill: #ff57b8;"/>
        <path d="m537.96,577c-.46,0-.93-.18-1.27-.55-.66-.7-.63-1.81.07-2.47.22-.2,21.8-20.8,43.95-56.51,20.42-32.92,45.51-85.8,49.11-150.77,5.32-95.9-27.64-169.27-103.73-230.9-67.35-54.55-147.11-51.9-199.31-31.23-.9.36-1.92-.08-2.27-.98-.36-.9.08-1.92.98-2.27,16.29-6.45,49.92-16.76,92.03-13.28,40.76,3.37,78.02,18.52,110.76,45.04,37.82,30.63,64.58,63.39,81.83,100.16,18.42,39.27,26.01,82.99,23.2,133.65-3.65,65.75-29.04,119.24-49.7,152.52-22.38,36.07-44.24,56.91-44.45,57.11-.34.32-.77.48-1.2.48Z" style="fill: #ff57b8;"/>
        <path d="m619.51,465.84c-.34,0-.68-.1-.99-.31-.8-.55-1-1.63-.46-2.43.16-.24,16.6-24.48,30.98-61.22,13.25-33.85,27.42-85.54,19.7-139.6-17.04-119.31-75.23-184.34-177.88-198.78-47.83-6.73-85.63,1.15-108.92,8.95-25.25,8.45-39.36,18.63-39.5,18.73-.78.57-1.88.4-2.44-.38-.57-.78-.4-1.87.38-2.44.58-.43,14.59-10.54,40.3-19.17,23.67-7.94,62.09-15.98,110.68-9.14,46.87,6.59,85.28,24.14,114.18,52.16,34.91,33.84,57.34,84.17,66.69,149.59,7.83,54.84-6.52,107.19-19.93,141.45-14.53,37.09-31.14,61.59-31.31,61.84-.34.5-.89.76-1.45.76Z" style="fill: #ff57b8;"/>
        <path d="m677.81,362.36c-.26,0-.52-.06-.77-.18-.87-.42-1.23-1.47-.8-2.34.35-.71,34.45-71.77,20.63-161.7-14.02-91.23-64.72-149.71-146.61-169.14-67.32-15.97-138.25,14.04-165.62,27.69-.87.43-1.92.08-2.35-.79-.43-.86-.08-1.92.79-2.35,27.71-13.81,99.56-44.19,167.99-27.96,39.78,9.44,72.5,27.82,97.24,54.64,27.06,29.33,44.56,68.82,52.03,117.38,13.99,91.06-20.6,163.05-20.95,163.77-.3.62-.93.98-1.57.98Z" style="fill: #ff57b8;"/>
        <path d="m709.65,256.64c-.06,0-.11,0-.17,0-.96-.09-1.67-.94-1.58-1.91,10.45-110.65-29.6-187.51-119.05-228.46-67.09-30.71-147.55-3.1-148.36-2.82-.91.32-1.91-.16-2.23-1.07-.32-.91.16-1.91,1.07-2.23.2-.07,20.8-7.23,49.52-10.41,26.54-2.95,65.69-3.02,101.46,13.35,39.94,18.28,70.63,44.28,91.24,77.27,25.62,41.02,35.66,93.07,29.84,154.7-.09.91-.85,1.59-1.74,1.59Z" style="fill: #ff57b8;"/>
        <path d="m513.23,604.37c-.4,0-.79-.13-1.12-.41-.74-.62-.84-1.72-.22-2.47,91.72-109.85,134.61-283.39,39.13-402.53-81.11-101.21-164.18-99.98-234.74-85.43-.95.19-1.87-.41-2.07-1.36-.2-.95.41-1.87,1.36-2.07,31.06-6.4,68.35-11.64,109.45-1.91,47.28,11.19,90.59,41,128.73,88.58,44.62,55.68,62.56,126.74,51.87,205.51-9.65,71.14-41.99,142.69-91.05,201.45-.35.41-.84.63-1.34.63Z" style="fill: #ff57b8;"/>
        <path d="m663.77,391.45c-.21,0-.43-.04-.63-.12-.9-.35-1.35-1.36-1-2.27,48.36-124.4,31.97-225.09-48.74-299.25-55.42-50.93-120.13-52.49-164.66-44.82-46.68,8.03-83.5,28.15-87.1,30.73l-.98-1.36h-.11s-1.72-.35-1.72-.35c.17-.83.19-.94,4.39-3.27,2.04-1.13,5.44-2.94,10.05-5.16,7.83-3.77,20.45-9.33,36.14-14.42,33.43-10.84,65.89-15.02,96.48-12.41,41.77,3.56,78.74,19.87,109.87,48.48,37.52,34.48,61.58,75.45,71.51,121.79,11.46,53.47,4.1,114.47-21.88,181.31-.27.69-.93,1.12-1.63,1.12ZM362.3,74.44h0,0Z" style="fill: #ff57b8;"/>
      </g>
      <path d="m501.18,616.24c-.44,0-.88-.17-1.22-.5-.69-.67-.71-1.78-.03-2.47.35-.36,35.44-37.36,64.5-146.63,21.74-81.74,25.69-147.35-21.71-221.78-52.21-81.98-114.48-110.19-157.54-119.43-46.58-9.99-81.19-.56-81.54-.46-.93.26-1.9-.28-2.16-1.21-.26-.93.28-1.9,1.21-2.16.35-.1,35.8-9.76,83.21.41,27.83,5.97,54.31,17.49,78.71,34.25,30.46,20.92,57.72,50.1,81.05,86.72,23.41,36.76,35.67,74.19,37.47,114.4,1.77,39.59-6.76,77.9-15.33,110.15-29.34,110.33-63.92,146.68-65.38,148.17-.34.35-.8.53-1.25.53Z" style="fill: #ff57b8;"/>
      <path d="m625,457.78c-.22,0-.44-.04-.65-.13-.9-.36-1.33-1.38-.97-2.28,33.6-83.31,34.78-166.31,3.61-253.74-19.42-54.48-61.43-90.92-136.22-118.15-57.62-20.98-107.64-3.91-137.53,6.29-5.81,1.98-10.82,3.69-15.14,4.89-.93.26-1.9-.29-2.15-1.22-.26-.93.29-1.9,1.22-2.15,4.21-1.17,9.18-2.86,14.94-4.83,30.32-10.35,81.08-27.67,139.85-6.27,75.85,27.62,118.51,64.71,138.32,120.26,13.46,37.76,20.75,73.91,22.27,110.5,2.04,48.98-6.68,98.01-25.93,145.72-.28.68-.93,1.1-1.62,1.1Z" style="fill: #ff57b8;"/>
    </g>
  </g>
</svg>