<?xml version="1.0" encoding="UTF-8"?>
<svg id="Layer_2" data-name="Layer 2" xmlns="http://www.w3.org/2000/svg" viewBox="0 0 150.11 150.11">
  <g id="_ÎÓÈ_1" data-name="—ÎÓÈ_1">
    <g>
      <path d="m75.05,150.11c-1.19,0-2.15-.96-2.15-2.15V2.15c0-1.19.96-2.15,2.15-2.15s2.15.96,2.15,2.15v145.81c0,1.19-.96,2.15-2.15,2.15Z" style="fill: #ff57b8;"/>
      <path d="m147.96,77.2H2.15c-1.19,0-2.15-.96-2.15-2.15s.96-2.15,2.15-2.15h145.81c1.19,0,2.15.96,2.15,2.15s-.96,2.15-2.15,2.15Z" style="fill: #ff57b8;"/>
      <path d="m23.5,128.76c-.55,0-1.1-.21-1.52-.63-.84-.84-.84-2.2,0-3.04L125.08,21.98c.84-.84,2.2-.84,3.04,0,.84.84.84,2.2,0,3.04L25.02,128.13c-.42.42-.97.63-1.52.63Z" style="fill: #ff57b8;"/>
      <path d="m126.61,128.76c-.55,0-1.1-.21-1.52-.63L21.98,25.02c-.84-.84-.84-2.2,0-3.04.84-.84,2.2-.84,3.04,0l103.1,103.1c.84.84.84,2.2,0,3.04-.42.42-.97.63-1.52.63Z" style="fill: #ff57b8;"/>
    </g>
  </g>
</svg>