<?xml version="1.0" encoding="UTF-8"?>
<svg id="Layer_2" data-name="Layer 2" xmlns="http://www.w3.org/2000/svg" viewBox="0 0 286.34 286.34">
  <g id="_ÎÓÈ_1" data-name="—ÎÓÈ_1">
    <g>
      <g>
        <path d="m30.23,286.34c-1.1,0-2-.9-2-2V2c0-1.1.9-2,2-2s2,.9,2,2v282.34c0,1.1-.9,2-2,2Z" style="fill: #ff57b8;"/>
        <path d="m86.7,286.34c-1.1,0-2-.9-2-2V2c0-1.1.9-2,2-2s2,.9,2,2v282.34c0,1.1-.9,2-2,2Z" style="fill: #ff57b8;"/>
        <path d="m143.17,286.34c-1.1,0-2-.9-2-2V2c0-1.1.9-2,2-2s2,.9,2,2v282.34c0,1.1-.9,2-2,2Z" style="fill: #ff57b8;"/>
        <path d="m199.64,286.34c-1.1,0-2-.9-2-2V2c0-1.1.9-2,2-2s2,.9,2,2v282.34c0,1.1-.9,2-2,2Z" style="fill: #ff57b8;"/>
        <path d="m256.11,286.34c-1.1,0-2-.9-2-2V2c0-1.1.9-2,2-2s2,.9,2,2v282.34c0,1.1-.9,2-2,2Z" style="fill: #ff57b8;"/>
      </g>
      <g>
        <path d="m284.34,258.11H2c-1.1,0-2-.9-2-2s.9-2,2-2h282.34c1.1,0,2,.9,2,2s-.9,2-2,2Z" style="fill: #ff57b8;"/>
        <path d="m284.34,201.64H2c-1.1,0-2-.9-2-2s.9-2,2-2h282.34c1.1,0,2,.9,2,2s-.9,2-2,2Z" style="fill: #ff57b8;"/>
        <path d="m284.34,145.17H2c-1.1,0-2-.9-2-2s.9-2,2-2h282.34c1.1,0,2,.9,2,2s-.9,2-2,2Z" style="fill: #ff57b8;"/>
        <path d="m284.34,88.7H2c-1.1,0-2-.9-2-2s.9-2,2-2h282.34c1.1,0,2,.9,2,2s-.9,2-2,2Z" style="fill: #ff57b8;"/>
        <path d="m284.34,32.23H2c-1.1,0-2-.9-2-2s.9-2,2-2h282.34c1.1,0,2,.9,2,2s-.9,2-2,2Z" style="fill: #ff57b8;"/>
      </g>
    </g>
  </g>
</svg>