<?xml version="1.0" encoding="UTF-8"?>
<svg id="Layer_2" data-name="Layer 2" xmlns="http://www.w3.org/2000/svg" viewBox="0 0 150.11 150.11">
  <g id="_ÎÓÈ_1" data-name="—ÎÓÈ_1">
    <path d="m85.05,150.11h-20c-1.19,0-2.15-.96-2.15-2.15v-43.57l-30.81,30.81c-.84.84-2.2.84-3.04,0l-14.14-14.14c-.4-.4-.63-.95-.63-1.52s.23-1.12.63-1.52l30.81-30.81H2.15c-1.19,0-2.15-.96-2.15-2.15v-20c0-1.19.96-2.15,2.15-2.15h43.57l-30.81-30.81c-.4-.4-.63-.95-.63-1.52s.23-1.12.63-1.52l14.14-14.14c.84-.84,2.2-.84,3.04,0l30.81,30.81V2.15c0-1.19.96-2.15,2.15-2.15h20c1.19,0,2.15.96,2.15,2.15v43.57l30.81-30.81c.84-.84,2.2-.84,3.04,0l14.14,14.14c.4.4.63.95.63,1.52s-.23,1.12-.63,1.52l-30.81,30.81h43.57c1.19,0,2.15.96,2.15,2.15v20c0,1.19-.96,2.15-2.15,2.15h-43.57l30.81,30.81c.4.4.63.95.63,1.52s-.23,1.12-.63,1.52l-14.14,14.14c-.84.84-2.2.84-3.04,0l-30.81-30.81v43.57c0,1.19-.96,2.15-2.15,2.15Zm-17.85-4.3h15.7v-46.61c0-.87.52-1.65,1.33-1.99.81-.33,1.73-.15,2.34.47l32.96,32.96,11.1-11.1-32.96-32.96c-.61-.61-.8-1.54-.47-2.34s1.12-1.33,1.99-1.33h46.61v-15.7h-46.61c-.87,0-1.65-.52-1.99-1.33s-.15-1.73.47-2.34l32.96-32.96-11.1-11.1-32.96,32.96c-.62.62-1.54.8-2.34.47-.8-.33-1.33-1.12-1.33-1.99V4.3h-15.7v46.61c0,.87-.52,1.65-1.33,1.99-.81.33-1.73.15-2.34-.47L30.58,19.47l-11.1,11.1,32.96,32.96c.61.61.8,1.54.47,2.34s-1.12,1.33-1.99,1.33H4.3v15.7h46.61c.87,0,1.65.52,1.99,1.33s.15,1.73-.47,2.34l-32.96,32.96,11.1,11.1,32.96-32.96c.61-.61,1.54-.8,2.34-.47.8.33,1.33,1.12,1.33,1.99v46.61Z" style="fill: #ff57b8;"/>
  </g>
</svg>