<?xml version="1.0" encoding="UTF-8"?>
<svg id="Layer_2" data-name="Layer 2" xmlns="http://www.w3.org/2000/svg" viewBox="0 0 410.03 366.45">
  <g id="_ÎÓÈ_1" data-name="—ÎÓÈ_1">
    <g>
      <g>
        <g>
          <path d="m204.97,281.83c-25.29,0-54.04-9.21-83.15-26.63-26.89-16.09-53.27-38.9-74.28-64.22C12.03,148.19-4.62,103.95,1.83,69.59c.18-.95,1.1-1.58,2.04-1.4.95.18,1.58,1.09,1.4,2.04-6.26,33.33,10.13,76.52,44.96,118.5,44.46,53.59,106.65,89.59,154.74,89.59.97,0,1.75.78,1.75,1.75s-.78,1.75-1.75,1.75Z" style="fill: #ff57b8;"/>
          <path d="m204.97,80.71c-42.65,0-75.07-16.04-94.76-29.49-23.25-15.88-37.25-34.23-38.63-43.43-.77-5.12,2.26-6.62,3.59-7.03.92-.28,1.9.23,2.19,1.16.28.92-.24,1.9-1.16,2.19-.47.14-1.56.48-1.16,3.17,2.53,16.86,54.17,69.94,129.93,69.94.97,0,1.75.78,1.75,1.75s-.78,1.75-1.75,1.75Z" style="fill: #ff57b8;"/>
          <path d="m204.97,317.34c-27.45,0-65.66-19.13-104.84-52.47-36.88-31.39-69.32-70.79-86.79-105.37-.44-.86-.09-1.92.77-2.35.86-.43,1.91-.09,2.35.77,17.26,34.19,49.39,73.18,85.93,104.28,38.55,32.82,75.94,51.64,102.57,51.64.97,0,1.75.78,1.75,1.75s-.78,1.75-1.75,1.75Z" style="fill: #ff57b8;"/>
          <path d="m204.97,70.93c-52.4,0-90.67-45.31-91.6-60.36-.19-3.16,1.31-5.25,4.01-5.59.96-.12,1.83.56,1.95,1.52.12.96-.56,1.83-1.52,1.95-.42.05-1.06.13-.95,1.9.39,6.39,10.11,20.89,25.12,33.18,10.9,8.92,33.58,23.89,62.98,23.89.97,0,1.75.78,1.75,1.75s-.78,1.75-1.75,1.75Z" style="fill: #ff57b8;"/>
          <path d="m204.97,340.37c-29.74,0-60.7-26.31-98.09-60.71-.71-.65-.76-1.76-.1-2.47.66-.71,1.76-.76,2.47-.1,36.82,33.87,67.25,59.78,95.73,59.78.97,0,1.75.78,1.75,1.75s-.78,1.75-1.75,1.75Z" style="fill: #ff57b8;"/>
          <path d="m204.97,66.43c-26.42,0-49.62-26.22-50.08-36.11-.13-2.78,1.43-4.65,4.07-4.9.96-.09,1.81.62,1.9,1.58.09.96-.62,1.81-1.58,1.9-.55.05-.95.09-.9,1.25.37,8.03,21.79,32.77,46.58,32.77.97,0,1.75.78,1.75,1.75s-.78,1.75-1.75,1.75Z" style="fill: #ff57b8;"/>
          <path d="m204.97,355.96c-19.22,0-27.08-7.4-40.12-19.67l-.54-.51c-.7-.66-.74-1.77-.08-2.47.66-.7,1.77-.74,2.47-.08l.54.51c12.83,12.07,19.89,18.72,37.72,18.72.97,0,1.75.78,1.75,1.75s-.78,1.75-1.75,1.75Z" style="fill: #ff57b8;"/>
          <path d="m204.97,109.58c-86.77,0-141.7-44.99-157.44-75.23-5.15-9.89-6.09-18.03-2.66-22.94.55-.79,1.65-.99,2.44-.43.79.55.98,1.65.43,2.44-2.57,3.67-1.49,10.9,2.89,19.32,15.35,29.48,69.12,73.35,154.34,73.35.97,0,1.75.78,1.75,1.75s-.78,1.75-1.75,1.75Z" style="fill: #ff57b8;"/>
          <path d="m204.97,165.44c-37.07,0-73.48-9.5-105.29-27.48-27.55-15.57-50.12-36.57-63.55-59.11-12.42-20.85-15.23-40.75-7.73-54.6.46-.85,1.52-1.17,2.37-.7.85.46,1.17,1.52.71,2.37-6.9,12.74-4.11,31.38,7.66,51.14,24.35,40.88,86.62,84.88,165.83,84.88.97,0,1.75.78,1.75,1.75s-.78,1.75-1.75,1.75Z" style="fill: #ff57b8;"/>
          <path d="m204.97,223.21c-30.52,0-65.38-10.55-98.15-29.72-31.58-18.47-58.52-43.13-75.84-69.42C11.02,93.79,5.8,63.65,16.29,39.23c.38-.89,1.41-1.3,2.3-.92.89.38,1.3,1.41.92,2.3-12.83,29.87.75,60.83,14.39,81.54,36.05,54.71,111.19,97.56,171.07,97.56.97,0,1.75.78,1.75,1.75s-.78,1.75-1.75,1.75Z" style="fill: #ff57b8;"/>
          <path d="m204.07,366.45c-6.74,0-10.77-3.71-15.82-8.36l-.96-.88c-7.84-7.19-15.59-14.38-23.04-21.37-16.18-15.2-30.53-29.04-43.85-42.3-17.44-17.37-31.3-31.77-43.64-45.33-13.17-14.48-27.03-30.26-39.19-47.49-11.82-16.76-21.18-34.41-27.81-52.47C1.48,125.67-1.62,103.03.8,82.77c2.75-23.03,12.4-43.41,27.91-58.92C44.12,8.42,64.64-.03,86.37,0c17.56.04,36.03,4.91,54.88,14.5,17.21,8.75,33.26,20.85,46.42,34.99l1.04,1.12c5.35,5.79,8.9,9.62,16.14,9.12.96-.07,1.8.66,1.87,1.63.07.96-.66,1.8-1.63,1.87-8.94.61-13.57-4.41-18.95-10.23l-1.03-1.12c-12.89-13.85-28.6-25.7-45.45-34.26-18.36-9.33-36.29-14.08-53.3-14.12-.06,0-.12,0-.18,0-21.07,0-40.08,7.89-55,22.82-14.94,14.95-24.25,34.62-26.91,56.86-2.36,19.71.68,41.8,8.78,63.86,6.52,17.77,15.74,35.15,27.39,51.66,12.05,17.08,25.83,32.76,38.92,47.15,12.29,13.52,26.12,27.88,43.52,45.21,13.3,13.24,27.61,27.06,43.77,42.23,7.43,6.98,15.17,14.16,23.01,21.34l.96.89c5.05,4.65,8.4,7.71,14.25,7.41,1.01-.05,1.79.69,1.84,1.66.05.97-.69,1.79-1.66,1.84-.33.02-.66.03-.98.03Z" style="fill: #ff57b8;"/>
        </g>
        <path d="m202.76,366.06c-.31,0-.62-.08-.9-.25-9.58-5.74-15.55-37.04-22.03-115.5-5.19-62.9-1.84-114.99,3.04-142.77,4.65-26.52,15.76-47.5,15.87-47.71.45-.85,1.51-1.17,2.37-.72.85.46,1.17,1.52.72,2.37-.11.2-10.96,20.72-15.51,46.67-4.84,27.56-8.17,79.31-3,141.88,6.12,74.18,12.21,107.91,20.34,112.78.83.5,1.1,1.57.6,2.4-.33.55-.91.85-1.5.85Z" style="fill: #ff57b8;"/>
        <g>
          <path d="m176.75,348.64c-.47,0-.94-.19-1.29-.56-7.37-8-17.91-41.66-26.24-83.76-9.36-47.35-13.49-92-11.33-122.52,2.85-40.3,12.83-69.74,28.09-82.91,6.72-5.79,14.35-8.41,22.69-7.77.96.07,1.68.92,1.61,1.88-.07.96-.9,1.69-1.88,1.61-7.38-.56-14.15,1.77-20.13,6.93-14.55,12.56-24.1,41.15-26.89,80.51-4.91,69.3,23.25,189.13,36.65,203.66.66.71.61,1.82-.1,2.47-.34.31-.76.46-1.19.46Z" style="fill: #ff57b8;"/>
          <path d="m132.72,304.98c-.69,0-1.34-.4-1.62-1.08-19.37-46.43-35.61-128.26-27.56-188.47,6.78-50.58,33.07-85.07,64-83.88.97.04,1.72.85,1.68,1.82-.04.97-.86,1.72-1.82,1.68-14.11-.55-27.42,6.97-38.48,21.74-10.99,14.67-18.77,35.66-21.91,59.1-7.96,59.59,8.14,140.65,27.32,186.65.37.89-.05,1.92-.94,2.29-.22.09-.45.14-.67.14Z" style="fill: #ff57b8;"/>
          <path d="m90.52,263.55c-.71,0-1.37-.43-1.64-1.13-13.79-36.57-33.88-113.36-21.69-169.23,4.6-21.05,15.04-40.96,29.4-56.08,14.01-14.76,30.17-22.98,44.39-22.55.97.03,1.73.84,1.7,1.8-.03.95-.81,1.7-1.75,1.7-.02,0-.04,0-.05,0-28.35-.85-61.23,34.61-70.26,75.88-12.02,55.07,7.89,131.04,21.54,167.25.34.9-.12,1.91-1.02,2.26-.2.08-.41.11-.62.11Z" style="fill: #ff57b8;"/>
          <path d="m58.5,228.35c-.73,0-1.4-.45-1.65-1.18-23.96-69.29-32.01-108.27-16.37-156.15,6.39-19.53,16.17-35.96,28.29-47.53,12.98-12.4,28.05-19.01,44.78-19.67,1.01-.04,1.78.72,1.82,1.68.04.97-.71,1.78-1.68,1.82-30.87,1.21-56.99,25.43-69.87,64.79-15.33,46.92-7.34,85.41,16.35,153.92.32.91-.17,1.91-1.08,2.23-.19.07-.38.1-.57.1Z" style="fill: #ff57b8;"/>
          <path d="m31.07,190.51c-.63,0-1.24-.34-1.55-.95C14.28,160.14-.36,118.65,21.8,58.52,34.97,22.76,58.13,2.54,88.78.02c.96-.08,1.81.64,1.89,1.6.08.96-.64,1.81-1.6,1.89-29.19,2.39-51.31,21.83-63.98,56.22-21.69,58.85-7.36,99.44,7.54,128.22.44.86.11,1.91-.75,2.36-.26.13-.53.2-.8.2Z" style="fill: #ff57b8;"/>
        </g>
      </g>
      <g>
        <g>
          <path d="m205.07,281.83c-.97,0-1.75-.78-1.75-1.75s.78-1.75,1.75-1.75c48.09,0,110.28-36,154.74-89.59,34.83-41.98,51.22-85.17,44.96-118.5-.18-.95.45-1.86,1.4-2.04.95-.18,1.87.45,2.04,1.4,6.45,34.36-10.21,78.6-45.7,121.38-21.01,25.32-47.39,48.13-74.28,64.22-29.11,17.42-57.87,26.63-83.15,26.63Z" style="fill: #ff57b8;"/>
          <path d="m205.07,80.71c-.97,0-1.75-.78-1.75-1.75s.78-1.75,1.75-1.75c75.77,0,127.4-53.08,129.93-69.94.4-2.69-.69-3.02-1.16-3.17-.92-.28-1.44-1.26-1.16-2.19.28-.92,1.27-1.44,2.19-1.16,1.33.41,4.36,1.92,3.59,7.03-1.38,9.2-15.39,27.55-38.63,43.43-19.69,13.46-52.11,29.49-94.76,29.49Z" style="fill: #ff57b8;"/>
          <path d="m205.07,317.34c-.97,0-1.75-.78-1.75-1.75s.78-1.75,1.75-1.75c26.63,0,64.02-18.82,102.57-51.64,36.54-31.11,68.67-70.09,85.93-104.28.44-.86,1.49-1.21,2.35-.77.86.44,1.21,1.49.77,2.35-17.46,34.59-49.91,73.98-86.79,105.37-39.18,33.35-77.39,52.47-104.84,52.47Z" style="fill: #ff57b8;"/>
          <path d="m205.07,70.93c-.97,0-1.75-.78-1.75-1.75s.78-1.75,1.75-1.75c29.4,0,52.08-14.97,62.98-23.89,15.01-12.29,24.73-26.79,25.12-33.18.11-1.77-.53-1.85-.95-1.9-.96-.12-1.64-.99-1.52-1.95.12-.96,1-1.64,1.95-1.52,2.71.33,4.21,2.42,4.01,5.59-.92,15.05-39.2,60.36-91.6,60.36Z" style="fill: #ff57b8;"/>
          <path d="m205.07,340.37c-.97,0-1.75-.78-1.75-1.75s.78-1.75,1.75-1.75c28.47,0,58.9-25.91,95.73-59.78.71-.65,1.82-.61,2.47.1.65.71.61,1.82-.1,2.47-37.39,34.4-68.36,60.71-98.09,60.71Z" style="fill: #ff57b8;"/>
          <path d="m205.07,66.43c-.97,0-1.75-.78-1.75-1.75s.78-1.75,1.75-1.75c24.79,0,46.21-24.74,46.58-32.77.05-1.16-.35-1.2-.9-1.25-.96-.09-1.67-.94-1.58-1.9.09-.96.93-1.67,1.9-1.58,2.64.24,4.2,2.12,4.07,4.9-.46,9.89-23.66,36.11-50.08,36.11Z" style="fill: #ff57b8;"/>
          <path d="m205.07,355.96c-.97,0-1.75-.78-1.75-1.75s.78-1.75,1.75-1.75c17.83,0,24.9-6.65,37.72-18.72l.54-.51c.7-.66,1.81-.63,2.47.08.66.7.63,1.81-.08,2.47l-.54.51c-13.04,12.27-20.9,19.67-40.12,19.67Z" style="fill: #ff57b8;"/>
          <path d="m205.07,109.58c-.97,0-1.75-.78-1.75-1.75s.78-1.75,1.75-1.75c85.21,0,138.99-43.86,154.34-73.35,4.38-8.42,5.47-15.64,2.89-19.32-.55-.79-.36-1.88.43-2.44.79-.56,1.88-.36,2.44.43,3.43,4.91,2.49,13.05-2.66,22.94-15.75,30.24-70.67,75.23-157.44,75.23Z" style="fill: #ff57b8;"/>
          <path d="m205.07,165.44c-.97,0-1.75-.78-1.75-1.75s.78-1.75,1.75-1.75c79.2,0,141.48-44,165.83-84.88,11.77-19.76,14.56-38.4,7.66-51.14-.46-.85-.14-1.91.71-2.37.85-.46,1.91-.14,2.37.7,7.5,13.85,4.69,33.75-7.73,54.6-13.43,22.55-36,43.54-63.55,59.11-31.81,17.98-68.21,27.48-105.29,27.48Z" style="fill: #ff57b8;"/>
          <path d="m205.07,223.21c-.97,0-1.75-.78-1.75-1.75s.78-1.75,1.75-1.75c59.88,0,135.02-42.85,171.07-97.56,13.65-20.71,27.22-51.67,14.39-81.54-.38-.89.03-1.92.92-2.3.89-.38,1.92.03,2.3.92,10.49,24.42,5.27,54.55-14.69,84.85-17.32,26.29-44.26,50.95-75.84,69.42-32.77,19.16-67.62,29.72-98.15,29.72Z" style="fill: #ff57b8;"/>
          <path d="m205.96,366.45c-.32,0-.65,0-.98-.03-.96-.05-1.71-.87-1.66-1.84.05-.97.88-1.71,1.84-1.66,5.88.3,9.21-2.77,14.25-7.41l.96-.88c7.83-7.18,15.57-14.35,23.01-21.34,16.17-15.19,30.49-29,43.77-42.23,17.39-17.32,31.22-31.69,43.52-45.21,13.09-14.39,26.87-30.07,38.92-47.15,11.65-16.51,20.86-33.89,27.38-51.66,8.1-22.06,11.14-44.15,8.78-63.86-2.66-22.25-11.96-41.91-26.91-56.86-14.92-14.93-33.94-22.82-55-22.82-.06,0-.12,0-.18,0-17.01.04-34.94,4.79-53.3,14.12-16.85,8.56-32.56,20.41-45.45,34.26l-1.03,1.12c-5.38,5.82-10.02,10.85-18.95,10.23-.96-.07-1.69-.9-1.63-1.87.07-.96.9-1.69,1.87-1.63,7.24.5,10.78-3.33,16.14-9.12l1.04-1.12c13.16-14.15,29.21-26.25,46.42-34.99C287.64,4.91,306.1.04,323.67,0c.06,0,.12,0,.18,0C345.55,0,365.95,8.46,381.33,23.85c15.5,15.51,25.15,35.89,27.9,58.92,2.42,20.26-.68,42.9-8.97,65.48-6.63,18.06-15.99,35.71-27.81,52.47-12.16,17.24-26.03,33.01-39.19,47.49-12.34,13.56-26.2,27.97-43.64,45.33-13.3,13.25-27.65,27.09-43.85,42.3-7.44,6.99-15.2,14.18-23.04,21.37l-.96.88c-5.04,4.65-9.08,8.36-15.82,8.36Z" style="fill: #ff57b8;"/>
        </g>
        <path d="m207.28,366.06c-.57,0-1.13-.28-1.47-.8-.53-.81-.3-1.89.51-2.42,9.41-6.11,14.76-60.46,18.75-112.81,4.77-62.58,1.7-114.34-2.77-141.91-4.2-25.97-14.21-46.49-14.32-46.7-.43-.87-.07-1.92.8-2.34s1.91-.07,2.34.8c.1.21,10.34,21.18,14.63,47.68,4.49,27.77,7.59,79.85,2.8,142.74-5.97,78.43-11.48,109.73-20.33,115.47-.29.19-.62.28-.95.28Z" style="fill: #ff57b8;"/>
        <g>
          <path d="m234.16,348.64c-.43,0-.86-.16-1.2-.47-.7-.66-.74-1.77-.08-2.47,7.42-7.9,18.71-42.26,27.45-83.55,10.04-47.39,14.39-91.15,11.95-120.07-2.31-27.3-8.01-49.76-16.47-64.93-8.89-15.93-20.37-23.51-34.19-22.52-.95.07-1.8-.66-1.87-1.62-.07-.96.66-1.8,1.62-1.87,15.07-1.07,28.02,7.33,37.5,24.31,8.71,15.61,14.55,38.55,16.91,66.34,5.43,64.35-23.7,188.6-40.33,206.32-.34.37-.81.55-1.28.55Z" style="fill: #ff57b8;"/>
          <path d="m277.31,304.98c-.22,0-.45-.04-.67-.14-.89-.37-1.31-1.4-.94-2.29,19.19-46.01,35.29-127.06,27.33-186.65-3.14-23.45-10.93-44.44-21.92-59.1-11.06-14.77-24.38-22.28-38.48-21.74-.96.04-1.78-.72-1.82-1.68-.04-.97.72-1.78,1.68-1.82,30.92-1.2,57.22,33.3,64,83.88,8.04,60.2-8.2,142.03-27.56,188.47-.28.67-.93,1.08-1.62,1.08Z" style="fill: #ff57b8;"/>
          <path d="m319.51,263.55c-.21,0-.41-.04-.62-.11-.9-.34-1.36-1.35-1.02-2.25,13.66-36.21,33.56-112.18,21.54-167.25-9.03-41.27-41.88-76.73-70.26-75.88-.99.03-1.77-.73-1.8-1.7-.03-.97.73-1.77,1.7-1.8,14.21-.43,30.38,7.79,44.39,22.55,14.35,15.12,24.79,35.04,29.4,56.08,12.19,55.87-7.9,132.66-21.69,169.23-.26.7-.93,1.13-1.64,1.13Z" style="fill: #ff57b8;"/>
          <path d="m351.53,228.35c-.19,0-.38-.03-.57-.1-.91-.32-1.4-1.31-1.08-2.23,23.7-68.52,31.68-107,16.35-153.92-12.88-39.36-39-63.58-69.87-64.78-.97-.04-1.72-.85-1.68-1.82.04-.97.81-1.72,1.82-1.68,16.73.65,31.8,7.27,44.78,19.67,12.12,11.57,21.9,28,28.29,47.53,15.64,47.88,7.59,86.87-16.37,156.15-.25.72-.93,1.18-1.65,1.18Z" style="fill: #ff57b8;"/>
          <path d="m378.97,190.51c-.27,0-.55-.06-.8-.2-.86-.44-1.19-1.5-.75-2.36,14.9-28.79,29.22-69.38,7.54-128.22-12.67-34.38-34.8-53.82-63.98-56.22-.96-.08-1.68-.92-1.6-1.89.08-.96.91-1.68,1.89-1.6,30.64,2.51,53.8,22.74,66.98,58.49,22.16,60.13,7.52,101.62-7.71,131.04-.31.6-.92.95-1.55.95Z" style="fill: #ff57b8;"/>
        </g>
      </g>
    </g>
  </g>
</svg>