<?xml version="1.0" encoding="UTF-8"?>
<svg id="Layer_2" data-name="Layer 2" xmlns="http://www.w3.org/2000/svg" viewBox="0 0 165.62 166.69">
  <g id="_ÎÓÈ_1" data-name="—ÎÓÈ_1">
    <path d="m99.37,166.69c-.51,0-1.02-.18-1.43-.54-.85-.75-.97-2.04-.26-2.94,9.76-12.42,14.06-28.63,11.96-43.82-8.47,21.85-27.5,39.14-50.32,45.09-1.06.28-2.15-.28-2.55-1.3-.4-1.02.03-2.17.99-2.68,9.65-5.15,25.35-15.84,30.52-32.86-15.74,14.53-39.56,20.84-64.07,16.58-1.1-.19-1.87-1.19-1.77-2.3.1-1.11,1.03-1.97,2.14-1.97,15.14,0,29.69-5.01,40.24-13.65-24.24,3.44-47.54-3.58-62.11-19.05-.75-.8-.78-2.03-.08-2.86.71-.84,1.92-1.01,2.83-.4,10.15,6.77,25.87,12.22,39.49,7.62C21.44,103.79,6.47,81.72.11,62.66c-.36-1.07.17-2.23,1.22-2.67,1.04-.43,2.24.02,2.75,1.02,6.77,13.54,17.86,23.66,30.45,28.09-13.64-17.87-18.26-42.18-12.02-65.08.28-1.04,1.28-1.71,2.36-1.57,1.07.14,1.87,1.05,1.87,2.13,0,9.23,1.02,17.64,3.3,27.27,2.42,5.21,5.37,9.33,7.78,12.22-2.35-21.67,6.83-44.43,25.84-63.44.8-.8,2.09-.84,2.94-.1.85.75.98,2.03.29,2.93-9.94,12.92-14.69,27.73-13.51,41.59C64.83,22.86,85.91,7.14,108.72,4.29c1.1-.14,2.13.59,2.37,1.68.24,1.09-.4,2.18-1.46,2.51-14.25,4.45-25.77,14.16-32.01,26.64,17.91-12,42.69-14.3,69.38-6.18,1.09.33,1.73,1.46,1.46,2.57-.27,1.11-1.36,1.81-2.48,1.6-8.96-1.68-29.79-4-44.43,6.74,23.64-1.46,48.03,9.6,63.61,29.34.68.87.6,2.11-.19,2.88-.79.77-2.04.81-2.88.1-8.84-7.48-25.31-18.64-42.64-16.17,20.85,9.32,37.61,31.3,41.88,55.83.19,1.09-.48,2.15-1.55,2.44-1.07.29-2.19-.28-2.58-1.32-5.33-14.22-15.92-26.53-28.57-33.67,12.66,19.3,16.21,44.49,9.14,67.72-.33,1.09-1.45,1.73-2.56,1.46-1.11-.26-1.81-1.34-1.62-2.46,2.91-16.51-.64-32.76-9.56-44.86,2.46,23.54-6.05,47.84-23.13,64.92-.42.42-.97.63-1.52.63Zm-7.48-48.1c.28,0,.57.06.84.17.87.37,1.4,1.27,1.29,2.22-1.48,13.37-8.76,23.65-16.89,31.16,14.96-9.35,26.34-24.3,30.84-41.55.24-.93,1.08-1.59,2.05-1.61.95-.01,1.82.62,2.1,1.54,3,10.19,3.06,21.2.47,31.64,7.08-14.76,9.39-31.63,6.04-47.69-.19-.93.25-1.88,1.08-2.33.84-.45,1.87-.3,2.54.37,7.16,7.16,12.15,16.3,14.69,26.4-.81-16.14-6.58-31.68-16.78-43.79-.63-.75-.68-1.83-.11-2.63.56-.8,1.59-1.12,2.51-.77,10.64,3.99,20.42,11.42,27.91,20.85-8.32-16.7-22.65-29.99-38.9-34.94-.89-.27-1.5-1.08-1.52-2.01-.02-.93.56-1.77,1.43-2.07,11.51-4.06,22.87-2.01,32.59,2.16-14.54-9.47-32.01-13.59-48.61-10.83-.9.15-1.81-.29-2.25-1.1-.44-.81-.31-1.81.31-2.48,6.92-7.5,15.88-11.2,24.67-12.82-17.46-.33-32.79,4.7-44.09,14.82-.72.65-1.78.73-2.6.21-.81-.52-1.18-1.53-.89-2.45,3.13-10.02,9.2-18.84,17.3-25.59-14.56,7.77-26.79,21.19-33.56,37.73-.36.87-1.24,1.4-2.16,1.33-.93-.07-1.71-.74-1.92-1.65-2.29-9.72-1.68-20.11,1.59-30.23-9.06,15.37-12.21,31.89-8.69,47.43.2.9-.19,1.82-.97,2.31-.78.48-1.78.41-2.5-.17-.33-.27-8.21-6.85-13.67-18.73-.06-.13-.1-.26-.14-.4-.73-3.07-1.34-6.02-1.84-8.92-.08,17.67,6.27,34.77,18.11,47.35.64.68.77,1.69.32,2.51-.45.82-1.37,1.25-2.28,1.08-9.54-1.79-18.56-6.55-26.12-13.54,8.5,12.75,21.06,23.88,37.66,27.48.87.19,1.53.89,1.67,1.77.14.88-.29,1.75-1.06,2.19-9.64,5.51-20.68,5.54-30.69,2.92,14.1,6.99,31.71,8.9,49.45,4.86.93-.21,1.86.2,2.34,1.02.47.81.36,1.84-.27,2.53-6.92,7.55-16.3,13.26-26.84,16.59,17.73-1.59,33.57-9.16,43.9-21.56.42-.5,1.03-.77,1.65-.77Z" style="fill: #ff57b8;"/>
  </g>
</svg>