<?xml version="1.0" encoding="UTF-8"?>
<svg id="Layer_2" data-name="Layer 2" xmlns="http://www.w3.org/2000/svg" viewBox="0 0 168.29 168.29">
  <g id="_ÎÓÈ_1" data-name="—ÎÓÈ_1">
    <path d="m84.15,168.29c-1.04,0-1.93-.74-2.12-1.77C74.69,125.86,42.43,93.6,1.77,86.26c-1.02-.18-1.77-1.08-1.77-2.12s.75-1.93,1.77-2.12C42.43,74.69,74.69,42.43,82.03,1.77c.19-1.02,1.08-1.77,2.12-1.77h0c1.04,0,1.93.74,2.12,1.77,7.34,40.66,39.6,72.92,80.26,80.26,1.02.18,1.77,1.08,1.77,2.12s-.75,1.93-1.77,2.12c-40.66,7.34-72.92,39.6-80.26,80.26-.19,1.02-1.08,1.77-2.12,1.77ZM11.78,84.15c34.97,9.72,62.64,37.39,72.36,72.36,9.72-34.97,37.39-62.64,72.36-72.36-34.97-9.72-62.64-37.39-72.36-72.36-9.72,34.97-37.39,62.64-72.36,72.36Z" style="fill: #ff57b8;"/>
  </g>
</svg>