<?xml version="1.0" encoding="UTF-8"?>
<svg id="Layer_2" data-name="Layer 2" xmlns="http://www.w3.org/2000/svg" viewBox="0 0 101.9 108.36">
  <g id="_ÎÓÈ_1" data-name="—ÎÓÈ_1">
    <g style="fill: none; isolation: isolate;">
      <path d="m34.23,108.36c-.66,0-1.28-.33-1.66-.88L.34,59.77c-.41-.61-.46-1.39-.12-2.04L17.47,24.63c.33-.62.96-1.03,1.66-1.07.7-.04,1.38.29,1.77.88l32.23,47.7c.41.61.46,1.39.12,2.04l-17.24,33.1c-.33.62-.96,1.03-1.66,1.07-.04,0-.08,0-.11,0ZM4.32,58.52l29.68,43.93,15.14-29.06L19.46,29.46l-15.14,29.06Z" style="fill: #ff57b8;"/>
      <path d="m34.23,108.36c-.53,0-1.05-.21-1.43-.61-.6-.62-.74-1.55-.34-2.32l17.24-33.1c.2-.38.51-.69.9-.87l48.44-23.56c.78-.38,1.71-.21,2.31.4.6.62.74,1.55.34,2.32l-17.24,33.1c-.2.38-.51.69-.9.87l-48.44,23.56c-.28.14-.58.2-.87.2Zm18.71-33.59l-14.14,27.14,42.39-20.62,14.14-27.14-42.39,20.62Z" style="fill: #ff57b8;"/>
      <path d="m51.47,75.26c-.65,0-1.28-.31-1.66-.88L17.58,26.68c-.32-.48-.42-1.08-.27-1.64.15-.56.54-1.03,1.06-1.28L66.8.2c.9-.44,1.97-.15,2.53.68l32.23,47.7c.32.48.42,1.08.27,1.64-.15.56-.54,1.03-1.06,1.28l-48.44,23.56c-.28.14-.58.2-.87.2ZM22.19,26.35l29.97,44.35,44.8-21.79L66.99,4.56,22.19,26.35Z" style="fill: #ff57b8;"/>
    </g>
  </g>
</svg>