<?xml version="1.0" encoding="UTF-8"?>
<svg id="Layer_2" data-name="Layer 2" xmlns="http://www.w3.org/2000/svg" viewBox="0 0 168.29 168.29">
  <g id="_ÎÓÈ_1" data-name="—ÎÓÈ_1">
    <path d="m84.15,168.29c-1.04,0-1.93-.74-2.12-1.77l-8.03-44.5-29.21,34.52c-.67.79-1.81.99-2.72.47-.9-.52-1.3-1.61-.95-2.59l15.29-42.55-42.55,15.29c-.98.35-2.07-.05-2.59-.95-.52-.9-.32-2.04.47-2.72l34.52-29.21L1.77,86.26c-1.02-.18-1.77-1.08-1.77-2.12s.75-1.93,1.77-2.12l44.5-8.03L11.75,44.79c-.79-.67-.99-1.82-.47-2.72.52-.9,1.61-1.3,2.59-.95l42.55,15.29-15.29-42.55c-.35-.98.05-2.07.95-2.59.9-.52,2.04-.32,2.72.47l29.21,34.52L82.03,1.77c.19-1.02,1.08-1.77,2.12-1.77s1.93.74,2.12,1.77l8.03,44.5,29.21-34.52c.67-.79,1.82-.99,2.72-.47.9.52,1.3,1.61.95,2.59l-15.29,42.55,42.55-15.29c.98-.35,2.07.05,2.59.95.52.9.32,2.04-.47,2.72l-34.52,29.21,44.5,8.03c1.02.18,1.77,1.08,1.77,2.12s-.75,1.93-1.77,2.12l-44.5,8.03,34.52,29.21c.79.67.99,1.82.47,2.72-.52.9-1.61,1.3-2.59.95l-42.55-15.29,15.29,42.55c.35.98-.05,2.07-.95,2.59-.9.52-2.04.32-2.72-.47l-29.21-34.52-8.03,44.5c-.19,1.02-1.08,1.77-2.12,1.77Zm-8.84-53.29c.19,0,.37.02.56.07.8.22,1.41.88,1.56,1.69l6.73,37.27,6.73-37.27c.15-.82.76-1.48,1.56-1.69.8-.22,1.66.05,2.2.69l24.46,28.91-12.81-35.64c-.28-.78-.08-1.66.5-2.25.59-.59,1.46-.78,2.25-.5l35.64,12.81-28.91-24.46c-.64-.54-.9-1.39-.69-2.2.22-.8.88-1.41,1.7-1.56l37.27-6.73-37.27-6.73c-.82-.15-1.48-.76-1.7-1.56-.21-.8.05-1.66.69-2.2l28.91-24.46-35.64,12.81c-.78.28-1.66.09-2.25-.5-.59-.59-.78-1.46-.5-2.25l12.81-35.64-24.46,28.91c-.54.64-1.39.9-2.2.69-.8-.22-1.41-.88-1.56-1.69l-6.73-37.27-6.73,37.27c-.15.82-.76,1.48-1.56,1.69-.8.21-1.66-.05-2.2-.69l-24.46-28.91,12.81,35.64c.28.78.08,1.66-.5,2.25-.59.59-1.46.78-2.25.5l-35.64-12.81,28.91,24.46c.64.54.9,1.39.69,2.2-.22.8-.88,1.41-1.7,1.56l-37.27,6.73,37.27,6.73c.82.15,1.48.76,1.7,1.56.21.8-.05,1.66-.69,2.2l-28.91,24.46,35.64-12.81c.78-.28,1.66-.09,2.25.5.59.59.78,1.46.5,2.25l-12.81,35.64,24.46-28.91c.41-.49,1.02-.76,1.64-.76Z" style="fill: #ff57b8;"/>
  </g>
</svg>