<?xml version="1.0" encoding="UTF-8"?>
<svg id="Layer_2" data-name="Layer 2" xmlns="http://www.w3.org/2000/svg" viewBox="0 0 128.66 128.65">
  <g id="_ÎÓÈ_1" data-name="—ÎÓÈ_1">
    <path d="m29.27,128.65c-8.02,0-15.38-2.97-20.84-8.43C2.68,114.47-.3,106.63.02,98.12c.32-8.4,3.83-16.35,9.87-22.39,5.69-5.69,17.64-9.22,29.83-11.4-12.19-2.18-24.14-5.71-29.83-11.4h0C3.85,46.88.35,38.93.02,30.53-.3,22.03,2.68,14.18,8.43,8.43,14.18,2.68,22.02-.3,30.53.02c8.4.32,16.35,3.83,22.39,9.87,5.69,5.69,9.22,17.64,11.4,29.83,2.18-12.19,5.71-24.14,11.41-29.83C81.77,3.85,89.73.35,98.12.02c8.5-.33,16.35,2.66,22.1,8.41,5.75,5.75,8.73,13.6,8.41,22.1-.32,8.4-3.83,16.35-9.87,22.39-5.69,5.69-17.64,9.22-29.83,11.4,12.19,2.18,24.14,5.71,29.83,11.4,6.04,6.04,9.55,13.99,9.87,22.39.33,8.5-2.66,16.35-8.41,22.1-5.75,5.75-13.58,8.73-22.1,8.41-8.4-.32-16.35-3.83-22.39-9.87-5.69-5.69-9.22-17.64-11.41-29.83-2.18,12.19-5.71,24.14-11.4,29.83-6.04,6.04-13.99,9.55-22.39,9.87-.42.02-.84.02-1.26.02ZM12.93,49.88c5.58,5.58,21.13,10.07,42.66,12.31,1.1.11,1.93,1.04,1.93,2.14s-.83,2.02-1.93,2.14c-21.53,2.24-37.08,6.73-42.66,12.31-5.27,5.27-8.33,12.2-8.61,19.52-.28,7.29,2.26,14,7.15,18.89,4.89,4.89,11.6,7.43,18.89,7.15,7.31-.28,14.24-3.34,19.52-8.61,5.58-5.58,10.07-21.13,12.31-42.66.11-1.1,1.04-1.93,2.14-1.93s2.02.83,2.14,1.93c2.24,21.53,6.73,37.08,12.31,42.66,5.27,5.27,12.2,8.33,19.52,8.61,7.28.28,14-2.26,18.89-7.15,4.89-4.89,7.43-11.6,7.15-18.89-.28-7.31-3.34-14.24-8.61-19.52-5.58-5.58-21.13-10.07-42.66-12.31-1.1-.11-1.93-1.04-1.93-2.14s.83-2.02,1.93-2.14c21.53-2.24,37.08-6.73,42.66-12.31,5.27-5.27,8.33-12.2,8.61-19.52.28-7.29-2.26-14-7.15-18.89-4.89-4.89-11.61-7.43-18.89-7.15-7.31.28-14.24,3.34-19.52,8.61-5.58,5.58-10.07,21.13-12.31,42.66-.11,1.1-1.04,1.93-2.14,1.93h0c-1.1,0-2.02-.83-2.14-1.93-2.24-21.53-6.73-37.08-12.31-42.66-5.27-5.27-12.2-8.33-19.52-8.61-7.3-.28-14,2.26-18.89,7.15-4.89,4.89-7.43,11.6-7.15,18.89.28,7.31,3.34,14.24,8.61,19.52h0Z" style="fill: #ff57b8;"/>
  </g>
</svg>