<?xml version="1.0" encoding="UTF-8"?>
<svg id="Layer_2" data-name="Layer 2" xmlns="http://www.w3.org/2000/svg" viewBox="0 0 166.63 166.73">
  <g id="_ÎÓÈ_1" data-name="—ÎÓÈ_1">
    <path d="m74.19,166.73c-5.63,0-11.29-1.06-16.83-3.43-.86-.37-1.38-1.25-1.29-2.18.09-.93.76-1.7,1.67-1.9,9.95-2.21,20.23-4.5,29.09-8.86,3.79-2.09,7.55-4.61,11.24-7.53-2.59,1.71-5.35,3.22-8.26,4.51-14.38,5.75-30.53,6.59-45.55,2.38-15.23-4.26-28.28-13.46-36.76-25.9-.23-.34-.35-.72-.37-1.1-.66-.85-1.14-1.97-1.14-3.53,0-.78.42-1.5,1.11-1.88.68-.38,1.52-.36,2.18.06,1.83,1.15,3.67,2.34,5.51,3.54,7.23,4.7,14.71,9.56,23.33,12.34,2.96.85,6.07,1.54,9.29,2.06-3.58-.99-7.13-2.29-10.59-3.92-.04-.02-.08-.04-.12-.06-12.25-6.74-23.47-17.91-30.01-29.87-5.47-10-10.38-25.27-2.75-41.22.41-.86,1.33-1.35,2.28-1.19.94.15,1.67.91,1.79,1.86.69,5.5,2.73,11.16,4.71,16.63,1.15,3.18,2.34,6.47,3.24,9.68,1.94,3.42,4.21,6.78,6.8,10.08-.18-.31-.36-.61-.54-.92-9.33-17.23-11.32-39.91-5.08-57.84,4.82-13.85,14.01-24.03,26.58-29.41.83-.36,1.79-.15,2.41.5.62.66.76,1.63.36,2.44-1.69,3.38-3.69,6.62-5.63,9.75-3.44,5.56-6.69,10.81-8.37,16.83-.58,2.15-1.08,4.37-1.48,6.64,2.39-7.65,6.37-15.09,11.89-21.89C59.74,3.95,84.74-4.35,106.62,2.22c.88.27,1.5,1.06,1.53,1.99.03.92-.53,1.76-1.39,2.09-3.39,1.27-7.09,2.09-10.66,2.88-6.18,1.37-12.57,2.78-17.45,6.57-.08.06-.16.11-.24.16-3.07,1.78-6.09,3.83-9.05,6.14,3.34-1.92,6.98-3.6,10.89-5,13.44-4.28,29.63-4.55,43.4-.76,16.05,4.42,27.87,14.01,33.28,26.99.37.89.11,1.91-.64,2.51-.75.6-1.81.63-2.59.07-7.51-5.37-16.18-9.83-26.51-13.64-2.29-.61-4.64-1.12-7.07-1.53,17.77,6.81,32.85,20.09,40.73,36.06,6.54,13.25,7.56,27.31,2.96,40.65-.31.91-1.21,1.5-2.15,1.45-.96-.05-1.77-.74-1.98-1.68-2.3-10.34-5.76-19.45-9.41-28.62-1.55-2.72-3.31-5.4-5.27-8.05.62,1.14,1.18,2.31,1.69,3.49,13.67,32.31,2.26,69.99-25.96,85.8-.81.45-1.82.34-2.5-.29-.68-.62-.89-1.62-.52-2.46,1.91-4.29,4.56-8.17,7.13-11.93,3.79-5.54,7.37-10.77,8.62-17.08.01-.06.02-.11.04-.17.75-2.64,1.37-5.38,1.86-8.21-1.99,6.25-5.13,12.32-9.43,17.95-11.94,15.61-31.62,29.14-51.73,29.14Zm-7.67-5.1c20.41,3.94,42.85-9.49,55.98-26.65,14.76-19.31,14.78-44.3.05-62.19-.28-.33-.58-.66-.88-.98-.76-.81-.78-2.07-.04-2.9.74-.83,1.99-.96,2.88-.3,8.67,6.41,14.48,17.18,16.38,30.33.01.08.02.15.02.23.38,10.79-.73,20.81-3.27,29.78-1.44,7.13-5.42,12.95-9.27,18.58-.81,1.18-1.6,2.34-2.37,3.5,20.82-16.74,28.25-48.07,16.7-75.36-6.89-16.07-25.12-28.19-41.46-27.58-1.21.05-2.14-.84-2.23-1.99-.08-1.16.76-2.17,1.92-2.29,11.66-1.25,23.4,1.98,33.97,9.33.08.06.15.12.23.18,7.96,7.3,14.33,15.12,18.93,23.23.05.09.09.17.13.27,2.64,6.65,5.35,13.67,7.55,21.19,1.56-9.77-.04-19.78-4.76-29.35-7.73-15.66-23.59-29.08-41.4-35.02-11.78-3.71-25.1-2.15-35.63,4.18-.98.59-2.26.31-2.9-.65-.64-.95-.41-2.24.51-2.92,6.12-4.52,13.5-7.7,20.79-8.94.08-.01.17-.02.25-.03,10.77-.54,20.79.41,29.78,2.82.06.02.12.04.19.06,7.56,2.78,14.28,5.91,20.34,9.48-14.38-20.22-46.8-23.03-67.29-16.51-17.11,6.11-28.64,17.97-31.55,32.51,0,.03-.01.07-.02.1-.52,2.1-.9,4.2-1.12,6.26-.12,1.12-1.09,1.97-2.22,1.92-1.13-.04-2.03-.95-2.07-2.08-.32-10.4,2.69-20.48,8.46-28.38.04-.06.09-.12.14-.17,7.18-7.96,14.88-14.37,22.88-19.03,5.62-4.31,12.44-5.82,19.04-7.28.56-.12,1.12-.25,1.67-.37-18-1.99-37.13,5.95-50.66,21.57-15.23,18.74-17.85,42.75-6.66,61.13,1.21,1.7,2.52,3.49,3.86,5.14.69.85.63,2.08-.13,2.86-.77.78-2,.86-2.86.19-7.98-6.24-13.29-16.18-14.94-27.98,0-.07-.02-.13-.02-.2-.51-10.78.47-20.81,2.9-29.81,1.85-6.62,5.41-12.38,8.86-17.95.64-1.04,1.29-2.09,1.93-3.15-8.24,5.29-14.38,13.32-17.94,23.55-5.86,16.84-3.98,38.17,4.78,54.34,7.05,12.34,17.31,20.42,28.86,22.71,1.13.22,1.88,1.3,1.71,2.44-.18,1.14-1.21,1.94-2.36,1.81-8.25-.92-16.42-3.98-23-8.61-.08-.06-.15-.12-.22-.18-7.94-7.35-14.29-15.21-18.87-23.34-.09-.15-.15-.31-.2-.48-.86-3.13-2-6.28-3.21-9.62-1.18-3.27-2.39-6.61-3.34-9.99-5.92,24.06,15.25,48.53,33.38,58.53,16.04,7.53,34.05,7.69,47.01.43.97-.54,2.19-.26,2.82.65.63.91.46,2.15-.39,2.87-6.05,5.09-13.38,8.29-21.2,9.25-.07,0-.13.01-.2.02-10.83.34-20.89-.8-29.89-3.38-8.35-2.69-15.47-7.06-22.28-11.46-.01.03-.03.06-.05.08,17.09,20.25,47.66,27.76,73.6,17.39,17.63-7.84,29.5-24.6,29.45-41.69,0-1.13.87-2.07,1.99-2.15,1.13-.08,2.12.72,2.29,1.83,1.65,11.27-1.84,23.94-9.33,33.9-.05.06-.1.12-.15.18-7.44,7.9-15.37,14.19-23.57,18.71-7,3.45-14.64,5.63-22.29,7.45Z" style="fill: #ff57b8;"/>
  </g>
</svg>