<?xml version="1.0" encoding="UTF-8"?>
<svg id="Layer_2" data-name="Layer 2" xmlns="http://www.w3.org/2000/svg" viewBox="0 0 340.46 223.86">
  <g id="_ÎÓÈ_1" data-name="—ÎÓÈ_1">
    <g>
      <path d="m111.93,223.86C50.21,223.86,0,173.65,0,111.93S50.21,0,111.93,0s111.93,50.21,111.93,111.93-50.21,111.93-111.93,111.93Zm0-219.56C52.58,4.3,4.3,52.58,4.3,111.93s48.28,107.63,107.63,107.63,107.63-48.28,107.63-107.63S171.28,4.3,111.93,4.3Z" style="fill: #ff57b8;"/>
      <path d="m228.53,223.86c-61.72,0-111.93-50.21-111.93-111.93S166.81,0,228.53,0s111.93,50.21,111.93,111.93-50.21,111.93-111.93,111.93Zm0-219.56c-59.35,0-107.63,48.28-107.63,107.63s48.28,107.63,107.63,107.63,107.63-48.28,107.63-107.63S287.88,4.3,228.53,4.3Z" style="fill: #ff57b8;"/>
    </g>
  </g>
</svg>