<?xml version="1.0" encoding="UTF-8"?>
<svg id="Layer_2" data-name="Layer 2" xmlns="http://www.w3.org/2000/svg" viewBox="0 0 247.01 187.28">
  <g id="_ÎÓÈ_1" data-name="—ÎÓÈ_1">
    <path d="m228.11,10.43C218.54,2.35,206.6-1.09,193.36.33c0,0,0,0,0,0-.09,0-.17.02-.25.03-.65.07-1.31.15-1.97.25-.81.12-1.6.24-2.36.39-.95.18-1.91.39-2.87.61-.18.04-.36.09-.54.14-.81.2-1.62.41-2.43.65-.12.03-.24.07-.36.11-.91.27-1.81.55-2.72.86,0,0-.02,0-.03,0-1.07.36-2.14.76-3.21,1.18-8.93-4.4-19.25-5.64-30.36-3.56-7.6,1.42-15.4,4.48-22.75,8.72-7.35-4.25-15.16-7.3-22.75-8.72-11.12-2.09-21.44-.84-30.37,3.56-4.04-1.6-8.12-2.81-12.14-3.56-15.07-2.83-28.67.44-39.34,9.44-24.8,20.93-25.24,58.56-1.1,93.65,17.48,25.41,60.25,64.88,77.82,80.67,1.82,1.64,4.17,2.54,6.62,2.54s4.8-.9,6.62-2.54c3.85-3.46,8.9-8.05,14.64-13.38.31.29.61.56.91.85.22.2.44.41.66.61,5.08,4.71,9.58,8.79,13.07,11.92,1.82,1.64,4.17,2.54,6.62,2.54s4.8-.9,6.62-2.54c17.57-15.79,60.33-55.25,77.82-80.67,24.14-35.09,23.7-72.72-1.1-93.65Zm-83.35,173.35c-1.58,0-3.1-.58-4.28-1.64-2.73-2.45-6.06-5.47-9.82-8.92,0,0,0,0,0,0,0,0,0,0,0,0-9.44-8.68-18.33-17.13-26.42-25.12,0,0,0,0-.01-.01-15.78-15.58-31.91-32.74-41.02-45.98-20.31-29.51-22.58-60.75-6.91-81.25,4.25.98,8.56,2.62,12.71,4.81-6.91,7.23-10.44,16.82-10.23,27.98.24,13.07,5.42,27.31,14.98,41.2,8.75,12.72,25.12,29.96,40.51,45.11,0,0,0,0,.01,0,.05.07.11.15.18.21,7.96,7.82,16.6,16.03,25.7,24.39,0,0,0,0,0,0,1.23,1.13,2.38,2.18,3.43,3.14.33.3.76.46,1.18.46s.85-.15,1.18-.46c15.89-14.49,54.51-50.58,69.83-72.84,9.55-13.88,14.73-28.13,14.98-41.2.24-12.65-4.31-23.28-13.15-30.74-5.19-4.38-11.39-6.58-18.5-6.58,0,0,0,.01,0,.02-2.37,0-4.82.22-7.32.69-11.3,2.12-23.5,9.02-32.63,18.47-.04.04-.07.09-.11.13-3.47,3.6-6.44,7.5-8.65,11.55-1.12,2.06-3.28,3.34-5.62,3.34s-4.5-1.28-5.62-3.34c-3.06-5.62-7.58-10.96-12.88-15.58,3.55-2.72,7.38-5.09,11.33-6.98,2.07,1.99,4.03,4.06,5.83,6.24.66.8,2.03.8,2.69,0,1.44-1.73,2.97-3.4,4.58-5.02,0,0-.01-.02-.02-.03.1-.07.2-.14.29-.23,10.97-10.91,24.99-18.62,38.46-21.15,1.34-.25,2.75-.45,4.31-.62.19-.02.36-.08.52-.15.01.03.02.06.04.08,12.05-1.16,22.89,2.03,31.57,9.36,23.35,19.7,23.54,55.47.47,88.99-17.28,25.11-59.8,64.34-77.28,80.05-1.18,1.06-2.7,1.64-4.28,1.64Zm-42.51,0c-1.58,0-3.1-.58-4.28-1.64-17.48-15.71-60.01-54.95-77.28-80.05C-2.37,68.57-2.19,32.8,21.16,13.1c7.53-6.35,16.67-9.6,26.82-9.6,3.12,0,6.33.31,9.62.92,15.61,2.93,32.2,13.05,43.3,26.42.66.8,2.03.8,2.69,0,11.1-13.37,27.69-23.5,43.3-26.42,9.17-1.72,17.74-1.01,25.32,2.01-5.57,2.61-10.99,5.95-16.04,9.89-2.22.02-4.53.25-6.92.7-16.1,3.02-33.51,15.7-41.39,30.16-1.12,2.06-3.28,3.34-5.62,3.34s-4.5-1.28-5.62-3.34c-7.88-14.45-25.29-27.14-41.39-30.16-10.21-1.91-18.96.09-25.81,5.87-8.84,7.46-13.39,18.09-13.15,30.74.24,13.07,5.42,27.32,14.98,41.2,15.31,22.25,53.93,58.35,69.82,72.84.33.3.76.46,1.18.46s.84-.15,1.18-.46c2.29-2.09,5.07-4.65,8.18-7.53,3.03,2.9,6.14,5.85,9.33,8.83-5.64,5.24-10.62,9.76-14.41,13.17-1.18,1.06-2.7,1.64-4.28,1.64Zm-2.14-179.35c6.65,1.25,13.47,3.81,19.97,7.36-4,2.57-7.82,5.49-11.35,8.69-3.65-1.58-7.35-2.78-10.99-3.46-2.39-.45-4.7-.67-6.93-.69-5.03-3.91-10.48-7.26-16.09-9.88,4.88-1.95,10.16-2.94,15.76-2.94,3.12,0,6.33.31,9.62.92Zm5.87,18.67c-1.29,1.28-2.54,2.59-3.73,3.95-2.11-2.4-4.39-4.69-6.8-6.85.55.08,1.1.17,1.65.27,2.94.55,5.92,1.45,8.88,2.63Zm-4.22,127.47s0,0,0,.01c.07.07.14.14.21.2.38.38.76.75,1.14,1.12,1.03,1.02,2.08,2.04,3.14,3.07.49.48.99.96,1.48,1.44.45.43.9.87,1.35,1.3-2.53,2.35-4.83,4.47-6.83,6.3-16.46-15.05-53.38-49.73-68.12-71.16-9.16-13.32-14.13-26.9-14.36-39.28-.22-11.56,3.9-21.24,11.91-28,4.53-3.82,10.01-5.76,16.29-5.76,1.45,0,2.95.11,4.5.31-15.48,21.7-12.92,53.76,7.85,83.95,9.24,13.43,25.53,30.78,41.45,46.49Zm59.87-112.61s.02-.02.03-.03c2.15-2.22,4.48-4.3,6.92-6.19.04-.03.07-.05.11-.08,1.65-1.27,3.35-2.45,5.09-3.55.3-.19.59-.37.89-.56.06-.04.12-.07.18-.11,6.66,6.62,10.08,15.59,9.88,26.12-.23,12.38-5.2,25.96-14.36,39.28-9.92,14.41-29.86,34.81-46.87,51.21-17.01-16.4-36.95-36.8-46.87-51.21-9.16-13.32-14.13-26.9-14.36-39.28-.2-10.53,3.22-19.5,9.89-26.12,8.93,5.38,16.84,13.07,21.39,21.41,1.74,3.19,5.07,5.16,8.7,5.16s6.96-1.98,8.7-5.16c2.97-5.44,7.38-10.6,12.56-15.03,5.18,4.43,9.59,9.59,12.56,15.03,1.74,3.19,5.07,5.16,8.7,5.16s6.96-1.98,8.7-5.16c2.09-3.82,4.9-7.51,8.17-10.9Zm29.08-17.12c15.69,20.5,13.42,51.75-6.9,81.27-10.55,15.33-30.51,35.93-48.44,53.23-3.18-2.97-6.3-5.92-9.34-8.83,17.11-16.5,37.18-37.06,47.23-51.66,9.55-13.88,14.73-28.13,14.98-41.2.21-11.16-3.32-20.75-10.22-27.98,4.19-2.21,8.49-3.86,12.7-4.83Zm5.49-.88c.55-.05,1.1-.08,1.64-.1.05,0,.09,0,.14,0,.52-.02,1.04-.02,1.56-.01,6.09.1,11.39,2.02,15.8,5.74,8.01,6.76,12.13,16.44,11.91,28-.23,12.38-5.2,25.96-14.36,39.28-14.75,21.43-51.66,56.11-68.12,71.16-.81-.74-1.67-1.53-2.57-2.36-.86-.79-1.71-1.58-2.57-2.37-.55-.51-1.12-1.04-1.69-1.57,18.02-17.4,38.1-38.12,48.76-53.63,20.77-30.19,23.33-62.25,7.85-83.95.5-.07,1.01-.13,1.51-.17.05,0,.1,0,.15-.01Zm-47.54,2.98c-.06.06-.12.11-.17.16-.01.01-.02.03-.04.05-1.27,1.27-2.51,2.56-3.69,3.9-1.19-1.35-2.44-2.66-3.73-3.95,2.96-1.18,5.94-2.08,8.88-2.63.56-.1,1.11-.19,1.65-.27-.17.15-.34.31-.51.47-.26.24-.52.48-.78.72-.55.51-1.09,1.03-1.62,1.55Z" style="fill: #ff57b8;"/>
  </g>
</svg>