<?xml version="1.0" encoding="UTF-8"?>
<svg id="Layer_2" data-name="Layer 2" xmlns="http://www.w3.org/2000/svg" viewBox="0 0 448.38 37.4">
  <g id="_ÎÓÈ_1" data-name="—ÎÓÈ_1">
    <g>
      <rect x="0" y="0" width="54.2" height="37.4" style="fill: #ff57b8;"/>
      <path d="m63.87,37.4h27.39V0C82.98,0,73.85,0,63.87,0v37.4Z" style="fill: #ff57b8;"/>
      <path d="m107.55,37.4c10.5,0,15.33,0,24.14,0V0h-24.14v37.4Z" style="fill: #ff57b8;"/>
      <path d="m154.6,37.4h20.89V0h-20.89v37.4Z" style="fill: #ff57b8;"/>
      <path d="m205.01,37.4h17.64V0h-17.64v37.4Z" style="fill: #ff57b8;"/>
      <path d="m262.17,37.4h14.39V0h-14.39v37.4Z" style="fill: #ff57b8;"/>
      <path d="m322.69,37.4h11.14V0h-11.14v37.4Z" style="fill: #ff57b8;"/>
      <path d="m381.53,37.4h7.89V0h-7.89v37.4Z" style="fill: #ff57b8;"/>
      <path d="m443.74,37.4h4.64V0h-4.64v37.4Z" style="fill: #ff57b8;"/>
    </g>
  </g>
</svg>