<?xml version="1.0" encoding="UTF-8"?>
<svg id="Layer_2" data-name="Layer 2" xmlns="http://www.w3.org/2000/svg" viewBox="0 0 219.65 67.91">
  <g id="_ÎÓÈ_1" data-name="—ÎÓÈ_1">
    <path d="m217.5,67.91c-.84,0-1.63-.49-1.98-1.31l-24.94-58.93-24.94,58.93c-.34.8-1.12,1.31-1.98,1.31s-1.64-.52-1.98-1.31l-24.94-58.93-24.94,58.93c-.34.8-1.12,1.31-1.98,1.31s-1.64-.52-1.98-1.31L82.91,7.67l-24.94,58.93c-.34.8-1.12,1.31-1.98,1.31s-1.64-.52-1.98-1.31L29.07,7.67,4.13,66.6c-.46,1.09-1.73,1.61-2.82,1.14-1.09-.46-1.6-1.72-1.14-2.82L27.09,1.31c.34-.8,1.12-1.31,1.98-1.31s1.64.52,1.98,1.31l24.94,58.93L80.93,1.31c.34-.8,1.12-1.31,1.98-1.31s1.64.52,1.98,1.31l24.94,58.93L134.77,1.31c.34-.8,1.12-1.31,1.98-1.31s1.64.52,1.98,1.31l24.94,58.93L188.6,1.31c.34-.8,1.12-1.31,1.98-1.31s1.64.52,1.98,1.31l26.92,63.61c.46,1.09-.05,2.36-1.14,2.82-.27.12-.56.17-.84.17Z" style="fill: #ff57b8;"/>
  </g>
</svg>