<?xml version="1.0" encoding="UTF-8"?>
<svg id="Layer_2" data-name="Layer 2" xmlns="http://www.w3.org/2000/svg" viewBox="0 0 200.03 236.6">
  <g id="_ÎÓÈ_1" data-name="—ÎÓÈ_1">
    <g>
      <path d="m100.02,236.6c-26.46,0-51.37-4.73-70.14-13.32C10.61,214.47,0,202.56,0,189.75s10.61-24.72,29.88-33.53c18.77-8.59,43.68-13.32,70.14-13.32s51.37,4.73,70.14,13.32c19.27,8.82,29.88,20.72,29.88,33.53s-10.61,24.72-29.88,33.53c-18.77,8.59-43.68,13.32-70.14,13.32Zm0-89.7c-25.9,0-50.22,4.6-68.48,12.95-17.76,8.13-27.54,18.74-27.54,29.9s9.78,21.77,27.54,29.89c18.26,8.35,42.58,12.95,68.48,12.95s50.22-4.6,68.48-12.95c17.76-8.13,27.54-18.74,27.54-29.89s-9.78-21.77-27.54-29.9c-18.26-8.35-42.58-12.95-68.48-12.95Z" style="fill: #ff57b8;"/>
      <path d="m100.02,188.97c-26.46,0-51.37-4.73-70.14-13.32C10.61,166.84,0,154.93,0,142.12s10.61-24.72,29.88-33.53c18.77-8.59,43.68-13.32,70.14-13.32s51.37,4.73,70.14,13.32c19.27,8.82,29.88,20.72,29.88,33.53s-10.61,24.72-29.88,33.53c-18.77,8.59-43.68,13.32-70.14,13.32Zm0-89.7c-25.9,0-50.22,4.6-68.48,12.95-17.76,8.13-27.54,18.74-27.54,29.89s9.78,21.77,27.54,29.9c18.26,8.35,42.58,12.95,68.48,12.95s50.22-4.6,68.48-12.95c17.76-8.13,27.54-18.74,27.54-29.9s-9.78-21.77-27.54-29.89c-18.26-8.35-42.58-12.95-68.48-12.95Z" style="fill: #ff57b8;"/>
      <path d="m100.02,141.33c-26.46,0-51.37-4.73-70.14-13.32C10.61,119.2,0,107.29,0,94.48s10.61-24.72,29.88-33.53c18.77-8.59,43.68-13.32,70.14-13.32s51.37,4.73,70.14,13.32c19.27,8.82,29.88,20.72,29.88,33.53s-10.61,24.72-29.88,33.53c-18.77,8.59-43.68,13.32-70.14,13.32Zm0-89.7c-25.9,0-50.22,4.6-68.48,12.95-17.76,8.13-27.54,18.74-27.54,29.89s9.78,21.77,27.54,29.9c18.26,8.35,42.58,12.95,68.48,12.95s50.22-4.6,68.48-12.95c17.76-8.13,27.54-18.74,27.54-29.9s-9.78-21.77-27.54-29.89c-18.26-8.35-42.58-12.95-68.48-12.95Z" style="fill: #ff57b8;"/>
      <path d="m100.02,93.7c-26.46,0-51.37-4.73-70.14-13.32C10.61,71.57,0,59.66,0,46.85S10.61,22.13,29.88,13.32C48.64,4.73,73.55,0,100.02,0s51.37,4.73,70.14,13.32c19.27,8.82,29.88,20.72,29.88,33.53s-10.61,24.72-29.88,33.53c-18.77,8.59-43.68,13.32-70.14,13.32Zm0-89.7c-25.9,0-50.22,4.6-68.48,12.95C13.78,25.08,4,35.7,4,46.85s9.78,21.77,27.54,29.89c18.26,8.35,42.58,12.95,68.48,12.95s50.22-4.6,68.48-12.95c17.76-8.13,27.54-18.74,27.54-29.89s-9.78-21.77-27.54-29.9c-18.26-8.35-42.58-12.95-68.48-12.95Z" style="fill: #ff57b8;"/>
    </g>
  </g>
</svg>