<?xml version="1.0" encoding="UTF-8"?>
<svg id="Layer_2" data-name="Layer 2" xmlns="http://www.w3.org/2000/svg" viewBox="0 0 237.39 222.82">
  <g id="_ÎÓÈ_1" data-name="—ÎÓÈ_1">
    <path d="m118.7,222.82C53.25,222.82,0,169.58,0,104.13c0-1.19.96-2.15,2.15-2.15s2.15.96,2.15,2.15c0,63.08,51.32,114.4,114.39,114.4s114.39-51.32,114.39-114.4c0-55.04-44.78-99.83-99.83-99.83S33.44,49.08,33.44,104.13c0,47.01,38.25,85.26,85.26,85.26s85.26-38.25,85.26-85.26c0-38.98-31.71-70.69-70.69-70.69s-70.69,31.71-70.69,70.69c0,30.95,25.18,56.12,56.12,56.12s56.12-25.18,56.12-56.12c0-22.91-18.64-41.55-41.55-41.55s-41.55,18.64-41.55,41.55v.15c0,14.88,12.2,26.99,27.2,26.99,14.88,0,26.99-12.11,26.99-26.99v-.31c0-6.85-5.57-12.42-12.42-12.42s-12.42,5.57-12.42,12.42c0,1.19-.96,2.15-2.15,2.15s-2.15-.96-2.15-2.15c0-9.22,7.5-16.72,16.72-16.72s16.72,7.5,16.72,16.72v.31c0,17.25-14.04,31.29-31.29,31.29-17.37,0-31.5-14.03-31.5-31.29v-.15c0-25.28,20.57-45.85,45.85-45.85s45.85,20.57,45.85,45.85c0,33.32-27.11,60.42-60.42,60.42s-60.42-27.11-60.42-60.42c0-41.35,33.64-74.99,74.99-74.99s74.99,33.64,74.99,74.99c0,49.38-40.18,89.56-89.56,89.56S29.14,153.51,29.14,104.13C29.14,46.71,75.85,0,133.26,0s104.13,46.71,104.13,104.13c0,65.45-53.25,118.7-118.7,118.7Z" style="fill: #ff57b8;"/>
  </g>
</svg>