<?xml version="1.0" encoding="UTF-8"?>
<svg id="Layer_2" data-name="Layer 2" xmlns="http://www.w3.org/2000/svg" viewBox="0 0 653.5 653.5">
  <g id="_ÎÓÈ_1" data-name="—ÎÓÈ_1">
    <g>
      <g>
        <path d="m1.75,653.5c-.23,0-.45-.04-.67-.13-.65-.27-1.08-.91-1.08-1.62V1.75C0,1.04.43.4,1.08.13c.65-.27,1.41-.12,1.91.38l260,260c.33.33.51.77.51,1.24v130c0,.46-.18.91-.51,1.24L2.99,652.99c-.33.33-.78.51-1.24.51ZM3.5,5.98v641.55l256.5-256.5v-128.55L3.5,5.98Zm258.25,385.78h0,0Z" style="fill: #ff57b8;"/>
        <path d="m261.75,276.5c-.38,0-.77-.13-1.09-.38L.66,68.12c-.75-.6-.88-1.7-.27-2.46.6-.76,1.71-.88,2.46-.27l260,208c.75.6.88,1.71.27,2.46-.35.43-.85.66-1.37.66Z" style="fill: #ff57b8;"/>
        <path d="m261.75,289.5c-.31,0-.62-.08-.9-.25L.85,133.25c-.83-.5-1.1-1.57-.6-2.4.5-.83,1.57-1.1,2.4-.6l260,156c.83.5,1.1,1.57.6,2.4-.33.55-.91.85-1.5.85Z" style="fill: #ff57b8;"/>
        <path d="m261.75,302.5c-.22,0-.44-.04-.65-.13L1.1,198.38c-.9-.36-1.33-1.38-.98-2.27.36-.9,1.38-1.33,2.27-.97l260,104c.9.36,1.33,1.38.98,2.27-.27.68-.93,1.1-1.63,1.1Z" style="fill: #ff57b8;"/>
        <path d="m261.75,315.5c-.11,0-.23-.01-.35-.03L1.41,263.47c-.95-.19-1.56-1.11-1.37-2.06.19-.95,1.11-1.56,2.06-1.37l260,52c.95.19,1.56,1.11,1.37,2.06-.17.83-.9,1.41-1.71,1.41Z" style="fill: #ff57b8;"/>
        <path d="m261.75,328.5H1.75c-.97,0-1.75-.78-1.75-1.75s.78-1.75,1.75-1.75h260c.97,0,1.75.78,1.75,1.75s-.78,1.75-1.75,1.75Z" style="fill: #ff57b8;"/>
        <path d="m1.75,393.5c-.82,0-1.55-.58-1.71-1.41-.19-.95.42-1.87,1.37-2.06l260-52c.95-.19,1.87.43,2.06,1.37.19.95-.42,1.87-1.37,2.06L2.09,393.47c-.12.02-.23.03-.35.03Z" style="fill: #ff57b8;"/>
        <path d="m1.75,458.5c-.69,0-1.35-.42-1.63-1.1-.36-.9.08-1.92.98-2.27l260-104c.9-.36,1.92.08,2.27.97.36.9-.08,1.92-.98,2.27L2.4,458.38c-.21.09-.43.13-.65.13Z" style="fill: #ff57b8;"/>
        <path d="m1.75,523.5c-.59,0-1.17-.3-1.5-.85-.5-.83-.23-1.9.6-2.4l260-156c.83-.5,1.9-.23,2.4.6.5.83.23,1.9-.6,2.4L2.65,523.25c-.28.17-.59.25-.9.25Z" style="fill: #ff57b8;"/>
        <path d="m1.75,588.5c-.51,0-1.02-.22-1.37-.66-.6-.75-.48-1.86.27-2.46l260-208c.75-.6,1.86-.48,2.46.27.6.75.48,1.86-.27,2.46L2.84,588.12c-.32.26-.71.38-1.09.38Z" style="fill: #ff57b8;"/>
        <path d="m256.1,399.15c-.97,0-1.75-.78-1.75-1.75v-141.3c0-.97.78-1.75,1.75-1.75s1.75.78,1.75,1.75v141.3c0,.97-.78,1.75-1.75,1.75Z" style="fill: #ff57b8;"/>
        <path d="m249.37,405.88c-.97,0-1.75-.78-1.75-1.75v-154.76c0-.97.78-1.75,1.75-1.75s1.75.78,1.75,1.75v154.76c0,.97-.78,1.75-1.75,1.75Z" style="fill: #ff57b8;"/>
        <path d="m241.22,414.03c-.97,0-1.75-.78-1.75-1.75v-171.05c0-.97.78-1.75,1.75-1.75s1.75.78,1.75,1.75v171.05c0,.97-.78,1.75-1.75,1.75Z" style="fill: #ff57b8;"/>
        <path d="m231.16,424.09c-.97,0-1.75-.78-1.75-1.75v-191.18c0-.97.78-1.75,1.75-1.75s1.75.78,1.75,1.75v191.18c0,.97-.78,1.75-1.75,1.75Z" style="fill: #ff57b8;"/>
        <path d="m218.42,436.83c-.97,0-1.75-.78-1.75-1.75v-216.67c0-.97.78-1.75,1.75-1.75s1.75.78,1.75,1.75v216.67c0,.97-.78,1.75-1.75,1.75Z" style="fill: #ff57b8;"/>
        <path d="m201.75,453.5c-.97,0-1.75-.78-1.75-1.75v-250c0-.97.78-1.75,1.75-1.75s1.75.78,1.75,1.75v250c0,.97-.78,1.75-1.75,1.75Z" style="fill: #ff57b8;"/>
        <path d="m179.02,476.23c-.97,0-1.75-.78-1.75-1.75V179.02c0-.97.78-1.75,1.75-1.75s1.75.78,1.75,1.75v295.45c0,.97-.78,1.75-1.75,1.75Z" style="fill: #ff57b8;"/>
        <path d="m146.19,509.06c-.97,0-1.75-.78-1.75-1.75V146.19c0-.97.78-1.75,1.75-1.75s1.75.78,1.75,1.75v361.11c0,.97-.78,1.75-1.75,1.75Z" style="fill: #ff57b8;"/>
        <path d="m94.61,560.64c-.97,0-1.75-.78-1.75-1.75V94.61c0-.97.78-1.75,1.75-1.75s1.75.78,1.75,1.75v464.29c0,.97-.78,1.75-1.75,1.75Z" style="fill: #ff57b8;"/>
      </g>
      <g>
        <path d="m391.75,263.5h-130c-.46,0-.91-.18-1.24-.51L.51,2.99C.01,2.49-.14,1.73.13,1.08.4.43,1.04,0,1.75,0h650c.71,0,1.35.43,1.62,1.08.27.65.12,1.41-.38,1.91l-260,260c-.33.33-.77.51-1.24.51Zm-129.28-3.5h128.55L647.53,3.5H5.98l256.5,256.5Z" style="fill: #ff57b8;"/>
        <path d="m558.89,96.36H94.61c-.97,0-1.75-.78-1.75-1.75s.78-1.75,1.75-1.75h464.29c.97,0,1.75.78,1.75,1.75s-.78,1.75-1.75,1.75Z" style="fill: #ff57b8;"/>
        <path d="m507.31,147.94H146.19c-.97,0-1.75-.78-1.75-1.75s.78-1.75,1.75-1.75h361.11c.97,0,1.75.78,1.75,1.75s-.78,1.75-1.75,1.75Z" style="fill: #ff57b8;"/>
        <path d="m474.48,180.77H179.02c-.97,0-1.75-.78-1.75-1.75s.78-1.75,1.75-1.75h295.45c.97,0,1.75.78,1.75,1.75s-.78,1.75-1.75,1.75Z" style="fill: #ff57b8;"/>
        <path d="m451.75,203.5h-250c-.97,0-1.75-.78-1.75-1.75s.78-1.75,1.75-1.75h250c.97,0,1.75.78,1.75,1.75s-.78,1.75-1.75,1.75Z" style="fill: #ff57b8;"/>
        <path d="m435.08,220.17h-216.67c-.97,0-1.75-.78-1.75-1.75s.78-1.75,1.75-1.75h216.67c.97,0,1.75.78,1.75,1.75s-.78,1.75-1.75,1.75Z" style="fill: #ff57b8;"/>
        <path d="m422.34,232.91h-191.18c-.97,0-1.75-.78-1.75-1.75s.78-1.75,1.75-1.75h191.18c.97,0,1.75.78,1.75,1.75s-.78,1.75-1.75,1.75Z" style="fill: #ff57b8;"/>
        <path d="m412.28,242.97h-171.05c-.97,0-1.75-.78-1.75-1.75s.78-1.75,1.75-1.75h171.05c.97,0,1.75.78,1.75,1.75s-.78,1.75-1.75,1.75Z" style="fill: #ff57b8;"/>
        <path d="m404.13,251.12h-154.76c-.97,0-1.75-.78-1.75-1.75s.78-1.75,1.75-1.75h154.76c.97,0,1.75.78,1.75,1.75s-.78,1.75-1.75,1.75Z" style="fill: #ff57b8;"/>
        <path d="m397.4,257.85h-141.3c-.97,0-1.75-.78-1.75-1.75s.78-1.75,1.75-1.75h141.3c.97,0,1.75.78,1.75,1.75s-.78,1.75-1.75,1.75Z" style="fill: #ff57b8;"/>
        <path d="m378.75,263.5c-.38,0-.77-.13-1.09-.38-.75-.6-.88-1.7-.27-2.46L585.38.66c.6-.76,1.71-.88,2.46-.27.75.6.88,1.7.27,2.46l-208,260c-.35.43-.85.66-1.37.66Z" style="fill: #ff57b8;"/>
        <path d="m365.75,263.5c-.31,0-.62-.08-.9-.25-.83-.5-1.1-1.57-.6-2.4L520.25.85c.5-.83,1.57-1.1,2.4-.6.83.5,1.1,1.57.6,2.4l-156,260c-.33.55-.91.85-1.5.85Z" style="fill: #ff57b8;"/>
        <path d="m352.75,263.5c-.22,0-.44-.04-.65-.13-.9-.36-1.33-1.38-.98-2.27L455.13,1.1c.36-.9,1.38-1.33,2.27-.97.9.36,1.33,1.38.98,2.27l-104,260c-.27.68-.93,1.1-1.63,1.1Z" style="fill: #ff57b8;"/>
        <path d="m339.75,263.5c-.11,0-.23-.01-.35-.03-.95-.19-1.56-1.11-1.37-2.06L390.03,1.41c.19-.95,1.11-1.56,2.06-1.37.95.19,1.56,1.11,1.37,2.06l-52,260c-.17.83-.9,1.41-1.71,1.41Z" style="fill: #ff57b8;"/>
        <path d="m326.75,263.5c-.97,0-1.75-.78-1.75-1.75V1.75c0-.97.78-1.75,1.75-1.75s1.75.78,1.75,1.75v260c0,.97-.78,1.75-1.75,1.75Z" style="fill: #ff57b8;"/>
        <path d="m313.75,263.5c-.82,0-1.55-.58-1.71-1.41L260.03,2.09c-.19-.95.42-1.87,1.37-2.06.95-.19,1.87.43,2.06,1.37l52,260c.19.95-.42,1.87-1.37,2.06-.12.02-.23.03-.35.03Z" style="fill: #ff57b8;"/>
        <path d="m300.75,263.5c-.69,0-1.35-.42-1.63-1.1L195.13,2.4c-.36-.9.08-1.92.98-2.27.9-.36,1.92.08,2.27.97l104,260c.36.9-.08,1.92-.98,2.27-.21.09-.43.13-.65.13Z" style="fill: #ff57b8;"/>
        <path d="m287.75,263.5c-.59,0-1.17-.3-1.5-.85L130.25,2.65c-.5-.83-.23-1.9.6-2.4.83-.5,1.9-.23,2.4.6l156,260c.5.83.23,1.9-.6,2.4-.28.17-.59.25-.9.25Z" style="fill: #ff57b8;"/>
        <path d="m274.75,263.5c-.51,0-1.02-.22-1.37-.66L65.38,2.84c-.6-.75-.48-1.86.27-2.46.75-.6,1.86-.48,2.46.27l208,260c.6.75.48,1.86-.27,2.46-.32.26-.71.38-1.09.38Z" style="fill: #ff57b8;"/>
      </g>
      <g>
        <path d="m651.75,653.5c-.46,0-.9-.18-1.24-.51l-260-260c-.33-.33-.51-.77-.51-1.24v-130c0-.46.18-.91.51-1.24L650.51.51c.5-.5,1.25-.65,1.91-.38.65.27,1.08.91,1.08,1.62v650c0,.71-.43,1.35-1.08,1.62-.22.09-.44.13-.67.13Zm-258.25-262.47l256.5,256.5V5.98l-256.5,256.5v128.55Z" style="fill: #ff57b8;"/>
        <path d="m651.75,588.5c-.38,0-.77-.13-1.09-.38l-260-208c-.75-.6-.88-1.7-.27-2.46.6-.76,1.71-.88,2.46-.27l260,208c.75.6.88,1.71.27,2.46-.35.43-.85.66-1.37.66Z" style="fill: #ff57b8;"/>
        <path d="m651.75,523.5c-.31,0-.62-.08-.9-.25l-260-156c-.83-.5-1.1-1.57-.6-2.4.5-.83,1.57-1.1,2.4-.6l260,156c.83.5,1.1,1.57.6,2.4-.33.55-.91.85-1.5.85Z" style="fill: #ff57b8;"/>
        <path d="m651.75,458.5c-.22,0-.44-.04-.65-.13l-260-104c-.9-.36-1.33-1.38-.98-2.27.36-.9,1.38-1.33,2.27-.97l260,104c.9.36,1.33,1.38.98,2.27-.27.68-.93,1.1-1.63,1.1Z" style="fill: #ff57b8;"/>
        <path d="m651.75,393.5c-.11,0-.23-.01-.35-.03l-260-52c-.95-.19-1.56-1.11-1.37-2.06.19-.95,1.11-1.56,2.06-1.37l260,52c.95.19,1.56,1.11,1.37,2.06-.17.83-.9,1.41-1.71,1.41Z" style="fill: #ff57b8;"/>
        <path d="m651.75,328.5h-260c-.97,0-1.75-.78-1.75-1.75s.78-1.75,1.75-1.75h260c.97,0,1.75.78,1.75,1.75s-.78,1.75-1.75,1.75Z" style="fill: #ff57b8;"/>
        <path d="m391.75,315.5c-.82,0-1.55-.58-1.71-1.41-.19-.95.42-1.87,1.37-2.06l260-52c.95-.19,1.87.43,2.06,1.37.19.95-.42,1.87-1.37,2.06l-260,52c-.12.02-.23.03-.35.03Z" style="fill: #ff57b8;"/>
        <path d="m391.75,302.5c-.69,0-1.35-.42-1.63-1.1-.36-.9.08-1.92.98-2.27l260-104c.9-.36,1.92.08,2.27.97.36.9-.08,1.92-.98,2.27l-260,104c-.21.09-.43.13-.65.13Z" style="fill: #ff57b8;"/>
        <path d="m391.75,289.5c-.59,0-1.17-.3-1.5-.85-.5-.83-.23-1.9.6-2.4l260-156c.83-.5,1.9-.23,2.4.6.5.83.23,1.9-.6,2.4l-260,156c-.28.17-.59.25-.9.25Z" style="fill: #ff57b8;"/>
        <path d="m391.75,276.5c-.51,0-1.02-.22-1.37-.66-.6-.75-.48-1.86.27-2.46l260-208c.75-.6,1.86-.48,2.46.27.6.75.48,1.86-.27,2.46l-260,208c-.32.26-.71.38-1.09.38Z" style="fill: #ff57b8;"/>
        <path d="m397.4,399.15c-.97,0-1.75-.78-1.75-1.75v-141.3c0-.97.78-1.75,1.75-1.75s1.75.78,1.75,1.75v141.3c0,.97-.78,1.75-1.75,1.75Z" style="fill: #ff57b8;"/>
        <path d="m404.13,405.88c-.97,0-1.75-.78-1.75-1.75v-154.76c0-.97.78-1.75,1.75-1.75s1.75.78,1.75,1.75v154.76c0,.97-.78,1.75-1.75,1.75Z" style="fill: #ff57b8;"/>
        <path d="m412.28,414.03c-.97,0-1.75-.78-1.75-1.75v-171.05c0-.97.78-1.75,1.75-1.75s1.75.78,1.75,1.75v171.05c0,.97-.78,1.75-1.75,1.75Z" style="fill: #ff57b8;"/>
        <path d="m422.34,424.09c-.97,0-1.75-.78-1.75-1.75v-191.18c0-.97.78-1.75,1.75-1.75s1.75.78,1.75,1.75v191.18c0,.97-.78,1.75-1.75,1.75Z" style="fill: #ff57b8;"/>
        <path d="m435.08,436.83c-.97,0-1.75-.78-1.75-1.75v-216.67c0-.97.78-1.75,1.75-1.75s1.75.78,1.75,1.75v216.67c0,.97-.78,1.75-1.75,1.75Z" style="fill: #ff57b8;"/>
        <path d="m451.75,453.5c-.97,0-1.75-.78-1.75-1.75v-250c0-.97.78-1.75,1.75-1.75s1.75.78,1.75,1.75v250c0,.97-.78,1.75-1.75,1.75Z" style="fill: #ff57b8;"/>
        <path d="m474.48,476.23c-.97,0-1.75-.78-1.75-1.75V179.02c0-.97.78-1.75,1.75-1.75s1.75.78,1.75,1.75v295.45c0,.97-.78,1.75-1.75,1.75Z" style="fill: #ff57b8;"/>
        <path d="m507.31,509.06c-.97,0-1.75-.78-1.75-1.75V146.19c0-.97.78-1.75,1.75-1.75s1.75.78,1.75,1.75v361.11c0,.97-.78,1.75-1.75,1.75Z" style="fill: #ff57b8;"/>
        <path d="m558.89,560.64c-.97,0-1.75-.78-1.75-1.75V94.61c0-.97.78-1.75,1.75-1.75s1.75.78,1.75,1.75v464.29c0,.97-.78,1.75-1.75,1.75Z" style="fill: #ff57b8;"/>
      </g>
      <g>
        <path d="m651.75,653.5H1.75c-.71,0-1.35-.43-1.62-1.08s-.12-1.41.38-1.91l260-260c.33-.33.77-.51,1.24-.51h130c.46,0,.91.18,1.24.51l260,260c.5.5.65,1.25.38,1.91s-.91,1.08-1.62,1.08Zm-645.78-3.5h641.55l-256.5-256.5h-128.55L5.98,650Z" style="fill: #ff57b8;"/>
        <path d="m558.89,560.64H94.61c-.97,0-1.75-.78-1.75-1.75s.78-1.75,1.75-1.75h464.29c.97,0,1.75.78,1.75,1.75s-.78,1.75-1.75,1.75Z" style="fill: #ff57b8;"/>
        <path d="m507.31,509.06H146.19c-.97,0-1.75-.78-1.75-1.75s.78-1.75,1.75-1.75h361.11c.97,0,1.75.78,1.75,1.75s-.78,1.75-1.75,1.75Z" style="fill: #ff57b8;"/>
        <path d="m474.48,476.23H179.02c-.97,0-1.75-.78-1.75-1.75s.78-1.75,1.75-1.75h295.45c.97,0,1.75.78,1.75,1.75s-.78,1.75-1.75,1.75Z" style="fill: #ff57b8;"/>
        <path d="m451.75,453.5h-250c-.97,0-1.75-.78-1.75-1.75s.78-1.75,1.75-1.75h250c.97,0,1.75.78,1.75,1.75s-.78,1.75-1.75,1.75Z" style="fill: #ff57b8;"/>
        <path d="m435.08,436.83h-216.67c-.97,0-1.75-.78-1.75-1.75s.78-1.75,1.75-1.75h216.67c.97,0,1.75.78,1.75,1.75s-.78,1.75-1.75,1.75Z" style="fill: #ff57b8;"/>
        <path d="m422.34,424.09h-191.18c-.97,0-1.75-.78-1.75-1.75s.78-1.75,1.75-1.75h191.18c.97,0,1.75.78,1.75,1.75s-.78,1.75-1.75,1.75Z" style="fill: #ff57b8;"/>
        <path d="m412.28,414.03h-171.05c-.97,0-1.75-.78-1.75-1.75s.78-1.75,1.75-1.75h171.05c.97,0,1.75.78,1.75,1.75s-.78,1.75-1.75,1.75Z" style="fill: #ff57b8;"/>
        <path d="m404.13,405.88h-154.76c-.97,0-1.75-.78-1.75-1.75s.78-1.75,1.75-1.75h154.76c.97,0,1.75.78,1.75,1.75s-.78,1.75-1.75,1.75Z" style="fill: #ff57b8;"/>
        <path d="m397.4,399.15h-141.3c-.97,0-1.75-.78-1.75-1.75s.78-1.75,1.75-1.75h141.3c.97,0,1.75.78,1.75,1.75s-.78,1.75-1.75,1.75Z" style="fill: #ff57b8;"/>
        <path d="m66.75,653.5c-.38,0-.77-.13-1.09-.38-.75-.6-.88-1.71-.27-2.46l208-260c.6-.76,1.71-.88,2.46-.27.75.6.88,1.7.27,2.46l-208,260c-.35.43-.85.66-1.37.66Z" style="fill: #ff57b8;"/>
        <path d="m131.75,653.5c-.31,0-.62-.08-.9-.25-.83-.5-1.1-1.57-.6-2.4l156-260c.5-.83,1.57-1.1,2.4-.6.83.5,1.1,1.57.6,2.4l-156,260c-.33.55-.91.85-1.5.85Z" style="fill: #ff57b8;"/>
        <path d="m196.75,653.5c-.22,0-.44-.04-.65-.13-.9-.36-1.33-1.38-.98-2.27l104-260c.36-.9,1.38-1.33,2.27-.97.9.36,1.33,1.38.98,2.27l-104,260c-.27.68-.93,1.1-1.63,1.1Z" style="fill: #ff57b8;"/>
        <path d="m261.75,653.5c-.11,0-.23-.01-.35-.03-.95-.19-1.56-1.11-1.37-2.06l52-260c.19-.95,1.11-1.56,2.06-1.37.95.19,1.56,1.11,1.37,2.06l-52,260c-.17.83-.9,1.41-1.71,1.41Z" style="fill: #ff57b8;"/>
        <path d="m326.75,653.5c-.97,0-1.75-.78-1.75-1.75v-260c0-.97.78-1.75,1.75-1.75s1.75.78,1.75,1.75v260c0,.97-.78,1.75-1.75,1.75Z" style="fill: #ff57b8;"/>
        <path d="m391.75,653.5c-.82,0-1.55-.58-1.71-1.41l-52-260c-.19-.95.42-1.87,1.37-2.06.95-.19,1.87.43,2.06,1.37l52,260c.19.95-.42,1.87-1.37,2.06-.12.02-.23.03-.35.03Z" style="fill: #ff57b8;"/>
        <path d="m456.75,653.5c-.69,0-1.35-.42-1.63-1.1l-104-260c-.36-.9.08-1.92.98-2.27.9-.36,1.92.08,2.27.97l104,260c.36.9-.08,1.92-.98,2.27-.21.09-.43.13-.65.13Z" style="fill: #ff57b8;"/>
        <path d="m521.75,653.5c-.59,0-1.17-.3-1.5-.85l-156-260c-.5-.83-.23-1.9.6-2.4.83-.5,1.9-.23,2.4.6l156,260c.5.83.23,1.9-.6,2.4-.28.17-.59.25-.9.25Z" style="fill: #ff57b8;"/>
        <path d="m586.75,653.5c-.51,0-1.02-.22-1.37-.66l-208-260c-.6-.75-.48-1.86.27-2.46.76-.6,1.86-.48,2.46.27l208,260c.6.75.48,1.86-.27,2.46-.32.26-.71.38-1.09.38Z" style="fill: #ff57b8;"/>
      </g>
    </g>
  </g>
</svg>