<?xml version="1.0" encoding="UTF-8"?>
<svg id="Layer_2" data-name="Layer 2" xmlns="http://www.w3.org/2000/svg" viewBox="0 0 91.55 72.58">
  <g id="_ÎÓÈ_1" data-name="—ÎÓÈ_1">
    <g style="fill: none; isolation: isolate;">
      <path d="m2,48.23c-.66,0-1.29-.33-1.66-.89-.39-.59-.45-1.33-.15-1.97L20.42,2.77c.31-.66.97-1.1,1.7-1.14L52.65,0c.7-.04,1.38.3,1.77.88.39.59.45,1.33.15,1.97l-20.23,42.6c-.31.66-.97,1.1-1.7,1.14l-30.53,1.62s-.07,0-.11,0ZM23.52,5.56L5.25,44.05l25.99-1.38L49.51,4.18l-25.99,1.38Z" style="fill: #ff57b8;"/>
      <path d="m38.79,72.58c-.39,0-.78-.12-1.1-.33L.9,47.9c-.72-.48-1.05-1.36-.83-2.19.23-.83.96-1.43,1.82-1.47l30.53-1.62c.43-.02.85.09,1.21.33l36.79,24.35c.72.48,1.05,1.36.83,2.19-.23.83-.96,1.43-1.82,1.47l-30.53,1.62s-.07,0-.11,0Zm-30.64-24.68l31.19,20.65,23.82-1.27-31.19-20.65-23.82,1.27Z" style="fill: #ff57b8;"/>
      <path d="m69.32,70.96c-.39,0-.77-.11-1.1-.33l-36.79-24.35c-.83-.55-1.13-1.63-.7-2.53L50.95,1.14c.25-.52.71-.91,1.27-1.07.56-.16,1.16-.06,1.64.26l36.79,24.35c.83.55,1.13,1.63.7,2.53l-20.23,42.6c-.25.52-.71.91-1.27,1.07-.18.05-.36.07-.54.07Zm-34.24-27.06l33.43,22.12,18.49-38.95L53.57,4.94l-18.49,38.95Z" style="fill: #ff57b8;"/>
    </g>
  </g>
</svg>