<?xml version="1.0" encoding="UTF-8"?>
<svg id="Layer_2" data-name="Layer 2" xmlns="http://www.w3.org/2000/svg" viewBox="0 0 150.11 150.11">
  <g id="_ÎÓÈ_1" data-name="—ÎÓÈ_1">
    <g>
      <g>
        <path d="m75.05,150.11c-1.19,0-2.15-.96-2.15-2.15V2.15c0-1.19.96-2.15,2.15-2.15s2.15.96,2.15,2.15v145.81c0,1.19-.96,2.15-2.15,2.15Z" style="fill: #ff57b8;"/>
        <path d="m147.96,77.2H2.15c-1.19,0-2.15-.96-2.15-2.15s.96-2.15,2.15-2.15h145.81c1.19,0,2.15.96,2.15,2.15s-.96,2.15-2.15,2.15Z" style="fill: #ff57b8;"/>
        <path d="m23.5,128.76c-.55,0-1.1-.21-1.52-.63-.84-.84-.84-2.2,0-3.04L125.08,21.98c.84-.84,2.2-.84,3.04,0,.84.84.84,2.2,0,3.04L25.02,128.13c-.42.42-.97.63-1.52.63Z" style="fill: #ff57b8;"/>
        <path d="m126.61,128.76c-.55,0-1.1-.21-1.52-.63L21.98,25.02c-.84-.84-.84-2.2,0-3.04.84-.84,2.2-.84,3.04,0l103.1,103.1c.84.84.84,2.2,0,3.04-.42.42-.97.63-1.52.63Z" style="fill: #ff57b8;"/>
      </g>
      <g>
        <path d="m102.77,144.97c-.84,0-1.64-.5-1.99-1.33L44.99,8.93c-.45-1.1.07-2.35,1.16-2.81,1.1-.45,2.36.07,2.81,1.16l55.8,134.71c.45,1.1-.07,2.35-1.16,2.81-.27.11-.55.16-.82.16Z" style="fill: #ff57b8;"/>
        <path d="m7.52,105.51c-.84,0-1.64-.5-1.99-1.33-.45-1.1.07-2.35,1.16-2.81l134.71-55.8c1.1-.45,2.35.07,2.81,1.16.45,1.1-.07,2.35-1.16,2.81L8.34,105.35c-.27.11-.55.16-.82.16Z" style="fill: #ff57b8;"/>
        <path d="m46.97,144.97c-.27,0-.55-.05-.82-.16-1.1-.45-1.62-1.71-1.16-2.81L100.78,7.29c.45-1.1,1.71-1.62,2.81-1.16,1.1.45,1.62,1.71,1.16,2.81l-55.8,134.71c-.34.83-1.14,1.33-1.99,1.33Z" style="fill: #ff57b8;"/>
        <path d="m142.22,105.51c-.27,0-.55-.05-.82-.16L6.69,49.55c-1.1-.45-1.62-1.71-1.16-2.81.45-1.1,1.71-1.62,2.81-1.16l134.71,55.8c1.1.45,1.62,1.71,1.16,2.81-.34.83-1.14,1.33-1.99,1.33Z" style="fill: #ff57b8;"/>
      </g>
    </g>
  </g>
</svg>