<?xml version="1.0" encoding="UTF-8"?>
<svg id="Layer_2" data-name="Layer 2" xmlns="http://www.w3.org/2000/svg" viewBox="0 0 128.65 128.65">
  <g id="_ÎÓÈ_1" data-name="—ÎÓÈ_1">
    <path d="m64.33,128.65c-13.79,0-25.01-11.97-25.01-26.68,0-6.13,4.17-14.25,9.38-22.01-7.75,5.2-15.88,9.38-22.01,9.38-14.71,0-26.68-11.22-26.68-25.01s11.97-25.01,26.68-25.01c6.13,0,14.25,4.17,22.01,9.38-5.2-7.75-9.38-15.88-9.38-22.01,0-14.71,11.22-26.68,25.01-26.68s25.01,11.97,25.01,26.68c0,6.13-4.17,14.25-9.38,22.01,7.75-5.2,15.88-9.38,22.01-9.38,14.71,0,26.68,11.22,26.68,25.01s-11.97,25.01-26.68,25.01c-6.13,0-14.25-4.17-22.01-9.38,5.2,7.75,9.38,15.88,9.38,22.01,0,14.71-11.22,26.68-25.01,26.68Zm-5.12-61.36c.55,0,1.1.21,1.52.63.78.78.84,2.02.15,2.88-10.97,13.52-17.26,24.88-17.26,31.17,0,12.34,9.29,22.38,20.71,22.38s20.71-10.04,20.71-22.38c0-6.29-6.29-17.65-17.26-31.17-.69-.86-.63-2.1.15-2.88.78-.78,2.02-.84,2.88-.15,13.52,10.97,24.88,17.26,31.17,17.26,12.34,0,22.38-9.29,22.38-20.71s-10.04-20.71-22.38-20.71c-6.29,0-17.65,6.29-31.17,17.26-.86.69-2.1.63-2.88-.15-.78-.78-.84-2.02-.15-2.88,10.97-13.52,17.26-24.88,17.26-31.17,0-12.34-9.29-22.38-20.71-22.38s-20.71,10.04-20.71,22.38c0,6.29,6.29,17.65,17.26,31.17.69.86.63,2.1-.15,2.88-.78.78-2.02.84-2.88.15-13.52-10.97-24.88-17.26-31.17-17.26-12.34,0-22.38,9.29-22.38,20.71s10.04,20.71,22.38,20.71c6.29,0,17.65-6.29,31.17-17.26.4-.32.88-.48,1.35-.48Z" style="fill: #ff57b8;"/>
  </g>
</svg>