<?xml version="1.0" encoding="UTF-8"?>
<svg id="Layer_2" data-name="Layer 2" xmlns="http://www.w3.org/2000/svg" viewBox="0 0 349.58 117.3">
  <g id="_ÎÓÈ_1" data-name="—ÎÓÈ_1">
    <g>
      <path d="m271.9,25.51c-8.75,0-16.96-3.58-23.13-10.09-6.8-7.17-15.82-11.11-25.42-11.11s-18.62,3.95-25.42,11.11c-6.17,6.51-14.39,10.09-23.13,10.09s-16.96-3.58-23.13-10.09c-6.79-7.17-15.82-11.11-25.42-11.11s-18.62,3.95-25.42,11.11c-6.17,6.51-14.39,10.09-23.13,10.09s-16.96-3.58-23.13-10.09c-6.79-7.17-15.82-11.11-25.42-11.11S10.51,8.25,3.71,15.41c-.82.86-2.18.9-3.04.08-.86-.82-.9-2.18-.08-3.04C8.21,4.42,18.34,0,29.13,0s20.92,4.42,28.54,12.45c5.35,5.64,12.46,8.75,20.01,8.75s14.66-3.11,20.01-8.75C105.31,4.42,115.45,0,126.23,0s20.92,4.42,28.54,12.45c5.35,5.64,12.46,8.75,20.01,8.75s14.66-3.11,20.01-8.75c7.62-8.03,17.75-12.45,28.54-12.45s20.92,4.42,28.54,12.45c5.35,5.64,12.46,8.75,20.01,8.75,7.55,0,14.66-3.11,20.01-8.75,7.62-8.03,17.75-12.45,28.54-12.45s20.92,4.42,28.54,12.45c.82.86.78,2.22-.08,3.04-.86.82-2.22.78-3.04-.08-6.79-7.17-15.82-11.11-25.42-11.11s-18.62,3.95-25.42,11.11c-6.17,6.51-14.39,10.09-23.13,10.09Z" style="fill: #ff57b8;"/>
      <path d="m271.9,71.4c-8.75,0-16.96-3.58-23.13-10.09-6.8-7.17-15.82-11.11-25.42-11.11s-18.62,3.95-25.42,11.11c-6.17,6.51-14.39,10.09-23.13,10.09s-16.96-3.58-23.13-10.09c-6.79-7.17-15.82-11.11-25.42-11.11s-18.62,3.95-25.42,11.11c-6.17,6.51-14.39,10.09-23.13,10.09s-16.96-3.58-23.13-10.09c-6.79-7.17-15.82-11.11-25.42-11.11s-18.62,3.95-25.42,11.11c-.82.86-2.18.9-3.04.08-.86-.82-.9-2.18-.08-3.04,7.62-8.03,17.75-12.45,28.54-12.45s20.92,4.42,28.54,12.45c5.35,5.64,12.46,8.75,20.01,8.75s14.66-3.11,20.01-8.75c7.62-8.03,17.75-12.45,28.54-12.45s20.92,4.42,28.54,12.45c5.35,5.64,12.46,8.75,20.01,8.75s14.66-3.11,20.01-8.75c7.62-8.03,17.75-12.45,28.54-12.45s20.92,4.42,28.54,12.45c5.35,5.64,12.46,8.75,20.01,8.75,7.55,0,14.66-3.11,20.01-8.75,7.62-8.03,17.75-12.45,28.54-12.45s20.92,4.42,28.54,12.45c.82.86.78,2.22-.08,3.04-.86.82-2.22.78-3.04-.08-6.8-7.17-15.82-11.11-25.42-11.11s-18.62,3.95-25.42,11.11c-6.17,6.51-14.39,10.09-23.13,10.09Z" style="fill: #ff57b8;"/>
      <path d="m271.9,117.3c-8.75,0-16.96-3.58-23.13-10.09-6.8-7.17-15.82-11.11-25.42-11.11s-18.62,3.95-25.42,11.11c-6.17,6.51-14.39,10.09-23.13,10.09s-16.96-3.58-23.13-10.09c-6.8-7.17-15.82-11.11-25.42-11.11s-18.62,3.95-25.42,11.11c-6.17,6.51-14.39,10.09-23.13,10.09s-16.96-3.58-23.13-10.09c-6.79-7.17-15.82-11.11-25.42-11.11s-18.62,3.95-25.42,11.11c-.82.86-2.18.9-3.04.08-.86-.82-.9-2.18-.08-3.04,7.62-8.03,17.75-12.45,28.54-12.45s20.92,4.42,28.54,12.45c5.35,5.64,12.46,8.75,20.01,8.75s14.66-3.11,20.01-8.75c7.62-8.03,17.75-12.45,28.54-12.45s20.92,4.42,28.54,12.45c5.35,5.64,12.46,8.75,20.01,8.75s14.66-3.11,20.01-8.75c7.62-8.03,17.75-12.45,28.54-12.45s20.92,4.42,28.54,12.45c5.35,5.64,12.46,8.75,20.01,8.75,7.55,0,14.66-3.11,20.01-8.75,7.62-8.03,17.75-12.45,28.54-12.45s20.92,4.42,28.54,12.45c.82.86.78,2.22-.08,3.04-.86.82-2.22.78-3.04-.08-6.79-7.17-15.82-11.11-25.42-11.11s-18.62,3.95-25.42,11.11c-6.17,6.51-14.39,10.09-23.13,10.09Z" style="fill: #ff57b8;"/>
    </g>
  </g>
</svg>