<?xml version="1.0" encoding="UTF-8"?>
<svg id="Layer_2" data-name="Layer 2" xmlns="http://www.w3.org/2000/svg" viewBox="0 0 114.22 114.22">
  <g id="_ÎÓÈ_1" data-name="—ÎÓÈ_1">
    <path d="m57.11,114.22c-6.24,0-13.52-5.45-13.52-20.8,0-1.29.09-2.74.27-4.32-.99,1.24-1.95,2.33-2.86,3.24-10.86,10.86-19.86,9.56-24.27,5.15-4.41-4.41-5.71-13.41,5.15-24.27.92-.92,2-1.87,3.24-2.86-1.57.18-3.02.27-4.32.27-15.35,0-20.8-7.28-20.8-13.52s5.45-13.52,20.8-13.52c1.29,0,2.74.09,4.31.27-1.24-.99-2.33-1.95-3.24-2.86-10.86-10.86-9.56-19.86-5.15-24.27,2.78-2.78,6.64-3.84,10.89-2.99,4.29.86,8.92,3.67,13.38,8.13.92.92,1.87,2,2.86,3.24-.18-1.57-.27-3.02-.27-4.32,0-15.35,7.28-20.8,13.52-20.8s13.52,5.45,13.52,20.8c0,1.29-.09,2.74-.27,4.32.99-1.24,1.95-2.33,2.86-3.24,4.46-4.46,9.09-7.27,13.38-8.13,4.24-.85,8.11.21,10.89,2.99,4.41,4.41,5.71,13.41-5.15,24.27-.91.91-2,1.87-3.24,2.86,1.57-.18,3.02-.27,4.31-.27,15.35,0,20.8,7.28,20.8,13.52s-5.45,13.52-20.8,13.52c-1.29,0-2.74-.09-4.32-.27,1.24.99,2.33,1.95,3.24,2.86,10.86,10.86,9.56,19.86,5.15,24.27-4.41,4.41-13.41,5.71-24.27-5.15-.92-.92-1.87-2-2.86-3.24.18,1.57.27,3.02.27,4.32,0,15.35-7.28,20.8-13.52,20.8Zm-9.61-35.91c.26,0,.52.05.76.15.91.38,1.41,1.36,1.18,2.32-1.21,5.03-1.86,9.4-1.86,12.64,0,10.2,3.74,16.8,9.52,16.8s9.52-6.59,9.52-16.8c0-3.24-.64-7.61-1.86-12.64-.23-.96.27-1.94,1.18-2.32.91-.38,1.96-.04,2.47.8,2.7,4.42,5.34,7.96,7.63,10.25,7.22,7.22,14.52,9.24,18.61,5.15,4.09-4.09,2.07-11.39-5.15-18.61-2.29-2.29-5.84-4.93-10.25-7.63-.84-.51-1.18-1.56-.8-2.47.38-.91,1.36-1.41,2.32-1.18,5.03,1.21,9.4,1.86,12.64,1.86,10.21,0,16.8-3.74,16.8-9.52s-6.59-9.52-16.8-9.52c-3.24,0-7.61.64-12.64,1.86-.96.23-1.94-.27-2.32-1.18-.38-.91-.04-1.96.8-2.47,4.42-2.7,7.96-5.34,10.25-7.63,7.22-7.22,9.24-14.52,5.15-18.61-1.83-1.83-4.34-2.48-7.27-1.89-3.52.71-7.44,3.14-11.34,7.04-2.29,2.29-4.93,5.84-7.63,10.25-.51.84-1.56,1.18-2.47.8-.91-.38-1.41-1.36-1.18-2.32,1.21-5.03,1.86-9.4,1.86-12.65,0-10.2-3.74-16.8-9.52-16.8s-9.52,6.59-9.52,16.8c0,3.24.64,7.61,1.86,12.64.23.96-.27,1.94-1.18,2.32-.91.38-1.96.04-2.47-.8-2.7-4.42-5.34-7.96-7.63-10.25-3.9-3.9-7.82-6.33-11.34-7.04-2.93-.59-5.45.07-7.27,1.89-4.09,4.09-2.07,11.39,5.15,18.61,2.29,2.29,5.84,4.93,10.25,7.63.84.51,1.18,1.56.8,2.47-.38.91-1.36,1.41-2.32,1.18-5.03-1.21-9.4-1.86-12.64-1.86-10.21,0-16.8,3.74-16.8,9.52s6.59,9.52,16.8,9.52c3.24,0,7.61-.64,12.64-1.86.96-.23,1.94.27,2.32,1.18.38.91.04,1.96-.8,2.47-4.42,2.7-7.96,5.34-10.25,7.63-7.22,7.22-9.24,14.52-5.15,18.61,4.09,4.09,11.39,2.07,18.61-5.15,2.29-2.29,4.93-5.84,7.63-10.25.37-.61,1.03-.96,1.71-.96Z" style="fill: #ff57b8;"/>
  </g>
</svg>