<?xml version="1.0" encoding="UTF-8"?>
<svg id="Layer_2" data-name="Layer 2" xmlns="http://www.w3.org/2000/svg" viewBox="0 0 268.55 268.53">
  <g id="_ÎÓÈ_1" data-name="—ÎÓÈ_1">
    <g>
      <path d="m134.3,268.53c-18.1,0-36.18-3.71-53.3-11.12-32.9-14.24-58.28-40.45-71.47-73.78h0c-13.19-33.34-12.61-69.81,1.63-102.71C25.4,48.02,51.6,22.64,84.94,9.44c68.81-27.23,146.95,6.6,174.19,75.41,27.23,68.81-6.6,146.95-75.41,174.19-15.99,6.33-32.72,9.49-49.42,9.49Zm-.13-265.01c-15.98,0-32.21,2.95-47.94,9.17C53.76,25.55,28.24,50.27,14.37,82.31.5,114.35-.07,149.88,12.78,182.34h0c12.85,32.47,37.57,57.99,69.61,71.86,32.04,13.87,67.57,14.44,100.03,1.59,67.02-26.52,99.97-102.62,73.45-169.65C235.58,34.86,186.24,3.52,134.17,3.52Z" style="fill: #ff57b8;"/>
      <g>
        <path d="m174.18,262.37c-.14,0-.28-.02-.42-.05-5.93-1.46-17.72-7.28-30.07-29.87-17.11-31.29-26.99-55.7-39.15-96.73-24.36-82.16-23.83-107.63-19.63-122.93.89-3.24,2.72-4.44,5.19-5.25.92-.3,1.91.2,2.21,1.12.3.92-.2,1.91-1.12,2.21-1.72.56-2.42,1.08-2.9,2.85-4.06,14.79-4.5,39.69,19.61,121,12.09,40.77,21.89,65,38.87,96.05,8.55,15.64,18.7,25.9,27.84,28.15.94.23,1.51,1.18,1.28,2.12-.2.8-.91,1.33-1.7,1.33Z" style="fill: #ff57b8;"/>
        <path d="m147.04,267.24c-13.16,0-31.79-4.16-50.47-25.8-25.54-29.59-32.36-57.73-39.21-94.25-7.05-37.57-6.71-67.57,1.03-91.7,6.67-20.79,17.6-33.41,27.32-43.59,2.08-2.18,4.71-3.96,8.27-5.6.88-.4,1.92-.02,2.32.86.4.88.02,1.92-.86,2.32-3.19,1.47-5.41,2.96-7.2,4.84-21.13,22.14-42.41,52.44-27.45,132.24,6.75,35.98,13.45,63.68,38.42,92.61,24.86,28.8,48.65,25.21,60.09,23.49.96-.14,1.85.51,1.99,1.47.14.96-.51,1.85-1.47,1.99-3.17.48-7.54,1.14-12.79,1.14Z" style="fill: #ff57b8;"/>
        <path d="m99.74,263.56c-.2,0-.4-.03-.6-.11-1.04-.38-2.1-.75-3.18-1.13-9.4-3.3-20.06-7.04-34.55-21.68-26.59-26.86-39.8-57.2-40.4-92.77C19.6,62.99,56.51,34.5,86.17,11.61c2.74-2.12,7.95-4.25,12.54-6.12,1.41-.58,2.71-1.11,3.78-1.58.88-.39,1.92.01,2.31.9s-.01,1.92-.9,2.31c-1.09.48-2.42,1.03-3.86,1.61-4.17,1.7-9.36,3.83-11.73,5.65-29.04,22.41-65.18,50.3-63.8,133.43.58,34.62,13.46,64.18,39.38,90.37,13.93,14.07,24.18,17.66,33.22,20.84,1.09.38,2.17.76,3.22,1.15.91.33,1.37,1.34,1.04,2.24-.26.71-.93,1.15-1.64,1.15Z" style="fill: #ff57b8;"/>
        <path d="m1.86,142.01s-.07,0-.11,0c-.96-.06-1.7-.89-1.64-1.86,2.04-32.75,12.56-61.45,31.27-85.3,18.43-23.51,40.34-36.67,55.47-43.58,4.71-2.15,24.77-8.96,34.9-10.65.95-.16,1.86.49,2.01,1.44.16.95-.48,1.86-1.44,2.01-9.69,1.62-29.57,8.35-34.03,10.38C64.53,25.31,8.66,59.3,3.61,140.37c-.06.93-.83,1.64-1.74,1.64Z" style="fill: #ff57b8;"/>
      </g>
      <g>
        <path d="m191.64,255.46c-.33,0-.66-.09-.95-.28-.81-.53-1.04-1.61-.51-2.42,5.13-7.89,5.5-22.32,1.04-39.57-8.87-34.26-18.3-58.64-37.38-96.64C115.76,40.75,98.41,22.9,85.32,14.89c-1.57-.96-2.43-.86-4.07-.09-.87.41-1.92.03-2.33-.84-.41-.88-.03-1.92.84-2.33,2.36-1.1,4.51-1.48,7.38.27,13.53,8.28,31.35,26.49,69.81,103.07,19.21,38.25,28.71,62.81,37.64,97.33,6.45,24.92,1.84,37.24-1.49,42.36-.34.52-.9.8-1.47.8Z" style="fill: #ff57b8;"/>
        <path d="m204.87,248.2c-.56,0-1.1-.26-1.44-.76-.55-.8-.35-1.89.45-2.43,9.52-6.57,29.33-20.24,27.75-58.24-1.59-38.18-15.65-62.97-35.35-93.82C152.57,24.51,116.31,16.98,85.76,15.29c-2.59-.14-5.24.29-8.56,1.4-.92.31-1.91-.19-2.21-1.1-.31-.92.19-1.91,1.1-2.21,3.72-1.24,6.85-1.75,9.87-1.58,14.06.78,30.66,2.49,49.76,13.09,22.16,12.3,42.93,33.95,63.5,66.17,20,31.32,34.28,56.5,35.9,95.56,1.66,39.94-20,54.89-29.25,61.27-.3.21-.65.31-.99.31Z" style="fill: #ff57b8;"/>
        <path d="m246.73,205.39c-.26,0-.53-.06-.79-.19-.86-.43-1.21-1.49-.78-2.35.51-1.01,1.03-2.02,1.57-3.04,4.42-8.5,9.44-18.14,9.97-37.93.99-36.84-9.85-67.21-33.12-92.85C167.71,7.47,122.27,11.86,85.76,15.39c-2.98.29-8.22,2.29-12.42,3.9-1.45.56-2.8,1.07-3.92,1.47-.91.32-1.91-.16-2.23-1.07-.32-.91.16-1.91,1.07-2.23,1.1-.39,2.41-.89,3.83-1.44,4.63-1.77,9.89-3.79,13.34-4.12,37.29-3.6,83.7-8.09,140.75,54.77,23.91,26.34,35.04,57.51,34.03,95.29-.55,20.59-5.76,30.61-10.36,39.45-.53,1.01-1.04,2.01-1.54,3-.31.61-.92.96-1.56.96Z" style="fill: #ff57b8;"/>
        <path d="m234.93,49.78c-.43,0-.86-.16-1.2-.48C174.57-6.36,110.58,7.08,85.81,15.44c-4.64,1.57-23.75,10.26-31.92,15.71-.8.54-1.89.32-2.43-.48-.54-.8-.32-1.89.48-2.43,8.55-5.7,27.84-14.46,32.74-16.12,15.76-5.32,40.75-10.71,70.27-6.18,29.97,4.6,57.28,18.33,81.17,40.81.7.66.74,1.77.08,2.47-.34.37-.81.55-1.27.55Z" style="fill: #ff57b8;"/>
      </g>
      <path d="m48.68,203.97c-20.18,0-33.05-4.88-36.7-14.09-.36-.9.08-1.92.98-2.27.9-.36,1.92.08,2.27.98,3.64,9.2,20.01,13.36,44.91,11.4,25.93-2.04,58.24-10.3,90.99-23.26,32.75-12.96,61.96-29.05,82.27-45.3,19.5-15.61,28.59-29.84,24.95-39.05-.36-.9.08-1.92.98-2.27.9-.36,1.92.08,2.27.98,4.31,10.89-4.93,26.18-26.02,43.07-20.57,16.47-50.11,32.74-83.17,45.82-33.06,13.08-65.74,21.43-92,23.5-4.15.33-8.07.49-11.74.49Z" style="fill: #ff57b8;"/>
      <path d="m33.39,150.1c-17.95,0-29.35-4.28-32.57-12.4-.4-1.01-.67-2.08-.81-3.18-.12-.96.56-1.83,1.52-1.95.96-.12,1.83.56,1.95,1.52.1.81.3,1.59.59,2.33,3.24,8.18,18.33,11.68,41.41,9.61,24.1-2.16,54.2-10.01,84.76-22.1,30.56-12.09,57.88-26.97,76.93-41.88,18.24-14.29,26.85-27.17,23.61-35.35-.24-.6-.55-1.19-.91-1.74-.53-.81-.31-1.89.49-2.43.81-.53,1.89-.31,2.43.49.5.76.92,1.56,1.25,2.39,3.9,9.87-4.87,23.85-24.71,39.39-19.3,15.12-46.93,30.17-77.8,42.38-30.86,12.21-61.31,20.14-85.73,22.33-4.42.4-8.57.59-12.41.59Z" style="fill: #ff57b8;"/>
      <path d="m34.13,94.98c-10.34,0-20.04-1.96-22.71-8.72-.52-1.31-.73-2.75-.62-4.26.07-.96.9-1.69,1.87-1.62.96.07,1.69.9,1.62,1.87-.07.99.06,1.9.39,2.73,2.18,5.51,13.7,7.69,30.81,5.83,18.32-2,41.32-8.2,64.74-17.47,23.42-9.27,44.43-20.48,59.16-31.56,13.75-10.35,20.66-19.82,18.48-25.34-.33-.82-.86-1.58-1.59-2.26-.71-.66-.75-1.76-.09-2.47.66-.71,1.76-.75,2.47-.09,1.11,1.03,1.94,2.22,2.46,3.53,3.69,9.33-8.64,21.15-19.63,29.42-14.97,11.27-36.27,22.64-59.98,32.02-23.71,9.38-47.02,15.67-65.65,17.69-3.77.41-7.8.69-11.73.69Z" style="fill: #ff57b8;"/>
      <path d="m51.05,47.26c-6.15,0-9.84-1.46-10.99-4.38-.5-1.25-.46-2.65.11-4.17.34-.91,1.35-1.37,2.25-1.03.91.34,1.37,1.35,1.03,2.25-.25.68-.3,1.24-.13,1.66.65,1.63,5.1,3.01,15.54,1.53,9.87-1.4,22.34-4.95,35.13-10.01,12.79-5.06,24.32-11.01,32.47-16.74,8.62-6.07,10.93-10.12,10.28-11.75-.19-.49-.71-.91-1.54-1.26-.89-.38-1.31-1.4-.93-2.29.38-.89,1.4-1.31,2.29-.93,1.73.73,2.88,1.81,3.43,3.2,1.6,4.05-2.28,9.4-11.52,15.9-8.37,5.89-20.16,11.97-33.2,17.13-13.04,5.16-25.8,8.79-35.93,10.23-3.14.44-5.9.67-8.3.67Z" style="fill: #ff57b8;"/>
      <path d="m82.02,242.81c-15.54,0-28.31-2.63-36.63-8.03-.81-.53-1.04-1.61-.51-2.42.53-.81,1.61-1.04,2.42-.52,20.6,13.37,70.41,8.68,121.15-11.39,50.72-20.07,90.25-50.74,96.14-74.58.23-.94,1.18-1.51,2.12-1.28.94.23,1.51,1.18,1.28,2.12-6.14,24.87-46.54,56.53-98.25,77-31.68,12.54-63.15,19.1-87.71,19.1Z" style="fill: #ff57b8;"/>
      <path d="m116.87,264.47c-11.54,0-21.92-1.55-30.15-4.74-.9-.35-1.35-1.36-1-2.26.35-.9,1.36-1.35,2.26-1,21.4,8.29,58.16,5,91.47-8.18,33.3-13.18,60.36-33.9,70.63-54.09.44-.86,1.49-1.2,2.35-.77.86.44,1.2,1.49.77,2.35-10.64,20.92-38.4,42.28-72.46,55.76-21.42,8.48-44.32,12.93-63.87,12.93Z" style="fill: #ff57b8;"/>
    </g>
  </g>
</svg>