<?xml version="1.0" encoding="UTF-8"?>
<svg id="Layer_2" data-name="Layer 2" xmlns="http://www.w3.org/2000/svg" viewBox="0 0 90.53 87.2">
  <g id="_ÎÓÈ_1" data-name="—ÎÓÈ_1">
    <g style="fill: none; isolation: isolate;">
      <path d="m55.59,87.2c-.38,0-.76-.1-1.1-.3-.65-.39-1.05-1.09-1.05-1.85l-.11-57.57c0-.79.43-1.52,1.12-1.89L87.24,7.76c.66-.36,1.47-.35,2.12.04.65.39,1.05,1.09,1.05,1.85l.11,57.57c0,.79-.43,1.52-1.12,1.89l-32.78,17.83c-.32.17-.67.26-1.03.26Zm2.04-58.44l.1,52.68,28.49-15.5-.1-52.68-28.49,15.5Z" style="fill: #ff57b8;"/>
      <path d="m55.49,29.63c-.1,0-.2,0-.3-.02L1.85,22.11c-.92-.13-1.65-.83-1.82-1.75-.17-.91.27-1.83,1.09-2.27L33.9.26c.41-.22.87-.3,1.33-.24l53.34,7.5c.92.13,1.65.83,1.82,1.75.17.91-.27,1.83-1.09,2.27l-32.78,17.83c-.32.17-.67.26-1.03.26ZM8.9,18.76l46.19,6.49,26.44-14.38-46.19-6.49-26.44,14.38Z" style="fill: #ff57b8;"/>
      <path d="m55.59,87.2c-.1,0-.2,0-.3-.02L1.96,79.68c-1.06-.15-1.85-1.05-1.85-2.12L0,19.99c0-.62.27-1.22.74-1.63.47-.41,1.09-.59,1.71-.51l53.34,7.5c1.06.15,1.85,1.05,1.85,2.13l.11,57.57c0,.62-.27,1.22-.74,1.63-.39.34-.9.53-1.41.53Zm-51.19-11.52l49.04,6.89-.1-53.22L4.3,22.46l.1,53.22Z" style="fill: #ff57b8;"/>
    </g>
  </g>
</svg>