<?xml version="1.0" encoding="UTF-8"?>
<svg id="Layer_2" data-name="Layer 2" xmlns="http://www.w3.org/2000/svg" viewBox="0 0 143.43 143.43">
  <g id="_ÎÓÈ_1" data-name="—ÎÓÈ_1">
    <path d="m71.71,143.43c-.85,0-1.62-.5-1.97-1.28l-14.02-31.83-32.42,12.6c-.79.31-1.7.12-2.3-.48-.6-.6-.79-1.5-.48-2.3l12.59-32.42L1.28,73.68c-.78-.34-1.28-1.12-1.28-1.97s.5-1.62,1.28-1.97l31.83-14.02-12.59-32.42c-.31-.79-.12-1.7.48-2.3.6-.6,1.5-.79,2.3-.48l32.42,12.6L69.75,1.28c.34-.78,1.12-1.28,1.97-1.28s1.62.5,1.97,1.28l14.02,31.83,32.42-12.6c.79-.31,1.69-.12,2.3.48.6.6.79,1.5.48,2.3l-12.59,32.42,31.83,14.02c.78.34,1.28,1.12,1.28,1.97s-.5,1.62-1.28,1.97l-31.83,14.02,12.59,32.42c.31.79.12,1.7-.48,2.3-.6.6-1.51.79-2.3.48l-32.42-12.6-14.02,31.83c-.34.78-1.12,1.28-1.97,1.28Zm-14.85-38.01c.83,0,1.62.48,1.97,1.28l12.88,29.25,12.88-29.25c.46-1.05,1.67-1.55,2.75-1.14l29.79,11.57-11.57-29.79c-.42-1.07.09-2.28,1.14-2.75l29.25-12.88-29.25-12.88c-1.05-.46-1.55-1.67-1.14-2.75l11.57-29.79-29.79,11.57c-1.07.42-2.28-.09-2.75-1.14l-12.88-29.25-12.88,29.25c-.46,1.05-1.67,1.55-2.75,1.14l-29.79-11.57,11.57,29.79c.42,1.07-.08,2.28-1.14,2.75l-29.25,12.88,29.25,12.88c1.05.46,1.55,1.67,1.14,2.75l-11.57,29.79,29.79-11.57c.25-.1.52-.15.78-.15Z" style="fill: #ff57b8;"/>
  </g>
</svg>