<?xml version="1.0" encoding="UTF-8"?>
<svg id="Layer_2" data-name="Layer 2" xmlns="http://www.w3.org/2000/svg" viewBox="0 0 285.21 174.64">
  <g id="_ÎÓÈ_1" data-name="—ÎÓÈ_1">
    <g>
      <path d="m52.31,174.64c-15.39,0-28.52-4.88-37.97-14.33C1.44,147.41-2.95,127.66,1.96,104.68c4.84-22.64,18.18-45.78,37.56-65.16C58.9,20.15,82.04,6.81,104.68,1.96c22.98-4.92,42.73-.52,55.62,12.37,12.89,12.89,17.29,32.65,12.37,55.62-4.84,22.64-18.18,45.78-37.56,65.16-19.38,19.38-42.52,32.72-65.16,37.56-6.14,1.31-12.05,1.96-17.65,1.96ZM122.32,4.3c-5.3,0-10.9.62-16.73,1.86-21.84,4.67-44.22,17.6-63.02,36.4C23.77,61.37,10.84,83.75,6.17,105.58c-4.6,21.5-.62,39.86,11.21,51.68,11.83,11.83,30.18,15.81,51.68,11.21,21.84-4.67,44.22-17.6,63.02-36.4,18.8-18.8,31.73-41.18,36.4-63.02,4.6-21.5.62-39.86-11.21-51.68-8.62-8.62-20.71-13.07-34.95-13.07Z" style="fill: #ff57b8;"/>
      <path d="m163,174.54c-15.02,0-28.37-4.6-38-14.23-12.89-12.89-17.29-32.65-12.37-55.62,4.84-22.64,18.18-45.78,37.56-65.16C169.57,20.15,192.72,6.81,215.36,1.96c22.98-4.92,42.73-.52,55.62,12.37,26.35,26.36,15.05,80.54-25.19,120.78-25.54,25.54-56.69,39.42-82.79,39.42ZM232.99,4.3c-5.3,0-10.9.62-16.73,1.86-21.84,4.67-44.22,17.6-63.02,36.4-18.8,18.8-31.73,41.18-36.4,63.02-4.6,21.5-.62,39.86,11.21,51.68,8.85,8.85,21.14,13.07,35.04,13.07,24.88,0,54.92-13.52,79.66-38.26,38.57-38.57,49.87-90.02,25.19-114.7-8.62-8.62-20.71-13.07-34.95-13.07Z" style="fill: #ff57b8;"/>
    </g>
  </g>
</svg>