<?xml version="1.0" encoding="UTF-8"?>
<svg id="Layer_2" data-name="Layer 2" xmlns="http://www.w3.org/2000/svg" viewBox="0 0 733.92 102.6">
  <g id="_ÎÓÈ_1" data-name="—ÎÓÈ_1">
    <path d="m705.27,102.6c-10.67,0-20.73-6.8-28.33-19.15l-38.2-62.05c-6.79-11.03-15.55-17.1-24.67-17.1-9.12,0-17.88,6.07-24.67,17.1l-38.2,62.05c-7.6,12.35-17.66,19.15-28.33,19.15,0,0,0,0,0,0-10.67,0-20.73-6.8-28.33-19.15l-38.21-62.05c-6.79-11.03-15.55-17.1-24.67-17.1s-17.88,6.07-24.67,17.1l-38.2,62.05c-7.6,12.35-17.66,19.15-28.33,19.15-10.67,0-20.73-6.8-28.33-19.15l-38.21-62.05c-6.79-11.03-15.55-17.1-24.67-17.1-9.12,0-17.88,6.07-24.67,17.1l-38.2,62.05c-7.6,12.35-17.66,19.15-28.33,19.15-10.67,0-20.73-6.8-28.33-19.15l-38.2-62.05c-6.79-11.03-15.55-17.1-24.67-17.1s-17.88,6.07-24.67,17.1L3.98,83.45c-.62,1.01-1.95,1.33-2.96.7s-1.33-1.95-.7-2.96L38.52,19.15C46.13,6.8,56.19,0,66.85,0s20.73,6.8,28.33,19.15l38.2,62.05c6.79,11.03,15.55,17.1,24.67,17.1,9.12,0,17.88-6.07,24.67-17.1l38.2-62.05C228.53,6.8,238.59,0,249.26,0h0c10.67,0,20.73,6.8,28.33,19.15l38.21,62.05c6.79,11.03,15.55,17.1,24.67,17.1s17.88-6.07,24.67-17.1l38.2-62.05C410.94,6.8,421,0,431.66,0s20.73,6.8,28.33,19.15l38.21,62.05c6.79,11.03,15.55,17.1,24.67,17.1,9.12,0,17.88-6.07,24.67-17.1l38.2-62.05C593.34,6.8,603.4,0,614.07,0c10.67,0,20.73,6.8,28.33,19.15l38.2,62.05c6.79,11.03,15.55,17.1,24.67,17.1s17.88-6.07,24.67-17.1c.62-1.01,1.95-1.33,2.96-.7,1.01.62,1.33,1.95.7,2.96-7.6,12.35-17.66,19.15-28.33,19.15Z" style="fill: #ff57b8;"/>
  </g>
</svg>