<?xml version="1.0" encoding="UTF-8"?>
<svg id="Layer_2" data-name="Layer 2" xmlns="http://www.w3.org/2000/svg" viewBox="0 0 196.03 256.43">
  <g id="_ÎÓÈ_1" data-name="—ÎÓÈ_1">
    <path d="m195.59,160.97c-2.31-23.11-13.45-43.93-31.37-58.6L40.32.94c-1.05-.89-2.88-1.47-5.98-.21-6.92,2.8-17.8,13.76-24.77,24.94-3.6,5.78-7.28,13.39-4.36,16.86.16.19.35.38.57.56l123.92,101.44c6.68,5.47,10.84,13.23,11.69,21.85.86,8.62-1.68,17.04-7.15,23.73-11.31,13.82-31.76,15.86-45.57,4.54l-52.55-43.02s-.09-.07-.13-.11l-.08-.07c-.14-.12-.3-.2-.46-.27-1.11-.57-2.78-.74-5.27.27-6.92,2.8-17.8,13.76-24.77,24.94-3.6,5.78-7.28,13.39-4.36,16.86,0,0,.01.01.02.02.1.13.2.24.32.35l.15.12s.06.05.09.07l52.53,43c15.64,12.8,34.84,19.62,54.83,19.62,2.92,0,5.86-.15,8.81-.44,23.11-2.3,43.93-13.45,58.6-31.37,14.68-17.93,21.49-40.53,19.18-63.64Zm-78.18,91.04c-22.05,2.2-43.61-4.3-60.71-18.3L7.89,193.75c6.93-3.03,17.54-13.78,24.39-24.76,2.17-3.49,4.36-7.64,5.13-11.15l48.74,39.9c15.52,12.71,38.49,10.42,51.2-5.11,6.15-7.51,9-16.98,8.04-26.66-.97-9.68-5.63-18.4-13.14-24.55L12.05,43.04c6.93-3.03,17.54-13.78,24.39-24.76,2.17-3.49,4.36-7.64,5.13-11.15l120.12,98.34c17.1,14,27.73,33.85,29.93,55.9,2.2,22.05-4.3,43.61-18.3,60.71-14,17.1-33.85,27.73-55.9,29.93ZM31.68,155.15c1.02-.41,1.56-.45,1.78-.45.07,0,.11,0,.11,0,.3.46.4,4.01-4.69,12.17-6.37,10.21-16.84,20.9-22.87,23.35-1.01.41-1.56.44-1.78.44-.07,0-.11,0-.11,0-.3-.46-.4-4.01,4.69-12.17,6.36-10.21,16.84-20.9,22.87-23.35ZM35.84,4.43c1.02-.41,1.56-.45,1.78-.45.07,0,.11,0,.11,0,.3.46.4,4.01-4.69,12.17-6.36,10.21-16.84,20.9-22.87,23.35-1.02.41-1.56.45-1.78.45-.07,0-.11,0-.11,0-.3-.46-.4-4.01,4.69-12.17,6.37-10.21,16.84-20.9,22.88-23.35Z" style="fill: #ff57b8;"/>
  </g>
</svg>