<?xml version="1.0" encoding="UTF-8"?>
<svg id="Layer_2" data-name="Layer 2" xmlns="http://www.w3.org/2000/svg" viewBox="0 0 150.11 150.11">
  <g id="_ÎÓÈ_1" data-name="—ÎÓÈ_1">
    <g>
      <g>
        <path d="m75.05,150.11c-1.19,0-2.15-.96-2.15-2.15V2.15c0-1.19.96-2.15,2.15-2.15s2.15.96,2.15,2.15v145.81c0,1.19-.96,2.15-2.15,2.15Z" style="fill: #ff57b8;"/>
        <path d="m147.96,77.2H2.15c-1.19,0-2.15-.96-2.15-2.15s.96-2.15,2.15-2.15h145.81c1.19,0,2.15.96,2.15,2.15s-.96,2.15-2.15,2.15Z" style="fill: #ff57b8;"/>
        <path d="m23.5,128.76c-.55,0-1.1-.21-1.52-.63-.84-.84-.84-2.2,0-3.04L125.08,21.98c.84-.84,2.2-.84,3.04,0,.84.84.84,2.2,0,3.04L25.02,128.13c-.42.42-.97.63-1.52.63Z" style="fill: #ff57b8;"/>
        <path d="m126.61,128.76c-.55,0-1.1-.21-1.52-.63L21.98,25.02c-.84-.84-.84-2.2,0-3.04.84-.84,2.2-.84,3.04,0l103.1,103.1c.84.84.84,2.2,0,3.04-.42.42-.97.63-1.52.63Z" style="fill: #ff57b8;"/>
      </g>
      <g>
        <path d="m93.92,147.63c-.95,0-1.82-.63-2.08-1.59L54.11,5.19c-.31-1.15.37-2.33,1.52-2.63,1.15-.31,2.33.37,2.63,1.52l37.74,140.84c.31,1.15-.37,2.33-1.52,2.63-.19.05-.37.07-.56.07Z" style="fill: #ff57b8;"/>
        <path d="m4.63,96.07c-.95,0-1.82-.63-2.08-1.59-.31-1.15.37-2.33,1.52-2.63l140.84-37.74c1.15-.31,2.33.37,2.63,1.52.31,1.15-.37,2.33-1.52,2.63L5.19,96c-.19.05-.37.07-.56.07Z" style="fill: #ff57b8;"/>
        <path d="m38.6,140.34c-.37,0-.73-.09-1.07-.29-1.03-.59-1.38-1.91-.79-2.94L109.64,10.84c.59-1.03,1.91-1.38,2.94-.79,1.03.59,1.38,1.91.79,2.94l-72.9,126.27c-.4.69-1.12,1.08-1.86,1.08Z" style="fill: #ff57b8;"/>
        <path d="m138.19,113.66c-.37,0-.73-.09-1.07-.29L10.84,40.46c-1.03-.59-1.38-1.91-.79-2.94.59-1.03,1.91-1.38,2.94-.79l126.27,72.9c1.03.59,1.38,1.91.79,2.94-.4.69-1.12,1.08-1.86,1.08Z" style="fill: #ff57b8;"/>
      </g>
      <g>
        <path d="m111.51,140.34c-.74,0-1.47-.39-1.86-1.08L36.74,12.99c-.59-1.03-.24-2.34.79-2.94,1.03-.59,2.34-.24,2.94.79l72.9,126.27c.59,1.03.24,2.34-.79,2.94-.34.2-.71.29-1.07.29Z" style="fill: #ff57b8;"/>
        <path d="m11.92,113.66c-.74,0-1.47-.39-1.86-1.08-.59-1.03-.24-2.34.79-2.94l126.27-72.9c1.03-.59,2.34-.24,2.94.79.59,1.03.24,2.34-.79,2.94L12.99,113.37c-.34.2-.71.29-1.07.29Z" style="fill: #ff57b8;"/>
        <path d="m56.19,147.63c-.18,0-.37-.02-.56-.07-1.15-.31-1.83-1.49-1.52-2.63L91.85,4.08c.31-1.15,1.48-1.83,2.63-1.52,1.15.31,1.83,1.49,1.52,2.63l-37.74,140.84c-.26.96-1.13,1.59-2.08,1.59Z" style="fill: #ff57b8;"/>
        <path d="m145.48,96.07c-.18,0-.37-.02-.56-.07L4.08,58.26c-1.15-.31-1.83-1.49-1.52-2.63.31-1.15,1.48-1.83,2.63-1.52l140.84,37.74c1.15.31,1.83,1.49,1.52,2.63-.26.96-1.13,1.59-2.08,1.59Z" style="fill: #ff57b8;"/>
      </g>
    </g>
  </g>
</svg>