<?xml version="1.0" encoding="UTF-8"?>
<svg id="Layer_2" data-name="Layer 2" xmlns="http://www.w3.org/2000/svg" viewBox="0 0 534.87 101.27">
  <g id="_ÎÓÈ_1" data-name="—ÎÓÈ_1">
    <g>
      <path d="m494.83,35.16c-16.19,0-30.97-6.05-39.54-16.19-7.76-9.19-21.32-14.67-36.25-14.67s-28.49,5.48-36.26,14.67c-8.57,10.14-23.35,16.19-39.54,16.19s-30.97-6.05-39.54-16.19c-7.76-9.19-21.32-14.67-36.26-14.67-14.94,0-28.49,5.48-36.25,14.67-8.57,10.14-23.35,16.19-39.54,16.19h0c-16.19,0-30.97-6.05-39.54-16.19-7.76-9.19-21.32-14.67-36.26-14.67-14.94,0-28.49,5.48-36.25,14.67-8.57,10.14-23.35,16.19-39.54,16.19S9.08,29.11.51,18.97c-.77-.91-.65-2.26.25-3.03.91-.77,2.26-.65,3.03.25,7.76,9.19,21.32,14.67,36.25,14.67s28.49-5.48,36.26-14.67C84.87,6.05,99.65,0,115.84,0s30.97,6.05,39.54,16.19c7.76,9.19,21.32,14.67,36.26,14.67,14.94,0,28.49-5.48,36.26-14.67C236.46,6.05,251.25,0,267.44,0c16.19,0,30.97,6.05,39.54,16.19,7.76,9.19,21.31,14.67,36.25,14.67,14.94,0,28.49-5.48,36.26-14.67C388.06,6.05,402.84,0,419.03,0s30.97,6.05,39.54,16.19c7.76,9.19,21.32,14.67,36.26,14.67,14.94,0,28.49-5.48,36.25-14.67.77-.91,2.12-1.02,3.03-.25.91.77,1.02,2.12.25,3.03-8.57,10.14-23.35,16.19-39.54,16.19Z" style="fill: #ff57b8;"/>
      <path d="m494.83,68.22c-16.19,0-30.97-6.05-39.54-16.19-7.76-9.19-21.32-14.67-36.25-14.67-14.94,0-28.49,5.48-36.26,14.67-8.57,10.14-23.35,16.19-39.54,16.19s-30.97-6.05-39.54-16.19c-7.76-9.19-21.32-14.67-36.26-14.67-14.94,0-28.49,5.48-36.25,14.67-8.57,10.14-23.35,16.19-39.54,16.19h0c-16.19,0-30.97-6.05-39.54-16.19-7.76-9.19-21.32-14.67-36.26-14.67-14.94,0-28.49,5.48-36.25,14.67-8.57,10.14-23.35,16.19-39.54,16.19S9.08,62.16.51,52.02c-.77-.91-.65-2.26.25-3.03.91-.77,2.26-.65,3.03.25,7.76,9.19,21.32,14.67,36.26,14.67,14.94,0,28.49-5.48,36.25-14.67,8.57-10.14,23.35-16.19,39.54-16.19s30.97,6.05,39.54,16.19c7.76,9.19,21.32,14.67,36.26,14.67s28.49-5.48,36.26-14.67c8.57-10.14,23.35-16.19,39.54-16.19,16.19,0,30.97,6.05,39.54,16.19,7.76,9.19,21.32,14.67,36.25,14.67s28.49-5.48,36.26-14.67c8.57-10.14,23.35-16.19,39.54-16.19s30.97,6.05,39.54,16.19c7.76,9.19,21.32,14.67,36.26,14.67,14.94,0,28.49-5.48,36.25-14.67.77-.91,2.12-1.02,3.03-.25.91.77,1.02,2.12.25,3.03-8.57,10.14-23.35,16.19-39.54,16.19Z" style="fill: #ff57b8;"/>
      <path d="m494.83,101.27c-16.19,0-30.97-6.05-39.54-16.19-7.76-9.19-21.32-14.67-36.25-14.67-14.94,0-28.49,5.48-36.26,14.67-8.57,10.14-23.35,16.19-39.54,16.19-16.19,0-30.97-6.05-39.54-16.19-7.76-9.19-21.32-14.67-36.26-14.67-14.94,0-28.49,5.48-36.25,14.67-8.57,10.14-23.35,16.19-39.54,16.19h0c-16.19,0-30.97-6.05-39.54-16.19-7.76-9.19-21.32-14.67-36.26-14.67-14.94,0-28.49,5.48-36.25,14.67-8.57,10.14-23.35,16.19-39.54,16.19-16.19,0-30.97-6.05-39.54-16.19-.77-.91-.65-2.26.25-3.03.91-.77,2.26-.65,3.03.25,7.76,9.19,21.32,14.67,36.25,14.67s28.49-5.48,36.26-14.67c8.57-10.14,23.35-16.19,39.54-16.19,16.19,0,30.97,6.05,39.54,16.19,7.76,9.19,21.32,14.67,36.26,14.67,14.94,0,28.49-5.48,36.26-14.67,8.57-10.14,23.35-16.19,39.54-16.19,16.19,0,30.97,6.05,39.54,16.19,7.76,9.19,21.31,14.67,36.25,14.67,14.94,0,28.49-5.48,36.26-14.67,8.57-10.14,23.35-16.19,39.54-16.19,16.19,0,30.97,6.05,39.54,16.19,7.76,9.19,21.32,14.67,36.26,14.67,14.94,0,28.49-5.48,36.25-14.67.77-.91,2.12-1.02,3.03-.25.91.77,1.02,2.12.25,3.03-8.57,10.14-23.35,16.19-39.54,16.19Z" style="fill: #ff57b8;"/>
    </g>
  </g>
</svg>