<?xml version="1.0" encoding="UTF-8"?>
<svg id="Layer_2" data-name="Layer 2" xmlns="http://www.w3.org/2000/svg" viewBox="0 0 455.87 103.68">
  <g id="_ÎÓÈ_1" data-name="—ÎÓÈ_1">
    <path d="m371.86,103.68c-4.35,0-10.62-3.43-15.84-19.77l-20.1-62.92c-3.4-10.64-7.9-16.99-12.03-16.99-4.14,0-8.64,6.35-12.03,16.99l-20.1,62.92c-5.22,16.34-11.5,19.77-15.84,19.77-4.35,0-10.62-3.43-15.84-19.77l-20.1-62.92c-3.4-10.64-7.9-16.99-12.03-16.99-4.14,0-8.64,6.35-12.03,16.99l-20.1,62.92c-5.22,16.34-11.5,19.77-15.84,19.77-4.35,0-10.62-3.43-15.84-19.77l-20.1-62.92c-3.4-10.64-7.9-16.99-12.03-16.99-4.14,0-8.64,6.35-12.03,16.99l-20.1,62.92c-5.22,16.34-11.5,19.77-15.84,19.77-4.35,0-10.62-3.43-15.84-19.77l-20.1-62.92c-3.4-10.64-7.9-16.99-12.03-16.99-4.14,0-8.64,6.35-12.03,16.99L3.91,83.91c-.34,1.05-1.46,1.63-2.51,1.3-1.05-.34-1.63-1.46-1.3-2.51L20.19,19.77C25.41,3.43,31.69,0,36.04,0c4.35,0,10.62,3.43,15.84,19.77l20.1,62.92c3.4,10.64,7.9,16.99,12.03,16.99,4.14,0,8.64-6.35,12.03-16.99l20.1-62.92C121.36,3.43,127.64,0,131.99,0c4.35,0,10.62,3.43,15.84,19.77l20.1,62.92c3.4,10.64,7.9,16.99,12.03,16.99,4.14,0,8.64-6.35,12.03-16.99l20.1-62.92C217.31,3.43,223.59,0,227.93,0c4.35,0,10.62,3.43,15.84,19.77l20.1,62.92c3.4,10.64,7.9,16.99,12.03,16.99,4.14,0,8.64-6.35,12.03-16.99l20.1-62.92C313.26,3.43,319.54,0,323.88,0c4.35,0,10.62,3.43,15.84,19.77l20.1,62.92c3.4,10.64,7.9,16.99,12.03,16.99,4.14,0,8.64-6.35,12.03-16.99l20.1-62.92C409.21,3.43,415.49,0,419.83,0c4.35,0,10.62,3.43,15.84,19.77l20.1,62.92c.34,1.05-.24,2.18-1.3,2.51-1.05.34-2.18-.24-2.51-1.3l-20.1-62.92c-3.4-10.64-7.9-16.99-12.03-16.99-4.14,0-8.64,6.35-12.03,16.99l-20.1,62.92c-5.22,16.34-11.5,19.77-15.84,19.77Z" style="fill: #ff57b8;"/>
  </g>
</svg>