<?xml version="1.0" encoding="UTF-8"?>
<svg id="Layer_2" data-name="Layer 2" xmlns="http://www.w3.org/2000/svg" viewBox="0 0 191.55 191.55">
  <g id="_ÎÓÈ_1" data-name="—ÎÓÈ_1">
    <g>
      <g>
        <path d="m95.78,191.55c-1.1,0-2-.9-2-2V2c0-1.1.9-2,2-2s2,.9,2,2v187.55c0,1.1-.9,2-2,2Z" style="fill: #ff57b8;"/>
        <path d="m189.55,97.78H2c-1.1,0-2-.9-2-2s.9-2,2-2h187.55c1.1,0,2,.9,2,2s-.9,2-2,2Z" style="fill: #ff57b8;"/>
        <path d="m29.47,164.09c-.51,0-1.02-.2-1.41-.59-.78-.78-.78-2.05,0-2.83L160.67,28.05c.78-.78,2.05-.78,2.83,0,.78.78.78,2.05,0,2.83L30.88,163.5c-.39.39-.9.59-1.41.59Z" style="fill: #ff57b8;"/>
        <path d="m162.09,164.09c-.51,0-1.02-.2-1.41-.59L28.05,30.88c-.78-.78-.78-2.05,0-2.83.78-.78,2.05-.78,2.83,0l132.62,132.62c.78.78.78,2.05,0,2.83-.39.39-.9.59-1.41.59Z" style="fill: #ff57b8;"/>
      </g>
      <g>
        <path d="m131.59,184.45c-.79,0-1.53-.47-1.85-1.24L58.12,9.87c-.42-1.02.06-2.19,1.08-2.61,1.02-.42,2.19.06,2.61,1.08l71.62,173.34c.42,1.02-.06,2.19-1.08,2.61-.25.1-.51.15-.76.15Z" style="fill: #ff57b8;"/>
        <path d="m9.11,133.59c-.79,0-1.53-.47-1.85-1.24-.42-1.02.06-2.19,1.08-2.61L181.68,58.12c1.02-.42,2.19.06,2.61,1.08.42,1.02-.06,2.19-1.08,2.61L9.87,133.44c-.25.1-.51.15-.76.15Z" style="fill: #ff57b8;"/>
        <path d="m59.81,184.39c-.26,0-.52-.05-.77-.15-1.02-.42-1.5-1.59-1.08-2.61L129.89,8.4c.42-1.02,1.59-1.5,2.61-1.08,1.02.42,1.5,1.59,1.08,2.61L61.66,183.15c-.32.77-1.06,1.23-1.85,1.23Z" style="fill: #ff57b8;"/>
        <path d="m182.38,133.74c-.26,0-.52-.05-.77-.15L8.4,61.66c-1.02-.42-1.5-1.59-1.08-2.61.42-1.02,1.59-1.5,2.61-1.08l173.21,71.93c1.02.42,1.5,1.59,1.08,2.61-.32.77-1.06,1.23-1.85,1.23Z" style="fill: #ff57b8;"/>
      </g>
    </g>
  </g>
</svg>