<?xml version="1.0" encoding="UTF-8"?>
<svg id="Layer_2" data-name="Layer 2" xmlns="http://www.w3.org/2000/svg" viewBox="0 0 337.8 337.76">
  <g id="_ÎÓÈ_1" data-name="—ÎÓÈ_1">
    <g>
      <path d="m168.9,337.76C75.78,337.76.02,262,.02,168.88S75.78,0,168.9,0s168.88,75.76,168.88,168.88-75.76,168.88-168.88,168.88Zm0-334.26C77.71,3.5,3.52,77.69,3.52,168.88s74.19,165.38,165.38,165.38,165.38-74.19,165.38-165.38S260.09,3.5,168.9,3.5Z" style="fill: #ff57b8;"/>
      <g>
        <path d="m156.98,337.38c-.35,0-.7-.11-1.01-.32-6.22-4.42-17.24-16.62-21.22-48.68-5.54-44.61-5.8-77.81-1.02-131.56C143.28,49.24,155.69,19.66,167.68,3.73c2.42-3.22,5.01-3.75,8.13-3.56.96.06,1.7.89,1.64,1.85-.06.96-.86,1.7-1.86,1.64-2.3-.14-3.59.14-5.12,2.17-11.67,15.52-23.79,44.59-33.26,151.29-4.75,53.47-4.5,86.48,1.01,130.82,2.79,22.44,10,39.31,19.78,46.26.79.56.97,1.65.41,2.44-.34.48-.88.74-1.43.74Z" style="fill: #ff57b8;"/>
        <path d="m138.1,335c-.13,0-.26-.01-.4-.05-13.74-3.18-45.93-10.62-62.43-58-16.19-46.46-11.13-82.58-2.23-128.53,9.16-47.27,23.45-82.24,43.69-106.9,17.42-21.22,36.04-30.92,52.13-38.33,3.4-1.57,7.26-2.42,12.14-2.69.94-.05,1.79.69,1.84,1.65.05.97-.69,1.79-1.65,1.84-4.48.24-7.83.97-10.86,2.37-35.16,16.21-74.32,41.94-93.85,142.72-8.8,45.41-13.8,81.08,2.1,126.72,15.87,45.56,45.62,52.44,59.92,55.74.94.22,1.53,1.16,1.31,2.1-.19.81-.91,1.36-1.7,1.36Z" style="fill: #ff57b8;"/>
        <path d="m69.1,304.22c-.41,0-.83-.15-1.16-.44-1.05-.93-2.12-1.86-3.21-2.81-9.46-8.2-20.18-17.5-30.35-41.3-18.68-43.74-20.09-85.36-4.31-127.25C67.74,32.4,124.14,16.15,169.46,3.1c4.14-1.19,11.51-1.28,17.43-1.34,1.91-.02,3.71-.04,5.18-.1,1.01-.04,1.78.72,1.81,1.68.04.97-.72,1.78-1.68,1.81-1.51.06-3.34.08-5.27.1-5.71.06-12.82.14-16.5,1.21-44.57,12.84-100.04,28.81-137.09,127.19-15.44,41-14.05,81.77,4.26,124.64,9.85,23.06,20.25,32.08,29.42,40.03,1.1.96,2.18,1.89,3.25,2.84.72.64.79,1.75.14,2.47-.35.39-.83.59-1.31.59Z" style="fill: #ff57b8;"/>
        <path d="m10.71,116.19c-.25,0-.5-.05-.74-.17-.88-.41-1.25-1.45-.84-2.33C26.68,76.31,52.28,47.59,85.22,28.34,117.68,9.36,149.41,4.1,170.32,3.03c6.5-.33,33.13.98,45.77,3.7.95.2,1.55,1.13,1.34,2.08-.2.95-1.14,1.55-2.08,1.34-12.15-2.61-38.67-3.94-44.86-3.62-33.02,1.69-114.54,15.67-158.21,108.66-.3.63-.93,1.01-1.58,1.01Z" style="fill: #ff57b8;"/>
      </g>
      <g>
        <path d="m180.67,337.38c-.55,0-1.09-.26-1.43-.74-.56-.79-.38-1.88.41-2.44,9.78-6.96,16.99-23.82,19.78-46.26,5.51-44.34,5.76-77.35,1.01-130.82-9.48-106.7-21.59-135.77-33.26-151.29-1.53-2.03-2.82-2.31-5.12-2.17-.98.06-1.8-.67-1.86-1.64-.06-.96.67-1.8,1.64-1.85,3.13-.19,5.71.34,8.13,3.56,11.99,15.94,24.4,45.51,33.95,153.09,4.77,53.75,4.52,86.95-1.02,131.56-3.98,32.06-15.01,44.26-21.22,48.68-.31.22-.66.32-1.01.32Z" style="fill: #ff57b8;"/>
        <path d="m199.56,335c-.8,0-1.52-.55-1.7-1.36-.22-.94.37-1.88,1.31-2.1,14.3-3.31,44.04-10.18,59.92-55.74,15.9-45.63,10.9-81.31,2.1-126.72C241.65,48.31,202.5,22.58,167.34,6.37c-3.03-1.4-6.38-2.13-10.86-2.37-.96-.05-1.7-.88-1.65-1.84.05-.97.89-1.71,1.84-1.65,4.88.26,8.74,1.12,12.14,2.69,16.09,7.42,34.71,17.11,52.13,38.33,20.24,24.66,34.53,59.63,43.69,106.9,8.91,45.95,13.96,82.07-2.23,128.53-16.51,47.38-48.69,54.82-62.43,58-.13.03-.27.05-.4.05Z" style="fill: #ff57b8;"/>
        <path d="m268.55,304.22c-.48,0-.96-.2-1.31-.59-.64-.72-.58-1.83.14-2.47,1.06-.94,2.14-1.88,3.25-2.84,9.17-7.95,19.57-16.97,29.42-40.03,18.31-42.87,19.7-83.64,4.26-124.64C267.26,35.28,211.79,19.3,167.23,6.46c-3.69-1.06-10.79-1.14-16.5-1.21-1.93-.02-3.76-.04-5.27-.1-.97-.04-1.72-.85-1.68-1.81.04-.97.84-1.72,1.81-1.68,1.46.05,3.27.07,5.18.1,5.92.07,13.29.15,17.43,1.34,45.32,13.05,101.72,29.3,139.39,129.32,15.77,41.88,14.36,83.51-4.31,127.25-10.17,23.8-20.89,33.1-30.35,41.3-1.09.95-2.16,1.87-3.21,2.81-.33.3-.75.44-1.16.44Z" style="fill: #ff57b8;"/>
        <path d="m326.95,116.19c-.66,0-1.29-.37-1.58-1.01C281.69,22.19,200.18,8.22,167.16,6.53c-6.19-.32-32.71,1.01-44.86,3.62-.94.2-1.88-.4-2.08-1.34-.2-.94.4-1.88,1.34-2.08,12.64-2.72,39.27-4.03,45.77-3.7,20.91,1.07,52.65,6.33,85.1,25.31,32.94,19.26,58.54,47.98,76.1,85.36.41.87.04,1.92-.84,2.33-.24.11-.49.17-.74.17Z" style="fill: #ff57b8;"/>
      </g>
      <path d="m168.9,230.48c-44.82,0-86.97-5.37-118.71-15.13C17.83,205.4,0,191.9,0,177.34c0-.97.78-1.75,1.75-1.75s1.75.78,1.75,1.75c0,12.7,17.39,25.34,47.72,34.66,31.41,9.66,73.2,14.97,117.68,14.97s86.27-5.32,117.68-14.97c30.33-9.32,47.72-21.96,47.72-34.66,0-.97.78-1.75,1.75-1.75s1.75.78,1.75,1.75c0,14.56-17.83,28.06-50.19,38.01-31.73,9.75-73.89,15.13-118.71,15.13Z" style="fill: #ff57b8;"/>
      <path d="m168.9,158.82c-88.46,0-157.76-21.03-157.76-47.88,0-1.33.17-2.67.51-3.99.24-.94,1.2-1.5,2.13-1.26.94.24,1.5,1.19,1.26,2.13-.27,1.03-.4,2.08-.4,3.12,0,11.31,16.2,22.59,44.44,30.94,29.31,8.67,68.31,13.44,109.82,13.44s80.51-4.77,109.82-13.44c28.24-8.35,44.44-19.63,44.44-30.94,0-.85-.09-1.71-.27-2.56-.2-.95.4-1.87,1.35-2.07.94-.2,1.87.4,2.07,1.35.23,1.09.35,2.2.35,3.29,0,26.85-69.3,47.88-157.76,47.88Z" style="fill: #ff57b8;"/>
      <path d="m168.9,90.2c-32.13,0-62.35-3.45-85.11-9.7-23.44-6.44-36.35-15.31-36.35-24.96,0-1.71.4-3.43,1.2-5.09.42-.87,1.46-1.24,2.33-.82.87.42,1.24,1.46.82,2.33-.57,1.19-.86,2.39-.86,3.58,0,15.05,47.4,31.16,117.96,31.16s117.96-16.11,117.96-31.16c0-1.19-.29-2.39-.86-3.58-.42-.87-.05-1.92.82-2.33.87-.42,1.92-.05,2.33.82.8,1.67,1.2,3.38,1.2,5.09,0,9.65-12.91,18.52-36.35,24.96-22.76,6.26-52.98,9.7-85.11,9.7Z" style="fill: #ff57b8;"/>
      <path d="m168.53,35.47c-32.65,0-67.34-6.15-67.34-17.54,0-1.58.65-3.11,1.95-4.54.65-.72,1.75-.77,2.47-.13.72.65.77,1.75.13,2.47-.69.77-1.04,1.51-1.04,2.19,0,5.86,24.29,14.04,63.84,14.04s63.84-8.17,63.84-14.04c0-.79-.46-1.64-1.36-2.52-.69-.68-.7-1.79-.02-2.47.68-.69,1.79-.7,2.47-.02,1.6,1.57,2.41,3.26,2.41,5.02,0,11.39-34.7,17.54-67.34,17.54Z" style="fill: #ff57b8;"/>
      <path d="m168.9,289.8c-70.04,0-131.99-18.32-150.64-44.54-.56-.79-.38-1.88.41-2.44.79-.56,1.88-.38,2.44.41,18.04,25.36,78.81,43.07,147.79,43.07s129.73-17.71,147.78-43.06c.56-.79,1.65-.97,2.44-.41.79.56.97,1.65.41,2.44-18.66,26.22-80.61,44.53-150.63,44.53Z" style="fill: #ff57b8;"/>
      <path d="m168.9,327.58c-46.12,0-91.85-13.63-113.79-33.92-.71-.66-.75-1.76-.1-2.47.66-.71,1.76-.75,2.47-.1,21.34,19.73,66.11,32.99,111.42,32.99s86.77-11.8,108.27-30.78c.72-.64,1.83-.57,2.47.15.64.72.57,1.83-.15,2.47-22.11,19.53-64.49,31.66-110.59,31.66Z" style="fill: #ff57b8;"/>
    </g>
  </g>
</svg>