<?xml version="1.0" encoding="UTF-8"?>
<svg id="Layer_2" data-name="Layer 2" xmlns="http://www.w3.org/2000/svg" viewBox="0 0 284.88 284.88">
  <g id="_ÎÓÈ_1" data-name="—ÎÓÈ_1">
    <g>
      <g>
        <path d="m77.54,264.27h-.06c-27.11,0-51.94-2.47-75.9-7.52-1.08-.23-1.77-1.29-1.54-2.37.23-1.08,1.29-1.77,2.37-1.54,23.69,4.99,48.24,7.43,75.08,7.44,19.63.03,38.34-3.1,58.15-6.38,2.16-.36,4.31-.72,6.48-1.07,2.17-.36,4.35-.72,6.52-1.08,19.06-3.16,38.76-6.43,58.67-6.43h.09c27.13.01,51.96,2.47,75.9,7.52,1.08.23,1.77,1.29,1.54,2.37-.23,1.08-1.29,1.77-2.37,1.54-23.66-4.99-48.22-7.42-75.08-7.44-19.6.02-38.31,3.09-58.1,6.37-2.17.36-4.35.72-6.52,1.08-2.16.35-4.31.71-6.47,1.07-19.08,3.16-38.82,6.44-58.75,6.44Z" style="fill: #ff57b8;"/>
        <path d="m70.06,219.35c-24.53,0-47.2-6.25-69.07-19.01-.95-.56-1.28-1.78-.72-2.74.56-.95,1.78-1.28,2.74-.72,23.4,13.65,47.72,19.63,74.37,18.28,20.22-1.02,38.33-8.17,57.5-15.73,2.28-.9,4.56-1.8,6.84-2.69,2.73-1.06,5.47-2.15,8.21-3.24,17.34-6.9,35.26-14.03,54.37-15.28,28.81-1.88,54.84,4.22,79.59,18.66.95.56,1.28,1.78.72,2.74-.56.95-1.78,1.28-2.74.72-24.04-14.02-49.33-19.95-77.32-18.12-18.48,1.21-36.1,8.22-53.15,15.01-2.75,1.09-5.49,2.19-8.24,3.25-2.28.89-4.56,1.78-6.83,2.68-18.63,7.35-37.89,14.94-58.76,16-2.52.13-5.03.19-7.52.19Z" style="fill: #ff57b8;"/>
        <path d="m62.94,170.2c-22,0-42.49-8.67-62.27-26.26-.83-.73-.9-2-.16-2.82.73-.82,2-.9,2.82-.16,23.19,20.64,47.34,28.5,73.82,24.03,21.09-3.56,40.96-13.09,60.18-22.31l8.6-4.12c19.43-9.32,39.53-18.96,61.12-22.59,27.78-4.66,53.01,3.51,77.15,24.99.83.73.9,2,.16,2.82-.73.83-2,.9-2.82.16-23.17-20.62-47.32-28.48-73.83-24.03-21.04,3.53-40.87,13.05-60.06,22.25l-8.6,4.12c-19.47,9.34-39.6,18.99-61.24,22.65-5.04.85-10,1.28-14.88,1.28Z" style="fill: #ff57b8;"/>
        <path d="m70.06,107c-24.53,0-47.2-6.25-69.07-19.01-.95-.56-1.28-1.78-.72-2.74.56-.95,1.78-1.28,2.74-.72,23.4,13.65,47.72,19.63,74.37,18.28,20.22-1.02,38.33-8.17,57.5-15.73,2.28-.9,4.56-1.8,6.84-2.69,2.73-1.06,5.47-2.15,8.21-3.24,17.34-6.9,35.27-14.03,54.37-15.28,28.8-1.88,54.84,4.22,79.59,18.66.95.56,1.28,1.78.72,2.74-.56.95-1.78,1.28-2.74.72-24.04-14.02-49.33-19.95-77.32-18.12-18.48,1.21-36.11,8.22-53.15,15.01-2.75,1.09-5.49,2.19-8.24,3.25-2.28.89-4.56,1.78-6.83,2.68-18.63,7.35-37.89,14.94-58.76,16-2.52.13-5.03.19-7.52.19Z" style="fill: #ff57b8;"/>
        <path d="m77.55,39.57h-.06c-27.11,0-51.94-2.47-75.9-7.52-1.08-.23-1.77-1.29-1.54-2.37.23-1.08,1.29-1.77,2.37-1.54,23.69,4.99,48.24,7.43,75.08,7.44h.06c19.6,0,38.3-3.1,58.09-6.38,2.16-.36,4.31-.72,6.48-1.07,2.18-.36,4.35-.72,6.52-1.08,19.05-3.16,38.76-6.43,58.67-6.43h.09c27.13.01,51.96,2.47,75.9,7.52,1.08.23,1.77,1.29,1.54,2.37-.23,1.08-1.29,1.77-2.37,1.54-23.67-4.99-48.22-7.42-75.08-7.44h-.09c-19.58,0-38.25,3.1-58.01,6.37-2.17.36-4.35.72-6.53,1.08-2.16.35-4.31.71-6.47,1.07-19.08,3.16-38.82,6.44-58.75,6.44Z" style="fill: #ff57b8;"/>
      </g>
      <g>
        <path d="m254.79,284.88c-.14,0-.28-.01-.41-.04-1.08-.23-1.77-1.29-1.54-2.37,4.99-23.69,7.43-48.24,7.43-75.08,0-19.62-3.1-38.34-6.38-58.15-.36-2.16-.72-4.31-1.07-6.48-.36-2.18-.72-4.35-1.08-6.52-3.16-19.08-6.44-38.81-6.43-58.75.01-27.13,2.47-51.96,7.52-75.9.23-1.08,1.29-1.77,2.37-1.54,1.08.23,1.77,1.29,1.54,2.37-4.99,23.67-7.42,48.22-7.44,75.08,0,19.61,3.09,38.3,6.37,58.1.36,2.17.72,4.35,1.08,6.53.35,2.16.71,4.31,1.07,6.47,3.17,19.1,6.44,38.86,6.44,58.81,0,27.11-2.47,51.94-7.52,75.9-.2.94-1.03,1.59-1.95,1.59Z" style="fill: #ff57b8;"/>
        <path d="m198.61,284.88c-.34,0-.69-.09-1.01-.27-.95-.56-1.28-1.78-.72-2.74,13.65-23.4,19.63-47.72,18.28-74.37-1.02-20.22-8.17-38.33-15.72-57.49-.9-2.28-1.8-4.56-2.69-6.84-1.06-2.73-2.15-5.47-3.24-8.21-6.9-17.34-14.03-35.26-15.28-54.37-1.88-28.81,4.22-54.84,18.66-79.59.56-.95,1.78-1.28,2.74-.72.95.56,1.28,1.78.72,2.74-14.02,24.04-19.95,49.33-18.12,77.32,1.21,18.48,8.22,36.1,15.01,53.15,1.09,2.75,2.19,5.49,3.25,8.24.89,2.28,1.78,4.56,2.68,6.83,7.35,18.63,14.94,37.89,16,58.76,1.39,27.45-4.76,52.5-18.81,76.59-.37.64-1.04.99-1.73.99Z" style="fill: #ff57b8;"/>
        <path d="m142.44,284.88c-.47,0-.95-.17-1.33-.51-.83-.73-.9-2-.16-2.82,20.64-23.19,28.5-47.34,24.03-73.82-3.56-21.09-13.09-40.96-22.31-60.18l-4.12-8.6c-9.32-19.43-18.96-39.53-22.59-61.13-4.66-27.78,3.51-53.01,24.99-77.15.73-.83,2-.9,2.82-.16.83.73.9,2,.16,2.82-20.62,23.17-28.48,47.32-24.03,73.83,3.53,21.04,13.05,40.88,22.25,60.06l4.12,8.6c9.34,19.47,18.99,39.6,22.65,61.25,4.69,27.75-3.49,52.99-24.99,77.15-.4.44-.94.67-1.49.67Z" style="fill: #ff57b8;"/>
        <path d="m86.26,284.88c-.34,0-.69-.09-1.01-.27-.95-.56-1.28-1.78-.72-2.74,13.65-23.4,19.63-47.72,18.27-74.37-1.02-20.22-8.17-38.33-15.72-57.49-.9-2.28-1.8-4.56-2.69-6.84-1.06-2.73-2.15-5.47-3.24-8.21-6.9-17.34-14.03-35.27-15.28-54.37-1.88-28.81,4.22-54.84,18.66-79.59.56-.95,1.78-1.28,2.74-.72.95.56,1.28,1.78.72,2.74-14.02,24.04-19.95,49.33-18.12,77.32,1.21,18.48,8.22,36.11,15.01,53.15,1.09,2.75,2.19,5.49,3.25,8.24.89,2.28,1.78,4.56,2.68,6.83,7.35,18.63,14.94,37.89,16,58.76,1.39,27.45-4.76,52.5-18.81,76.59-.37.64-1.04.99-1.73.99Z" style="fill: #ff57b8;"/>
        <path d="m30.09,284.88c-.14,0-.28-.01-.41-.04-1.08-.23-1.77-1.29-1.54-2.37,4.99-23.68,7.43-48.24,7.44-75.08,0-19.62-3.1-38.34-6.38-58.15-.36-2.16-.72-4.32-1.07-6.48-.36-2.17-.72-4.35-1.08-6.52-3.17-19.08-6.44-38.82-6.43-58.76.01-27.13,2.47-51.96,7.52-75.9.23-1.08,1.29-1.77,2.37-1.54,1.08.23,1.77,1.29,1.54,2.37-4.99,23.67-7.42,48.22-7.44,75.08,0,19.61,3.09,38.31,6.37,58.1.36,2.17.72,4.35,1.08,6.52.35,2.16.71,4.32,1.07,6.47,3.17,19.1,6.44,38.85,6.44,58.8,0,27.11-2.47,51.94-7.52,75.9-.2.94-1.03,1.59-1.95,1.59Z" style="fill: #ff57b8;"/>
      </g>
    </g>
  </g>
</svg>