<?xml version="1.0" encoding="UTF-8"?>
<svg id="Layer_2" data-name="Layer 2" xmlns="http://www.w3.org/2000/svg" viewBox="0 0 714.89 637.73">
  <g id="_ÎÓÈ_1" data-name="—ÎÓÈ_1">
    <g>
      <g>
        <g>
          <path d="m357.36,489.85c-43.95,0-93.96-16.03-144.63-46.35-46.86-28.04-92.84-67.8-129.47-111.94-28.96-34.9-51.61-71.93-65.51-107.06C2.63,186.28-2.1,151.3,3.67,120.54c.18-.95,1.09-1.58,2.04-1.4.95.18,1.58,1.09,1.4,2.04-11.01,58.63,17.73,134.49,78.84,208.15,77.93,93.92,186.99,157.02,271.4,157.02.97,0,1.75.78,1.75,1.75s-.78,1.75-1.75,1.75Z" style="fill: #ff57b8;"/>
          <path d="m357.36,161.81c-58.87,0-121.16-17.84-175.37-50.23-43.64-26.07-77.53-59.37-84.33-82.86-3.43-11.85,1.16-17.7,5.61-20.52.82-.52,1.9-.27,2.41.54.52.82.27,1.9-.54,2.41-5.01,3.16-6.39,8.75-4.12,16.59,5.47,18.89,33.18,51.21,82.77,80.83,53.68,32.07,115.33,49.74,173.58,49.74.97,0,1.75.78,1.75,1.75s-.78,1.75-1.75,1.75Z" style="fill: #ff57b8;"/>
          <path d="m357.36,523.73c-73.7,0-168.58-53.38-247.61-139.31-34.63-37.65-63.06-78.5-82.23-118.14C7.01,223.88-2.33,183.63.49,149.89c.08-.96.93-1.68,1.89-1.6.96.08,1.68.93,1.6,1.89-5.48,65.46,35.02,152.15,108.34,231.87,78.39,85.23,172.28,138.18,245.03,138.18.97,0,1.75.78,1.75,1.75s-.78,1.75-1.75,1.75Z" style="fill: #ff57b8;"/>
          <path d="m357.36,138.41c-74.19,0-130.59-27.9-164.85-51.31C152.19,59.55,127.92,27.9,125.55,12.1c-1.15-7.65,2.87-10.08,5.37-10.85.92-.28,1.9.24,2.19,1.16.28.92-.24,1.9-1.16,2.19-.94.29-3.8,1.17-2.93,6.98,2.26,15.07,25.97,45.65,65.47,72.63,33.85,23.13,89.58,50.7,162.87,50.7.97,0,1.75.78,1.75,1.75s-.78,1.75-1.75,1.75Z" style="fill: #ff57b8;"/>
          <path d="m357.36,551.9c-47.66,0-114.12-33.31-182.35-91.38-64.32-54.75-120.89-123.43-151.33-183.72-.44-.86-.09-1.92.77-2.35.86-.44,1.92-.09,2.35.77,30.24,59.9,86.49,128.17,150.48,182.64,67.6,57.54,133.24,90.55,180.08,90.55.97,0,1.75.78,1.75,1.75s-.78,1.75-1.75,1.75Z" style="fill: #ff57b8;"/>
          <path d="m357.36,129.32c-102.78,0-184.57-81-195.34-114.12-2.77-8.52-.47-12.4,1.95-14.16.78-.57,1.88-.4,2.44.39.57.78.4,1.88-.39,2.44-2.82,2.05-1.64,7.3-.68,10.25,4.93,15.15,26.43,42.84,61.98,67.82,28.49,20.02,74.18,43.88,130.03,43.88.97,0,1.75.78,1.75,1.75s-.78,1.75-1.75,1.75Z" style="fill: #ff57b8;"/>
          <path d="m357.36,573.17c-28.05,0-64.4-13.59-105.13-39.29-38.13-24.07-78.12-57.31-115.63-96.12-38.02-39.34-70.4-81.26-93.65-121.23C17.62,273,4.24,233.24,4.24,201.54c0-.97.78-1.75,1.75-1.75s1.75.78,1.75,1.75c0,60.35,50.34,149.93,131.38,233.78,78.87,81.61,164.54,134.35,218.24,134.35.97,0,1.75.78,1.75,1.75s-.78,1.75-1.75,1.75Z" style="fill: #ff57b8;"/>
          <path d="m357.36,121.33c-39.19,0-79.35-15.21-113.1-42.84-28.64-23.45-44.9-49.14-45.65-61.4-.3-4.83,1.84-7.89,5.86-8.38.96-.12,1.83.56,1.95,1.52.12.96-.56,1.83-1.52,1.95-.92.11-3.07.38-2.8,4.69.72,11.69,17.51,36.92,44.38,58.91,19.18,15.7,59.09,42.04,110.88,42.04.97,0,1.75.78,1.75,1.75s-.78,1.75-1.75,1.75Z" style="fill: #ff57b8;"/>
          <path d="m357.36,592.15c-51.49,0-105.4-45.83-170.53-105.73-.71-.65-.76-1.76-.1-2.47.65-.71,1.76-.76,2.47-.1,64.56,59.39,117.93,104.81,168.16,104.81.97,0,1.75.78,1.75,1.75s-.78,1.75-1.75,1.75Z" style="fill: #ff57b8;"/>
          <path d="m357.36,116.72c-37.1,0-69.46-21.98-85.44-35.08-21.53-17.64-38.37-39.73-39.17-51.37-.31-4.54,1.87-7.47,6-8.05.96-.13,1.84.54,1.97,1.49.13.96-.54,1.84-1.49,1.97-1.61.22-3.23.91-2.99,4.34.64,9.29,14.99,30.13,37.9,48.9,15.62,12.8,47.21,34.28,83.22,34.28.97,0,1.75.78,1.75,1.75s-.78,1.75-1.75,1.75Z" style="fill: #ff57b8;"/>
          <path d="m357.36,606.6c-38.49,0-84.08-36.79-127.61-76.54-.71-.65-.76-1.76-.11-2.47.65-.71,1.76-.76,2.47-.11,43.01,39.28,87.95,75.62,125.25,75.62.97,0,1.75.78,1.75,1.75s-.78,1.75-1.75,1.75Z" style="fill: #ff57b8;"/>
          <path d="m357.36,113.47c-26.65,0-48.87-15.42-59.74-24.62-14.92-12.62-26.04-28.27-26.46-37.23-.19-4.2,1.97-6.83,5.93-7.19.96-.09,1.81.62,1.9,1.58.09.96-.62,1.81-1.58,1.9-1.51.14-2.89.67-2.76,3.55.66,14.34,38.7,58.51,82.7,58.51.97,0,1.75.78,1.75,1.75s-.78,1.75-1.75,1.75Z" style="fill: #ff57b8;"/>
          <path d="m357.36,619.39c-33.06,0-46.67-12.8-69.21-34.02l-.95-.89c-.7-.66-.74-1.77-.08-2.47.66-.7,1.77-.74,2.47-.08l.95.89c22.66,21.32,35.14,33.07,66.81,33.07.97,0,1.75.78,1.75,1.75s-.78,1.75-1.75,1.75Z" style="fill: #ff57b8;"/>
          <path d="m356.81,109.55c-11.94,0-19.76-4.17-31.59-12.84-1.13-.83-27.58-20.32-25.6-28.59.23-.96,1.03-2.63,3.82-3.09.96-.16,1.85.49,2.01,1.44.16.95-.49,1.85-1.44,2.01-.22.04-.92.17-.99.45-.69,2.89,9.11,13.84,24.27,24.95,11.61,8.51,18.69,12.28,30.05,12.16.95,0,1.76.76,1.77,1.73.01.97-.76,1.76-1.73,1.77-.19,0-.38,0-.56,0Z" style="fill: #ff57b8;"/>
          <path d="m357.36,188.87c-151.05,0-246.59-78.2-273.96-130.76-8.63-16.58-10.36-30.69-4.73-38.73.55-.79,1.65-.98,2.44-.43.79.55.98,1.65.43,2.44-4.85,6.93-3.04,19.73,4.97,35.11,26.97,51.8,121.36,128.87,270.85,128.87.97,0,1.75.78,1.75,1.75s-.78,1.75-1.75,1.75Z" style="fill: #ff57b8;"/>
          <path d="m357.36,442.14c-48.33,0-101.53-16.04-153.86-46.37-48.15-27.92-93.87-67.3-128.73-110.9C22.29,219.25-.95,151.16,11.02,98.06c.21-.94,1.15-1.54,2.09-1.32.94.21,1.53,1.15,1.32,2.09-11.73,52.06,11.26,119.07,63.07,183.85,62.08,77.63,172.69,155.96,279.86,155.96.97,0,1.75.78,1.75,1.75s-.78,1.75-1.75,1.75Z" style="fill: #ff57b8;"/>
          <path d="m357.36,286.48c-64.56,0-127.96-16.55-183.34-47.85-47.95-27.1-87.21-63.62-110.56-102.83-21.45-36.02-26.36-70.33-13.48-94.11.46-.85,1.52-1.17,2.37-.7.85.46,1.17,1.52.7,2.37-12.29,22.68-7.4,55.72,13.41,90.66,42.73,71.75,151.98,148.97,290.89,148.97.97,0,1.75.78,1.75,1.75s-.78,1.75-1.75,1.75Z" style="fill: #ff57b8;"/>
          <path d="m357.36,336.78c-54.3,0-111.52-14.97-165.49-43.3-50.76-26.64-94.56-63.35-123.33-103.36-33.34-46.36-44.2-94.25-30.57-134.85.31-.92,1.3-1.41,2.22-1.1.92.31,1.41,1.3,1.1,2.22-13.26,39.5-2.57,86.27,30.1,131.69,60.51,84.14,180.79,145.21,285.98,145.21.97,0,1.75.78,1.75,1.75s-.78,1.75-1.75,1.75Z" style="fill: #ff57b8;"/>
          <path d="m357.36,236.28c-81.78,0-145.22-26.82-184.04-49.32-45.93-26.62-83.61-62.05-103.36-97.21-13.62-24.24-16.6-45.03-8.38-58.53.5-.83,1.58-1.09,2.4-.58.83.5,1.09,1.58.58,2.4-7.42,12.19-4.35,32.24,8.44,54.99,19.45,34.62,56.66,69.58,102.06,95.9,38.45,22.29,101.29,48.85,182.28,48.85.97,0,1.75.78,1.75,1.75s-.78,1.75-1.75,1.75Z" style="fill: #ff57b8;"/>
          <path d="m357.36,387.43c-53.11,0-113.78-18.38-170.84-51.75-55.02-32.18-101.94-75.11-132.1-120.89-16.68-25.32-27.52-50.44-32.2-74.66-5.03-26.03-2.8-50.38,6.65-72.37.38-.89,1.41-1.3,2.3-.92.89.38,1.3,1.41.92,2.3-22.64,52.73,1.24,107.26,25.26,143.72,63.2,95.93,194.99,171.07,300.02,171.07.97,0,1.75.78,1.75,1.75s-.78,1.75-1.75,1.75Z" style="fill: #ff57b8;"/>
          <path d="m357.36,629.03c-17.93,0-29.46-3.74-50.35-25.88-.66-.7-.63-1.81.07-2.47.7-.66,1.81-.63,2.47.07,20,21.2,30.91,24.78,47.8,24.78.97,0,1.75.78,1.75,1.75s-.78,1.75-1.75,1.75Z" style="fill: #ff57b8;"/>
          <path d="m355.83,637.73c-11.3,0-18.18-6.33-26.79-14.26l-1.67-1.54c-13.68-12.53-27.22-25.09-40.25-37.32-28.28-26.56-53.34-50.73-76.59-73.89-30.45-30.33-54.67-55.49-76.21-79.17-22.98-25.27-47.18-52.79-68.39-82.86-20.6-29.19-36.89-59.94-48.44-91.38C3.08,218.03-2.32,178.68,1.89,143.48c4.78-39.96,21.51-75.29,48.39-102.19C76.96,14.58,112.42-.07,150.11,0c30.48.06,62.55,8.54,95.31,25.19,29.94,15.22,57.86,36.27,80.75,60.87l1.82,1.96c9.27,10.02,15.96,17.26,29.25,16.35.96-.07,1.8.66,1.87,1.63.07.96-.66,1.8-1.63,1.87-14.96,1.03-22.5-7.13-32.06-17.47l-1.81-1.95c-22.62-24.31-50.2-45.11-79.78-60.14C211.57,11.91,180.03,3.56,150.1,3.5c-.1,0-.21,0-.31,0-37.16,0-70.71,13.92-97.03,40.26C26.44,70.1,10.05,104.72,5.37,143.89c-4.14,34.65,1.19,73.45,15.41,112.2,11.44,31.16,27.59,61.63,48.01,90.57,21.1,29.91,45.21,57.34,68.12,82.52,21.5,23.64,45.68,48.75,76.09,79.04,23.23,23.14,48.26,47.28,76.52,73.82,13.02,12.23,26.55,24.77,40.22,37.29l1.68,1.55c8.73,8.04,15.04,13.85,25.85,13.3.96-.05,1.79.69,1.84,1.66.05.97-.69,1.79-1.66,1.84-.55.03-1.09.04-1.61.04Z" style="fill: #ff57b8;"/>
        </g>
        <path d="m353.5,637.04c-.61,0-1.2-.32-1.52-.88-5.47-9.59-9.08-65.74-12.88-200.27-3.09-109.68-1.1-200.46,1.81-248.85,2.76-45.98,9.33-82.31,9.4-82.67.17-.95,1.09-1.58,2.04-1.41.95.17,1.58,1.09,1.41,2.04-.07.36-6.6,36.5-9.34,82.25-2.9,48.31-4.89,138.98-1.8,248.54,3.73,132.16,7.33,189.7,12.42,198.63.48.84.19,1.91-.65,2.39-.27.16-.57.23-.87.23Z" style="fill: #ff57b8;"/>
        <g>
          <path d="m340.69,631.6c-.47,0-.94-.19-1.29-.56-10.72-11.64-22.83-65.43-32.39-143.9-9.34-76.71-13.88-158.84-11.84-214.36,1.8-49.01,7.18-91.02,15.54-121.5,8.58-31.25,19.98-48.69,32.96-50.45.96-.13,1.84.54,1.97,1.5.13.96-.54,1.84-1.5,1.97-23.61,3.19-41.89,70.95-45.48,168.61-4.38,119.32,21.52,332.11,43.3,355.76.65.71.61,1.82-.1,2.47-.34.31-.76.46-1.19.46Z" style="fill: #ff57b8;"/>
          <path d="m311.4,606.6c-.54,0-1.07-.25-1.41-.72-10.68-14.6-26.07-74.16-38.3-148.21-13.74-83.22-19.69-160.16-16.34-211.11,4.93-74.73,20.82-127.13,44.73-147.56,8.64-7.38,18.31-10.64,28.73-9.69.96.09,1.67.94,1.58,1.9-.09.96-.94,1.67-1.9,1.58-9.45-.86-18.24,2.12-26.14,8.86-23.19,19.81-38.64,71.35-43.51,145.13-3.34,50.69,2.6,127.35,16.3,210.31,11.95,72.41,27.44,132.74,37.67,146.72.57.78.4,1.87-.38,2.45-.31.23-.67.34-1.03.34Z" style="fill: #ff57b8;"/>
          <path d="m276.95,574.36c-.6,0-1.18-.3-1.5-.85-21.19-35.51-67.86-231.91-57.36-339.15,6.92-70.43,29.32-128.34,58.45-151.14,11.38-8.91,23.56-12.48,36.2-10.64.96.14,1.62,1.03,1.48,1.98-.14.96-1.03,1.62-1.98,1.48-11.66-1.7-22.94,1.64-33.54,9.93-28.41,22.23-50.3,79.22-57.13,148.73-6.23,63.56,7.93,150.21,16.93,196.2,12.45,63.65,29.25,122.87,39.96,140.81.5.83.22,1.9-.61,2.4-.28.17-.59.25-.9.25Z" style="fill: #ff57b8;"/>
          <path d="m231.11,530.31c-.69,0-1.34-.4-1.62-1.08-33.77-80.98-62.1-223.68-48.08-328.65,5.6-41.77,19.52-79.25,39.21-105.53,20.03-26.74,45.35-40.91,71.28-39.91.97.04,1.72.85,1.68,1.82-.04.97-.86,1.72-1.82,1.68-24.75-.96-49.02,12.72-68.34,38.51-19.33,25.81-33.02,62.7-38.54,103.89-13.94,104.36,14.24,246.29,47.84,326.84.37.89-.05,1.92-.94,2.29-.22.09-.45.14-.67.14Z" style="fill: #ff57b8;"/>
          <path d="m189.75,490.86c-.7,0-1.37-.43-1.63-1.12-26.49-69.01-54.3-215.85-37.61-312.05,13.98-80.34,67.84-142.17,120.07-137.82.96.08,1.68.93,1.6,1.89-.08.96-.92,1.68-1.89,1.6-50.47-4.2-102.66,56.33-116.33,134.93-16.58,95.59,11.09,241.57,37.43,310.2.35.9-.1,1.91-1.01,2.26-.21.08-.42.12-.63.12Z" style="fill: #ff57b8;"/>
          <path d="m157.37,457.91c-.71,0-1.37-.43-1.64-1.13-24.05-63.76-59.08-197.64-37.84-294.97,8-36.55,26.12-71.13,51.04-97.38,24.22-25.52,52.13-39.74,76.58-39,.97.03,1.73.84,1.7,1.8-.03.97-.83,1.72-1.8,1.7-50.19-1.51-108.19,60.94-124.09,133.63-21.06,96.53,13.79,229.59,37.7,292.99.34.9-.12,1.91-1.02,2.26-.2.08-.41.11-.62.11Z" style="fill: #ff57b8;"/>
          <path d="m127.76,426.29c-.73,0-1.42-.46-1.66-1.2-30.5-91.5-58.64-196.38-36.05-280.39,9.76-36.2,26.95-67.7,49.72-91.09,23.81-24.45,51.96-37.98,81.42-39.14.96-.04,1.78.71,1.82,1.68.04.97-.71,1.78-1.68,1.82-56.52,2.21-107.92,53.5-127.89,127.63-22.35,83.12,5.65,187.36,35.99,278.37.31.92-.19,1.91-1.11,2.21-.18.06-.37.09-.55.09Z" style="fill: #ff57b8;"/>
          <path d="m101.42,396.4c-.73,0-1.4-.45-1.65-1.18-24.13-69.78-35.86-114.13-40.46-153.07-4.96-41.99-1.3-78.67,11.86-118.96,11.1-33.91,28.07-62.45,49.09-82.51,22.45-21.43,48.48-32.87,77.39-34,.95-.04,1.78.71,1.82,1.68.04.97-.71,1.78-1.68,1.82-54.51,2.13-100.6,44.79-123.29,114.11-26.9,82.35-12.93,149.79,28.58,269.8.32.91-.17,1.91-1.08,2.23-.19.07-.38.1-.57.1Z" style="fill: #ff57b8;"/>
          <path d="m76.68,362.22c-.8,0-1.52-.55-1.71-1.37-3.21-14.34-8.12-29.37-13.32-45.28-8.75-26.81-18.68-57.19-22.31-90.92-4.18-38.74.57-75.98,14.53-113.84C76.96,48.13,124.03,6.51,176.71,2.19c.96-.08,1.81.64,1.89,1.6.08.96-.64,1.81-1.6,1.89-51.3,4.21-97.23,44.95-119.85,106.33-30.9,83.85-10.33,146.87,7.83,202.47,5.22,15.99,10.16,31.1,13.41,45.6.21.94-.38,1.88-1.32,2.09-.13.03-.26.04-.38.04Z" style="fill: #ff57b8;"/>
          <path d="m53.48,330.28c-.63,0-1.24-.34-1.56-.95C25.43,278.15-.03,205.99,38.51,101.4,61.35,39.44,101.43,4.38,154.43.04c.96-.08,1.81.64,1.89,1.6.08.96-.64,1.81-1.6,1.89-51.54,4.23-90.59,38.49-112.92,99.08-38.07,103.31-12.93,174.57,13.24,225.11.44.86.11,1.91-.75,2.36-.26.13-.53.2-.8.2Z" style="fill: #ff57b8;"/>
          <path d="m19.14,258.44c-.74,0-1.43-.48-1.67-1.22C-.52,200.23-3.78,155.6,30.38,83.07,57.61,25.24,88.84,13.53,109.51,5.78l.16-.06c.9-.34,1.91.12,2.25,1.02.34.9-.12,1.91-1.02,2.25l-.16.06c-20.13,7.55-50.56,18.96-77.19,75.5C-.13,156.05,3.09,200.03,20.81,256.17c.29.92-.22,1.9-1.14,2.2-.18.06-.35.08-.53.08Z" style="fill: #ff57b8;"/>
        </g>
      </g>
      <g>
        <g>
          <path d="m357.53,489.85c-.97,0-1.75-.78-1.75-1.75s.78-1.75,1.75-1.75c84.41,0,193.48-63.1,271.4-157.02,61.11-73.65,89.85-149.52,78.84-208.15-.18-.95.45-1.86,1.4-2.04.95-.18,1.86.45,2.04,1.4,5.78,30.76,1.04,65.74-14.08,103.97-13.9,35.14-36.55,72.16-65.51,107.06-36.62,44.14-82.6,83.9-129.47,111.94-50.67,30.32-100.68,46.35-144.63,46.35Z" style="fill: #ff57b8;"/>
          <path d="m357.53,161.81c-.97,0-1.75-.78-1.75-1.75s.78-1.75,1.75-1.75c58.25,0,119.9-17.66,173.58-49.74,49.58-29.62,77.3-61.94,82.77-80.83,2.27-7.84.88-13.42-4.12-16.59-.82-.52-1.06-1.6-.54-2.41.52-.82,1.6-1.06,2.41-.54,4.46,2.82,9.05,8.66,5.61,20.52-6.8,23.49-40.69,56.79-84.33,82.86-54.22,32.39-116.5,50.23-175.37,50.23Z" style="fill: #ff57b8;"/>
          <path d="m357.53,523.73c-.97,0-1.75-.78-1.75-1.75s.78-1.75,1.75-1.75c72.75,0,166.64-52.95,245.03-138.18,73.33-79.73,113.83-166.41,108.34-231.87-.08-.96.63-1.81,1.6-1.89.97-.08,1.81.63,1.89,1.6,2.83,33.74-6.52,73.98-27.03,116.39-19.17,39.64-47.6,80.5-82.23,118.14-79.03,85.93-173.91,139.31-247.61,139.31Z" style="fill: #ff57b8;"/>
          <path d="m357.53,138.41c-.97,0-1.75-.78-1.75-1.75s.78-1.75,1.75-1.75c73.29,0,129.03-27.57,162.87-50.7,39.49-26.99,63.21-57.57,65.47-72.63.87-5.81-1.99-6.69-2.93-6.98-.92-.28-1.44-1.26-1.16-2.19.28-.92,1.26-1.44,2.19-1.16,2.5.77,6.51,3.19,5.37,10.85-2.37,15.8-26.64,47.46-66.96,75.01-34.25,23.41-90.66,51.31-164.85,51.31Z" style="fill: #ff57b8;"/>
          <path d="m357.53,551.9c-.97,0-1.75-.78-1.75-1.75s.78-1.75,1.75-1.75c46.84,0,112.48-33,180.08-90.55,63.98-54.46,120.24-122.74,150.48-182.64.44-.86,1.49-1.21,2.35-.77.86.44,1.21,1.49.77,2.35-30.44,60.29-87.01,128.97-151.33,183.72-68.22,58.07-134.69,91.38-182.35,91.38Z" style="fill: #ff57b8;"/>
          <path d="m357.53,129.32c-.97,0-1.75-.78-1.75-1.75s.78-1.75,1.75-1.75c55.85,0,101.54-23.86,130.03-43.88,35.56-24.98,57.05-52.67,61.98-67.82.96-2.95,2.14-8.19-.68-10.25-.78-.57-.95-1.66-.39-2.44.57-.78,1.66-.95,2.44-.39,2.42,1.76,4.72,5.64,1.95,14.16-10.77,33.12-92.56,114.12-195.34,114.12Z" style="fill: #ff57b8;"/>
          <path d="m357.53,573.17c-.97,0-1.75-.78-1.75-1.75s.78-1.75,1.75-1.75c53.7,0,139.37-52.73,218.24-134.35,81.04-83.86,131.38-173.44,131.38-233.78,0-.97.78-1.75,1.75-1.75s1.75.78,1.75,1.75c0,31.7-13.39,71.46-38.71,114.99-23.25,39.97-55.63,81.88-93.65,121.23-37.51,38.82-77.5,72.05-115.63,96.12-40.73,25.71-77.08,39.29-105.13,39.29Z" style="fill: #ff57b8;"/>
          <path d="m357.53,121.33c-.97,0-1.75-.78-1.75-1.75s.78-1.75,1.75-1.75c51.79,0,91.7-26.34,110.88-42.04,26.86-21.99,43.66-47.22,44.38-58.91.27-4.32-1.88-4.58-2.8-4.69-.96-.12-1.64-.99-1.52-1.95.12-.96.99-1.64,1.95-1.52,4.02.5,6.16,3.55,5.86,8.38-.75,12.27-17.01,37.96-45.65,61.4-33.74,27.62-73.91,42.84-113.1,42.84Z" style="fill: #ff57b8;"/>
          <path d="m357.53,592.15c-.97,0-1.75-.78-1.75-1.75s.78-1.75,1.75-1.75c50.23,0,103.6-45.43,168.16-104.81.71-.65,1.82-.61,2.47.1.65.71.61,1.82-.1,2.47-65.13,59.91-119.04,105.73-170.53,105.73Z" style="fill: #ff57b8;"/>
          <path d="m357.53,116.72c-.97,0-1.75-.78-1.75-1.75s.78-1.75,1.75-1.75c36.02,0,67.6-21.48,83.22-34.28,22.91-18.77,37.26-39.61,37.9-48.9.24-3.42-1.38-4.12-2.99-4.34-.96-.13-1.63-1.02-1.49-1.97.13-.96,1.02-1.63,1.97-1.49,4.13.57,6.32,3.51,6,8.05-.8,11.64-17.64,33.72-39.17,51.37-15.98,13.1-48.34,35.08-85.44,35.08Z" style="fill: #ff57b8;"/>
          <path d="m357.53,606.6c-.97,0-1.75-.78-1.75-1.75s.78-1.75,1.75-1.75c37.3,0,82.24-36.35,125.25-75.62.71-.65,1.82-.6,2.47.11.65.71.6,1.82-.11,2.47-43.53,39.75-89.12,76.54-127.61,76.54Z" style="fill: #ff57b8;"/>
          <path d="m357.53,113.47c-.97,0-1.75-.78-1.75-1.75s.78-1.75,1.75-1.75c44.01,0,82.04-44.18,82.71-58.51.13-2.88-1.25-3.41-2.76-3.55-.96-.09-1.67-.94-1.58-1.9.09-.96.94-1.67,1.9-1.58,3.96.37,6.13,2.99,5.93,7.19-.41,8.96-11.54,24.62-26.46,37.23-10.87,9.19-33.09,24.62-59.74,24.62Z" style="fill: #ff57b8;"/>
          <path d="m357.53,619.39c-.97,0-1.75-.78-1.75-1.75s.78-1.75,1.75-1.75c31.67,0,44.15-11.75,66.81-33.07l.95-.89c.7-.66,1.81-.63,2.47.08.66.7.63,1.81-.08,2.47l-.95.89c-22.54,21.21-36.15,34.02-69.21,34.02Z" style="fill: #ff57b8;"/>
          <path d="m358.07,109.55c-.19,0-.37,0-.56,0-.97-.01-1.74-.8-1.73-1.77.01-.97.85-1.74,1.77-1.73,11.34.12,18.43-3.65,30.05-12.16,15.16-11.11,24.96-22.07,24.27-24.95-.07-.28-.77-.41-.99-.45-.95-.16-1.6-1.06-1.44-2.01.16-.95,1.06-1.6,2.01-1.44,2.79.46,3.6,2.13,3.82,3.09,1.98,8.27-24.48,27.77-25.6,28.59-11.83,8.67-19.65,12.84-31.59,12.84Z" style="fill: #ff57b8;"/>
          <path d="m357.53,188.87c-.97,0-1.75-.78-1.75-1.75s.78-1.75,1.75-1.75c149.49,0,243.88-77.07,270.85-128.87,8.01-15.38,9.82-28.18,4.97-35.11-.55-.79-.36-1.88.43-2.44.79-.55,1.88-.36,2.44.43,5.63,8.04,3.9,22.15-4.73,38.73-27.37,52.56-122.91,130.76-273.96,130.76Z" style="fill: #ff57b8;"/>
          <path d="m357.53,442.14c-.97,0-1.75-.78-1.75-1.75s.78-1.75,1.75-1.75c107.17,0,217.78-78.33,279.86-155.96,51.81-64.78,74.8-131.79,63.07-183.85-.21-.94.38-1.88,1.32-2.09.94-.21,1.88.38,2.09,1.32,11.97,53.1-11.27,121.19-63.75,186.81-34.86,43.59-80.58,82.98-128.73,110.9-52.32,30.34-105.52,46.37-153.86,46.37Z" style="fill: #ff57b8;"/>
          <path d="m357.53,286.48c-.97,0-1.75-.78-1.75-1.75s.78-1.75,1.75-1.75c138.91,0,248.17-77.22,290.89-148.97,20.81-34.94,25.69-67.98,13.41-90.66-.46-.85-.14-1.91.7-2.37.85-.46,1.91-.15,2.37.7,12.89,23.79,7.98,58.09-13.48,94.11-23.35,39.21-62.61,75.72-110.56,102.83-55.38,31.3-118.78,47.85-183.34,47.85Z" style="fill: #ff57b8;"/>
          <path d="m357.53,336.78c-.97,0-1.75-.78-1.75-1.75s.78-1.75,1.75-1.75c105.2,0,225.47-61.07,285.98-145.21,32.67-45.42,43.36-92.19,30.1-131.69-.31-.92.19-1.91,1.1-2.22.92-.31,1.91.19,2.22,1.1,13.63,40.6,2.77,88.49-30.58,134.85-28.77,40.01-72.57,76.72-123.33,103.36-53.97,28.33-111.2,43.3-165.49,43.3Z" style="fill: #ff57b8;"/>
          <path d="m357.53,236.28c-.97,0-1.75-.78-1.75-1.75s.78-1.75,1.75-1.75c81,0,143.83-26.57,182.28-48.85,45.41-26.32,82.61-61.27,102.06-95.9,12.79-22.76,15.86-42.8,8.44-54.99-.5-.83-.24-1.9.58-2.4.83-.5,1.9-.24,2.4.58,8.22,13.5,5.25,34.28-8.38,58.53-19.75,35.15-57.43,70.59-103.36,97.21-38.82,22.5-102.26,49.32-184.04,49.32Z" style="fill: #ff57b8;"/>
          <path d="m357.53,387.43c-.97,0-1.75-.78-1.75-1.75s.78-1.75,1.75-1.75c105.03,0,236.82-75.14,300.02-171.07,24.02-36.46,47.91-90.99,25.26-143.72-.38-.89.03-1.92.92-2.3.89-.38,1.92.03,2.3.92,9.44,21.99,11.68,46.34,6.65,72.37-4.68,24.22-15.52,49.33-32.2,74.66-30.16,45.78-77.08,88.71-132.1,120.89-57.06,33.37-117.73,51.75-170.84,51.75Z" style="fill: #ff57b8;"/>
          <path d="m357.53,629.03c-.97,0-1.75-.78-1.75-1.75s.78-1.75,1.75-1.75c16.89,0,27.8-3.58,47.8-24.78.66-.7,1.77-.73,2.47-.07.7.66.74,1.77.07,2.47-20.89,22.14-32.41,25.88-50.35,25.88Z" style="fill: #ff57b8;"/>
          <path d="m359.05,637.73c-.53,0-1.06-.01-1.61-.04-.97-.05-1.71-.87-1.66-1.84.05-.97.87-1.71,1.84-1.66,10.82.55,17.12-5.26,25.85-13.3l1.68-1.55c13.67-12.52,27.2-25.07,40.22-37.29,28.26-26.54,53.29-50.69,76.52-73.82,30.41-30.29,54.59-55.41,76.09-79.04,22.91-25.18,47.01-52.61,68.12-82.52,20.42-28.94,36.57-59.42,48.01-90.57,14.23-38.75,19.56-77.54,15.41-112.2-4.68-39.17-21.07-73.8-47.39-100.13-26.32-26.34-59.87-40.26-97.03-40.26-.1,0-.21,0-.31,0-29.93.06-61.46,8.41-93.73,24.81-29.57,15.03-57.16,35.83-79.78,60.14l-1.81,1.95c-9.55,10.33-17.1,18.49-32.06,17.47-.96-.07-1.69-.9-1.63-1.87.07-.96.9-1.69,1.87-1.63,13.29.91,19.98-6.33,29.25-16.35l1.82-1.96c22.89-24.61,50.82-45.66,80.75-60.87C502.23,8.54,534.3.06,564.78,0c37.68-.07,73.14,14.58,99.83,41.28,26.88,26.9,43.61,62.24,48.39,102.19,4.21,35.2-1.19,74.56-15.6,113.82-11.55,31.44-27.84,62.19-48.44,91.38-21.21,30.07-45.4,57.59-68.39,82.86-21.54,23.68-45.75,48.83-76.21,79.17-23.25,23.16-48.31,47.33-76.59,73.89-13.03,12.23-26.57,24.79-40.25,37.32l-1.67,1.54c-8.61,7.92-15.49,14.26-26.79,14.26Z" style="fill: #ff57b8;"/>
        </g>
        <path d="m361.38,637.04c-.29,0-.59-.07-.87-.23-.84-.48-1.13-1.55-.65-2.39,5.09-8.93,8.69-66.48,12.42-198.63,3.09-109.56,1.1-200.23-1.8-248.54-2.74-45.75-9.28-81.89-9.34-82.25-.17-.95.46-1.86,1.41-2.04.95-.17,1.86.46,2.04,1.41.07.36,6.64,36.7,9.4,82.67,2.9,48.39,4.9,139.17,1.81,248.85-3.8,134.53-7.41,190.68-12.88,200.27-.32.57-.91.88-1.52.88Z" style="fill: #ff57b8;"/>
        <g>
          <path d="m374.2,631.6c-.42,0-.85-.15-1.19-.46-.71-.65-.76-1.76-.1-2.47,21.79-23.65,47.69-236.44,43.3-355.76-3.59-97.66-21.86-165.42-45.48-168.61-.96-.13-1.63-1.01-1.5-1.97.13-.96,1.01-1.63,1.97-1.5,12.98,1.75,24.38,19.2,32.96,50.45,8.37,30.48,13.74,72.49,15.54,121.5,2.04,55.52-2.5,137.65-11.84,214.36-9.56,78.47-21.66,132.26-32.39,143.9-.34.37-.82.56-1.29.56Z" style="fill: #ff57b8;"/>
          <path d="m403.48,606.6c-.36,0-.72-.11-1.03-.34-.78-.57-.95-1.67-.38-2.45,10.23-13.98,25.71-74.31,37.67-146.72,13.69-82.96,19.64-159.62,16.3-210.31-4.87-73.78-20.32-125.32-43.51-145.13-7.9-6.75-16.69-9.73-26.14-8.86-.96.09-1.81-.62-1.9-1.58-.09-.96.62-1.81,1.58-1.9,10.42-.95,20.09,2.31,28.73,9.69,23.92,20.42,39.8,72.83,44.73,147.56,3.35,50.95-2.6,127.9-16.34,211.11-12.22,74.05-27.61,133.61-38.3,148.21-.34.47-.87.72-1.41.72Z" style="fill: #ff57b8;"/>
          <path d="m437.94,574.36c-.3,0-.61-.08-.89-.25-.83-.5-1.1-1.57-.61-2.4,10.71-17.94,27.51-77.16,39.96-140.81,8.99-45.99,23.15-132.64,16.93-196.2-6.83-69.51-28.72-126.5-57.13-148.72-10.6-8.29-21.88-11.63-33.54-9.93-.95.14-1.84-.52-1.98-1.48-.14-.96.52-1.84,1.48-1.98,12.64-1.85,24.82,1.73,36.2,10.64,29.14,22.8,51.54,80.71,58.45,151.14,10.5,107.23-36.17,303.64-57.36,339.15-.33.55-.91.85-1.5.85Z" style="fill: #ff57b8;"/>
          <path d="m483.78,530.31c-.22,0-.45-.04-.67-.14-.89-.37-1.31-1.4-.94-2.29,33.6-80.56,61.78-222.48,47.84-326.84-5.52-41.19-19.21-78.08-38.54-103.89-19.32-25.79-43.59-39.47-68.34-38.51-.97.04-1.78-.72-1.82-1.68-.04-.97.72-1.78,1.68-1.82,25.93-1,51.25,13.17,71.28,39.91,19.69,26.28,33.61,63.75,39.21,105.52,14.02,104.97-14.3,247.67-48.08,328.65-.28.67-.93,1.08-1.62,1.08Z" style="fill: #ff57b8;"/>
          <path d="m525.14,490.86c-.21,0-.42-.04-.63-.12-.9-.35-1.35-1.36-1.01-2.26,26.34-68.63,54.01-214.62,37.43-310.2-13.67-78.6-65.86-139.13-116.33-134.93-.96.08-1.81-.64-1.89-1.6-.08-.96.64-1.81,1.6-1.89,52.23-4.35,106.09,57.48,120.07,137.82,16.69,96.21-11.12,243.04-37.61,312.05-.27.7-.93,1.12-1.63,1.12Z" style="fill: #ff57b8;"/>
          <path d="m557.51,457.91c-.21,0-.41-.04-.62-.11-.9-.34-1.36-1.35-1.02-2.26,23.91-63.4,58.76-196.46,37.7-292.99-15.9-72.69-73.92-135.13-124.09-133.63-.96.03-1.77-.73-1.8-1.7-.03-.97.73-1.77,1.7-1.8,24.45-.73,52.36,13.48,76.58,39,24.92,26.25,43.04,60.83,51.04,97.38,21.24,97.33-13.79,231.21-37.84,294.97-.26.7-.93,1.13-1.64,1.13Z" style="fill: #ff57b8;"/>
          <path d="m587.12,426.29c-.18,0-.37-.03-.55-.09-.92-.31-1.41-1.3-1.11-2.21,30.34-91.01,58.34-195.26,35.99-278.37-19.98-74.13-71.37-125.42-127.89-127.63-.97-.04-1.72-.85-1.68-1.82.04-.97.86-1.72,1.82-1.68,29.45,1.15,57.61,14.69,81.42,39.14,22.77,23.39,39.96,54.88,49.72,91.08,22.59,84.01-5.55,188.89-36.05,280.39-.24.73-.93,1.2-1.66,1.2Z" style="fill: #ff57b8;"/>
          <path d="m613.46,396.4c-.19,0-.38-.03-.57-.1-.91-.32-1.4-1.31-1.08-2.23,41.51-120.01,55.49-187.45,28.58-269.8-22.68-69.32-68.77-111.97-123.29-114.11-.97-.04-1.72-.85-1.68-1.82.04-.97.86-1.72,1.82-1.68,28.91,1.13,54.95,12.57,77.39,34,21.01,20.07,37.99,48.6,49.09,82.51,13.16,40.29,16.82,76.98,11.86,118.96-4.6,38.94-16.32,83.29-40.46,153.07-.25.72-.93,1.18-1.65,1.18Z" style="fill: #ff57b8;"/>
          <path d="m638.21,362.22c-.13,0-.26-.01-.38-.04-.94-.21-1.54-1.15-1.32-2.09,3.25-14.5,8.18-29.61,13.41-45.6,18.16-55.6,38.73-118.62,7.83-202.47-22.62-61.38-68.54-102.12-119.85-106.33-.96-.08-1.68-.92-1.6-1.89.08-.96.93-1.68,1.89-1.6,52.68,4.32,99.75,45.94,122.84,108.61,13.95,37.87,18.71,75.1,14.53,113.84-3.64,33.73-13.56,64.11-22.31,90.92-5.2,15.91-10.1,30.94-13.32,45.28-.18.81-.91,1.37-1.71,1.37Z" style="fill: #ff57b8;"/>
          <path d="m661.41,330.28c-.27,0-.55-.06-.8-.2-.86-.44-1.19-1.5-.75-2.36,26.16-50.54,51.31-121.81,13.24-225.11-22.33-60.59-61.38-94.86-112.92-99.08-.96-.08-1.68-.92-1.6-1.89s.92-1.68,1.89-1.6c53,4.35,93.08,39.4,115.92,101.36,38.55,104.59,13.08,176.75-13.41,227.93-.31.6-.92.95-1.56.95Z" style="fill: #ff57b8;"/>
          <path d="m695.75,258.44c-.17,0-.35-.03-.53-.08-.92-.29-1.43-1.27-1.14-2.2,17.72-56.14,20.93-100.11-12.74-171.61-26.63-56.54-57.06-67.95-77.19-75.5l-.16-.06c-.91-.34-1.36-1.35-1.02-2.25s1.35-1.36,2.25-1.02l.16.06c20.66,7.75,51.89,19.46,79.13,77.29,34.16,72.54,30.89,117.17,12.91,174.15-.24.75-.93,1.22-1.67,1.22Z" style="fill: #ff57b8;"/>
        </g>
      </g>
    </g>
  </g>
</svg>