<?xml version="1.0" encoding="UTF-8"?>
<svg id="Layer_2" data-name="Layer 2" xmlns="http://www.w3.org/2000/svg" viewBox="0 0 143.43 143.43">
  <g id="_ÎÓÈ_1" data-name="—ÎÓÈ_1">
    <path d="m71.71,143.43c-.85,0-1.62-.5-1.97-1.28-2.57-5.84-7.58-10.14-13.75-11.79-6.17-1.65-12.65-.44-17.8,3.34-.69.5-1.61.55-2.35.13-.74-.43-1.15-1.25-1.06-2.1.69-6.34-1.5-12.57-6.01-17.08-4.51-4.51-10.74-6.7-17.08-6.01-.84.09-1.67-.32-2.1-1.06-.43-.74-.38-1.66.13-2.35,3.77-5.15,4.99-11.63,3.34-17.8-1.65-6.16-5.95-11.17-11.79-13.75-.78-.34-1.28-1.12-1.28-1.97s.5-1.62,1.28-1.97c5.84-2.57,10.14-7.58,11.79-13.75,1.65-6.16.44-12.65-3.34-17.8-.5-.69-.55-1.61-.13-2.35.43-.74,1.25-1.15,2.1-1.06,6.35.69,12.57-1.5,17.08-6.01,4.51-4.51,6.7-10.74,6.01-17.08-.09-.85.32-1.67,1.06-2.1.74-.43,1.66-.38,2.35.13,5.15,3.77,11.64,4.99,17.8,3.34,6.16-1.65,11.17-5.95,13.75-11.79.34-.78,1.12-1.28,1.97-1.28s1.62.5,1.97,1.28c2.57,5.84,7.58,10.14,13.75,11.79,6.16,1.65,12.65.44,17.8-3.34.69-.5,1.61-.55,2.35-.13.74.43,1.15,1.25,1.06,2.1-.69,6.34,1.5,12.57,6.01,17.08,4.51,4.51,10.73,6.7,17.08,6.01.84-.09,1.67.32,2.1,1.06.43.74.38,1.66-.13,2.35-3.77,5.15-4.99,11.64-3.34,17.8,1.65,6.16,5.95,11.17,11.79,13.74.78.34,1.28,1.12,1.28,1.97s-.5,1.62-1.28,1.97c-5.84,2.57-10.14,7.58-11.79,13.75-1.65,6.16-.44,12.65,3.34,17.8.5.69.55,1.61.13,2.35-.43.74-1.25,1.15-2.1,1.06-6.35-.69-12.57,1.5-17.08,6.01-4.51,4.51-6.7,10.74-6.01,17.08.09.85-.32,1.67-1.06,2.1-.74.43-1.66.38-2.35-.13-5.15-3.77-11.63-4.99-17.8-3.34-6.16,1.65-11.17,5.95-13.75,11.79-.34.78-1.12,1.28-1.97,1.28Zm-21.17-18.09c2.19,0,4.4.29,6.57.87,6.08,1.63,11.23,5.4,14.6,10.57,3.37-5.17,8.52-8.94,14.6-10.57,6.08-1.63,12.42-.94,17.93,1.85.33-6.17,2.91-12,7.36-16.45,4.45-4.45,10.29-7.03,16.45-7.36-2.8-5.5-3.48-11.85-1.85-17.93,1.63-6.08,5.4-11.23,10.57-14.6-5.17-3.37-8.94-8.52-10.57-14.6-1.63-6.08-.94-12.42,1.85-17.93-6.16-.33-12-2.91-16.45-7.36-4.45-4.45-7.03-10.29-7.36-16.45-5.5,2.8-11.84,3.48-17.93,1.85-6.08-1.63-11.23-5.4-14.6-10.57-3.37,5.17-8.52,8.94-14.6,10.57-6.08,1.63-12.43.94-17.93-1.85-.33,6.17-2.91,12-7.36,16.45-4.45,4.45-10.29,7.03-16.45,7.36,2.8,5.5,3.48,11.85,1.85,17.93-1.63,6.08-5.4,11.23-10.57,14.6,5.17,3.37,8.94,8.52,10.57,14.6,1.63,6.08.94,12.42-1.85,17.93,6.17.33,12,2.91,16.45,7.36,4.45,4.45,7.03,10.29,7.36,16.45,3.54-1.8,7.42-2.72,11.36-2.72Z" style="fill: #ff57b8;"/>
  </g>
</svg>