<?xml version="1.0" encoding="UTF-8"?>
<svg id="Layer_2" data-name="Layer 2" xmlns="http://www.w3.org/2000/svg" viewBox="0 0 329.62 130.14">
  <g id="_ÎÓÈ_1" data-name="—ÎÓÈ_1">
    <path d="m65.07,130.14C29.19,130.14,0,100.95,0,65.07S29.19,0,65.07,0c20.34,0,39.14,9.26,51.57,25.41.6.77.6,1.85,0,2.62-8.25,10.71-12.6,23.51-12.6,37.03s4.36,26.33,12.6,37.03c.6.77.6,1.85,0,2.62-12.44,16.15-31.23,25.41-51.57,25.41Zm0-125.84C31.56,4.3,4.3,31.56,4.3,65.07s27.26,60.77,60.77,60.77c18.45,0,35.54-8.16,47.16-22.46-8.17-11.19-12.49-24.39-12.49-38.31s4.31-27.12,12.49-38.31c-11.61-14.29-28.7-22.46-47.16-22.46Z" style="fill: #ff57b8;"/>
    <path d="m164.81,130.14c-20.34,0-39.14-9.26-51.57-25.41-8.83-11.47-13.5-25.18-13.5-39.66s4.67-28.19,13.5-39.66C125.67,9.26,144.47,0,164.81,0s39.14,9.26,51.57,25.41c.6.77.6,1.85,0,2.62-8.25,10.71-12.6,23.51-12.6,37.03s4.36,26.33,12.6,37.03c.6.77.6,1.85,0,2.62-12.44,16.15-31.23,25.41-51.57,25.41Zm0-125.84c-18.99,0-36.55,8.65-48.17,23.74-8.25,10.71-12.6,23.51-12.6,37.03s4.36,26.33,12.6,37.03c11.62,15.08,29.17,23.74,48.17,23.74s35.54-8.16,47.16-22.46c-8.17-11.19-12.49-24.39-12.49-38.31s4.31-27.12,12.49-38.31c-11.61-14.29-28.7-22.46-47.16-22.46Z" style="fill: #ff57b8;"/>
    <path d="m264.55,130.14c-20.34,0-39.14-9.26-51.57-25.41-8.83-11.47-13.5-25.18-13.5-39.66s4.67-28.19,13.5-39.66C225.41,9.26,244.21,0,264.55,0c35.88,0,65.07,29.19,65.07,65.07s-29.19,65.07-65.07,65.07Zm0-125.84c-18.99,0-36.55,8.65-48.17,23.74-8.25,10.71-12.6,23.51-12.6,37.03s4.36,26.33,12.6,37.03c11.62,15.08,29.17,23.74,48.17,23.74,33.51,0,60.77-27.26,60.77-60.77s-27.26-60.77-60.77-60.77Z" style="fill: #ff57b8;"/>
    <g>
      <path d="m102.01,74.67c-5.21,15.7-19.97,26.61-36.94,26.61-18.92,0-35.04-13.5-38.33-32.1l-3.73.66c3.61,20.42,21.3,35.23,42.07,35.23,16.85,0,31.71-9.8,38.62-24.42-.89-1.84-1.38-3.88-1.69-5.97Z" style="fill: #ff57b8;"/>
      <g>
        <ellipse cx="45.41" cy="48.16" rx="7.63" ry="14.02" style="fill: #ff57b8;"/>
        <ellipse cx="86.48" cy="48.16" rx="7.63" ry="14.02" style="fill: #ff57b8;"/>
      </g>
    </g>
    <g>
      <path d="m201.66,74.91c-5.28,15.57-19.97,26.37-36.86,26.37-18.92,0-35.04-13.5-38.33-32.1l-3.73.66c3.61,20.42,21.3,35.23,42.07,35.23,16.43,0,30.97-9.32,38.09-23.35-.82-2.1-1.14-4.44-1.23-6.82Z" style="fill: #ff57b8;"/>
      <g>
        <ellipse cx="145.14" cy="48.16" rx="7.63" ry="14.02" style="fill: #ff57b8;"/>
        <ellipse cx="186.22" cy="48.16" rx="7.63" ry="14.02" style="fill: #ff57b8;"/>
      </g>
    </g>
    <g>
      <path d="m264.55,105.07c-20.76,0-38.46-14.82-42.07-35.23l3.73-.66c3.29,18.6,19.41,32.1,38.33,32.1s34.93-13.42,38.3-31.9l3.73.68c-3.7,20.29-21.37,35.01-42.03,35.01Z" style="fill: #ff57b8;"/>
      <g>
        <ellipse cx="244.88" cy="48.16" rx="7.63" ry="14.02" style="fill: #ff57b8;"/>
        <ellipse cx="285.96" cy="48.16" rx="7.63" ry="14.02" style="fill: #ff57b8;"/>
      </g>
    </g>
  </g>
</svg>