<?xml version="1.0" encoding="UTF-8"?>
<svg id="Layer_2" data-name="Layer 2" xmlns="http://www.w3.org/2000/svg" viewBox="0 0 178.97 178.97">
  <g id="_ÎÓÈ_1" data-name="—ÎÓÈ_1">
    <path d="m89.48,178.97c-.99,0-1.85-.67-2.09-1.63l-6.21-24.82-12.42,22.37c-.48.86-1.48,1.29-2.44,1.03-.95-.26-1.61-1.13-1.59-2.11l.42-25.58-17.79,18.39c-.69.71-1.77.86-2.62.37-.85-.49-1.26-1.5-.99-2.45l7.03-24.6-21.95,13.16c-.85.51-1.93.37-2.63-.32-.7-.7-.83-1.78-.32-2.63l13.16-21.95-24.6,7.03c-.95.27-1.96-.14-2.45-.99-.49-.85-.34-1.93.37-2.62l18.39-17.79-25.58.42c-1,.01-1.86-.64-2.11-1.59-.25-.95.17-1.96,1.03-2.44l22.37-12.43-24.82-6.21c-.96-.24-1.63-1.1-1.63-2.09s.67-1.85,1.63-2.09l24.82-6.21-22.37-12.43c-.86-.48-1.29-1.48-1.03-2.44.25-.95,1.11-1.61,2.11-1.59l25.58.42-18.39-17.79c-.71-.69-.86-1.77-.37-2.62.49-.85,1.5-1.26,2.45-.99l24.6,7.03-13.16-21.94c-.51-.85-.37-1.93.32-2.63.7-.7,1.78-.83,2.63-.32l21.95,13.16-7.03-24.6c-.27-.95.14-1.96.99-2.45.86-.49,1.94-.34,2.62.37l17.79,18.39-.42-25.58c-.02-.99.64-1.86,1.59-2.11.96-.26,1.96.17,2.44,1.03l12.43,22.37,6.21-24.82c.24-.96,1.1-1.63,2.09-1.63s1.85.67,2.09,1.63l6.21,24.82,12.43-22.37c.48-.86,1.48-1.29,2.44-1.03.95.26,1.61,1.13,1.59,2.11l-.42,25.58,17.79-18.39c.69-.71,1.77-.86,2.62-.37.85.49,1.26,1.5.99,2.45l-7.03,24.6,21.95-13.16c.85-.51,1.93-.37,2.63.32.7.7.83,1.78.32,2.63l-13.16,21.94,24.6-7.03c.95-.27,1.96.14,2.45.99.49.85.34,1.93-.37,2.62l-18.39,17.79,25.58-.42c.98-.02,1.86.64,2.11,1.59.25.95-.17,1.96-1.03,2.44l-22.37,12.43,24.82,6.21c.96.24,1.63,1.1,1.63,2.09s-.67,1.85-1.63,2.09l-24.82,6.21,22.37,12.43c.86.48,1.29,1.48,1.03,2.44-.26.95-1.14,1.61-2.11,1.59l-25.58-.42,18.39,17.79c.71.69.86,1.77.37,2.62-.5.85-1.51,1.26-2.45.99l-24.6-7.03,13.16,21.94c.51.85.37,1.93-.32,2.63-.7.7-1.78.83-2.63.32l-21.95-13.16,7.03,24.6c.27.95-.14,1.96-.99,2.45-.85.49-1.93.34-2.62-.37l-17.79-18.39.42,25.58c.02.99-.64,1.86-1.59,2.11-.95.26-1.96-.17-2.44-1.03l-12.43-22.37-6.21,24.82c-.24.96-1.1,1.63-2.09,1.63Zm-7.54-34.4c.09,0,.19,0,.28.02.88.12,1.59.75,1.81,1.61l5.45,21.77,5.45-21.77c.21-.86.93-1.49,1.81-1.61.87-.11,1.73.32,2.16,1.09l10.9,19.62-.37-22.44c-.01-.88.51-1.68,1.33-2.02.82-.34,1.76-.14,2.37.49l15.6,16.13-6.17-21.58c-.24-.85.06-1.76.76-2.3.7-.54,1.66-.59,2.41-.14l19.25,11.54-11.54-19.25c-.45-.76-.4-1.71.14-2.41.54-.7,1.45-1,2.3-.76l21.58,6.17-16.13-15.6c-.63-.61-.83-1.55-.49-2.37.34-.82,1.16-1.34,2.02-1.33l22.44.37-19.62-10.9c-.77-.43-1.2-1.29-1.09-2.16.12-.88.75-1.59,1.61-1.81l21.77-5.45-21.77-5.45c-.86-.21-1.49-.93-1.61-1.8s.32-1.73,1.09-2.16l19.62-10.9-22.44.37c-.86.01-1.68-.51-2.02-1.33s-.14-1.75.49-2.37l16.13-15.6-21.58,6.17c-.85.24-1.76-.06-2.3-.76-.54-.7-.59-1.66-.14-2.41l11.54-19.25-19.25,11.54c-.76.45-1.71.4-2.41-.14-.7-.54-1-1.45-.76-2.3l6.17-21.58-15.6,16.13c-.61.63-1.55.83-2.37.49-.81-.34-1.34-1.14-1.33-2.02l.37-22.44-10.9,19.62c-.43.77-1.29,1.2-2.16,1.09-.88-.12-1.59-.75-1.81-1.61l-5.45-21.77-5.45,21.77c-.21.86-.93,1.49-1.81,1.61-.86.11-1.73-.32-2.16-1.09l-10.9-19.62.37,22.44c.01.88-.51,1.68-1.33,2.02-.82.34-1.76.14-2.37-.49l-15.6-16.13,6.17,21.58c.24.85-.06,1.76-.76,2.3-.7.54-1.66.59-2.41.14l-19.25-11.54,11.54,19.25c.45.76.4,1.71-.14,2.41-.54.7-1.45,1-2.3.76l-21.58-6.17,16.13,15.6c.63.61.83,1.55.49,2.37s-1.15,1.34-2.02,1.33l-22.44-.37,19.62,10.9c.77.43,1.2,1.29,1.09,2.16-.12.88-.75,1.59-1.61,1.8l-21.77,5.45,21.77,5.45c.86.21,1.49.93,1.61,1.81.12.88-.32,1.73-1.09,2.16l-19.62,10.9,22.44-.37c.87-.01,1.68.51,2.02,1.33s.14,1.75-.49,2.37l-16.13,15.6,21.58-6.17c.85-.24,1.76.06,2.3.76.54.7.59,1.66.14,2.41l-11.54,19.25,19.25-11.54c.76-.45,1.71-.4,2.41.14.7.54,1,1.45.76,2.3l-6.17,21.58,15.6-16.13c.61-.63,1.55-.83,2.37-.49.81.34,1.34,1.14,1.33,2.02l-.37,22.44,10.9-19.62c.38-.69,1.11-1.11,1.88-1.11Z" style="fill: #ff57b8;"/>
  </g>
</svg>