<?xml version="1.0" encoding="UTF-8"?>
<svg id="Layer_2" data-name="Layer 2" xmlns="http://www.w3.org/2000/svg" viewBox="0 0 95.45 168.29">
  <g id="_ÎÓÈ_1" data-name="—ÎÓÈ_1">
    <path d="m47.73,168.29c-1.1,0-2.03-.84-2.14-1.94C41.5,125.65,23.78,93.43,1.49,86.19c-.89-.29-1.49-1.11-1.49-2.04s.6-1.76,1.49-2.04C23.78,74.86,41.5,42.64,45.59,1.94c.11-1.1,1.04-1.94,2.14-1.94s2.03.84,2.14,1.94c4.08,40.71,21.81,72.92,44.1,80.17.89.29,1.49,1.11,1.49,2.04s-.6,1.76-1.49,2.04c-22.29,7.24-40.02,39.46-44.1,80.17-.11,1.1-1.04,1.94-2.14,1.94ZM7.88,84.15c18.95,9.19,33.71,34.1,39.85,66.82,6.14-32.72,20.9-57.63,39.85-66.82-18.95-9.19-33.71-34.1-39.85-66.82-6.14,32.72-20.9,57.63-39.85,66.82Z" style="fill: #ff57b8;"/>
  </g>
</svg>