<?xml version="1.0" encoding="UTF-8"?>
<svg id="Layer_2" data-name="Layer 2" xmlns="http://www.w3.org/2000/svg" viewBox="0 0 337.78 461.33">
  <g id="_ÎÓÈ_1" data-name="—ÎÓÈ_1">
    <g>
      <path d="m246.4,461.33c-3.92,0-7.55-2.15-9.99-5.92-2.78-4.31-4.11-9.23-5.04-13.47-1.46-6.69-2.31-13.54-3.14-20.17-.78-6.26-1.58-12.73-2.9-19-.6-2.85-1.2-5.3-1.82-7.5l-.17-.58c-2.03-6.77-5.8-19.37-11.22-21.19-1.43-.48-2.96-.11-4.67,1.13-1.17.96-2.46,2.08-3.82,3.26-6.74,5.85-14.38,12.48-22.25,11.52-4.13-.5-7.86-3.09-11.11-7.68-3.96-5.49-7.05-11.57-10.04-17.45-6.3-12.38-12.24-24.07-25.5-29.14-3.44-1.44-6.76-2.34-9.98-3.21l-.26-.07C51.21,311.94.02,244.92.02,168.88.02,75.76,75.78,0,168.9,0s168.88,75.76,168.88,168.88c0,6.4-.36,12.84-1.07,19.15-.35,3.14-.8,6.29-1.33,9.37-2.25,18.19-3.86,28.02-5.41,37.52-.77,4.71-1.5,9.16-2.28,14.46-6.84,46.66-14.82,70.22-24.38,72.01-3.74.7-7.38-1.8-10.47-7.25-.23-.4-.51-.59-.97-.65-1.6-.21-5.18,1.28-9.95,6.17-4.74,4.87-9.6,15.59-10.39,22.94-1.06,9.85-1.97,20.03-2.76,29l-.11,1.19c-1.66,18.67-3.38,37.98-6.36,56.85-.97,6.11-2,11.76-3.14,17.27-.63,3.05-1.28,5.79-2.8,8.3-2.31,3.83-5.88,6.06-9.79,6.12-.05,0-.11,0-.16,0Zm-35.51-91.54c.8,0,1.58.13,2.36.39,7.13,2.41,11.09,15.62,13.45,23.51l.18.6c.66,2.3,1.27,4.83,1.89,7.76,1.35,6.41,2.16,12.95,2.95,19.29.81,6.55,1.65,13.32,3.08,19.85.86,3.93,2.08,8.47,4.56,12.32,1.8,2.78,4.38,4.36,7.15,4.32,2.68-.04,5.17-1.65,6.85-4.43,1.23-2.04,1.8-4.47,2.37-7.2,1.13-5.46,2.15-11.05,3.11-17.11,2.97-18.74,4.68-37.99,6.33-56.61l.11-1.19c.8-8.99,1.7-19.18,2.77-29.07.78-7.25,5.54-19.03,11.37-25.01,4.87-5,9.58-7.62,12.9-7.19,1.56.2,2.79,1.03,3.57,2.39,1.3,2.3,3.89,6.08,6.78,5.54,3.53-.66,12.71-8.72,21.56-69.08.78-5.33,1.51-9.79,2.29-14.52,1.55-9.47,3.15-19.26,5.41-37.47.53-3.09.97-6.17,1.31-9.25.7-6.18,1.05-12.49,1.05-18.76C334.28,77.69,260.09,3.5,168.9,3.5S3.52,77.69,3.52,168.88c0,74.46,50.12,140.09,121.89,159.6l.26.07c3.32.9,6.76,1.84,10.36,3.34,14.47,5.53,21,18.38,27.32,30.8,2.93,5.76,5.96,11.72,9.77,17,2.7,3.82,5.53,5.86,8.68,6.24,6.33.77,13.35-5.32,19.54-10.69,1.38-1.2,2.68-2.33,3.98-3.39,1.9-1.38,3.75-2.07,5.56-2.07Z" style="fill: #ff57b8;"/>
      <g>
        <path d="m159.06,360.41c-.64,0-1.25-.35-1.56-.96-16.31-31.97-25.11-69.26-26.9-113.98-1.58-39.37,2.3-79.31,6.06-117.93l.55-5.65c.3-2.69.61-5.3.91-7.84,8.91-74.45,19.94-97.55,29.55-110.33,2.43-3.22,5.01-3.75,8.14-3.56.96.06,1.7.89,1.64,1.85-.06.97-.88,1.7-1.86,1.64-2.29-.14-3.59.14-5.12,2.17-9.33,12.41-20.06,35.02-28.88,108.65-.3,2.54-.61,5.13-.9,7.79l-.55,5.62c-7.62,78.39-15.5,159.45,20.47,229.98.44.86.1,1.91-.76,2.35-.25.13-.53.19-.79.19Z" style="fill: #ff57b8;"/>
        <path d="m138.38,336.65c-.28,0-.55-.07-.82-.2-2.71-1.43-5.96-2.77-10.54-4.35-2.15-.69-4.29-1.48-6.31-2.32-20.99-8.74-36.28-26.51-45.44-52.82-16.19-46.46-11.13-82.58-2.23-128.53,9.16-47.27,23.45-82.24,43.69-106.9,17.41-21.22,36.04-30.92,52.13-38.33,3.41-1.57,7.26-2.42,12.14-2.69.95-.05,1.79.69,1.84,1.65.05.96-.69,1.79-1.65,1.84-4.48.24-7.83.97-10.86,2.37-35.16,16.21-74.32,41.94-93.85,142.72-8.8,45.41-13.8,81.08,2.1,126.72,8.95,25.69,23.17,42.29,43.48,50.74,1.93.8,3.97,1.56,6.07,2.23,4.79,1.65,8.2,3.05,11.07,4.57.85.45,1.18,1.51.73,2.36-.31.59-.92.93-1.55.93Z" style="fill: #ff57b8;"/>
        <path d="m66.48,302.71c-.41,0-.83-.15-1.16-.44-.74-.66-1.47-1.3-2.2-1.95-9.37-8.24-18.22-16.03-28.73-40.65-18.68-43.74-20.09-85.36-4.32-127.25C67.74,32.4,124.14,16.15,169.46,3.1c4.14-1.19,11.51-1.28,17.43-1.34,1.91-.02,3.71-.04,5.18-.1.99-.04,1.78.72,1.81,1.68.04.97-.72,1.78-1.68,1.81-1.51.06-3.34.08-5.27.1-5.71.06-12.82.14-16.5,1.21-44.57,12.84-100.04,28.81-137.09,127.19-15.44,41-14.05,81.77,4.26,124.64,10.21,23.9,18.76,31.43,27.82,39.4.74.65,1.48,1.3,2.22,1.96.72.64.79,1.75.14,2.47-.35.39-.83.59-1.31.59Z" style="fill: #ff57b8;"/>
        <path d="m10.71,116.19c-.25,0-.5-.05-.74-.17-.88-.41-1.25-1.45-.84-2.33C26.68,76.31,52.28,47.59,85.22,28.34,117.67,9.36,149.41,4.1,170.32,3.03c6.5-.33,33.13.98,45.77,3.7.95.2,1.55,1.13,1.34,2.08-.2.95-1.14,1.55-2.08,1.34-12.15-2.61-38.67-3.94-44.86-3.62-33.02,1.69-114.54,15.67-158.21,108.66-.3.63-.93,1.01-1.58,1.01Z" style="fill: #ff57b8;"/>
      </g>
      <g>
        <path d="m182.9,389.5c-.83,0-1.56-.59-1.72-1.43-.17-.95.46-1.86,1.41-2.04,6.9-1.27,8.84-8.38,9.92-15.88,0-.05.02-.1.03-.14,17.73-77.14,14.94-151.71,5.29-239.95-.39-3.46-.79-6.91-1.21-10.36-1.15-9.48-2.45-19.58-3.98-30.88-.37-2.46-.75-4.87-1.12-7.22-7.93-49.05-17.16-66.26-24.32-75.78-1.53-2.03-2.82-2.31-5.12-2.17-.98.06-1.79-.67-1.86-1.64-.06-.96.67-1.8,1.64-1.85,3.14-.19,5.71.34,8.14,3.56,11.14,14.81,18.61,37.93,24.98,77.32.38,2.36.76,4.78,1.13,7.28,1.53,11.34,2.84,21.46,3.99,30.95.42,3.46.82,6.92,1.21,10.39,9.69,88.57,12.49,163.45-5.34,241.05-.79,5.52-2.45,16.87-12.74,18.75-.11.02-.21.03-.32.03Z" style="fill: #ff57b8;"/>
        <path d="m240.94,428.92c-1.7,0-3.76-.63-5.75-2.89-3.04-3.08-5.44-9.79-7.38-15.18-.64-1.79-1.25-3.49-1.78-4.76-.37-.89.05-1.92.94-2.29.9-.37,1.92.05,2.29.94.57,1.36,1.19,3.09,1.84,4.92,1.73,4.82,4.09,11.43,6.6,13.93.03.03.05.06.08.09,1.65,1.88,3.03,1.85,3.92,1.65,4.21-.91,8.92-8.48,10.89-15,2.87-14.15,5.45-26.89,7.82-39.46.62-3.26,1.22-6.51,1.81-9.76,0-.04.02-.09.03-.13,20-75.72,9.77-154.27-2.88-221.11-.67-2.95-1.42-6.06-2.28-9.45-2.39-9.39-5.09-18.77-8.02-27.88-.75-2.23-1.56-4.58-2.57-7.38-21.62-58.22-52.21-76.36-79.18-88.8-3.03-1.4-6.38-2.13-10.86-2.37-.96-.05-1.71-.88-1.65-1.84.05-.96.86-1.71,1.84-1.65,4.88.26,8.73,1.12,12.14,2.69,27.61,12.73,58.91,31.29,81,90.78,1.02,2.84,1.84,5.21,2.6,7.49,2.95,9.19,5.67,18.64,8.08,28.11.87,3.42,1.62,6.56,2.31,9.6,12.73,67.27,23,146.28,2.85,222.65-.59,3.23-1.19,6.47-1.8,9.71-2.38,12.61-4.96,25.39-7.84,39.58-.01.05-.02.1-.04.15-1.88,6.26-7.03,16.08-13.53,17.49-.45.1-.96.16-1.51.16Z" style="fill: #ff57b8;"/>
        <path d="m280.66,320.19c-.2,0-.41-.04-.61-.11-.91-.34-1.37-1.34-1.03-2.25,5.8-15.58,13.22-15.3,18.66-15.09,4.03.16,5.87.23,6.77-5.94.41-2.79.82-5.57,1.23-8.36,7.56-51.38,15.38-104.52-1.39-154.75-.92-2.5-1.94-5.15-3.11-8.05C264.22,34.4,210.44,18.91,167.23,6.46c-3.69-1.06-10.8-1.14-16.5-1.2-1.93-.02-3.76-.04-5.27-.1-.97-.04-1.72-.85-1.68-1.81.04-.97.85-1.72,1.81-1.68,1.46.05,3.27.08,5.18.1,5.92.07,13.29.15,17.43,1.34,43.94,12.66,98.63,28.41,136.24,121.24,1.18,2.94,2.21,5.62,3.16,8.2,17.05,51.08,9.17,104.63,1.55,156.42-.41,2.78-.82,5.57-1.23,8.35-1.35,9.28-6.14,9.09-10.37,8.93-4.84-.19-10.32-.4-15.24,12.81-.26.7-.93,1.14-1.64,1.14Z" style="fill: #ff57b8;"/>
        <path d="m326.95,116.19c-.66,0-1.29-.37-1.58-1.01C281.69,22.19,200.18,8.22,167.16,6.53c-6.19-.32-32.71,1.01-44.86,3.62-.93.2-1.88-.4-2.08-1.34-.2-.94.4-1.88,1.34-2.08,12.64-2.72,39.26-4.03,45.77-3.7,20.91,1.07,52.65,6.33,85.1,25.31,32.94,19.26,58.54,47.98,76.1,85.36.41.87.04,1.92-.84,2.33-.24.11-.49.17-.74.17Z" style="fill: #ff57b8;"/>
      </g>
      <path d="m249.01,333.57c-2.39,0-4.74-.84-6.58-2.38-2.04-1.7-3.27-4.06-4.29-6.35-.75-1.67-1.47-3.48-2.15-5.36-2.2-6.07-3.76-12.39-5.27-18.5-.62-2.51-1.26-5.11-1.93-7.64-2.51-9.44-5.63-17.45-9.54-24.48-1.4-2.51-2.82-4.62-4.22-6.26-.05-.06-.1-.12-.14-.18-1.06-1.62-2.96-2.85-4.97-3.2-1.12-.2-2.75-.21-4.21.84-3.28,3.32-5.24,7.45-7.3,11.81-2.39,5.04-4.86,10.26-9.57,14.45-3.11,2.49-8.39,4.14-16.29-1.79-.07-.05-.13-.1-.19-.16-6.65-6.65-11.66-15.23-16.49-23.53-8.46-14.51-16.45-28.21-32.45-32.13-2.3-.32-4.6-.56-6.83-.78l-.78-.08c-33.16-3.4-61.69-9.81-82.5-18.55C11.51,200.15,0,189.1,0,177.34c0-.97.78-1.75,1.75-1.75s1.75.78,1.75,1.75c0,20.88,46.32,40.21,112.65,47.01l.78.08c2.29.23,4.66.48,7.05.81.06,0,.11.02.17.03,17.5,4.24,26.26,19.26,34.73,33.79,4.7,8.06,9.56,16.4,15.86,22.73,4.86,3.61,8.84,4.23,11.83,1.84,4.11-3.66,6.32-8.33,8.67-13.27,2.12-4.48,4.31-9.11,8.08-12.88.06-.06.12-.11.19-.16,1.94-1.46,4.43-2.01,7.01-1.55,2.93.52,5.62,2.25,7.23,4.64,1.56,1.83,3.05,4.04,4.56,6.75,4.05,7.29,7.27,15.56,9.86,25.28.68,2.56,1.33,5.18,1.95,7.7,1.49,6.02,3.02,12.25,5.16,18.15.65,1.81,1.35,3.53,2.06,5.13.98,2.21,1.93,3.91,3.34,5.09,1.38,1.15,3.27,1.72,5.05,1.53,1.79-.19,3.51-1.15,4.61-2.57.98-1.25,1.54-2.88,2.13-4.71.3-.96.63-1.93.95-2.9,1.16-3.5,2.36-7.11,2.93-10.6.11-.69.16-1.39.22-2.13.07-.95.14-1.94.35-2.98.37-1.85.72-3.86,1.11-6.35.29-1.89.57-3.78.84-5.68.95-6.66,1.94-13.54,3.94-20.16,1.25-4.12,2.85-7.91,4.75-11.27.03-.05.06-.11.1-.16,2.81-3.94,7.08-5.21,10.84-6.33,3.15-.94,6.12-1.83,8.01-4.1,7.85-10.03,14.1-21.09,20.15-31.79,6.84-12.1,13.91-24.61,23.42-35.86.62-.74,1.73-.83,2.47-.21.74.62.83,1.73.21,2.47-9.29,11-16.28,23.36-23.04,35.32-6.11,10.81-12.42,21.98-20.47,32.26-2.6,3.12-6.23,4.2-9.73,5.25-3.51,1.05-6.82,2.03-8.94,4.94-1.75,3.12-3.23,6.64-4.4,10.48-1.93,6.36-2.9,13.11-3.83,19.63-.27,1.91-.55,3.82-.84,5.73-.4,2.54-.76,4.6-1.14,6.5-.17.83-.23,1.67-.29,2.55-.06.78-.12,1.59-.25,2.43-.61,3.77-1.86,7.52-3.06,11.14-.32.96-.64,1.92-.94,2.86-.69,2.16-1.37,4.1-2.7,5.8-1.7,2.18-4.25,3.6-7,3.9-.36.04-.72.06-1.08.06Z" style="fill: #ff57b8;"/>
      <path d="m242.5,201.07c-.09,0-.18,0-.28,0-3.15-.06-6.4-1.03-10.24-3.06-5.07-2.68-9.55-6.23-13.32-10.55-1.92-2.19-3.62-4.62-5.28-6.96-4.11-5.83-7.99-11.33-14.75-13.41-3.75-1.16-7.88-1.25-11.93-.27-3.65.88-6.29,2.7-9.35,4.8-.61.42-1.22.84-1.86,1.26-2.59,1.73-5.63,1.54-8.56,1.35-.9-.06-1.84-.12-2.73-.12-.14,0-.29-.02-.42-.05-6.64-1.66-12.38-5.08-17.93-8.38-7.44-4.43-14.46-8.61-23.41-8.78-.06,0-.12,0-.18-.01l-2.83-.34c-1.47-.18-2.94-.35-4.39-.54-63.1-6.83-103.9-24.52-103.9-45.07,0-1.33.17-2.67.51-3.99.24-.94,1.19-1.5,2.13-1.26.94.24,1.5,1.2,1.26,2.13-.27,1.03-.4,2.08-.4,3.12,0,18.35,40.51,35.06,100.81,41.59,1.48.19,2.93.37,4.4.54l2.75.33c9.83.22,17.56,4.82,25.04,9.28,5.27,3.14,10.72,6.38,16.79,7.94.93,0,1.85.07,2.73.12,2.57.16,4.79.3,6.4-.77.62-.42,1.23-.83,1.82-1.24,3.21-2.2,6.24-4.28,10.51-5.32,4.66-1.13,9.42-1.02,13.78.32,7.9,2.43,12.32,8.69,16.58,14.74,1.6,2.27,3.26,4.62,5.05,6.67,3.49,4,7.63,7.28,12.32,9.76,3.34,1.76,6.09,2.61,8.67,2.66,3.04.06,5.84-1.16,7.32-3.18.95-1.31,1.44-2.96,1.94-4.83,2.9-10.93,6.18-23.32,14.93-32.85,7.5-8.16,17.09-15.41,28.5-21.54,5.17-2.78,10.68-5.34,16.83-7.82,1.84-1.3,3.48-2.63,4.88-3.96,4.29-4.08,6.47-8.27,6.47-12.45,0-.85-.09-1.72-.27-2.56-.2-.95.4-1.87,1.35-2.07.95-.2,1.87.4,2.08,1.35.23,1.09.35,2.19.35,3.29,0,5.18-2.54,10.22-7.56,14.99-1.57,1.49-3.4,2.97-5.45,4.4-.11.08-.23.14-.35.19-6.1,2.45-11.55,4.98-16.67,7.73-11.06,5.95-20.34,12.95-27.58,20.83-8.17,8.89-11.2,20.32-14.13,31.38-.57,2.14-1.18,4.2-2.5,6-2.12,2.91-5.82,4.62-9.93,4.62Zm70.15-72.17h0,0Z" style="fill: #ff57b8;"/>
      <path d="m168.9,90.2c-32.13,0-62.35-3.45-85.11-9.7-23.44-6.44-36.35-15.31-36.35-24.96,0-1.71.4-3.42,1.2-5.09.42-.87,1.46-1.24,2.33-.82.87.42,1.24,1.46.82,2.33-.57,1.19-.86,2.39-.86,3.58,0,15.05,47.4,31.16,117.96,31.16s117.96-16.11,117.96-31.16c0-1.19-.29-2.39-.86-3.58-.42-.87-.05-1.92.82-2.33.87-.42,1.92-.05,2.33.82.8,1.66,1.2,3.38,1.2,5.09,0,9.65-12.91,18.52-36.35,24.96-22.76,6.26-52.98,9.7-85.11,9.7Z" style="fill: #ff57b8;"/>
      <path d="m168.53,35.47c-32.65,0-67.34-6.15-67.34-17.54,0-1.58.65-3.11,1.95-4.54.65-.72,1.75-.78,2.47-.13.72.65.77,1.75.13,2.47-.69.77-1.04,1.51-1.04,2.19,0,5.86,24.29,14.04,63.84,14.04s63.84-8.17,63.84-14.04c0-.79-.46-1.64-1.36-2.52-.69-.68-.7-1.79-.02-2.47.68-.69,1.79-.7,2.47-.02,1.6,1.57,2.41,3.26,2.41,5.02,0,11.39-34.7,17.54-67.34,17.54Z" style="fill: #ff57b8;"/>
      <path d="m246.04,412.74c-1.45,0-2.97-.59-4.17-1.7-1.41-1.3-2.21-3.03-2.86-4.43-5.65-12.14-7.46-25.6-9.22-38.63-1.41-10.49-2.87-21.34-6.34-31.3-1.05-3-2.23-5.87-3.51-8.53-.45-.6-.89-1.25-1.35-1.91-2.49-3.62-4.46-6.17-6.98-5.77-6.16,2.55-9.16,8.98-11.49,14.81-2.79,6.96-5.91,14.35-10.73,21.36-.88,1.28-2,2.7-3.64,3.47-2.91,1.38-6.25.18-8.25-1.62-1.96-1.75-3.09-4.1-4.08-6.35-2.5-5.68-4.57-11.44-6.26-16.34-3.41-9.88-8.7-20.29-14.88-29.31-3.35-4.89-12.31-16.47-23.13-18.46-2.24-.41-4.49-.69-6.79-.97-50.93-6.15-89.85-21.78-104.09-41.81-.56-.79-.38-1.88.41-2.44.79-.56,1.88-.38,2.44.41,13.48,18.95,52.43,34.42,101.66,40.36,2.35.28,4.66.57,7,1,12.12,2.22,21.79,14.67,25.39,19.92,6.35,9.27,11.79,19.98,15.3,30.15,1.67,4.82,3.7,10.51,6.16,16.07.87,1.98,1.78,3.87,3.22,5.15,1.11.99,2.96,1.75,4.42,1.06.89-.42,1.61-1.35,2.25-2.29,4.62-6.72,7.65-13.9,10.37-20.68,2.62-6.55,6.05-13.8,13.6-16.82.1-.04.2-.07.31-.09,5.05-1.01,8.18,3.54,10.69,7.19.46.67.92,1.33,1.37,1.94.07.09.12.18.17.28,1.37,2.82,2.62,5.86,3.73,9.05,3.59,10.29,5.07,21.32,6.51,31.98,1.72,12.76,3.5,25.96,8.92,37.62.57,1.23,1.16,2.5,2.06,3.33.63.58,1.64.99,2.34.67,1.21-.55,2.42-3.94,3-5.57.17-.47.32-.89.46-1.25,1.32-3.4,2.56-7.07,3.68-10.9,1.99-6.8,3.64-14.16,5.19-23.16.5-2.92,1.02-6.13,1.62-10.11,1.28-23.31,3.7-66.45,34.53-66.45.19,0,.37,0,.56,0,.05,0,.1,0,.15,0,10.22,0,17.38-17.84,23.15-32.2,1.97-4.9,3.82-9.52,5.62-12.97.45-.86,1.5-1.19,2.36-.74.86.45,1.19,1.5.74,2.36-1.72,3.29-3.55,7.84-5.48,12.65-6.16,15.33-13.81,34.39-26.39,34.39-.07,0-.14,0-.21,0-25.85-.43-29.84,32.41-31.53,63.22,0,.06,0,.11-.02.16-.61,4.04-1.13,7.31-1.64,10.27-1.58,9.14-3.25,16.62-5.28,23.55-1.15,3.93-2.42,7.69-3.78,11.19-.13.33-.27.73-.42,1.16-.97,2.71-2.29,6.42-4.85,7.58-.62.28-1.29.42-1.99.42Z" style="fill: #ff57b8;"/>
    </g>
  </g>
</svg>