<?xml version="1.0" encoding="UTF-8"?>
<svg id="Layer_2" data-name="Layer 2" xmlns="http://www.w3.org/2000/svg" viewBox="0 0 733.92 73.62">
  <g id="_ÎÓÈ_1" data-name="—ÎÓÈ_1">
    <path d="m701.37,73.62s0,0,0,0c-13.49,0-25.62-13.53-32.46-36.19-6.26-20.75-16.86-33.13-28.34-33.13-11.49,0-22.08,12.39-28.34,33.13-6.84,22.66-18.97,36.19-32.46,36.19s-25.62-13.53-32.46-36.19c-6.26-20.75-16.86-33.13-28.34-33.13-11.49,0-22.08,12.39-28.34,33.13-6.84,22.66-18.97,36.19-32.46,36.19s-25.62-13.53-32.46-36.19c-6.26-20.75-16.86-33.13-28.34-33.13-11.49,0-22.08,12.39-28.34,33.13-6.84,22.66-18.97,36.19-32.46,36.19s-25.62-13.53-32.46-36.19c-6.26-20.75-16.86-33.13-28.34-33.13-11.49,0-22.08,12.39-28.34,33.13-6.84,22.66-18.97,36.19-32.46,36.19-13.49,0-25.62-13.53-32.46-36.19-6.26-20.75-16.86-33.13-28.34-33.13-11.49,0-22.08,12.39-28.34,33.13-6.84,22.66-18.97,36.19-32.46,36.19s-25.62-13.53-32.46-36.19C54.63,16.69,44.04,4.3,32.55,4.3c-11.49,0-22.08,12.39-28.34,33.13-.34,1.14-1.54,1.78-2.68,1.44-1.14-.34-1.78-1.54-1.44-2.68C6.93,13.53,19.07,0,32.55,0s25.62,13.53,32.46,36.19c6.26,20.75,16.86,33.13,28.34,33.13,11.49,0,22.08-12.39,28.34-33.13C128.53,13.53,140.67,0,154.15,0s25.62,13.53,32.46,36.19c6.26,20.75,16.86,33.13,28.34,33.13,11.49,0,22.08-12.39,28.34-33.13C250.14,13.53,262.27,0,275.76,0s25.62,13.53,32.46,36.19c6.26,20.75,16.86,33.13,28.34,33.13,11.49,0,22.08-12.39,28.34-33.13,6.84-22.66,18.97-36.19,32.46-36.19s25.62,13.53,32.46,36.19c6.26,20.75,16.86,33.13,28.34,33.13,11.49,0,22.08-12.39,28.34-33.13,6.84-22.66,18.97-36.19,32.46-36.19s25.62,13.53,32.46,36.19c6.26,20.75,16.86,33.13,28.34,33.13,11.49,0,22.08-12.39,28.34-33.13C614.95,13.53,627.08,0,640.57,0c13.49,0,25.62,13.53,32.46,36.19,6.26,20.75,16.86,33.13,28.34,33.13,11.49,0,22.08-12.39,28.34-33.13.34-1.14,1.55-1.78,2.68-1.44,1.14.34,1.78,1.54,1.44,2.68-6.84,22.66-18.97,36.19-32.46,36.19Z" style="fill: #ff57b8;"/>
  </g>
</svg>