<?xml version="1.0" encoding="UTF-8"?>
<svg id="Layer_2" data-name="Layer 2" xmlns="http://www.w3.org/2000/svg" viewBox="0 0 128.13 95.52">
  <g id="_ÎÓÈ_1" data-name="—ÎÓÈ_1">
    <path d="m128.04,14.96c-.23-.76-.9-1.32-1.69-1.4L10.26.58C9.17.12,8.07-.09,6.98.03,4.81.27,1.96,1.86.68,8.04c-2.75,13.26,3.11,41.94,13.05,63.95,3.24,7.18,11.51,23.53,19.46,23.53.21,0,.42-.01.63-.03.35-.04.72-.12,1.1-.24.02,0,.05-.01.07-.02,1.02-.35,2.1-1.07,3.05-2.43L127.42,17.07c.61-.52.85-1.35.62-2.11ZM4.59,8.85h0c.61-2.95,1.64-4.71,2.82-4.84.06,0,.11,0,.18,0,2.27,0,8.23,4.35,15.83,21.17,9.65,21.35,15.38,48.93,12.78,61.49-.61,2.95-1.64,4.71-2.82,4.84-2.12.24-8.2-3.89-16.01-21.17C7.72,48.99,1.99,21.41,4.59,8.85Zm35.84,76.66c1.86-13.96-3.89-41.01-13.37-61.99-2.06-4.57-6.16-12.85-10.92-18.27l105.15,11.75L40.44,85.51Z" style="fill: #ff57b8;"/>
  </g>
</svg>