<?xml version="1.0" encoding="UTF-8"?>
<svg id="Layer_2" data-name="Layer 2" xmlns="http://www.w3.org/2000/svg" viewBox="0 0 465.16 297.43">
  <g id="_ÎÓÈ_1" data-name="—ÎÓÈ_1">
    <g>
      <path d="m322.3,297.43c-37.03,0-80.03-7.35-128.57-22-75.6-22.83-130.22-53.01-162.34-89.7C2.63,152.87-6.61,115.75,4.68,78.38l2.06.62-2.06-.62C16.12,40.48,42.66,16,83.55,5.62,128.83-5.87,191.45.28,269.68,23.9c78.23,23.62,133.79,53.16,165.14,87.79,28.32,31.28,36.87,66.36,25.43,104.25-11.29,37.37-39.52,63.18-81.66,74.63-16.85,4.58-35.64,6.86-56.29,6.86ZM133.38,4.29c-18.05,0-34.32,1.83-48.77,5.5C45.28,19.77,19.77,43.27,8.79,79.62c-10.84,35.88-1.9,71.59,25.83,103.28,31.58,36.07,85.53,65.82,160.35,88.41,74.82,22.59,136.22,27.67,182.48,15.11,40.63-11.04,67.84-35.84,78.67-71.72,10.98-36.35,2.73-70.04-24.5-100.12-30.82-34.04-85.72-63.17-163.19-86.56C216.12,12.22,170.92,4.29,133.38,4.29Z" style="fill: #ff57b8;"/>
      <path d="m333.47,131.15c-.5,0-1,0-1.51,0-25.34-.22-57.4-5.81-90.26-15.73-32.86-9.92-62.65-23.01-83.88-36.85-21.93-14.3-32.26-27.98-29.07-38.53,3.19-10.55,19.34-16.23,45.54-16,25.34.22,57.4,5.81,90.26,15.73,32.86,9.92,62.65,23.01,83.88,36.85,21.93,14.3,32.26,27.98,29.07,38.53-3.12,10.34-18.74,16.01-44.03,16.01ZM172.75,28.32c-22.89,0-37.4,4.7-39.89,12.95-4.92,16.28,38.14,48.3,110.08,70.03,32.48,9.81,64.11,15.33,89.06,15.55,23.77.21,38.84-4.51,41.39-12.95,4.92-16.28-38.14-48.3-110.08-70.03-32.48-9.81-64.11-15.33-89.06-15.55-.5,0-1,0-1.5,0Z" style="fill: #ff57b8;"/>
      <path d="m319.91,130.66c-.57,0-1.14-.23-1.56-.67-12.27-12.97-39.65-27-71.46-36.6-31.14-9.4-61.37-12.95-78.9-9.26-1.16.24-2.3-.5-2.55-1.66-.25-1.16.5-2.3,1.66-2.55,18.2-3.83,49.24-.25,81.03,9.35,32.49,9.81,60.59,24.28,73.34,37.77.82.86.78,2.22-.08,3.04-.42.39-.95.59-1.48.59Z" style="fill: #ff57b8;"/>
      <path d="m367.24,157.13c-.17,0-.33,0-.5,0-37.32-.07-84.49-8.15-132.82-22.74-48.33-14.59-92.09-33.97-123.21-54.57-31.82-21.05-46.77-41.14-42.12-56.56,3.11-10.31,14.83-17.64,33.87-21.22,1.17-.22,2.29.55,2.51,1.72.22,1.17-.55,2.29-1.72,2.51-17.37,3.26-27.93,9.56-30.55,18.24-4,13.25,10.71,32.11,40.37,51.73,30.79,20.37,74.14,39.56,122.08,54.04,47.94,14.48,94.67,22.49,131.59,22.56.16,0,.32,0,.48,0,35.29,0,57.79-7.55,61.78-20.74,2.78-9.2-3.1-22.66-14.97-34.29-.85-.83-.86-2.19-.03-3.04.83-.85,2.19-.86,3.04-.03,13,12.74,19.32,27.89,16.08,38.61-4.64,15.35-28.03,23.8-65.89,23.8Z" style="fill: #ff57b8;"/>
      <path d="m374.49,217.31c-44.89,0-99.94-9.2-156.1-26.16C97.29,154.59,8.74,93.29,16.81,51.61c.23-1.16,1.35-1.93,2.52-1.7,1.17.23,1.93,1.35,1.7,2.52-7.53,38.88,81.57,99.27,198.6,134.61,58.93,17.8,116.58,26.99,162.34,25.88,44.32-1.07,72.88-12.12,78.38-30.32.17-.56.32-1.15.45-1.74.25-1.16,1.4-1.89,2.56-1.64,1.16.26,1.89,1.4,1.64,2.56-.15.7-.33,1.39-.54,2.06-6.16,20.39-35.42,32.24-82.39,33.38-2.49.06-5.03.09-7.59.09Z" style="fill: #ff57b8;"/>
      <path d="m353.98,275.68c-43.58,0-97.63-8.55-153.44-25.4C102.42,220.65,22.81,172.77,2.46,131.13c-.52-1.07-.08-2.35.99-2.88,1.07-.52,2.36-.08,2.88.99,9.37,19.17,33.35,41.12,67.51,61.8,35.56,21.52,79.8,40.58,127.95,55.12,50.6,15.28,100,23.96,142.87,25.1,41.27,1.1,73.12-5.16,89.68-17.64.95-.72,2.3-.53,3.01.42.71.95.53,2.3-.42,3.01-16.53,12.46-45.96,18.62-82.93,18.62Z" style="fill: #ff57b8;"/>
      <g>
        <path d="m140.05,256.17c-.28,0-.56-.05-.83-.17-8.4-3.5-11.93-14.75-10.2-32.53,1.55-15.96,7.32-36.55,16.25-57.99,8.8-21.14,19.55-39.59,30.27-51.94,11.66-13.44,22.3-18.68,30.77-15.15,1.1.46,1.62,1.72,1.16,2.81-.46,1.1-1.72,1.61-2.81,1.16-6.5-2.7-15.69,2.26-25.87,14-10.42,12.01-20.92,30.04-29.55,50.77-8.77,21.05-14.43,41.21-15.94,56.75-1.51,15.49,1.18,25.48,7.58,28.14,1.1.46,1.62,1.72,1.16,2.81-.34.83-1.14,1.32-1.99,1.32Z" style="fill: #ff57b8;"/>
        <path d="m80.61,225.71c-.44,0-.89-.14-1.28-.42-29.08-21.52-31.47-60.91-6.24-102.8,11.64-19.34,27.6-34.54,44.92-42.8,17.46-8.32,34.4-8.76,47.7-1.25,1.03.58,1.4,1.9.81,2.93-.58,1.03-1.89,1.4-2.93.81-25.19-14.23-64.14,4.84-86.82,42.52-23.98,39.83-22.02,77.05,5.12,97.13.95.71,1.16,2.05.45,3.01-.42.57-1.07.87-1.73.87Z" style="fill: #ff57b8;"/>
        <path d="m22.41,172.19c-.7,0-1.39-.34-1.8-.97-6-9.16-22.32-50.97,7.45-88.14,17.36-21.67,37.72-33.9,60.53-36.34,23.32-2.5,41.85,6.05,50.82,11.37,1.02.61,1.36,1.92.75,2.95-.61,1.02-1.93,1.36-2.95.75-28.39-16.83-71.09-19.37-105.8,23.97-28.15,35.15-12.85,74.48-7.21,83.09.65.99.37,2.33-.62,2.98-.36.24-.77.35-1.18.35Z" style="fill: #ff57b8;"/>
        <path d="m235.71,113.39c-.21,0-.42-.03-.64-.1-1.13-.35-1.77-1.55-1.42-2.69.17-.55,17.17-55.87,19.98-88.68.1-1.18,1.13-2.06,2.33-1.96,1.18.1,2.06,1.14,1.96,2.33-2.85,33.27-19.98,89.02-20.16,89.58-.29.92-1.13,1.52-2.05,1.52Z" style="fill: #ff57b8;"/>
        <path d="m207.89,103.41c-.17,0-.33-.02-.5-.06-1.15-.28-1.87-1.44-1.59-2.59.13-.53,12.57-53.48-3.69-79.23-4.39-6.95-10.57-11.32-18.38-12.97-1.16-.25-1.9-1.39-1.66-2.55.25-1.16,1.38-1.9,2.55-1.66,8.98,1.91,16.09,6.92,21.12,14.89,17.22,27.29,4.77,80.28,4.23,82.53-.24.99-1.12,1.65-2.09,1.65Z" style="fill: #ff57b8;"/>
        <path d="m184.05,92.58s-.07,0-.11,0c-1.19-.06-2.1-1.07-2.04-2.26.02-.45,2-44.93-21.14-69.38-9.98-10.55-23.3-15.94-39.59-16.01-1.19,0-2.14-.97-2.14-2.16,0-1.18.97-2.14,2.15-2.14h.01c17.52.08,31.89,5.93,42.71,17.37,24.4,25.81,22.39,70.65,22.3,72.54-.06,1.15-1.01,2.04-2.15,2.04Z" style="fill: #ff57b8;"/>
        <path d="m165.46,82.61c-1.08,0-2.01-.81-2.13-1.91-.02-.18-2.18-18.6-13.96-36.11-15.69-23.33-40.2-34.15-72.83-32.16-1.2.07-2.2-.83-2.28-2.02-.07-1.19.83-2.2,2.02-2.28,42.78-2.6,65.35,17.16,76.76,34.2,12.31,18.39,14.48,37.11,14.57,37.9.13,1.18-.72,2.24-1.9,2.37-.08,0-.16.01-.24.01Z" style="fill: #ff57b8;"/>
        <path d="m150.99,73.28c-1.05,0-1.97-.78-2.13-1.85-1.49-10.52-19.7-31.19-44.85-39.61-20.52-6.87-51.97-8.1-85.28,25.08-.84.84-2.2.84-3.04,0-.84-.84-.84-2.2,0-3.04C50.57,19.13,83.72,20.49,105.39,27.75c28.14,9.43,46.09,31.46,47.74,43.09.17,1.18-.65,2.26-1.83,2.43-.1.01-.2.02-.3.02Z" style="fill: #ff57b8;"/>
      </g>
      <g>
        <path d="m214.26,281.11c-.42,0-.81-.06-1.19-.16-1.15-.3-1.84-1.47-1.55-2.62.3-1.15,1.47-1.84,2.62-1.55.04,0,3.85-.13,12.23-20.78,5.72-14.09,11.96-33.85,17.56-55.62,5.69-22.12,9.88-42.35,11.8-56.97,2.9-22.07-.27-24.06-.31-24.08-1.15-.3-1.84-1.47-1.54-2.62.3-1.15,1.47-1.84,2.62-1.55,3.24.83,6.58,4.79,3.58,28.14-1.91,14.86-6.16,35.51-11.99,58.15-5.72,22.24-12.1,42.36-17.95,56.67-7.9,19.33-12.64,22.98-15.89,22.98Z" style="fill: #ff57b8;"/>
        <path d="m285.9,295.01c-1.34,0-2.68-.08-4.04-.25-1.18-.14-2.02-1.22-1.87-2.4.14-1.18,1.22-2.02,2.39-1.87,1.19.15,2.35.21,3.48.21,13.81,0,23.86-10.23,30.02-19.22,9.34-13.62,16-33.43,18.73-55.79,4.98-40.73-2.47-83.34-30.31-86.74-1.18-.14-2.02-1.22-1.87-2.4.14-1.18,1.21-2.02,2.39-1.87,30.8,3.76,39.3,48.68,34.06,91.53-2.81,23.04-9.72,43.53-19.45,57.7-9.51,13.86-21.04,21.08-33.53,21.08Z" style="fill: #ff57b8;"/>
        <path d="m368.6,292.91c-1.04,0-1.96-.76-2.12-1.83-.18-1.17.63-2.27,1.8-2.45,6.11-.93,16.95-8.69,26.3-23.55,5.84-9.28,15.36-28.42,13.51-52.33-3.44-44.5-29.61-78.23-63.63-82.04-1.18-.13-2.03-1.2-1.9-2.38.13-1.18,1.18-2.03,2.38-1.9,17.86,2,33.79,11.35,46.07,27.06,12.21,15.61,19.59,35.98,21.37,58.92,3.26,42.19-26.65,77.91-43.46,80.46-.11.02-.22.02-.33.02Z" style="fill: #ff57b8;"/>
        <path d="m445.57,244.73c-.33,0-.67-.08-.98-.24-1.06-.54-1.47-1.84-.93-2.9,10.63-20.69,10.51-47.21-.32-70.94-15.31-33.55-57.65-57.72-96.27-40.25-1.08.49-2.36.01-2.85-1.07-.49-1.08,0-2.36,1.07-2.85,40.96-18.53,85.79,6.95,101.96,42.38,11.38,24.92,11.46,52.84.23,74.69-.38.74-1.13,1.17-1.91,1.17Z" style="fill: #ff57b8;"/>
        <path d="m264.24,120.87c-.22,0-.45-.04-.68-.11-1.13-.37-1.74-1.59-1.36-2.72.88-2.65,21.75-64.94,45-76.14,4.24-2.04,8.38-2.34,12.29-.9,1.11.41,1.68,1.65,1.27,2.76-.41,1.11-1.64,1.68-2.76,1.27-2.83-1.04-5.75-.8-8.94.74-21.62,10.41-42.58,72.99-42.79,73.62-.3.9-1.14,1.47-2.04,1.47Z" style="fill: #ff57b8;"/>
        <path d="m291.97,127.26c-.29,0-.58-.06-.85-.18-1.09-.47-1.59-1.74-1.12-2.83.81-1.88,20.3-46.15,52.96-57.58,12.82-4.48,25.92-3.24,38.96,3.7,1.05.56,1.45,1.86.89,2.91-.56,1.05-1.86,1.45-2.91.89-11.92-6.35-23.87-7.51-35.5-3.44-30.88,10.8-50.25,54.79-50.45,55.23-.35.81-1.14,1.3-1.97,1.3Z" style="fill: #ff57b8;"/>
        <path d="m314.97,129.99c-.46,0-.93-.15-1.32-.46-.93-.73-1.1-2.08-.37-3.02.51-.66,12.79-16.21,32.48-27.39,26.31-14.94,53.13-14.56,77.55,1.1,1,.64,1.29,1.97.65,2.97-.64,1-1.97,1.29-2.97.65-23.28-14.93-47.84-15.28-73-1.05-18.98,10.75-31.2,26.21-31.32,26.36-.42.54-1.06.83-1.7.83Z" style="fill: #ff57b8;"/>
        <path d="m456.22,151.19c-.7,0-1.39-.34-1.8-.97-19.81-30.31-45.54-37.41-63.65-38.03-26.37-.91-48.98,11.1-54.26,18.07-.72.95-2.06,1.13-3.01.42-.95-.72-1.13-2.07-.42-3.01,6.56-8.67,30.92-20.7,57.84-19.78,19.12.66,46.28,8.13,67.1,39.98.65.99.37,2.33-.62,2.98-.36.24-.77.35-1.17.35Z" style="fill: #ff57b8;"/>
      </g>
    </g>
  </g>
</svg>