<?xml version="1.0" encoding="UTF-8"?>
<svg id="Layer_2" data-name="Layer 2" xmlns="http://www.w3.org/2000/svg" viewBox="0 0 62.89 623">
  <g id="_ÎÓÈ_1" data-name="—ÎÓÈ_1">
    <g>
      <g>
        <path d="m60.89,72.78c-.36,0-.72-.1-1.04-.29L.96,36.72c-.6-.36-.96-1.01-.96-1.71V2C0,1.28.39.61,1.02.26c.63-.35,1.4-.34,2.02.03l58.89,35.76c.6.36.96,1.01.96,1.71v33.01c0,.72-.39,1.39-1.02,1.74-.3.17-.64.26-.98.26ZM4,33.89l54.89,33.34v-28.33L4,5.55v28.33Z" style="fill: #ff57b8;"/>
        <path d="m60.89,127.8c-.36,0-.72-.1-1.04-.29L.96,91.74c-.6-.36-.96-1.01-.96-1.71v-33.01c0-.72.39-1.39,1.02-1.74.63-.35,1.4-.34,2.02.03l58.89,35.76c.6.36.96,1.01.96,1.71v33.01c0,.72-.39,1.39-1.02,1.74-.3.17-.64.26-.98.26ZM4,88.91l54.89,33.34v-28.33L4,60.58v28.33Z" style="fill: #ff57b8;"/>
        <path d="m60.89,182.82c-.36,0-.72-.1-1.04-.29L.96,146.77c-.6-.36-.96-1.01-.96-1.71v-33.01c0-.72.39-1.39,1.02-1.74.63-.35,1.4-.34,2.02.03l58.89,35.76c.6.36.96,1.01.96,1.71v33.01c0,.72-.39,1.39-1.02,1.74-.3.17-.64.26-.98.26ZM4,143.93l54.89,33.34v-28.33L4,115.6v28.33Z" style="fill: #ff57b8;"/>
        <path d="m60.89,237.84c-.36,0-.72-.1-1.04-.29L.96,201.79c-.6-.36-.96-1.01-.96-1.71v-33.01c0-.72.39-1.39,1.02-1.74s1.4-.34,2.02.03l58.89,35.76c.6.36.96,1.01.96,1.71v33.01c0,.72-.39,1.39-1.02,1.74-.3.17-.64.26-.98.26ZM4,198.95l54.89,33.34v-28.33L4,170.62v28.33Z" style="fill: #ff57b8;"/>
        <path d="m60.89,292.87c-.36,0-.72-.1-1.04-.29L.96,256.81c-.6-.36-.96-1.01-.96-1.71v-33.01c0-.72.39-1.39,1.02-1.74.63-.35,1.4-.34,2.02.03l58.89,35.76c.6.36.96,1.01.96,1.71v33.01c0,.72-.39,1.39-1.02,1.74-.3.17-.64.26-.98.26ZM4,253.98l54.89,33.33v-28.33L4,225.64v28.33Z" style="fill: #ff57b8;"/>
        <path d="m60.89,347.89c-.36,0-.72-.1-1.04-.29L.96,311.83c-.6-.36-.96-1.01-.96-1.71v-33.01c0-.72.39-1.39,1.02-1.74.63-.35,1.4-.34,2.02.03l58.89,35.76c.6.36.96,1.01.96,1.71v33.01c0,.72-.39,1.39-1.02,1.74-.3.17-.64.26-.98.26ZM4,309l54.89,33.34v-28.33L4,280.66v28.33Z" style="fill: #ff57b8;"/>
        <path d="m60.89,402.91c-.36,0-.72-.1-1.04-.29L.96,366.85c-.6-.36-.96-1.01-.96-1.71v-33.01c0-.72.39-1.39,1.02-1.74.63-.35,1.4-.34,2.02.03l58.89,35.76c.6.36.96,1.01.96,1.71v33.01c0,.72-.39,1.39-1.02,1.74-.3.17-.64.26-.98.26ZM4,364.02l54.89,33.34v-28.33L4,335.69v28.33Z" style="fill: #ff57b8;"/>
        <path d="m60.89,457.93c-.36,0-.72-.1-1.04-.29L.96,421.88c-.6-.36-.96-1.01-.96-1.71v-33.01c0-.72.39-1.39,1.02-1.74s1.4-.34,2.02.03l58.89,35.76c.6.36.96,1.01.96,1.71v33.01c0,.72-.39,1.39-1.02,1.74-.3.17-.64.26-.98.26ZM4,419.04l54.89,33.34v-28.33L4,390.71v28.33Z" style="fill: #ff57b8;"/>
      </g>
      <g>
        <path d="m60.89,512.95c-.36,0-.72-.1-1.04-.29L.96,476.9c-.6-.36-.96-1.01-.96-1.71v-33.01c0-.72.39-1.39,1.02-1.74.63-.35,1.4-.34,2.02.03l58.89,35.76c.6.36.96,1.01.96,1.71v33.01c0,.72-.39,1.39-1.02,1.74-.3.17-.64.26-.98.26ZM4,474.06l54.89,33.34v-28.33L4,445.73v28.33Z" style="fill: #ff57b8;"/>
        <path d="m60.89,567.98c-.36,0-.72-.1-1.04-.29L.96,531.92c-.6-.36-.96-1.01-.96-1.71v-33.01c0-.72.39-1.39,1.02-1.74.63-.35,1.4-.34,2.02.03l58.89,35.76c.6.36.96,1.01.96,1.71v33.01c0,.72-.39,1.39-1.02,1.74-.3.17-.64.26-.98.26Zm-56.89-38.89l54.89,33.34v-28.33L4,500.75v28.33Z" style="fill: #ff57b8;"/>
        <path d="m60.89,623c-.36,0-.72-.1-1.04-.29L.96,586.94c-.6-.36-.96-1.01-.96-1.71v-33.01c0-.72.39-1.39,1.02-1.74.63-.35,1.4-.34,2.02.03l58.89,35.76c.6.36.96,1.01.96,1.71v33.01c0,.72-.39,1.39-1.02,1.74-.3.17-.64.26-.98.26Zm-56.89-38.89l54.89,33.34v-28.33l-54.89-33.34v28.33Z" style="fill: #ff57b8;"/>
      </g>
    </g>
  </g>
</svg>