<?xml version="1.0" encoding="UTF-8"?>
<svg id="Layer_2" data-name="Layer 2" xmlns="http://www.w3.org/2000/svg" viewBox="0 0 300.18 300.23">
  <g id="_ÎÓÈ_1" data-name="—ÎÓÈ_1">
    <path d="m271.18,29C252.48,10.3,227.58,0,201.06,0c-26.52,0-51.42,10.3-70.12,29L1.27,158.68s0,0,0,0c-1.04,1.06-1.8,2.97-.78,6.43,2.39,8.15,13.59,21.72,25.49,30.9,4.05,3.12,10.76,7.67,15.48,7.67,1.09,0,2.08-.24,2.9-.8.21-.14.41-.31.61-.51,0,0,0,0,0,0L174.64,72.69c7.05-7.05,16.43-10.93,26.42-10.93s19.38,3.88,26.42,10.93c7.05,7.05,10.93,16.43,10.93,26.42s-3.88,19.38-10.93,26.42L97.8,255.21s0,0,0,0c-1.04,1.06-1.8,2.97-.78,6.43,2.39,8.15,13.59,21.72,25.49,30.9,4.05,3.12,10.76,7.67,15.48,7.67,1.09,0,2.08-.24,2.9-.8.21-.14.41-.31.61-.51,0,0,0,0,0,0l129.68-129.68c18.7-18.7,29-43.6,29-70.12s-10.3-51.42-29-70.12Zm-170.32,231.53c-.53-1.82-.26-2.47-.18-2.53.13-.09.35-.14.66-.14,1.68,0,6.04,1.5,13.01,6.87,10.95,8.44,21.98,21.66,24.1,28.86.53,1.82.26,2.47.18,2.53-.82.56-5.4-.36-13.68-6.74-10.95-8.44-21.98-21.66-24.1-28.86Zm41.43,31.94c-2.39-8.15-13.59-21.72-25.49-30.9-3.26-2.51-8.23-5.93-12.51-7.18l126.03-126.03c7.8-7.8,12.1-18.19,12.1-29.25s-4.3-21.45-12.1-29.25c-7.8-7.8-18.19-12.1-29.25-12.1s-21.45,4.3-29.25,12.1l-126.07,126.07c-2.39-8.15-13.59-21.72-25.49-30.9-3.26-2.51-8.23-5.93-12.51-7.18L133.78,31.83c17.94-17.94,41.84-27.83,67.29-27.83,25.45,0,49.34,9.88,67.29,27.83,17.94,17.94,27.83,41.84,27.83,67.29s-9.88,49.34-27.83,67.29l-126.07,126.07ZM4.32,163.99c-.53-1.82-.26-2.47-.18-2.53.13-.09.35-.14.66-.14,1.68,0,6.04,1.5,13.01,6.87,10.95,8.44,21.98,21.66,24.1,28.86.53,1.82.26,2.47.18,2.53-.82.56-5.4-.36-13.68-6.73-10.95-8.44-21.98-21.66-24.1-28.86Z" style="fill: #ff57b8;"/>
  </g>
</svg>