<?xml version="1.0" encoding="UTF-8"?>
<svg id="Layer_2" data-name="Layer 2" xmlns="http://www.w3.org/2000/svg" viewBox="0 0 168.29 168.29">
  <g id="_ÎÓÈ_1" data-name="—ÎÓÈ_1">
    <path d="m84.15,168.29c-1.04,0-1.93-.74-2.12-1.77l-12.27-67.99L1.77,86.26c-1.02-.18-1.77-1.08-1.77-2.12s.75-1.93,1.77-2.12l67.99-12.28L82.03,1.77c.19-1.02,1.08-1.77,2.12-1.77s1.93.74,2.12,1.77l12.27,67.99,67.99,12.28c1.02.18,1.77,1.08,1.77,2.12s-.75,1.93-1.77,2.12l-67.99,12.28-12.27,67.99c-.19,1.02-1.08,1.77-2.12,1.77ZM14.25,84.15l57.74,10.42c.88.16,1.57.85,1.73,1.73l10.42,57.74,10.42-57.74c.16-.88.85-1.57,1.73-1.73l57.74-10.42-57.74-10.42c-.88-.16-1.57-.85-1.73-1.73l-10.42-57.74-10.42,57.74c-.16.88-.85,1.57-1.73,1.73l-57.74,10.42Z" style="fill: #ff57b8;"/>
  </g>
</svg>