<?xml version="1.0" encoding="UTF-8"?>
<svg id="Layer_2" data-name="Layer 2" xmlns="http://www.w3.org/2000/svg" viewBox="0 0 187.55 187.55">
  <g id="_ÎÓÈ_1" data-name="—ÎÓÈ_1">
    <g>
      <polygon points="100.13 0 187.55 87.43 187.55 78.2 109.35 0 100.13 0" style="fill: #ff57b8;"/>
      <polygon points="72.45 0 187.55 115.1 187.55 105.88 81.68 0 72.45 0" style="fill: #ff57b8;"/>
      <polygon points="183.53 0 187.55 4.02 187.55 0 183.53 0" style="fill: #ff57b8;"/>
      <polygon points="155.86 0 187.55 31.69 187.55 22.47 165.08 0 155.86 0" style="fill: #ff57b8;"/>
      <polygon points="128.19 0 187.55 59.37 187.55 50.14 137.41 0 128.19 0" style="fill: #ff57b8;"/>
      <polygon points="0 122.03 65.52 187.55 74.75 187.55 0 112.81 0 122.03" style="fill: #ff57b8;"/>
      <polygon points="0 149.71 37.85 187.55 47.07 187.55 0 140.48 0 149.71" style="fill: #ff57b8;"/>
      <polygon points="0 177.38 10.18 187.55 19.4 187.55 0 168.15 0 177.38" style="fill: #ff57b8;"/>
      <polygon points="3 60.08 0 57.07 0 63.08 0 63.87 0 66.3 121.26 187.55 130.48 187.55 3 60.08 3 60.08" style="fill: #ff57b8;"/>
      <polygon points="0 93.97 93.58 187.55 102.81 187.55 0 84.75 0 93.97" style="fill: #ff57b8;"/>
      <polygon points="44.71 18.38 26.33 0 17.11 0 40.1 22.99 40.1 22.99 187.55 170.45 187.55 161.22 44.71 18.38 44.71 18.38" style="fill: #ff57b8;"/>
      <polygon points="31.43 33.16 0 1.73 0 10.95 26.06 37.02 26.94 37.89 176.6 187.55 185.83 187.55 31.43 33.16 31.43 33.16" style="fill: #ff57b8;"/>
      <polygon points="17.62 47.02 0 29.4 0 38.63 12.23 50.85 12.23 50.85 148.93 187.55 158.15 187.55 17.62 47.02 17.62 47.02" style="fill: #ff57b8;"/>
      <polygon points="59.3 5.29 54.01 0 44.78 0 53.93 9.15 53.93 9.15 187.55 142.77 187.55 133.55 59.3 5.29 59.3 5.29" style="fill: #ff57b8;"/>
    </g>
  </g>
</svg>