<?xml version="1.0" encoding="UTF-8"?>
<svg id="Layer_2" data-name="Layer 2" xmlns="http://www.w3.org/2000/svg" viewBox="0 0 654 654">
  <g id="_ÎÓÈ_1" data-name="—ÎÓÈ_1">
    <g>
      <path d="m652,654H2c-1.1,0-2-.9-2-2V2C0,.9.9,0,2,0h650c1.1,0,2,.9,2,2v650c0,1.1-.9,2-2,2Zm-648-4h646V4H4v646Z" style="fill: #ff57b8;"/>
      <path d="m652,69H2c-1.1,0-2-.9-2-2s.9-2,2-2h650c1.1,0,2,.9,2,2s-.9,2-2,2Z" style="fill: #ff57b8;"/>
      <path d="m652,134H2c-1.1,0-2-.9-2-2s.9-2,2-2h650c1.1,0,2,.9,2,2s-.9,2-2,2Z" style="fill: #ff57b8;"/>
      <path d="m652,199H2c-1.1,0-2-.9-2-2s.9-2,2-2h650c1.1,0,2,.9,2,2s-.9,2-2,2Z" style="fill: #ff57b8;"/>
      <path d="m652,264H2c-1.1,0-2-.9-2-2s.9-2,2-2h650c1.1,0,2,.9,2,2s-.9,2-2,2Z" style="fill: #ff57b8;"/>
      <path d="m652,329H2c-1.1,0-2-.9-2-2s.9-2,2-2h650c1.1,0,2,.9,2,2s-.9,2-2,2Z" style="fill: #ff57b8;"/>
      <path d="m652,394H2c-1.1,0-2-.9-2-2s.9-2,2-2h650c1.1,0,2,.9,2,2s-.9,2-2,2Z" style="fill: #ff57b8;"/>
      <path d="m652,459H2c-1.1,0-2-.9-2-2s.9-2,2-2h650c1.1,0,2,.9,2,2s-.9,2-2,2Z" style="fill: #ff57b8;"/>
      <path d="m652,524H2c-1.1,0-2-.9-2-2s.9-2,2-2h650c1.1,0,2,.9,2,2s-.9,2-2,2Z" style="fill: #ff57b8;"/>
      <path d="m652,589H2c-1.1,0-2-.9-2-2s.9-2,2-2h650c1.1,0,2,.9,2,2s-.9,2-2,2Z" style="fill: #ff57b8;"/>
      <path d="m587,654c-1.1,0-2-.9-2-2V2c0-1.1.9-2,2-2s2,.9,2,2v650c0,1.1-.9,2-2,2Z" style="fill: #ff57b8;"/>
      <path d="m522,654c-1.1,0-2-.9-2-2V2c0-1.1.9-2,2-2s2,.9,2,2v650c0,1.1-.9,2-2,2Z" style="fill: #ff57b8;"/>
      <path d="m457,654c-1.1,0-2-.9-2-2V2c0-1.1.9-2,2-2s2,.9,2,2v650c0,1.1-.9,2-2,2Z" style="fill: #ff57b8;"/>
      <path d="m392,654c-1.1,0-2-.9-2-2V2c0-1.1.9-2,2-2s2,.9,2,2v650c0,1.1-.9,2-2,2Z" style="fill: #ff57b8;"/>
      <path d="m327,654c-1.1,0-2-.9-2-2V2c0-1.1.9-2,2-2s2,.9,2,2v650c0,1.1-.9,2-2,2Z" style="fill: #ff57b8;"/>
      <path d="m262,654c-1.1,0-2-.9-2-2V2c0-1.1.9-2,2-2s2,.9,2,2v650c0,1.1-.9,2-2,2Z" style="fill: #ff57b8;"/>
      <path d="m197,654c-1.1,0-2-.9-2-2V2c0-1.1.9-2,2-2s2,.9,2,2v650c0,1.1-.9,2-2,2Z" style="fill: #ff57b8;"/>
      <path d="m132,654c-1.1,0-2-.9-2-2V2c0-1.1.9-2,2-2s2,.9,2,2v650c0,1.1-.9,2-2,2Z" style="fill: #ff57b8;"/>
      <path d="m67,654c-1.1,0-2-.9-2-2V2c0-1.1.9-2,2-2s2,.9,2,2v650c0,1.1-.9,2-2,2Z" style="fill: #ff57b8;"/>
    </g>
  </g>
</svg>