<?xml version="1.0" encoding="UTF-8"?>
<svg id="Layer_2" data-name="Layer 2" xmlns="http://www.w3.org/2000/svg" viewBox="0 0 143.43 143.43">
  <g id="_ÎÓÈ_1" data-name="—ÎÓÈ_1">
    <path d="m71.71,143.43c-.85,0-1.62-.5-1.97-1.28l-20.93-47.53L1.28,73.68c-.78-.34-1.28-1.12-1.28-1.97s.5-1.62,1.28-1.97l47.53-20.93L69.75,1.28c.34-.78,1.12-1.28,1.97-1.28s1.62.5,1.97,1.28l20.93,47.53,47.53,20.93c.78.34,1.28,1.12,1.28,1.97s-.5,1.62-1.28,1.97l-47.53,20.93-20.93,47.53c-.34.78-1.12,1.28-1.97,1.28ZM7.48,71.71l43.83,19.3c.49.22.88.61,1.1,1.1l19.3,43.83,19.3-43.83c.22-.49.61-.88,1.1-1.1l43.83-19.3-43.83-19.3c-.49-.22-.88-.61-1.1-1.1L71.71,7.48l-19.3,43.83c-.22.49-.61.88-1.1,1.1L7.48,71.71Z" style="fill: #ff57b8;"/>
  </g>
</svg>