<?xml version="1.0" encoding="UTF-8"?>
<svg id="Layer_2" data-name="Layer 2" xmlns="http://www.w3.org/2000/svg" viewBox="0 0 438.61 650">
  <g id="_ÎÓÈ_1" data-name="—ÎÓÈ_1">
    <path d="m56.18,650h326.27s4.17,0,4.17,0h51.99v-59.52h0v-3.39h0v-50.2h0s0-5.1,0-5.1h0v-8.72h0v-4.7h0s0-80.27,0-80.27h0s0-3.97,0-3.97h0v-10.58h0v-7.66h0s0-50.47,0-50.47h0v-3.5h0v-61.43h0v-3.77h0v-7.54h0v-7.4h0v-76.01h0v-4.46h0v-8.96h0v-4.54h0v-92.1h0v-3.87h0V0H0v650h56.18Zm6.43-3.5c4.23-6.57,9.67-15.1,16.11-25.37,43.58,13.13,91.26,20.08,140.94,20.24v5.12H62.61ZM219.65,3.5v26.91c-55.25.22-108.76,11.04-159.05,32.16-4.19,1.76-8.33,3.62-12.45,5.51C33.21,42.11,19.44,18.18,10.99,3.5h208.66Zm212.16,0c-8.45,14.68-22.22,38.61-37.16,64.59-4.14-1.91-8.31-3.78-12.53-5.55-50.26-21.1-103.74-31.9-158.97-32.12V3.5h208.66Zm-42.62,482.32c9.75,9.54,23.87,24.13,39.81,40.92-25.98,21.67-55.6,38.86-87.51,51.12-8.34-13.73-17.44-28.92-27.11-45.37,25.77-10.49,49.99-25.31,71.58-44.07,1.04-.91,2.07-1.83,3.1-2.75.05.05.09.09.14.14Zm-87.82-263.99c-24-10.16-50.62-15.62-78.22-15.85v-32.45c34.99.21,69.22,6.81,100.25,18.79-8.01,14.08-15.5,23.38-22.03,29.5Zm40.37,61.99c.03.08.07.16.11.24.16.27.33.54.5.81,3.9,6.91,6.49,14.17,7.69,21.63-6.36-10.47-12.47-22.53-18.37-36.24,3.94,4.32,7.31,8.86,10.06,13.55Zm-16.56-20.01c8.43,20.73,16.99,37.24,25.61,50.38.02.64.03,1.29.03,1.94,0,9.77-2.44,19.54-7.05,28.89-10.53-19.26-20.07-42.76-28.09-71.82,2.8-3.82,4.98-7.85,6.41-12.08,1.06.88,2.09,1.78,3.09,2.69Zm-12.58,265.64c-8.51-14.73-15.62-30.23-21.59-46.66,20.38-7.51,39.45-18.3,56.27-32.07,2.23-1.82,4.38-3.68,6.48-5.56,10.63,14.72,21.69,27.01,32.79,38.07-.96.86-1.92,1.72-2.9,2.57-21.42,18.61-45.47,33.3-71.06,43.66Zm-253.47-42.23c-1.24-1.06-2.46-2.13-3.67-3.22,10.89-10.79,21.74-22.73,32.2-36.97,2.53,2.27,5.15,4.48,7.88,6.63,16.43,12.95,35.38,23.07,55.9,30.09-5.96,16.24-13.04,31.57-21.5,46.14-25.61-10.12-49.58-24.48-70.81-42.68Zm32.88-173.02c8.61-13.14,17.16-29.62,25.58-50.33,1.01-.92,2.06-1.82,3.12-2.71,1.43,4.21,3.6,8.24,6.4,12.05-8.02,29.06-17.56,52.56-28.09,71.82-4.6-9.35-7.05-19.12-7.05-28.89,0-.65.02-1.29.04-1.94Zm19.07-43.82c-5.89,13.66-11.98,25.68-18.32,36.12,2.13-13.13,8.56-25.39,18.32-36.12Zm55.05-37.13c-.13.04-8.68,2.04-21.7-8.76,22.74-9.4,48.26-14.77,75.22-14.99v15.56c-18.96.17-36.98,3.07-53.25,8.16-.09,0-.18.02-.27.04Zm-46.72-40.89c31.03-12,65.25-18.6,100.24-18.81v32.45c-28.06.23-54.58,5.94-78.13,15.93-6.55-6.11-14.06-15.43-22.1-29.56Zm156.17,44.21s.09.04.15.06c.04.01.13.04.26.06,2.27.72,4.52,1.47,6.73,2.28,2.59,18.11,5.52,34.89,8.74,50.45-8.89,5.05-19.44,9.11-31.15,11.92-1.46-21.9-2.67-45.04-3.84-69.53,6.56,1.24,12.95,2.83,19.12,4.76Zm-22.65-5.42c1.23,25.77,2.49,49.28,3.95,70.97-10.51,2.26-21.87,3.53-33.73,3.65v-77.2c10.17.09,20.15.95,29.78,2.58Zm15.25,176.32c4.6,27.31,10.6,51.42,18.3,73.25-20.16,7.01-41.57,10.77-63.33,10.96v-80.27c15.42-.15,30.48-2.26,44.66-6.18.12.75.24,1.5.37,2.25Zm-93.19-2.25c14.18,3.92,29.24,6.03,44.66,6.18v80.27c-22.1-.17-43.6-3.63-63.65-10.08,7.85-22.06,13.96-46.45,18.62-74.13.13-.74.25-1.5.37-2.25Zm11.34-173.41c-1.17,24.5-2.38,47.63-3.84,69.53-11.7-2.81-22.25-6.88-31.15-11.92,3.22-15.55,6.14-32.31,8.73-50.41,8.26-3.02,17.05-5.45,26.25-7.2Zm3.53-.63c9.55-1.62,19.52-2.53,29.78-2.62v77.22c-11.85-.12-23.22-1.38-33.73-3.65,1.46-21.69,2.72-45.19,3.95-70.95Zm29.78,78.1v98.63c-15.24-.15-30.11-2.25-44.1-6.16,4.51-28.34,7.62-59.66,10.13-96.13,10.62,2.27,22.05,3.54,33.96,3.65Zm3.5,98.63v-98.63c11.91-.11,23.35-1.38,33.96-3.65,2.51,36.47,5.62,67.79,10.13,96.13-13.98,3.9-28.86,6.01-44.1,6.16Zm-74.99-120.38c-7.03-4.38-12.89-9.42-17.24-14.98,1.97-7.24,3.83-14.72,5.56-22.46,6.14-3.62,12.78-6.85,19.85-9.64-2.44,16.83-5.18,32.49-8.17,47.08Zm-15.85-34.87c-1.29,5.57-2.62,10.96-4.01,16.17-2.05-3.21-3.62-6.56-4.66-10.04,2.74-2.14,5.63-4.18,8.66-6.13Zm-2.51,23.95c4.64,5.37,10.61,10.23,17.62,14.47-6.94,32.97-15.23,60.42-24.44,83.69-9.38-7.89-16.82-16.75-22.06-26.12,11.53-20.6,21.1-44.5,28.88-72.04Zm20.81,16.32c9.13,5.05,19.84,9.1,31.65,11.91-2.4,34.95-5.48,66.74-10.15,95.91-15.59-4.73-29.98-11.72-42.43-20.75-1.31-.95-2.59-1.92-3.84-2.91,9.34-23.39,17.73-51,24.77-84.16Zm-22.99,89.91c12.88,9.34,27.79,16.55,43.92,21.4-4.57,27.61-10.62,52.87-18.92,76.25-20.17-6.89-38.78-16.83-54.92-29.54-2.76-2.18-5.42-4.43-7.98-6.73,12.36-17.27,24.13-37.89,34.74-63.74,1.03.8,2.08,1.59,3.15,2.37Zm27.2,102.06c20.42,6.59,42.33,10.11,64.84,10.29v52.15c-29.72-.21-58.96-5.76-86.4-16.15,8.31-14.37,15.45-29.67,21.56-46.29Zm68.34,10.28c22.17-.19,43.97-4.02,64.51-11.17,6.13,16.8,13.3,32.24,21.65,46.75-27.47,10.66-56.63,16.35-86.16,16.57v-52.15Zm121.92-47.15c-16.52,13.52-35.23,24.11-55.24,31.49-8.12-23.11-14.06-48.05-18.57-75.28,16.13-4.85,31.04-12.06,43.92-21.4,1.07-.78,2.12-1.57,3.15-2.37,10.22,24.91,21.52,44.95,33.38,61.83-2.15,1.95-4.36,3.87-6.64,5.74Zm-31.94-68.02c-12.45,9.03-26.85,16.02-42.43,20.75-4.67-29.18-7.76-60.96-10.15-95.91,11.81-2.81,22.52-6.86,31.65-11.91,7.04,33.16,15.43,60.77,24.77,84.16-1.25.99-2.53,1.96-3.84,2.91Zm-17.75-88.92c7.02-4.24,12.98-9.11,17.62-14.47,7.78,27.54,17.35,51.44,28.88,72.04-5.24,9.37-12.69,18.23-22.06,26.12-9.22-23.26-17.5-50.72-24.44-83.69Zm19.12-22.25c-1.38-5.21-2.72-10.59-4-16.15.89.58,1.8,1.14,2.67,1.74,2.08,1.42,4.07,2.87,5.99,4.37-1.04,3.48-2.61,6.84-4.66,10.05Zm-8.18-18.73c1.73,7.74,3.59,15.22,5.56,22.45-4.35,5.56-10.21,10.59-17.24,14.98-3-14.6-5.73-30.27-8.18-47.11,7,2.77,13.64,6.01,19.86,9.68Zm-29.52-16.81c-16.64-5.23-34.83-8.05-53.65-8.21v-15.57c26.54.22,52.13,5.37,75.3,14.93-12.3,10.24-20.62,9.05-21.65,8.85Zm-57.15-119.81c-45.72.22-90.5,9-131.06,24.99-11.86-20.66-25.72-44.77-38.81-67.53,51.88-23.84,109.93-36.76,169.87-37.01v79.55Zm0,3.5v53.08c-35.59.21-70.41,6.97-101.97,19.23-3.78-6.69-14.2-24.89-27.33-47.76,40.02-15.71,84.19-24.34,129.3-24.55Zm-103.53,76.66c7.85,13.87,15.26,23.36,21.88,29.82-21.41,9.58-40.23,22.73-55.34,38.51-9.29-4.53-21.21-12.46-36.29-25.87,19.89-17.6,43.64-31.96,69.75-42.45Zm24.66,32.4c6.87,6.05,12.75,8.84,17.21,10.05-8.41,3.14-16.28,6.89-23.48,11.16-.33.09-.62.26-.85.52-4.51,2.72-8.75,5.65-12.69,8.76-.33.13-.6.36-.79.64-1.64,1.32-3.23,2.68-4.77,4.06-.32.15-.59.39-.77.7-.86.79-1.7,1.6-2.52,2.41-.17.09-.33.21-.47.36-.1.11-6.78,6.91-25.64-1.2,14.98-15.39,33.61-28.19,54.77-37.46Zm-38.44,44.99c.59,0,1.15-.02,1.69-.05.77-.05,1.49-.14,2.17-.25-3.02,3.59-5.69,7.33-7.99,11.21-.09.1-.18.2-.25.32-5.44,8.98-12.39,18.94-26.11,23.52-4.7,1.57-9.92,2.41-15.66,2.56,6.32-15.35,15.59-29.56,27.26-42.14,8.06,3.64,14.26,4.83,18.9,4.83Zm-47.55,40.84c6.69-.04,12.73-.96,18.16-2.78,8.01-2.67,13.83-6.98,18.41-11.87-1.6,5.16-2.55,10.48-2.81,15.92-11.12,16.82-22.99,28.97-35.8,36.69-2.01,1.21-4.01,2.3-6.02,3.28.33-14.34,3.13-28.19,8.06-41.25Zm33.77,7.41c.5,10,3.39,19.95,8.41,29.42-12.49,21.94-26.29,38.19-40.54,50.91-6.24-13.76-9.6-28.2-9.73-42.7,13.88-6.48,27.93-17.82,41.86-37.64Zm-10.73,63.18c7.63-9.16,14.64-19.25,21.07-30.31,5.55,9.36,13.2,18.17,22.7,26.01-10.52,25.84-22.21,46.41-34.48,63.63-12.44-11.72-22.26-24.89-29.11-38.84,6.65-5.9,13.29-12.65,19.82-20.49Zm7.23,62.19c-10.45,14.27-21.3,26.22-32.19,36.99-15.96-14.69-29.43-31.1-39.85-48.25,13.26-7.13,27.73-15.65,42.26-28.06,7.08,14.14,17.13,27.46,29.78,39.32Zm-28.21,45.23c21.39,18.34,45.52,32.83,71.3,43.08-9.51,16.16-18.46,31.1-26.68,44.64-32.47-12.54-62.12-29.92-87.51-51.02,15.53-16.35,29.31-30.59,39-40.1,1.28,1.15,2.58,2.29,3.89,3.41Zm74.61,44.35c27.99,10.67,57.84,16.37,88.19,16.58v49.06c-40.35-.21-79.26-7.69-114.86-21,8.22-13.54,17.17-28.49,26.67-44.64Zm91.69,69.14c40.61-.2,80.21-7.49,116.87-21.2,8.3,13.64,15.82,25.79,22.37,36.25-42.26,12.51-89.07,19.3-139.24,19.45v-34.51Zm0-3.5v-49.06c30.15-.22,59.92-6.06,87.94-17.01,9.65,16.42,18.74,31.59,27.08,45.32-36.09,13.41-75.05,20.54-115.01,20.75Zm166-119.01c-11.1-11.04-22.15-23.33-32.78-38.1,12.69-11.87,22.84-24.86,30.12-38.32,14.62,12.68,29.21,21.35,42.6,28.58-10.49,16.87-23.99,33.14-39.94,47.84Zm-34.84-41c-11.78-16.82-22.99-36.82-33.12-61.71,9.5-7.84,17.16-16.66,22.7-26.01,6.43,11.06,13.45,21.15,21.07,30.31,6.16,7.4,12.43,13.82,18.7,19.49-7.09,13.34-17.03,26.26-29.36,37.92Zm-8.48-91.17c5.02-9.47,7.91-19.42,8.41-29.42,13.93,19.81,27.98,31.15,41.86,37.63-.16,13.7-3.91,27.92-10.75,41.77-13.89-12.58-27.33-28.57-39.52-49.99Zm44.22,1.13c-12.81-7.73-24.68-19.88-35.8-36.69-.25-5.38-1.18-10.69-2.75-15.86,4.57,4.86,10.38,9.15,18.36,11.81,5.45,1.82,11.51,2.74,18.22,2.78,4.95,13.2,7.67,27.06,8,41.25-2.01-.98-4.01-2.07-6.02-3.28Zm-19.09-44.06c-13.21-4.41-20.13-13.79-25.48-22.49-2.43-4.32-5.35-8.51-8.73-12.53.64.1,1.3.18,2.02.23.54.04,1.1.05,1.69.05,4.65,0,10.88-1.2,18.98-4.87,11.89,12.8,21.05,27.03,27.25,42.18-5.76-.15-11.01-.99-15.73-2.56Zm-39.48-40.79c-4.76-4.79-10.21-9.3-16.34-13.48-2.02-1.37-4.1-2.68-6.22-3.95-.13-.1-.28-.19-.43-.26-7.31-4.36-15.21-8.12-23.57-11.24,4.46-1.23,10.34-4.03,17.18-10.09,15.65,6.85,30.13,15.74,42.96,26.52,4.18,3.51,8.12,7.18,11.82,10.97-16.72,7.22-23.89,2.73-25.4,1.52Zm15.83-15.17c-12.71-10.68-27-19.54-42.42-26.44,6.6-6.46,13.99-15.93,21.81-29.75,26.12,10.49,49.87,24.84,69.78,42.43-15.05,13.39-26.95,21.32-36.24,25.86-4.03-4.19-8.33-8.24-12.93-12.1Zm-124.15-79.77v-53.08c45.05.22,89.23,8.88,129.24,24.66-13.09,22.8-23.48,40.94-27.26,47.64-31.56-12.26-66.38-19-101.98-19.22Zm0-56.58V33.91c59.93.25,117.99,13.18,169.86,37.02-13.11,22.8-26.99,46.94-38.86,67.62-40.54-16.06-85.33-24.87-131-25.09ZM44.97,69.56c-14.35,6.77-28.21,14.37-41.47,22.71V3.5h3.45c8.31,14.43,22.53,39.14,38.01,66.06Zm1.63,2.84c13.04,22.68,26.85,46.7,38.7,67.34-30.14,12.24-57.85,28.52-81.8,48.23v-91.83c13.77-8.8,28.17-16.72,43.1-23.74Zm40.46,70.4c12.97,22.59,23.34,40.69,27.33,47.75-26.46,10.69-50.51,25.29-70.66,43.19-9.84-8.62-23.71-19.93-40.22-32.98v-8.26c24.29-20.42,52.64-37.19,83.56-49.7Zm-45.94,93.31c-3.92,3.6-7.7,7.31-11.29,11.16-10.64,11.39-19.43,23.44-26.33,35.96v-78.01c15.35,12.15,28.27,22.72,37.62,30.89Zm-8.73,13.55c3.62-3.87,7.42-7.6,11.37-11.22,0,0,.01,0,.02.01,14.82,13.21,26.8,21.33,36.38,26.16-11.94,13.05-21.39,27.78-27.75,43.71-13.45-.34-29.64-4.28-48.91-11.87v-5.66c7.14-14.39,16.79-28.19,28.89-41.14Zm-28.89,50.56c18.49,7.18,34.25,11.03,47.58,11.57-4.99,13.6-7.73,28.01-7.88,42.94-13.37,5.74-26.66,6.98-39.71,7.21v-61.72Zm39.73,58.22c.36,14.82,3.95,29.56,10.45,43.58-14.04,12.04-28.46,20.82-42.45,28.37-2.82-4.83-5.4-9.7-7.73-14.61v-50.33c12.88-.23,26.21-1.44,39.73-7Zm-35.08,73.59c-1.49.79-3.04,1.62-4.65,2.47v-10.91c1.47,2.83,3.02,5.64,4.65,8.43Zm1.77,3.02s.01,0,.02,0c10.58,17.45,24.24,34.14,40.44,49.06-9.73,9.56-23.54,23.83-39.08,40.2-2.64-2.25-5.25-4.53-7.79-6.86v-78.97c2.23-1.2,4.38-2.34,6.42-3.42Zm-1.32,92.09c-1.68,1.77-3.38,3.57-5.1,5.39v-9.88c1.68,1.51,3.38,3.01,5.1,4.49Zm2.67,2.27c.28.23.55.48.83.71,25.83,21.56,55.36,38.68,87.27,50.94-8.34,13.69-15.88,25.86-22.43,36.31-26.39-8.06-50.97-18.38-73.44-30.71v-49.05c2.62-2.78,5.21-5.52,7.76-8.21Zm91.43,52.92c36.58,13.6,76.22,20.84,116.96,21.04v34.51c-50.16-.15-96.97-6.95-139.23-19.47,6.52-10.42,14.01-22.51,22.27-36.08Zm120.46,64.17v-5.12c49.68-.16,97.36-7.11,140.94-20.24,6.44,10.26,11.88,18.79,16.1,25.36h-157.05Zm211.96,0h-50.75c-4.27-6.63-9.96-15.52-16.81-26.43,23.89-7.41,46.53-16.69,67.55-27.74v54.17Zm0-57.52c-21.32,11.32-44.48,20.86-69.23,28.41-6.58-10.5-14.15-22.73-22.53-36.49,32.12-12.41,61.92-29.76,88.08-51.61,1.22,1.29,2.45,2.58,3.69,3.89v55.8Zm0-60.89c-.34-.36-.68-.72-1.02-1.08.34-.29.68-.58,1.02-.87v1.95Zm0-6.59c-1.13,1-2.28,1.99-3.43,2.97-16.03-16.88-30.23-31.56-40.03-41.15,16.18-14.94,29.88-31.48,40.53-48.65.24.13.47.25.71.38.73.39,1.47.78,2.22,1.18v85.27Zm0-89.23c-.19-.1-.39-.21-.58-.31-.17-.09-.35-.18-.52-.28.38-.63.74-1.26,1.1-1.89v2.48Zm0-9.57c-1.33,2.45-2.72,4.9-4.18,7.33-14.1-7.64-28.62-16.55-42.75-28.83,7.06-14.03,10.98-28.52,11.39-42.77,12.06,4.96,23.97,6.46,35.54,6.89v57.37Zm0-60.87c-11.7-.43-23.57-1.96-35.51-7.09-.14-14.77-2.8-29.2-7.8-42.94,12.3-.51,26.66-3.83,43.32-9.98v60.02Zm0-63.75c-17.41,6.53-32.19,9.92-44.63,10.25-6.23-15.72-15.57-30.48-27.74-43.75,9.57-4.84,21.51-12.95,36.29-26.12.02-.02.04-.04.06-.05,4.07,3.72,7.98,7.56,11.7,11.55,9.7,10.42,17.82,21.37,24.32,32.75v15.38Zm0-22.2c-6.07-9.79-13.33-19.25-21.76-28.31-3.7-3.97-7.58-7.79-11.62-11.49,8.48-7.41,19.89-16.79,33.38-27.52v67.32Zm0-71.79c-14.65,11.63-27,21.75-35.99,29.62-20.17-17.89-44.23-32.49-70.69-43.17,3.99-7.06,14.32-25.1,27.25-47.61,29.22,11.87,56.13,27.58,79.43,46.56v14.6Zm0-19.11c-22.94-18.3-49.22-33.5-77.68-45.1,11.87-20.67,25.7-44.74,38.77-67.46,13.42,6.31,26.41,13.36,38.91,21.11v91.45Zm-37.27-115.4c15.04-26.14,28.88-50.2,37.27-64.78v84.87c-11.98-7.32-24.44-14.03-37.27-20.09ZM3.5,646.5v-56.41c22.2,12.04,46.26,22.06,71.75,29.97-6.85,10.91-12.54,19.81-16.81,26.44H3.5Z" style="fill: #ff57b8;"/>
  </g>
</svg>