<?xml version="1.0" encoding="UTF-8"?>
<svg id="Layer_2" data-name="Layer 2" xmlns="http://www.w3.org/2000/svg" viewBox="0 0 278.86 369.16">
  <g id="_ÎÓÈ_1" data-name="—ÎÓÈ_1">
    <g>
      <path d="m139.43,369.16c-1.19,0-2.15-.96-2.15-2.15s.96-2.15,2.15-2.15c74.51,0,135.13-32.21,135.13-71.81s-60.62-71.81-135.13-71.81c-1.19,0-2.15-.96-2.15-2.15s.96-2.15,2.15-2.15c37.02,0,71.85,7.78,98.09,21.92,26.66,14.36,41.34,33.61,41.34,54.19s-14.68,39.83-41.34,54.19c-26.24,14.13-61.07,21.92-98.09,21.92Z" style="fill: #ff57b8;"/>
      <path d="m139.43,314.93C61.24,314.93,0,293.41,0,265.94s61.24-48.99,139.43-48.99c1.19,0,2.15.96,2.15,2.15s-.96,2.15-2.15,2.15c-36.44,0-70.67,4.83-96.38,13.6-24.63,8.4-38.75,19.73-38.75,31.09s14.12,22.68,38.75,31.09c25.71,8.77,59.94,13.6,96.38,13.6,1.19,0,2.15.96,2.15,2.15s-.96,2.15-2.15,2.15Z" style="fill: #ff57b8;"/>
      <path d="m139.43,260.69C61.24,260.69,0,239.17,0,211.7s61.24-48.99,139.43-48.99c1.19,0,2.15.96,2.15,2.15s-.96,2.15-2.15,2.15c-36.44,0-70.67,4.83-96.38,13.6-24.63,8.4-38.75,19.73-38.75,31.09s14.12,22.68,38.75,31.09c25.71,8.77,59.94,13.6,96.38,13.6,1.19,0,2.15.96,2.15,2.15s-.96,2.15-2.15,2.15Z" style="fill: #ff57b8;"/>
      <path d="m139.43,206.45C61.24,206.45,0,184.94,0,157.46s61.24-48.99,139.43-48.99c1.19,0,2.15.96,2.15,2.15s-.96,2.15-2.15,2.15c-36.44,0-70.67,4.83-96.38,13.6-24.63,8.4-38.75,19.73-38.75,31.09s14.12,22.68,38.75,31.09c25.71,8.77,59.94,13.6,96.38,13.6,1.19,0,2.15.96,2.15,2.15s-.96,2.15-2.15,2.15Z" style="fill: #ff57b8;"/>
      <path d="m139.43,152.22C61.24,152.22,0,130.7,0,103.23s61.24-48.99,139.43-48.99c1.19,0,2.15.96,2.15,2.15s-.96,2.15-2.15,2.15c-36.44,0-70.67,4.83-96.38,13.6-24.63,8.4-38.75,19.73-38.75,31.09s14.12,22.68,38.75,31.09c25.71,8.77,59.94,13.6,96.38,13.6,1.19,0,2.15.96,2.15,2.15s-.96,2.15-2.15,2.15Z" style="fill: #ff57b8;"/>
      <path d="m139.43,97.98C61.24,97.98,0,76.46,0,48.99S61.24,0,139.43,0c1.19,0,2.15.96,2.15,2.15s-.96,2.15-2.15,2.15c-36.44,0-70.67,4.83-96.38,13.6C18.42,26.31,4.3,37.64,4.3,48.99s14.12,22.68,38.75,31.09c25.71,8.77,59.94,13.6,96.38,13.6,1.19,0,2.15.96,2.15,2.15s-.96,2.15-2.15,2.15Z" style="fill: #ff57b8;"/>
      <path d="m139.43,314.93c-1.19,0-2.15-.96-2.15-2.15s.96-2.15,2.15-2.15c74.51,0,135.13-32.21,135.13-71.81s-60.62-71.81-135.13-71.81c-1.19,0-2.15-.96-2.15-2.15s.96-2.15,2.15-2.15c37.02,0,71.85,7.78,98.09,21.92,26.66,14.36,41.34,33.61,41.34,54.19s-14.68,39.83-41.34,54.19c-26.24,14.13-61.07,21.92-98.09,21.92Z" style="fill: #ff57b8;"/>
      <path d="m139.43,260.69c-1.19,0-2.15-.96-2.15-2.15s.96-2.15,2.15-2.15c74.51,0,135.13-32.21,135.13-71.81s-60.62-71.81-135.13-71.81c-1.19,0-2.15-.96-2.15-2.15s.96-2.15,2.15-2.15c37.02,0,71.85,7.78,98.09,21.92,26.66,14.36,41.34,33.61,41.34,54.19s-14.68,39.83-41.34,54.19c-26.24,14.13-61.07,21.92-98.09,21.92Z" style="fill: #ff57b8;"/>
      <path d="m139.43,206.45c-1.19,0-2.15-.96-2.15-2.15s.96-2.15,2.15-2.15c74.51,0,135.13-32.21,135.13-71.81s-60.62-71.81-135.13-71.81c-1.19,0-2.15-.96-2.15-2.15s.96-2.15,2.15-2.15c37.02,0,71.85,7.78,98.09,21.92,26.66,14.36,41.34,33.61,41.34,54.19s-14.68,39.83-41.34,54.19c-26.24,14.13-61.07,21.92-98.09,21.92Z" style="fill: #ff57b8;"/>
      <path d="m139.43,152.22c-1.19,0-2.15-.96-2.15-2.15s.96-2.15,2.15-2.15c74.51,0,135.13-32.21,135.13-71.81S213.94,4.3,139.43,4.3c-1.19,0-2.15-.96-2.15-2.15s.96-2.15,2.15-2.15c37.02,0,71.85,7.78,98.09,21.92,26.66,14.36,41.34,33.61,41.34,54.19s-14.68,39.83-41.34,54.19c-26.24,14.13-61.07,21.92-98.09,21.92Z" style="fill: #ff57b8;"/>
    </g>
  </g>
</svg>