<?xml version="1.0" encoding="UTF-8"?>
<svg id="Layer_2" data-name="Layer 2" xmlns="http://www.w3.org/2000/svg" viewBox="0 0 99.61 127.55">
  <g id="_ÎÓÈ_1" data-name="—ÎÓÈ_1">
    <g>
      <path d="m4.22,113.27l-2.07-.59h0S0,112.68,0,112.68h2.14l-2.06-.59h0c.29-1.03,1.31-1.69,2.37-1.54,1.06.15,1.85,1.06,1.85,2.13h-2.14s2.06.59,2.06.59Zm-2.07-.59l-1.52-1.52,1.52,1.52Z" style="fill: #ff57b8;"/>
      <path d="m96.3,112.13c-.62,0-1.22-.26-1.65-.77-.65-.78-1.69-1.56-3.09-2.32-11.23-6.13-39.24-8.68-62.45-5.68h0c-12.13,1.57-21.12,4.46-24.05,7.74-.7.79-1.87.95-2.76.38-.89-.57-1.23-1.7-.82-2.66L47.83,1.3c.34-.79,1.12-1.3,1.97-1.3s1.63.51,1.97,1.3l46.49,107.83c.42.98.06,2.12-.84,2.68-.35.22-.74.32-1.13.32Zm-47.01-14.31c16.74,0,33.02,2.34,42.19,6.39L49.8,7.58,8.22,104.04c4.88-2.15,11.81-3.85,20.34-4.95h0c6.67-.86,13.74-1.27,20.73-1.27Zm-20.45,3.4h0,0Z" style="fill: #ff57b8;"/>
      <path d="m97.46,114.83c-.45,0-.91-.14-1.29-.43-.06-.04-.11-.09-.16-.13-.22-.2-.41-.46-.53-.75-.11-.26-.17-.55-.17-.84,0-1.02.72-1.9,1.72-2.11,1.01-.2,2.01.33,2.41,1.27.38.9.11,1.93-.66,2.53-.39.3-.86.46-1.33.46Z" style="fill: #ff57b8;"/>
      <path d="m50.33,127.55c-18.14,0-35.74-2.75-44.34-7.44C2.07,117.96.06,115.48,0,112.73c-.03-1.58.59-3.1,1.85-4.5,3.71-4.14,13.19-7.39,26.7-9.14,23.97-3.1,53.16-.33,65.06,6.17,1.87,1.02,3.33,2.14,4.32,3.33,1.08,1.28,1.64,2.64,1.67,4.04,0,.02,0,.03,0,.05h0c.18,8.91-19.91,12.48-28.55,13.6-6.66.86-13.74,1.27-20.73,1.27Zm-.73-25.45c-6.89,0-13.88.4-20.49,1.26-12.13,1.57-21.12,4.46-24.05,7.74-.51.57-.76,1.09-.75,1.54.02,1.04,1.42,2.42,3.76,3.69,11.23,6.13,39.24,8.68,62.45,5.68,18.16-2.35,24.85-6.94,24.8-9.28l2.15-.05-2.15.05c-.01-.49-.37-1.01-.66-1.36-.65-.78-1.69-1.56-3.1-2.32-8.03-4.39-24.65-6.94-41.96-6.94Z" style="fill: #ff57b8;"/>
    </g>
  </g>
</svg>