<?xml version="1.0" encoding="UTF-8"?>
<svg id="Layer_2" data-name="Layer 2" xmlns="http://www.w3.org/2000/svg" viewBox="0 0 153.78 153.78">
  <g id="_ÎÓÈ_1" data-name="—ÎÓÈ_1">
    <path d="m60.42,153.78c-1.31,0-2.64-.18-3.99-.54-7.86-2.11-12.21-9.45-12.06-20-9.07,5.41-17.6,5.31-23.37-.46-5.77-5.77-5.87-14.31-.46-23.37-10.55.14-17.89-4.2-20-12.06-2.11-7.87,2.07-15.31,11.27-20.46C2.61,71.74-1.57,64.31.54,56.43c2.11-7.86,9.48-12.2,20-12.06-5.41-9.07-5.31-17.6.46-23.37,5.77-5.77,14.31-5.87,23.37-.46-.14-10.55,4.2-17.89,12.06-20,7.87-2.11,15.31,2.07,20.46,11.27,5.15-9.2,12.58-13.38,20.46-11.27,7.86,2.11,12.21,9.45,12.06,20,9.07-5.41,17.6-5.31,23.37.46,5.77,5.77,5.87,14.31.46,23.37.17,0,.34,0,.51,0,10.28,0,17.42,4.33,19.49,12.07,2.11,7.87-2.07,15.31-11.26,20.46,9.2,5.15,13.37,12.59,11.26,20.46-2.11,7.86-9.5,12.21-20,12.06,5.41,9.07,5.31,17.6-.46,23.37-5.77,5.77-14.31,5.86-23.37.46.14,10.55-4.2,17.89-12.06,20-7.87,2.11-15.31-2.07-20.46-11.27-4.27,7.63-10.11,11.8-16.47,11.8Zm-13.6-26.93c.37,0,.74.1,1.07.29.75.43,1.16,1.27,1.06,2.12-1.3,10.63,1.92,18.04,8.6,19.83,6.69,1.79,13.18-3.01,17.37-12.85.34-.79,1.12-1.31,1.98-1.31.86,0,1.64.51,1.98,1.31,4.18,9.84,10.67,14.64,17.37,12.85,6.68-1.79,9.89-9.2,8.59-19.83-.1-.86.31-1.69,1.06-2.12.75-.43,1.68-.37,2.37.14,8.55,6.44,16.58,7.36,21.49,2.46,4.9-4.9,3.98-12.94-2.46-21.49-.52-.69-.58-1.62-.15-2.37.43-.75,1.27-1.17,2.12-1.06,10.62,1.3,18.04-1.92,19.83-8.59,1.79-6.69-3.01-13.18-12.85-17.37-.79-.34-1.31-1.12-1.31-1.98s.52-1.64,1.31-1.98c9.84-4.18,14.64-10.68,12.85-17.37-1.79-6.68-9.2-9.89-19.83-8.59-.86.1-1.69-.31-2.12-1.06-.43-.75-.37-1.68.15-2.37,6.44-8.55,7.36-16.58,2.46-21.49-4.9-4.9-12.94-3.98-21.49,2.46-.69.52-1.62.58-2.37.15-.75-.43-1.16-1.27-1.06-2.12,1.3-10.63-1.92-18.04-8.59-19.83-6.68-1.79-13.18,3.01-17.37,12.85-.34.79-1.12,1.31-1.98,1.31h0c-.86,0-1.64-.52-1.98-1.31-4.18-9.84-10.67-14.64-17.37-12.85-6.68,1.79-9.89,9.2-8.6,19.83.1.86-.31,1.69-1.06,2.12-.75.43-1.68.37-2.37-.15-8.55-6.44-16.58-7.36-21.49-2.46-4.9,4.9-3.98,12.94,2.46,21.49.52.69.58,1.62.15,2.37-.43.75-1.27,1.16-2.12,1.06-10.62-1.3-18.04,1.92-19.83,8.59-1.79,6.69,3.01,13.18,12.85,17.37.79.34,1.31,1.12,1.31,1.98s-.52,1.64-1.31,1.98c-9.84,4.18-14.64,10.68-12.85,17.37,1.79,6.68,9.21,9.89,19.83,8.59.85-.1,1.69.31,2.12,1.06.43.75.37,1.68-.15,2.37-6.44,8.55-7.36,16.58-2.46,21.49,4.9,4.9,12.93,3.98,21.49-2.46.38-.29.84-.43,1.29-.43Z" style="fill: #ff57b8;"/>
  </g>
</svg>