<?xml version="1.0" encoding="UTF-8"?>
<svg id="Layer_1" data-name="Layer 1" xmlns="http://www.w3.org/2000/svg" viewBox="0 0 1011.31 287">
  <path d="m700.18,73.34c-.89.7-1.69,1.59-2.69,2.06-7.55,3.57-14.8,7.68-21.77,12.27-7.61,5-14.79,10.47-21.23,17-5.26,5.35-9.89,11.14-14.57,16.95-4.32,5.37-7.64,11.33-10.61,17.39-3.6,7.35-6.68,15.1-8.84,22.98-1.8,6.59-3.28,13.4-3.19,20.43.09,7.13-.44,14.27-.49,21.41-.07,9.64,2.94,18.52,7.16,27.03.66,1.34,1.79,2.44,2.6,3.71.74,1.16,1.35,2.41,1.78,3.83-.65-.12-1.16-.36-1.47-.77-2.34-3.09-4.66-6.18-6.16-9.83-3.14-7.63-5.82-15.34-5.76-23.75.05-6.83.02-13.67,0-20.5,0-2.72-.96-4.97-3.3-6.57-1.15-.79-2.14-1.8-3.22-2.69-2.09-1.73-5.93-.84-6.42,1.54-.94,4.64-1.83,9.28-2.62,13.95-.21,1.26-.02,2.6.04,3.89.03.53.32,1.05.31,1.57-.11,4.76-.4,9.51-.38,14.26.02,5.81,1.38,11.45,3.05,16.96,2.11,6.97,5.59,13.3,9.87,19.17,2.15,2.95,4.37,5.9,6.9,8.52,2.15,2.24,4.63,4.26,7.24,5.94,2.79,1.78,5.77,3.73,8.91,4.38,5.03,1.04,10.27,1.28,15.43,1.46,3.98.13,8.02-.07,11.94-.67,3.01-.46,6.25-.54,9.14-2.5,4.34-1.57,8.52-2.92,12.5-4.73,5.77-2.63,11.4-5.55,17.06-8.41,3.22-1.63,6.18-3.66,8.84-6.38.73-.44,1.23-.87,1.8-1.47.46-.49.85-.81,1.46-1.13.72-.44,1.22-.87,1.79-1.48.46-.49.85-.81,1.46-1.13,1.62,0,2.4-.86,3.2-2.04.71-.47,1.23-.85,1.97-1.24.48-.02.75-.05,1.03-.06h.01c-.89,2.6-3.44,3.49-5.31,5.02-3.83,3.13-7.84,6.06-11.87,8.93-1.66,1.18-3.52,2.1-5.37,2.97-8.62,4.03-17.15,8.33-25.97,11.88-5.88,2.37-12.06,4.14-18.65,3.65-5.61-.42-11.24-.45-16.86-.71-5.88-.27-10.82-3-15.4-6.34-8.4-6.11-14.54-14.2-19.08-23.45-3.4-6.93-5.57-14.31-6.82-21.93-.45-2.76-.7-5.58-.72-8.37-.07-8.24-.18-16.5.12-24.73.16-4.62.95-9.23,1.72-13.81.73-4.37,1.7-8.71,2.78-13,.65-2.61,1.7-5.13,2.59-7.69,3.94-11.31,9.36-21.91,15.78-31.98,2.49-3.91,5.76-7.31,8.42-11.12,5.44-7.83,12.87-13.76,19.45-20.48,2.61-2.67,6.03-4.54,9.26-6.56-.38.84-.88,1.57-1.54,2.08-2.29,1.8-4.8,3.34-6.92,5.31-3.73,3.46-7.25,7.16-10.83,10.78-.47.48-.76,1.14-1.2,1.83,2.18.81,4.67.63,5.34-.76,1.42-2.99,4.56-3.92,6.31-6.42,1.25-1.79,3.97-1.14,5.03.77.6,1.08,1.38,2.11,2.26,2.97,1.41,1.37,1.49,2.32.17,3.84-.75.87-1.37,1.85-2.05,2.77-.51.69-.91,1.52-1.57,2.03-1.58,1.21-1.82,2.94-2.07,4.8,1.17-.64,2.14-1.43,2.97-2.35,5.31-5.91,11.45-10.86,18.02-15.26,8.82-5.9,18.01-11.17,27.69-15.57.48-.22,1.02-.32,1.53-.47m-67.86,27.3c-.03.35-.06.7-.1,1.22,1.41-.85,2.23-1.94,2.46-3.26-.85.69-1.47,1.2-2.36,2.05h0Z" style="fill: #73e6b9;"/>
  <path d="m671.62,262.8c-2.65,1.94-5.89,2.02-8.9,2.48-3.93.6-7.97.8-11.94.67-5.16-.17-10.4-.42-15.43-1.46-3.15-.65-6.13-2.59-8.91-4.38-2.62-1.67-5.09-3.7-7.24-5.94-2.52-2.63-4.74-5.57-6.9-8.52-4.28-5.86-7.76-12.2-9.87-19.17-1.67-5.52-3.03-11.15-3.05-16.96-.02-4.75.26-9.51.38-14.26.01-.52-.28-1.05-.31-1.57-.06-1.3-.25-2.63-.04-3.89.79-4.66,1.68-9.31,2.62-13.95.48-2.38,4.32-3.27,6.42-1.54,1.08.89,2.07,1.91,3.22,2.69,2.34,1.6,3.3,3.85,3.3,6.57.02,6.83.05,13.67,0,20.5-.06,8.41,2.62,16.12,5.76,23.75,1.5,3.65,3.82,6.74,6.16,9.83.31.4.82.65,1.45,1.01,1.05.88,1.93,1.69,2.71,2.58,3.66,4.2,8.46,5.86,13.82,6.08,4.54.18,9.12.37,13.64,0,3.07-.25,6.23-1.09,9.06-2.32,7.73-3.36,15.45-6.8,22.89-10.73,4.65-2.45,8.83-5.81,13.16-8.85,2.38-1.67,4.59-3.61,6.97-5.29,7.56-5.36,13.98-11.93,20.03-18.87,3.41-3.91,6.84-7.81,9.93-11.97,3.99-5.37,7.64-11,11.45-16.51.36-.52.78-1.01,1.35-1.32-.72,2.12-1.61,4.06-2.68,6.13-.85,1.23-1.52,2.34-2.22,3.42-6.96,10.69-15.28,20.27-24.16,29.37-5.43,5.56-10.92,11.07-18.13,14.41-.56.26-1.03.81-1.43,1.31-2.5,3.22-5.84,5.35-9.38,7.23-2.85,1.52-5.62,3.2-8.55,4.57-5.56,2.59-11.13,5.17-16.82,7.43-5.04,2.01-6.26,6.18-2.67,10.3.13.15.14.4.2.59,0,.12.01.24-.03.33-.09.2-.22.37-.32.56-1.1,2.19-1.07,2.34.92,3.56,1.18.73,2.38,1.42,3.57,2.12h-.03Z" style="fill: #76f99f;"/>
  <path d="m700.46,73.32c-.79.17-1.33.27-1.81.49-9.67,4.4-18.87,9.67-27.69,15.57-6.56,4.39-12.7,9.35-18.02,15.26-.83.92-1.81,1.71-2.97,2.35.25-1.86.49-3.58,2.07-4.8.66-.5,1.06-1.34,1.57-2.03.68-.93,1.3-1.91,2.05-2.77,1.32-1.52,1.24-2.47-.17-3.84-.88-.86-1.66-1.89-2.26-2.97-1.06-1.91-3.78-2.56-5.03-.77-1.75,2.5-4.89,3.43-6.31,6.42-.66,1.39-3.15,1.57-5.34.76.44-.69.73-1.35,1.2-1.83,3.58-3.63,7.1-7.32,10.83-10.78,2.12-1.97,4.63-3.51,6.92-5.31.66-.52,1.15-1.24,1.75-2.07.13-.27.22-.33.72-.44.9-.24,1.44-.36,1.88-.64,6.06-3.78,12.1-7.57,18.14-11.39.33-.21.5-.67.75-1.01,0,0,.04.02.27.02,3.7-1.68,7.09-3.53,10.64-4.99,10.54-4.33,21.14-8.5,31.7-12.78.64-.26,1.12-.89,1.68-1.35.3-.12.6-.24,1.39-.38,1.59-.43,2.7-.84,3.81-1.26.25-.06.51-.13,1.14-.15.74-.17,1.1-.38,1.46-.59.32-.13.64-.25,1.36-.27,1.34-.3,2.27-.7,3.21-1.11,6.46-3.11,13.26-3.14,19.91-1.3,5.35,1.47,7.63,5.96,6.51,11.76-.84,4.36-5.69,7.33-10.45,6.67-3.05-.42-5.99-.11-8.94.78-2.37.71-4.81,1.17-7.64,1.74-.68.13-.93.25-1.18.37-.15.06-.3.12-.87.23-.87.25-1.33.45-1.79.66-1.9.63-3.8,1.26-5.98,1.98-.29.09-.41.17-.41.17-1.02.37-2.03.74-3.5,1.15-1.13.45-1.81.86-2.48,1.26-.52.22-1.05.44-2.08.7-2.04.7-3.56,1.35-5.09,2-.97.41-1.95.82-3.38,1.25-1.11.37-1.77.71-2.43,1.05-.11.07-.22.14-.73.24-1.12.46-1.85.88-2.57,1.3-.51.21-1.02.42-1.81.65h-.03Z" style="fill: #6bdfc0;"/>
  <path d="m671.86,262.79c-1.44-.69-2.64-1.38-3.82-2.1-1.99-1.23-2.02-1.37-.92-3.56.1-.19.23-.37.32-.56.04-.09.02-.21.03-.33-.06-.19-.07-.44-.2-.59-3.59-4.12-2.37-8.29,2.67-10.3,5.69-2.27,11.27-4.84,16.82-7.43,2.92-1.36,5.69-3.05,8.55-4.57,3.54-1.88,6.87-4.01,9.38-7.23.39-.51.87-1.05,1.43-1.31,7.21-3.34,12.71-8.85,18.13-14.41,8.88-9.1,17.2-18.68,24.16-29.37.71-1.08,1.37-2.19,2.29-3.17-1.17,4.61-2.69,9.08-3.97,13.61-1.49,5.27-2.87,10.58-4.14,15.91-.61,2.59-.85,5.28-1.29,8.18-.03.93-.04,1.61-.22,2.36-.5.25-.83.43-1.37.64-.91.66-1.62,1.3-2.52,2.03-2.89,3.21-5.59,6.32-8.28,9.42-.2.19-.4.38-.97.71-1.88,1.03-3.39,1.91-5.1,2.81-.51.43-.81.85-1.11,1.26-.53.38-1.05.77-1.99,1.23-1.81.06-2.62.89-3.2,2.04-.39.32-.77.63-1.45,1.14-.79.62-1.3,1.04-1.81,1.47-.38.32-.77.64-1.44,1.14-.8.61-1.31,1.04-1.82,1.47-2.44,2.71-5.39,4.75-8.61,6.38-5.66,2.86-11.29,5.78-17.06,8.41-3.97,1.81-8.16,3.16-12.5,4.73h0Z" style="fill: #75f17a;"/>
  <path d="m330.76,183.38c-.13.61-.09,1.33-.41,1.8-3.89,5.79-6.56,12.17-9.11,18.61-2.99,7.53-5.99,15.07-9.08,22.56-2.51,6.09-5.21,12.09-7.7,18.19-.93,2.29-1.64,4.69-2.21,7.09-.92,3.89-4.12,7.01-8.01,7.52-3.71.49-7.02-1.43-9.13-4.9-2.02-3.33-1.43-6.89-1.13-10.79,1-2.24,1.63-4.15,2.45-5.98,2.81-6.27,5.8-12.47,8.49-18.79,3.63-8.52,7.07-17.13,10.53-25.72.84-2.09,1.47-4.28,2.22-6.64.06-.68.1-1.13.32-1.7.72-.96,1.26-1.8,2.01-2.67,1.31-2.16,2.42-4.29,3.52-6.43.04-.12.09-.24.45-.56,1.16-.99,2.01-1.78,3.25-2.95.11,1.54.11,2.38.23,3.21.77,5.35,4.47,10.35,11.74,8.42.51-.14,1.05-.19,1.57-.28h0Z" style="fill: #bcdb4c;"/>
  <path d="m325.97,92.7c-.33.04-.67.07-1.48.14-4.6.86-8.72,1.68-12.83,2.51-.33.02-.67.04-1.44.08-1.12.19-1.8.37-2.47.55-.33.02-.67.04-1.44.08-1.12.2-1.79.37-2.46.55-.33.03-.67.06-1.42.13-.89.21-1.37.37-1.84.54-.74.03-1.48.06-2.75.11-3.15.24-5.78.46-8.55.5-1.43-.4-2.84-1.26-3.96.65-.97.12-1.69.15-2.53.01-1.15-.65-2.04-.73-2.53.55,0,0,.06.21-.23.24-5.09.03-9.88.02-14.87-.18-1.8-.28-3.41-.43-5.02-.45-4.46-.04-4.48-.01-5.4-4.27-.3-1.36-.37-2.79-.77-4.11-.84-2.76.15-5.09,1.48-7.38.48-.82.98-1.63,1.76-2.45,1.79.07,3.3.16,4.8.25,1.71.1,3.44.38,5.14.3,6.98-.35,13.95-.81,20.93-1.25.86-.05,1.71-.16,2.56-.29,3.72-.54,7.42-1.18,11.14-1.63,5.51-.67,10.93-1.7,16.32-3.06,3.14-.79,6.48-.78,9.67-1.51,1.04-.24,2.09-.39,3.14-.58,1.36-.25,2.72-.5,4.28-.64.46.76.82,1.39.95,2.06.13.69-.04,1.43.06,2.13.21,1.46.52,2.91.76,4.37.34,2.1.65,4.2.97,6.3.13.84.22,1.69.21,2.63-.31.19-.42.34-.45.56-.33.04-.66.09-1.38.16-.66.16-.94.3-1.22.43-.33.06-.67.11-1.38.21-.66.18-.94.31-1.22.45-.33.06-.66.11-1.41.2-.89.16-1.37.3-1.84.44-.34.04-.67.07-1.43.14-.89.2-1.36.37-1.83.53h-.02Z" style="fill: #c34076;"/>
  <path d="m50.52,79.48c4.11-.89,8.19-2.04,12.35-2.61,11.28-1.56,22.65-2.03,34.04-2.04,7.78,0,15.57-.12,23.35-.15,4.11-.02,8.22.05,12.53.38-1.19.63-2.58.96-3.43,1.16-.39,2.34-.78,4.28-1.02,6.23-.18,1.48-.49,3.06-.19,4.47.46,2.18,1.39,4.26,2.19,6.58,3.26,0,6.37-.02,9.49.01.91,0,2.03-.34,2.16,1.02-5.28.16-10.25.26-15.54.33-6.22.02-12.13.07-18.34.05-8.07-.06-15.84-.05-23.61-.01-1.19,0-2.37.09-3.55.18-5.16.37-10.31.75-15.46.87.15-1.7-.34-2.72-1.74-3.36-.74-.34-1.81-.95-1.89-1.55-.27-2.07-1.47-4.05-.52-6.28.81-1.89,1.3-3.92,2.03-6.17-.97,0-1.61-.08-2.22.01-3.16.51-6.3,1.09-9.47,1.56-.34.05-.77-.45-1.15-.69m75.01-4.19c-.6.14-1.2.28-1.8.42.03.21.05.43.08.64h2.26c-.03-.32-.06-.65-.54-1.07h0Z" style="fill: #d5764d;"/>
  <path d="m211.5,230.29c1.46.54,2.64.11,3.94-.71,4.49-2.83,7.88-6.74,11.02-10.91,9.06-12.03,15.95-25.22,20.92-39.43.93-2.67,2.17-5.16,4.34-7.14,4.44-4.08,11.91-2.87,14.61,2.52,2.29,4.57,1.78,9.21,0,13.78-3.08,7.94-7.1,15.53-9.02,23.92-.21.94-.73,1.81-.98,2.74-.48,1.75-1.13,3.56.67,5.42-1.86.62-3.88,1.26-5.86,1.17-3.47-.16-6.03,1.58-8.39,3.61-1.03.89-2.1,2.59-1.97,3.81.27,2.6.38,5.4,2.14,7.66.34.43.48,1.02.96,2.08-1.73-.6-2.88-1-4.03-1.39-1.47-.56-2.6-.17-3.72.97-1.26,1.29-2.76,2.34-4.37,3.31,1.05-1.64,2.25-3.17,3.61-4.53,1.21-1.21,1.64-2.38.93-4.05-.5-1.17-.81-2.49-.85-3.75-.21-6.81.23-13.56,2.25-20.14.4-1.29.44-2.7.65-4.05-3.1,3.7-5.75,7.43-8.37,11.17-.85,1.22-1.47,2.64-2.47,3.71-2.72,2.89-5.62,5.62-8.38,8.47-1.51,1.55-3,3.06-5.46,3.51-.95-.35-1.68-.74-2.36-1.29.1-.26.14-.36.19-.46h0Z" style="fill: #5ac1dd;"/>
  <path d="m108.41,94.98c5.91-.05,11.83-.1,18.04.17.36,2.48.34,4.64.49,6.79.29,4.18.97,8.36.95,12.53-.05,11.76-.36,23.51-.59,35.27-.01.75-.14,1.5-.24,2.25-.57,4.37-1.14,8.74-1.95,13.07-1.72-.88-1.61-2.32-1.71-3.73-.18-2.57-.99-5.26-3.22-6.35-2.42-1.18-5.03.28-7.4,1.44-1.81.89-2.33,2.39-2.42,4.25-.04.72-.44,1.41-.58,2.13-.16.79-.22,1.6-.33,2.4-.1.71-.11,1.44-.33,2.11-.29.92-.85,1.75-1.1,2.68-.92,3.4-.78,6.98-2.1,10.35-1,2.57-1.32,5.4-1.91,8.12-1.14,5.26-2.42,10.47-3.93,15.64-1.76,6.02-4.67,11.54-6.71,17.43-.7,2.02-1.51,4.02-2.41,5.96-1.94,4.18-3.96,8.32-6.16,12.48-.48,0-.76,0-1.03-.22.43-1.36.85-2.49,1.26-3.62.08-.24.16-.48.47-.99.43-.71.65-1.15.86-1.59.08-.24.16-.48.47-1.02,1.46-2.81,2.82-5.27,3.88-7.86,1.64-3.98,3.07-8.04,4.59-12.07.12-.41.25-.82.61-1.56,3.53-8.32,5.68-16.64,7.18-25.14.06-.28.13-.55.37-1.18.23-.92.28-1.48.33-2.05.05-.28.09-.57.33-1.22.43-1.8.68-3.23.93-4.65.06-.48.12-.96.37-1.85.66-3.34,1.14-6.27,1.62-9.2.04-.48.09-.97.32-1.88.45-2.22.77-4,.94-5.8.3-3.29.5-6.58.74-9.88.04-.7.09-1.39.31-2.55.25-.88.38-1.31.38-1.73.02-11.32.03-22.63,0-33.95,0-.71-.32-1.42-.48-2.13-.06-1.12-.12-2.23-.16-3.88-.14-1.66-.29-2.8-.45-3.93-.07-.91-.14-1.81-.19-3.21-.01-.94-.04-1.38-.07-1.83h.03Z" style="fill: #dcd04b;"/>
  <path d="m405.78,65.83c-.11.04-.23.07-.7.23-5.57,2.11-10.77,4.11-16.08,5.93-1.22-.77-1.13.09-1.24.89-.16.3-.26.48-.33.66-.88.31-1.77.61-3.04,1.04-1.1.3-1.81.48-2.52.42-.44-.75-.79-1.57-1.32-1.71-3.02-.78-4.77-2.68-5.43-5.66-.36-1.64-.7-3.28-1.05-4.92-.22-1.03-.44-2.06-.51-3.26,4.58-1.89,9.03-3.57,13.44-5.34,3.21-1.29,6.44-2.56,9.52-4.13,5.66-2.89,11.36-5.76,16.77-9.07,6.81-4.16,13.35-8.77,20.29-13.18h4.34c.5,1.17.71,2.18,1.28,2.89,1.59,1.99,1.67,4.35,1.13,6.49-.59,2.31-.15,4.22.8,6.33,0,.14.05.41.05.41,0,0-.15.05-.38.13-.88.66-1.54,1.23-2.19,1.81,0,0-.17.05-.41.14-1.12.88-1.99,1.66-2.87,2.45,0,0-.16.04-.4.12-.97.6-1.71,1.12-2.44,1.64-.12.04-.24.09-.72.27-1.73,1.1-3.1,2.07-4.48,3.03-.12.04-.23.09-.68.25-.76.49-1.2.87-1.64,1.25,0,0-.17.05-.43.13-1.42.82-2.58,1.55-3.75,2.29-.12.04-.24.08-.72.23-1.1.64-1.84,1.17-2.58,1.7-.11.04-.23.07-.69.22-1.51.88-2.66,1.65-3.82,2.42-.12.04-.24.08-.72.23-2.4,1.3-4.44,2.47-6.47,3.65v.02Z" style="fill: #b93e87;"/>
  <path d="m142.29,94.47c-.43-1.3-1.54-.95-2.46-.96-3.12-.03-6.24-.01-9.49-.01-.8-2.32-1.73-4.4-2.19-6.58-.3-1.42,0-2.99.19-4.47.24-1.95.63-3.89,1.02-6.23.86-.2,2.25-.53,3.72-1.07,1.14-.38,2.21-.71,3.26-.68,8.3.25,16.61.54,24.91.9,2.04.09,4.08.46,6.58.91,1.35.22,2.24.23,3.13.24,1.4.08,2.81.16,4.62.42.7.19,1,.19,1.29.19,1.81.07,3.62.14,5.87.42.94.22,1.45.23,1.96.24,2.23.07,4.46.13,7.18.42,1.86.22,3.23.22,4.61.22,1.74.04,3.47.08,5.48.34.27.21.29.46.08.64-1.16.26-2.14.52-3.07.4-3.83-.51-6.97.23-8.47,4.27-.47,1.28-.98,2.55-1.3,3.87-.82,3.37,1.72,5.77,2.46,8.82,1.34,0,2.54-.13,3.69.05.59.09,1.09.73,1.35,1.17-1.81.09-3.34.13-4.86.17-1.57-.08-3.14-.16-5.2-.37-1.85-.18-3.21-.22-4.58-.27-1.35-.09-2.7-.17-4.53-.41-1.62-.21-2.77-.27-3.92-.33-.31-.04-.62-.09-1.36-.27-2.01-.2-3.59-.25-5.18-.31-.3-.05-.61-.1-1.34-.3-3.1-.23-5.76-.3-8.42-.38-.51-.04-1.01-.08-1.97-.26-4.65-.35-8.85-.56-13.05-.78h0Z" style="fill: #d06266;"/>
  <path d="m196.99,97.93c-.54-.39-1.05-1.03-1.63-1.12-1.15-.18-2.35-.05-3.69-.05-.74-3.05-3.28-5.45-2.46-8.82.32-1.32.83-2.59,1.3-3.87,1.49-4.05,4.63-4.78,8.47-4.27.93.12,1.91-.14,3.35-.41,1.4-.23,2.31-.26,3.23-.3,1.73.05,3.47.1,5.54.43,1.15,1.33,2,1.13,3.16.34,2.49-.04,4.68-.06,6.87-.09,1.56,0,3.12.02,5.14.27,3.76.49,6.99,1.45,10.37.53,1.26-.35,2.76.17,4.15.28,1.18.09,2.36.27,3.54.23,4.2-.14,8.39-.36,12.59-.55-.49.81-.99,1.62-1.47,2.44-1.33,2.29-2.32,4.61-1.48,7.38.4,1.33.47,2.75.77,4.11.93,4.26.94,4.23,5.4,4.27,1.61.01,3.22.17,5.02.58.18.33.22.59.22.59-11.98-.01-23.95-.02-36.44-.15-1.7-.18-2.88-.25-4.07-.3-3.01-.15-6.02-.29-9.11-.66-3.07-.96-6.04-1.14-9.22-.07-.51-.05-.8-.13-1.15-.43-1.54-1.26-3.02-1.26-4.76-.17-1.4-.04-2.52-.11-3.64-.18h0Z" style="fill: #c94f6b;"/>
  <path d="m437.23,207.94c-3.97,5.2-8.75,9.57-13.99,13.81-.19.14-.14.09-.14.09-5.98,5.79-12.9,10.27-20.05,14.44-.36.21-.81.27-1.61.22-5.25.73-7.82-.84-9.22-5.56-.12-.41-.32-.8-.48-1.2-1.69-4.32.46-9.12,4.79-10.77,1-.38,1.97-.84,2.91-1.36,8-4.43,14.57-10.68,21.23-16.8,1.58-1.45,2.7-3.39,4.29-4.82,3.37-3.03,5.62-6.81,7.68-10.73.99-1.89,1.71-3.92,2.59-6.13,1.21-3.75,2.38-7.27,3.78-10.7.4,1.09.74,2.11.71,3.11-.07,2.15-.47,4.29-.49,6.43-.07,7.05-.02,14.1-.02,21.14,0,3.09.48,6.29-1.97,8.84h-.01Z" style="fill: #882fcd;"/>
  <path d="m866.95,241.49c-.24.17-.48.33-1.18.51-2.02,1-3.25-.45-5-.73-.37,1-.72,1.96-1.07,2.92-.44,1.2-1.54,1.93-2.51,1.42-2.34-1.24-4.49-2.83-6.71-4.3-.16-.11-.29-.34-.35-.53-.76-2.26-2.41-4.48-.11-6.84.39-.4.39-1.2.71-1.98,1.4-.96,2.67-1.75,3.94-2.54,3.12-1.92,6.36-3.66,9.32-5.8,4.18-3.03,8.17-6.31,12.19-9.56,2.85-2.3,5.82-4.5,8.34-7.13,6.34-6.58,12.55-13.3,17.38-21.13,1.17-1.9,2.28-3.83,3.42-5.75,2.74-3.56,5.22-7.36,8.27-10.63,3.75-4.03,9.17-3.91,13.01-.02-5.49-3.05-9.31-1.84-12.64,2.47-4.34,5.64-9.04,11.01-11.74,17.87-2.41,6.12-4.59,12.25-6.1,18.65-.99,4.2-1.71,8.41-1.98,12.74-.52.33-.86.63-1.3,1.18-.04.43.03.6.1.77.01,0,.02-.02.02-.02-.81.34-1.74.54-2.42,1.05-6.62,5.05-13.21,10.15-20.23,15.26-.78.39-1.14.74-1.49,1.09,0,0-.04.14-.3.15-.7.3-1.15.59-1.59.88h.02Z" style="fill: #a336a6;"/>
  <path d="m850.59,232.12c-.18.61-.18,1.4-.57,1.81-2.3,2.36-.66,4.58.11,6.84.07.2.19.42.35.53,2.22,1.47,4.37,3.06,6.71,4.3.97.52,2.07-.21,2.51-1.42.35-.96.7-1.92,1.07-2.92,1.75.28,2.98,1.74,4.78.75-3.45,2.23-7.01,4.72-10.87,6.59-3.58,1.74-7.48,2.85-11.25,4.18-8.41,2.98-17.05,2.16-25.72,1.76-5.09-.23-9.07-2.47-12.89-5.43-3.24-2.51-4.63-5.96-4.79-9.88-.12-3.02.18-6.05.36-9.5.15-.57.22-.73.39-.85.12.05.38.13.5.35.37,1.46.63,2.7.87,3.87,1.83.71,3.35.27,4.79-.6,2.27-1.37,4.41-1.18,6.77-.03,1.38.67,3.1.66,4.67.96.14.66.28,1.32.52,2.23.1.25.28.39.28.39,4.4.11,8.8.23,13.6.55,1.49.33,5.78-.2,6.69-.53,3.71-1.34,7.42-2.66,11.14-3.98l-.02.03Z" style="fill: #b23c93;"/>
  <path d="m912.87,217.75c-.09.98-.17,1.96-.52,3.32-.22,1.53-.16,2.68-.11,3.83-.1,3.13-.21,6.26-.3,9.78.09.5.17.61.24.73.19.05.38.09.94.33.36.2.6.25.6.25l.24-.02c.26-.02.52-.04,1.15.21,5.64.62,10.91,1.05,16.13-.35,1.17-.32,2.45-.25,4.12-.39-.22,1.53-.38,2.55-.52,3.57-.38,2.82-.89,5.68,2.51,7.17.2.09.38.22.54.36,1.9,1.75,1.72,3.5-.64,4.44-1.47.59-3.13.67-4.68,1.09-4.3,1.16-8.64,1.78-13.11,1.6-3.03-.12-6.06.02-9.1.05-.65,0-1.31.02-2.33-.22-2.07-1.38-3.9-2.37-5.46-3.68-4.53-3.78-7.35-8.38-7.05-14.61.22-4.65.03-9.33.2-14.14.35-.42.59-.68.67-.98,1.11-4.04,4.75-5.05,7.96-5.73,3.17-.67,5.96,1.53,8.54,3.38h-.02Z" style="fill: #694bdd;"/>
  <path d="m913.03,217.56c-2.74-1.66-5.53-3.86-8.7-3.19-3.21.68-6.86,1.69-7.96,5.73-.08.3-.32.56-.87.95-.64.09-.9.07-1.17.04.08-4.31.8-8.52,1.79-12.72,1.51-6.4,3.69-12.52,6.1-18.65,2.7-6.86,7.4-12.23,11.74-17.87,3.32-4.31,7.15-5.52,12.7-2.25.48.03.65.14.8.69.45.88.86,1.41,1.27,1.95.13.17.25.33.52.78.14.28.12.25.12.25.03,1.47.07,2.95-.15,4.81-.31.67-.37.96-.42,1.25-.03.17-.06.34-.3.76-.21.25-.32.53-.32.53-4.23,6.14-7.55,12.72-10.16,19.71-2.08,5.56-3.83,11.18-4.98,17.22h-.01Z" style="fill: #882fcd;"/>
  <path d="m239.92,237.64c1.09.18,2.24.58,3.97,1.18-.48-1.06-.63-1.65-.96-2.08-1.76-2.26-1.87-5.06-2.14-7.66-.13-1.21.94-2.92,1.97-3.81,2.36-2.03,4.92-3.76,8.39-3.61,1.99.09,4.01-.55,6.11-1.02.44-.36.77-.57,1.59-.85,1.16-.74,1.84-1.42,2.52-2.09.13-.11.26-.22.8-.46.68-.42.95-.71,1.23-1.01,1.98-1.99,3.96-3.99,6.26-6.17.51-.5.7-.81.89-1.12.08-.17.16-.35.53-.78.45-.54.62-.82.78-1.09,0,0,.09-.23.24-.36.24-.22.3-.31.36-.41.06-.16.12-.33.48-.73.48-.54.67-.85.86-1.15.12-.23.24-.47.77-.75,1.98,1.03,1.01,2.34.53,3.38-1.79,3.93,1.31,6.7,2.23,9.97.11.4.82.82,1.29.88,1.33.17,2.87-.22,3.99.32,1.19.57,2,1.92,3.62,1.8,0,.49,0,.77-.01,1.23,0,.3,0,.41.01.74-.02.49-.04.77-.19,1.05-.38.09-.63.18-.89.26-1.13,1-2.25,2.01-3.39,3-4.05,3.55-7.94,7.3-12.19,10.6-4.35,3.39-9.36,5.2-15.06,4.96-3.46-.14-6.95.04-10.19-1.37-1.53-.67-2.89-1.74-4.39-2.85h0Z" style="fill: #6bdfc0;"/>
  <path d="m50.31,79.46c.6.26,1.02.76,1.36.71,3.16-.47,6.31-1.05,9.47-1.56.61-.1,1.25-.01,2.22-.01-.72,2.25-1.22,4.27-2.03,6.17-.95,2.24.25,4.21.52,6.28.08.6,1.15,1.21,1.89,1.55,1.4.64,1.89,1.65,1.5,3.46-.76.49-1.27.68-1.8.74-11.61,1.51-22.48,5.06-32.24,11.67-.44.3-.96.47-1.73.68-.94-.02-1.59-.04-2.23-.02-3.99.18-6.79-1.09-8.33-5.94-1.15-3.64-.27-7.3,2.89-9.33,5.14-3.3,10.44-6.34,15.81-9.54.31-.15.44-.3.69-.51.27-.06.38-.08.67-.1.49-.17.8-.35,1.36-.55,1.61-.46,2.98-.9,4.59-1.35,1.56-.73,3.53.07,4.4-1.89.2-.12.31-.2.4-.29.13-.06.25-.12.59-.16h0Z" style="fill: #dd833b;"/>
  <path d="m961.49,222.45c4.28-2.32,8.63-4.51,12.81-6.99,4.84-2.87,9.52-6.02,14.3-9,1.37-.85,2.77-1.76,4.28-2.26,3.96-1.29,8.13.41,10.39,4.02,2.17,3.46,1.89,7.85-.89,10.84-1.32,1.42-2.82,2.72-4.42,3.81-9.15,6.23-18.77,11.67-28.77,16.43-.29.14-.62.2-1.07.08.61-.77,1.37-1.31,2.49-2.12-.97-.77-1.8-1.35-2.54-2.05-.75-.71-1.77-1.43-2-2.32-.51-1.94-.66-3.99-.84-6-.12-1.35-.02-2.72-.02-3.91-1.52-.21-2.63-.37-3.74-.52h.02Z" style="fill: #5770db;"/>
  <path d="m373.42,59.62c.22,1.03.44,2.06.66,3.08.35,1.64.68,3.29,1.05,4.92.66,2.98,2.41,4.88,5.43,5.66.53.14.88.96,1.14,1.85-8.47,4.35-17.19,7.19-25.94,9.93-4.91,1.54-9.87,2.94-14.8,4.4-.33.04-.67.07-1.3.07-.67-.04-1.04-.04-1.41-.05-.11-.84-.2-1.69-.32-2.53-.31-2.1-.63-4.2-.97-6.3-.24-1.46-.55-2.91-.76-4.37-.1-.7.08-1.44-.06-2.13-.13-.67-.49-1.3-.79-2.24,4.39-1.46,8.81-2.61,13.23-3.81,3.4-.92,6.86-1.71,10.18-2.87,4.93-1.73,9.77-3.73,14.64-5.62h.02Z" style="fill: #bf4180;"/>
  <path d="m441.13,43.31c-.95-1.97-1.39-3.88-.8-6.19.54-2.13.46-4.5-1.13-6.49-.57-.71-.78-1.72-1.28-2.89-1.28,0-2.67,0-4.24-.2,3.14-2.91,6.74-5.35,9.71-8.4,4.56-4.69,8.71-9.78,13-14.74,1.4-1.62,2.93-2.79,5.22-2.76.77,0,1.55-.46,2.53-.69.47-.02.73-.05,1-.08,1.03.89,2.05,1.78,3.26,2.91.25.42.37.51.56.52.18.39.35.78.64,1.54.34,1.01.57,1.63.81,2.26-.03,1.18-.05,2.37-.22,3.98-.66,1.76-1.16,3.09-1.67,4.41,0,0-.15.11-.34.26-.42.68-.66,1.2-.9,1.73-.45.61-.91,1.22-1.63,2.11-2.05,2.29-3.83,4.3-5.6,6.32-.63.63-1.27,1.27-2.19,2.15-2.01,2.09-3.74,3.92-5.47,5.76-.48.34-.96.68-1.76,1.23-1.4,1.23-2.48,2.24-3.56,3.25,0,0-.16.06-.4.15-.98.83-1.72,1.56-2.46,2.29-.36.2-.72.41-1.38.79-.77.38-1.23.58-1.7.78Z" style="fill: #b23c93;"/>
  <path d="m961.26,222.54c1.34.06,2.44.22,3.97.43,0,1.19-.09,2.56.02,3.91.17,2.02.33,4.06.84,6,.23.89,1.25,1.61,2,2.32.73.7,1.57,1.28,2.54,2.05-1.12.81-1.88,1.36-2.71,2.08-9.91,5.78-20.48,9.64-31.24,12.95-8.17,2.52-16.64,2.52-25.1,2.15-.3,0-.6-.23-1.06-.53,2.87-.21,5.9-.35,8.93-.23,4.47.18,8.82-.44,13.11-1.6,1.55-.42,3.21-.5,4.68-1.09,2.36-.94,2.54-2.69.64-4.44-.16-.14-.34-.27-.54-.36-3.4-1.5-2.89-4.36-2.51-7.17.14-1.02.3-2.04.52-3.57-1.66.14-2.94.07-4.12.39-5.22,1.4-10.49.98-15.95.43.98-.34,2.16-.68,3.31-.6,8.4.61,16.11-1.98,23.69-5.09,6.28-2.57,12.5-5.29,18.97-8.03h.01Z" style="fill: #635bdc;"/>
  <path d="m435.19,179.36c-.84,1.97-1.57,4-2.56,5.89-2.06,3.92-4.31,7.71-7.68,10.73-1.59,1.43-2.71,3.37-4.29,4.82-6.66,6.12-13.23,12.37-21.23,16.8-.93.52-1.91.98-2.91,1.36-4.33,1.65-6.48,6.45-4.79,10.77.16.4.36.79.48,1.2,1.4,4.72,3.97,6.29,8.98,5.54-4.06,2.14-14.89,2.15-18.74.05-4.41-2.39-6.89-6.08-7.03-11.46.07-.28.16-.3.33-.41.38-1.06.6-2.01.81-3.17,0-.48,0-.75.21-1.19.34-1.77.38-3.38.59-4.96.59-4.37,1.3-8.7,4.15-12.45,1.1-.16,1.93-.41,2.77-.46,3.55-.2,6.97-.14,9.26,3.38.55.84,1.89,1.15,2.85,1.96-.64,3.42-2.82,6.32-1.78,10.19,1.11-.49,2.03-.77,2.82-1.26,2.29-1.43,4.59-2.88,6.79-4.45,7.68-5.52,14.65-11.85,20.84-18.99,2.97-3.42,5.57-7.15,7.16-11.65,1.11-.81,2.03-1.52,2.96-2.23h.01Z" style="fill: #a336a6;"/>
  <path d="m780.26,101.4c.29-.07.57-.14,1.35-.16,1.02.02,1.55-.02,2.09-.05,4.81.39,8.23,3.42,8.72,7.6.67,5.67-2.8,9.5-7.03,10.56-7.91,1.98-14.83,5.78-20.96,11.25-3.58,3.19-7.03,6.36-9.69,10.4-1.23,1.87-3.05,3.38-4.72,4.92-3.45,3.17-8.36,3.31-11.89.43-3.97-3.23-5.4-8.38-2.44-12.13,3.93-4.99,7-10.75,12.49-14.68.26,0,.34.08.29.3-1.04,1.35-2.06,2.46-2.99,3.64-.85,1.08-1.58,2.26-2.4,3.37-.96,1.3-1.77,2.8-2.96,3.83-2.19,1.89-3.17,4.25-3.73,6.98-.65,3.17.82,7.02,3.56,8.77,2.53,1.62,5.97,1.57,8.47-.69,2.38-2.16,4.42-4.71,6.45-7.22,1.96-2.43,3.67-5,6.29-6.91,2.83-2.05,5.31-4.58,8.28-7.19-1.1-.67-1.92-1.29-2.83-1.7-4.19-1.85-5.68-4.48-5.09-8.97.12-.9-.05-1.85-.05-2.99,3.5-3.26,7.79-4.83,11.84-6.83.64-.31,1.17-.84,1.75-1.26,0,0,.28-.16.69-.13,1.78-.36,3.15-.75,4.51-1.14h0Z" style="fill: #51a2de;"/>
  <path d="m741.26,217.83c0-.68.01-1.36.28-2.35.5-.64.89-.94.96-1.31,1.74-8.77,4.35-17.3,7.44-25.66.77-2.08,2.88-3.67,4.46-5.41.29-.32,1.06-.45,1.51-.32,2.54.75,5.35.83,7.25,3.18.69.85,1.86,1.31,3.09,2.14.49-1.24.74-2.17,1.22-2.97.41-.68,1.08-1.2,1.64-1.79-.06.41-.12.82-.34,1.66-.61,1.54-1.05,2.65-1.5,3.77-.16.89-.32,1.78-.78,3.06-2.4,8.64-6.01,16.45-7.08,24.99-.25,2.03-1.81,2.71-3.5,1.66-2.49-1.55-5.21-2-8.06-1.92-1.97.06-4.74,2.28-5.24,4.18-1.07,4.09-1.66,8.23-1.37,12.48.35,5.18,2.19,9.46,6.95,12.01,1.48.79,3.12,1.27,4.69,1.89-5.7.32-10.85-4.4-11.98-8.21-.67-2.25-1.08-4.63-1.21-6.98-.19-3.45-.04-6.92-.13-10.76-.11-.37-.16-.51.05-.57.35-.09.5-.13.78-.07,1.27-.61,1.75-1.47.86-2.69h0Z" style="fill: #dcd04b;"/>
  <path d="m184.63,254.14c-.27.4-.55.8-1.15,1.38-.52.37-.71.57-1.16.76-1.74.18-3.39.89-4.68.47-4.72-1.54-8.16-3.08-8.67-9.21.56-1.16,1-2.16,1.65-3,2.3-2.99,4.9-5.78,6.98-8.91,3.51-5.29,6.71-10.79,9.34-16.6,3.11-6.88,6.36-13.69,9.61-20.51.59-1.24,1.47-2.35,2.29-3.28.15,1.27.49,2.36.27,3.32-1.34,5.64-2.88,11.23-4.2,16.88-.76,3.24-1.52,6.52-1.74,9.82-.3,4.42-.09,8.87-.04,13.31,0,.47.43.93.65,1.62-.03.53-.06.83-.24,1.26-.68,1.07-1.19,2.01-1.71,2.95-.07.16-.14.32-.53.71-.46.59-.61.94-.76,1.29-.06.15-.11.3-.48.66-.49.56-.67.91-.85,1.25-.08.16-.15.31-.58.7-.68.81-1.02,1.39-1.35,1.97-.07.15-.14.29-.57.65-.93.98-1.5,1.76-2.08,2.53v-.02Z" style="fill: #a336a6;"/>
  <path d="m782.11,218c1.98-1.33,3.96-2.65,6.28-4.07.54-.27.73-.44.93-.62.44-.39.88-.77,1.68-1.3.54-.29.72-.45.89-.61.47-.39.95-.78,1.77-1.34.52-.35.69-.54.86-.72.65-.59,1.3-1.17,2.34-1.89.79-.46,1.18-.78,1.58-1.1.22-.24.44-.49,1.03-.86.77-.54,1.17-.96,1.57-1.37.41-.36.82-.73,1.61-1.21.58-.33.8-.54,1.01-.75.63-.58,1.27-1.15,2.26-1.85.57-.34.78-.55,1-.77.39-.35.79-.71,1.55-1.17.6-.31.82-.5,1.05-.7.15-.13.31-.27.89-.57.87-.6,1.3-1.03,1.74-1.47.13-.13.26-.25.83-.5.71-.15.98-.18,1.21.03-3.32,5.02-6.35,9.96-8.65,15.29-2.47,5.71-5.07,11.4-5.36,17.81-2.54.16-4.03,1.74-5.79,2.95-3.5,2.41-7.18,4.57-10.98,6.73-1.36-1.03-2.59-1.89-3.68-2.9-1.79-1.66-3.68-3.19-4.48-5.72-.42-1.33-1.46-2.47-2.01-3.37-2.59.6-4.62,1.08-6.66,1.55,1.76-1.03,3.53-2.06,5.67-3.2.93-.45,1.48-.8,2.03-1.14.21-.16.43-.33,1.08-.69.65-.24.8-.37.88-.56.91-.66,1.82-1.32,3.08-2.1.52-.27.69-.42.87-.57.2-.16.4-.31,1.01-.66.59-.32.76-.45.92-.58h-.01Z" style="fill: #e5a13e;"/>
  <path d="m437.44,207.9c2.24-2.5,1.76-5.7,1.76-8.8,0-7.05-.04-14.1.02-21.14.02-2.14.42-4.28.49-6.43.03-1.01-.31-2.02-.79-3.2-.48-.38-.64-.6-.81-.82.44-1.89.9-3.78,1.3-5.67.79-3.72,2.63-6.7,6.31-8.05,5.27-1.93,11.26,1.92,11.95,7.63.23,1.92.15,3.88.13,5.83-.06,6.05-.17,12.11-.57,18.43-1.29-.1-2.36-.3-3.2-.86-4.73-3.17-9.44-1.78-11.42,3.51-.38,1-.7,2.05-.8,3.11-.48,5.11-.88,10.24-1.31,15.57-.2.71-.39,1.2-.57,1.7-.55-.83-1.02-1.91-2.48-.79v-.02Z" style="fill: #694bdd;"/>
  <path d="m991.89,125.09c-.2.25-.35.58-.61.75-4.38,2.78-6.71,7.19-9.24,11.47-1.91,3.24-4.91,4.94-8.67,4.62-3.56-.3-6.34-2.12-7.87-5.47-1.18-2.6-1.3-5.37.1-7.83,2.39-4.22,5.07-8.28,7.68-12.37.46-.71,1.12-1.35,1.81-1.85,4.55-3.3,9-6.75,13.74-9.75,3.08-1.94,6.51-3.43,9.94-4.68,2.65-.96,5.53-1.09,7.85,1.08-2.28-.17-4.3-.72-6.54,0-4.92,1.56-9.28,4.08-13.34,7.18-.56.43-1.02,1.13-1.29,1.8-1.29,3.22-.2,6.37.7,9.41.26.87,1.74,1.43,2.74,2,1.18.66,2.44,1.18,3.6,1.72-.28.89-.43,1.41-.59,1.93h0Z" style="fill: #5770db;"/>
  <path d="m63.74,262.98s.25-.08.57-.13c.6-.08.88-.11,1.2.09,1,1.03,1.93,1.88,2.94,2.62,4.1,2.99,5.47,8.15,3.45,12.71-.37.84-.38,1.84-.74,2.89-6.9,4.31-14.37,4.6-21.82,3.72-10.04-1.19-12.43-10.99-7.77-16.97.25-.32.32-.78.47-1.17,0,0,.06-.01.31-.06,2.14-1.2,4.17-1.72,6.39-1.57,1.26.08,2.53.04,3.8.06.28.05.56.11,1.19.32,1.33.05,2.3-.06,3.27-.18.29,0,.59.02,1.34.04,2.41-.17,4.21-.63,5.41-2.37h-.01Z" style="fill: #e5a13e;"/>
  <path d="m769.21,183.2c-.65.73-1.32,1.25-1.73,1.93-.48.79-.73,1.73-1.22,2.97-1.23-.83-2.41-1.29-3.09-2.14-1.9-2.36-4.71-2.43-7.25-3.18-.45-.13-1.22,0-1.51.32-1.58,1.74-3.69,3.34-4.46,5.41-3.09,8.36-5.7,16.89-7.44,25.66-.07.36-.46.66-.93,1.05.17-2.58.41-5.27,1.02-7.86,1.26-5.33,2.64-10.64,4.14-15.91,1.28-4.53,2.8-9,4.14-13.74.83-2.19,1.73-4.13,2.64-6.27,1.23-2.79,2.45-5.37,3.92-8.2.38-.55.51-.84.64-1.14,1.65-3.82,4.85-5.24,8.67-5.02,3.75.21,6.66,2.43,8.02,5.8,1.17,2.89,1.11,6.14-.36,9.15-1.18,2.42-2.31,4.86-3.65,7.69-.6,1.27-1.02,2.14-1.44,3.02,0,.11-.01.22-.11.47h0Z" style="fill: #bcdb4c;"/>
  <path d="m381.24,202.87c-2.57,3.75-3.29,8.09-3.87,12.46-.21,1.59-.26,3.2-.76,4.76-.23-3.12-.43-6.28.17-9.27.93-4.6,2.23-9.12,4.71-13.25,1.86-3.1,3.3-6.44,4.93-9.67,0,0,.01,0,.15-.07.32-.17.44-.32.5-.51,1.23-1.06,2.61-1.99,3.68-3.19,4.5-5.05,9.69-9.35,15.1-13.33,3.73-2.75,7.77-5.22,11.97-7.17,2.56-1.19,5.69-1.14,8.91-1.38.79,1.44,0,1.46-.81,1.57-3.61.48-7.26.62-10.18,3.42-2.05,1.97-2.45,2.38-1.22,4.85.44.9,1.34,1.61,2.15,2.27,1.57,1.3,3.39,6.64,2.78,8.51-.1.3-.29.59-.52.81-2.16,2.08-4.3,4.16-6.51,6.19-1.48,1.36-3.41,2.33-3.91,4.78-1.94,1.67-3.82,3.14-5.73,4.28-.05-1.72,0-3.14-.1-4.54-.05-.71-.18-1.65-.64-2.07-2.22-2-4.55-3.88-6.88-5.76-1.22-.99-2.36-.7-3.48.31-3.49,3.15-6.46,6.69-8.45,10.98-.76,1.63-1.34,3.35-2,5.02h.01Z" style="fill: #bf4180;"/>
  <path d="m783.58,238.03c3.61-2.26,7.28-4.42,10.79-6.83,1.76-1.21,3.25-2.79,5.84-2.8.29.16.44.44.44.44-.05.17-.11.33-.24.55-4.29,2.64-8.53,5.21-12.77,7.8-1.92,1.17-3.77,2.5-5.76,3.54-3.92,2.04-7.73,4.22-11.98,5.7-4.99,1.74-9.97,1.73-15.06,1.6-.51,0-1.01-.34-1.73-.72-1.79-.82-3.43-1.3-4.91-2.09-4.77-2.55-6.61-6.83-6.95-12.01-.28-4.25.31-8.39,1.37-12.48.5-1.91,3.26-4.12,5.24-4.18,2.85-.09,5.56.37,8.06,1.92,1.69,1.05,3.25.37,3.5-1.66,1.06-8.54,4.68-16.36,6.88-24.71.14.55.36,1.26.19,1.87-1.62,5.91-3.56,11.74-4.87,17.71-.99,4.49-1.21,9.14-1.73,13.73-.16,1.37.08,2.62,1.83,3.4-.45.47-1.05.67-1.66.75-2.05.26-5.22,3.07-5.76,5.02-.74,2.7-.54,5.4.75,7.77.86,1.59,2.28,3.45,3.84,3.95,2.03.65,4.58.5,6.69-.07,6.42-1.74,12.56-4.24,18-8.19h0Z" style="fill: #f3ca47;"/>
  <path d="m94.26,256.97c-1.9,2.74-4.13,5.32-5.62,8.27-1.48,2.91-3.57,5.17-5.93,7.18-3.51,2.99-7.27,5.68-11.14,8.56-.04-.87-.04-1.87.33-2.71,2.03-4.55.65-9.71-3.45-12.71-1.01-.74-1.94-1.6-2.85-2.82.88-1.33,1.7-2.25,2.52-3.17.6-.53,1.2-1.06,2.13-1.79,1.47-1.49,2.6-2.77,3.74-4.06,0,0,.15-.23.38-.43.46-.65.69-1.09.93-1.53,0,0,.14-.23.36-.43.47-.63.72-1.07.97-1.5.22-.29.44-.57.91-1.1.49-.68.73-1.13.96-1.57.27-.45.55-.9,1.07-1.61.49-.7.73-1.14.97-1.58.76-1.22,1.52-2.45,2.58-3.83.42-.16.53-.17.65-.18.28,0,.55,0,1.2.13-.29,1.62-.95,3.12-1.76,4.97.92.45,1.89,1.1,2.95,1.43,3.15.98,5.09,3,6.06,6.16.46,1.5,1.34,2.88,2.03,4.31h.01Z" style="fill: #ebb143;"/>
  <path d="m37.48,84.37c-5.23,3.15-10.54,6.19-15.67,9.49-3.16,2.03-4.05,5.69-2.89,9.33,1.53,4.85,4.33,6.11,8.33,5.94.64-.03,1.29,0,2.13.21-2.24,2.66-4.73,5.05-7.1,7.56-2.3,2.44-4.41,5.07-6.75,7.46-3.21,3.27-6.46,3.63-10.59,1.42-.37-.2-.8-.31-1.2-.46-.83-1.16-1.66-2.33-2.57-3.85-.24-.67-.41-.97-.57-1.27-.03-1.55-.07-3.09.06-5.04.2-.75.24-1.11.28-1.47.5-.88.99-1.76,1.76-2.9.53-.68.79-1.1,1.06-1.52,1.91-2.2,3.95-4.3,5.7-6.62,5.91-7.81,13.8-13,22.48-17.15,2.02-.97,4.22-1.56,6.6-2.17.27.15.27.37.27.37-.11.02-.22.05-.63.14-.49.18-.62.33-.68.53h-.02Z" style="fill: #e5a13e;"/>
  <path d="m463.95.93c-.77.25-1.55.72-2.32.71-2.29-.03-3.82,1.14-5.22,2.76-4.28,4.96-8.43,10.05-13,14.74-2.97,3.05-6.58,5.49-10,8.4-6.76,4.61-13.3,9.21-20.11,13.38-5.41,3.31-11.11,6.18-16.77,9.07-3.07,1.57-6.31,2.83-9.52,4.13-4.41,1.78-8.86,3.45-13.44,5.34-5.03,2.06-9.86,4.07-14.79,5.8-3.32,1.16-6.78,1.95-10.18,2.87-4.42,1.19-8.84,2.35-13.43,3.7-1.53.43-2.89.67-4.25.92-1.05.19-2.1.34-3.14.58-3.2.73-6.54.72-9.67,1.51-5.39,1.36-10.81,2.39-16.32,3.06-3.73.45-7.43,1.09-11.14,1.63-.85.12-1.7.23-2.56.29-6.98.43-13.95.89-20.93,1.25-1.7.09-3.43-.19-5.14-.3-1.5-.09-3.01-.17-4.8-.25-4.49.2-8.68.42-12.88.56-1.18.04-2.36-.13-3.54-.23-1.39-.11-2.89-.63-4.15-.28-3.38.93-6.61-.04-10.08-.46.87-.29,1.92-.51,2.98-.52,13.44-.06,26.88-.03,40.32-.16,11.39-.1,22.69-1.42,33.88-3.4,11.61-2.06,23.18-4.36,34.7-6.87,11.35-2.47,22.25-6.45,33.01-10.78,5.43-2.18,10.73-4.68,16.22-6.69,9.23-3.37,17.56-8.41,26-13.28,9.32-5.37,18.21-11.41,26.03-18.79,4.94-4.66,9.46-9.81,13.77-15.06,2.64-3.22,5.4-5.23,9.99-4.34.42.34.48.52.5.72h-.02Z" style="fill: #ae608b;"/>
  <path d="m213.89,232.01c2.24-.42,3.74-1.93,5.24-3.48,2.76-2.85,5.66-5.58,8.38-8.47,1-1.07,1.62-2.49,2.47-3.71,2.62-3.75,5.27-7.47,8.37-11.17-.21,1.35-.25,2.75-.65,4.05-2.02,6.58-2.46,13.33-2.25,20.14.04,1.26.36,2.59.85,3.75.71,1.67.28,2.84-.93,4.05-1.36,1.36-2.55,2.89-3.83,4.56-.08.44-.2.61-.75.82-1.99,1.42-3.61,2.77-5.22,4.12-.48.34-.95.68-1.79,1.12-.55.2-.68.35-.75.55,0,0-.02.08-.27.09-.94.22-1.62.43-2.45.46-.9-.58-1.61-1.18-2.41-1.34-2.77-.54-3.76-2.7-4.49-4.95-.86-2.66-1.28-5.39,0-8.13.35-.74.33-1.65.48-2.48v.02Z" style="fill: #4786dd;"/>
  <path d="m522.61,203.42s.13-.05.44,0c1.54-.38,2.77-.81,4-1.25,0,0,.02.03.12,0,.25-.12.38-.21.5-.31,2.64-1.4,5.21-.39,7.32.89,6.9,4.19,7.34,13.17,1.77,17.56-1.23.97-2.75,1.89-4.25,2.17-14.41,2.7-27.88,8.45-41.78,12.76-3.66,1.14-7.38,1.59-11.14,1.8-3.45.19-6.95.3-10.38-.04-3.84-.37-7.62-1.28-11.6-2.11-.17-.16-.12-.24.1-.3.53-.13.88-.32,1.16-.25,4.01.99,8.09,1.25,12.21,1.15,3.14-.08,6.29.11,9.42-.06,3.86-.21,7.75-.43,11.35-2.19.96-.47,2.04-.7,3.07-1.04,3.99-1.32,7.98-2.64,12.22-3.96,7.43-1.79,15.4-4.99,17.1-6.77-.2-.24-.35-.56-.61-.72-3.94-2.5-4.91-6.13-4.45-10.59.29-2.81,1.81-4.75,3.45-6.75h-.02Z" style="fill: #5ac1dd;"/>
  <path d="m362.35,234.19c-.4.32-.81.64-1.61,1.13-1.22.93-2.04,1.69-2.86,2.46-.22.21-.43.42-.97.77-.58.39-.84.63-1.1.88-.38.31-.75.62-1.53,1.1-3.01,2.52-6.11,3.48-9.57,3.31-3.8-.19-7.48-3.29-7.67-7.03-.17-3.5.34-7.02.79-10.54,1.26-.57,2.22-1.37,3.32-1.67,4.97-1.37,8.14-5.46,12.3-8.04.8-.5,1.18-1.68,1.97-2.58.92-.23,1.61-.43,2.33-.35-.03,1.47.19,2.74-.18,3.81-.67,1.95-.37,3.57.77,5.19.36.51.64,1.13.74,1.74.25,1.47,1.11,2.22,2.47,2.66,1.86.6,3.62,1.42,4.59,3.4-.17.39-.31.65-.44.9-.68.63-1.35,1.27-2.35,2.03-.55.37-.78.6-1.01.83h.01Z" style="fill: #dd833b;"/>
  <path d="m366.18,230.28c-1.01-1.84-2.77-2.65-4.63-3.26-1.36-.44-2.23-1.19-2.47-2.66-.1-.61-.38-1.24-.74-1.74-1.14-1.62-1.44-3.25-.77-5.19.37-1.07.16-2.35.21-3.94.12-.68.24-.96.35-1.23,7.67-7.63,15.82-14.73,24.23-21.52,1.17-.95,2.43-1.8,3.85-2.77-1.42,3.17-2.86,6.51-4.72,9.6-2.48,4.13-3.78,8.65-4.71,13.25-.61,2.99-.4,6.15-.39,9.44.17.47.17.75.03,1.34-.45.69-.75,1.06-1.28,1.45-1.34,1.02-2.46,2.02-3.58,3.02-.22.21-.44.42-1.03.8-1.7,1.25-3.02,2.33-4.35,3.41h0Z" style="fill: #d5764d;"/>
  <path d="m216.17,207.21c-.1.4-.19.81-.48,1.57-.19.59-.19.82-.19,1.06-.33,1.06-.65,2.13-1.16,3.52-.17.56-.16.8-.16,1.03-.08.39-.16.78-.43,1.52-.2.6-.22.85-.24,1.1-.31,1.45-.63,2.9-1.09,4.6-.15.25-.35.3-.49.11-1.54-1.1-3.25-1.75-4.3-2.97-2.79-3.24-6.65-3.2-9.32.27-.66.86-1.74,1.39-2.63,1.8.64-3.19,1.43-6.08,1.9-9.03.56-3.46,2.64-6.6,2.14-10.28,0-.1.05-.21.1-.31,1.48-3.22,2.77-6.54,4.5-9.62,2.02-3.58,7.03-4.58,10.4-2.25.93.64,1.58,1.72,2.3,2.64.73.94,1.31,2.03,2.78,1.79-.02.36-.04.72-.23,1.37-.31.47-.32.65-.21.84-.51,1.79-1.02,3.57-1.72,5.66-.34.49-.36.69-.25.9-.31,1.11-.62,2.22-1.1,3.67-.2.41-.26.49-.25.56.02.15.08.29.12.44h.01Z" style="fill: #694bdd;"/>
  <path d="m358.02,211.94c-.01.59-.13.86-.27,1.26-.72.33-1.42.53-2.33.49,0-2.25.22-4.25.63-6.43.49-3.82,1.01-7.47,1.04-11.12.03-4.31-.34-8.63-.63-12.93-.04-.66-.47-1.37-.9-1.92-2.79-3.62-6.78-4.14-10.86-4.34-1.07,1.95-2.6,2.92-4.58,2.92-1-.71-1.88-1.25-2.8-1.72-.46-.23-1.12-.2-1.45-.53-2.61-2.59-4.45-5.52-4.13-9.42.21-2.49,1.41-4.46,2.92-6.33,1.17-1.45,2.73-1.7,4.46-2.13,2.65-.66,5.1-.27,7.63.14,3.87,1.04,6.82,3.46,8.3,7.04,1.43,3.45,2.57,7.16,2.99,10.85.63,5.56.72,11.21.65,16.82-.06,4.62-.74,9.23-1.06,13.85-.07,1.05.18,2.12.39,3.49h0Z" style="fill: #f3ca47;"/>
  <path d="m346.67,159.66c-2.45-.19-4.89-.59-7.55.07-1.73.43-3.29.68-4.46,2.13-1.51,1.87-2.72,3.84-2.92,6.33-.32,3.9,1.52,6.84,4.13,9.42.33.33.99.29,1.45.53.92.47,1.8,1.01,2.9,1.97.35,1.63.64,2.8.62,3.96-.14,5.62-.36,11.23-.57,17.13-.77,6.74-1.53,13.19-2.25,19.64-.2,1.8-.29,3.61-.43,5.41-.21,3.51-.73,7.04-.56,10.54.19,3.74,3.87,6.84,7.67,7.03,3.46.17,6.56-.79,9.37-3.17-.43.76-.91,1.85-1.73,2.3-7.8,4.25-16.5.99-16.98-8.99-.16-3.21.35-6.47.76-9.68,1.74-13.4,3.88-26.77,3.01-40.37-.1-1.49.36-3.31-1.11-4.19-1.63-.97-3.05.6-4.46,1.21-.93.41-1.61,1.41-2.6,2.3-.73.24-1.27.29-1.78.42-7.26,1.93-10.97-3.07-11.74-8.42-.12-.83-.12-1.68-.23-3.21-1.24,1.17-2.09,1.96-3.13,2.8.06-2.93,2.54-4.5,4.14-6.57,3.83-4.96,8.94-8.2,15.07-9.53,4.43-.96,8.96-1.32,13.38.94h0Z" style="fill: #dcd04b;"/>
  <path d="m833.07,202.91c-1.65,1.86-3.29,3.72-5.34,5.73-2.15,2.5-3.88,4.85-5.47,6.99-2.86-1.75-5.49-3.32-8.08-4.95-1.89-1.19-3.66-1.83-5.36.31-.21.27-.79.24-1.17.11.28-.7.59-1.15.78-1.63,1.64-4.18,3.96-7.93,6.75-11.44,1.17-1.47,1.92-3.26,2.88-4.93.02-.02.06-.05.18-.11.27-.17.37-.31.54-.67.78-.84,1.42-1.52,2.09-2.17,1.79-1.73,3.04-4.08,5.88-4.85,2,.46,3.74.97,5.5,1.29,2.67.48,4.77,2.72,4.68,5.43-.07,2.11-.39,4.22-.71,6.52-1.12,1.59-2.14,2.99-3.17,4.38h.02Z" style="fill: #c34076;"/>
  <path d="m875.05,164.24c2.43.09,4.03,1.53,5.51,3.79,1.52,3.6,1.55,6.73-.03,9.83-.86,2.2-2.79,3.18-5.22,4.2-1.76.24-3.02.45-4.28.61-1.16.15-2.38.07-3.5.39-4.11,1.16-8.42,1.71-12.16,4.02-.79.49-1.83.56-2.73.6,2.83-2.59,3.65-5.63,3.23-9.17-.34-2.95-1.57-4.37-4.5-4.97-.87-.18-1.69-.61-2.65-.98.82-.98,1.36-1.62,2.06-2.44,2.55-1.07,4.9-2.15,7.35-2.8,2.77-.73,5.24-2.33,8.27-2.34,2.88,0,5.76-.48,8.64-.74h.01Z" style="fill: #d06266;"/>
  <path d="m408.59,194.44c.44-2.24,2.36-3.21,3.85-4.57,2.2-2.03,4.35-4.11,6.51-6.19.23-.22.42-.51.52-.81.61-1.87-1.21-7.22-2.78-8.51-.8-.66-1.7-1.38-2.15-2.27-1.22-2.47-.83-2.88,1.22-4.85,2.92-2.8,6.57-2.94,10.18-3.42.82-.11,1.6-.13,1.07-1.49,2.94-1.33,5.49-.15,7.8,1.63,1.07.83,1.84,2.04,3.03,3.32.45.46.62.67.86.98-1.09,3.6-2.27,7.12-3.47,10.87-.96.95-1.89,1.66-3.22,2.59-2.63,1.25-4.88,2.22-7.06,3.32-2.11,1.06-4.17,2.22-6.21,3.41-1.75,1.02-3.41,2.18-5.15,3.22-1.64.97-3.32,1.85-4.99,2.78m20.51-31.66s.04.07,0,0Z" style="fill: #c34076;"/>
  <path d="m992.11,125.1c-.05-.52.11-1.04.38-1.93-1.16-.55-2.42-1.06-3.6-1.72-1-.56-2.48-1.13-2.74-2-.9-3.04-1.99-6.19-.7-9.41.27-.67.72-1.37,1.29-1.8,4.06-3.1,8.42-5.61,13.34-7.18,2.24-.71,4.26-.16,6.64.22.38.02.49.05.74.38.68.73,1.21,1.17,1.74,1.6,3.46,4.49,2.58,10.12-2.09,13.24-.72.48-1.48.93-2.28,1.24-4.58,1.76-8.66,4.37-12.72,7.37h0Z" style="fill: #4786dd;"/>
  <path d="m286.2,221.07c0-.28,0-.56.18-1.21.27-1.13.37-1.9.7-2.7.48-.68.73-1.32.99-2.26.02-2.25.02-4.22.22-6.33.51-1.28.9-2.4,1.14-3.55.71-3.47,1.26-6.97,2.06-10.42.39-1.66,1-3.68,2.98-3.86,2.4-.22,4.72-1.53,7.29-.43,1.57.67,2.94,0,3.62-1.73.4-1.02.94-1.98,2.26-2.03-.73,2.14-1.35,4.32-2.19,6.42-3.46,8.59-6.9,17.19-10.53,25.72-2.69,6.32-5.69,12.51-8.49,18.79-.82,1.83-1.44,3.74-2.37,5.69-.04-2.14.08-4.36.32-6.56.35-3.27.79-6.54,1.4-10.25.27-1.4.32-2.36.37-3.31.02-.28.04-.56.17-1.11.03-.47-.04-.66-.11-.85v-.02Z" style="fill: #75f17a;"/>
  <path d="m288.1,208.73c0,1.96,0,3.92-.24,6.23-.49.98-.74,1.61-1,2.24-.1.77-.2,1.53-.48,2.45-1.78.48-2.6-.86-3.79-1.43-1.12-.54-2.65-.15-3.99-.32-.47-.06-1.18-.49-1.29-.88-.92-3.27-4.01-6.04-2.23-9.97.47-1.04,1.45-2.36-.36-3.48.11-.66.46-1.26,1.09-2.04.41-.28.49-.42.53-.58.52-1.52.84-3.15,1.6-4.54,2.41-4.46,4.92-8.87,7.52-13.23,1.21-2.03,2.57-4.01,4.1-5.81,5.04-5.96,14-4.87,17.59,2.07.48.92.55,2.18,2.26,2.37.28.1.37.19.37.19-.54.84-1.07,1.68-1.99,2.48-.72-1.05-1.02-2.09-1.41-3.08-2.09-5.22-5.45-7.54-10.73-6.17-2.32.6-3.38,2.27-4.63,3.73-2.22,2.6-3.73,5.72-2.64,9.26,1.49,4.82.79,9.53.05,14.34-.31,2-1.32,4.08-.33,6.19v-.02Z" style="fill: #73e6b9;"/>
  <path d="m522.33,203.41c-1.35,2-2.88,3.94-3.16,6.75-.46,4.45.51,8.08,4.45,10.59.26.16.41.48.61.72-1.71,1.79-9.67,4.98-17.12,6.55-1.13-1.16-1.88-2.22-2.86-3-2.34-1.86-3.4-4.83-2.55-7.62.58-1.9,1.12-3.81,1.84-6.25-1.59.35-2.73.47-3.78.84-5.42,1.9-10.82,3.96-16.57,4.55-4.27.44-8.59.53-12.89.6-1.69.03-3.39-.42-5.09-.74,0-.09.02-.26.02-.26,3.9-.02,7.8-.14,11.7-.03,3.63.1,7.07-.47,10.51-1.66,9.93-3.43,19.91-6.7,29.89-9.98,1.53-.5,3.16-.72,5.02-1.07h-.02Z" style="fill: #51a2de;"/>
  <path d="m783.39,237.94c-5.25,4.05-11.39,6.55-17.81,8.29-2.12.57-4.66.72-6.69.07-1.56-.5-2.98-2.36-3.84-3.95-1.28-2.37-1.49-5.07-.75-7.77.53-1.95,3.71-4.76,5.76-5.02.61-.08,1.21-.28,1.91-.61.96-.42,1.84-.65,3.1-.71,1.53.87,1.46-.02,1.54-.71,0,0-.02,0-.03,0,2.03-.49,4.06-.96,6.65-1.57.55.89,1.6,2.03,2.01,3.37.79,2.53,2.69,4.07,4.48,5.72,1.09,1.01,2.32,1.88,3.68,2.9h0Z" style="fill: #ebb143;"/>
  <path d="m219.99,193.58c-1.64.45-2.22-.65-2.95-1.59-.72-.92-1.37-2-2.3-2.64-3.37-2.33-8.38-1.33-10.4,2.25-1.74,3.07-3.02,6.4-4.5,9.62-.04.1-.11.21-.1.31.5,3.67-1.58,6.82-2.14,10.28-.48,2.94-1.26,5.84-1.92,9.29-1.51,5.43-1.32,10.47-1.35,15.49,0,1.12-.36,2.25-.55,3.37-.23-.46-.65-.92-.66-1.39-.05-4.44-.25-8.89.04-13.31.22-3.3.98-6.59,1.74-9.82,1.32-5.64,2.86-11.24,4.2-16.88.23-.96-.12-2.05-.24-3.54-.02-.76,0-1.06.22-1.34,1.18-.29,1.22-.7.39-1.45.68-1.71,1.4-3.16,1.93-4.67,1.28-3.61,2.2-7.4,4.51-10.53,3.6-4.87,4.49-5.68,10.43-4.36.3.07.64.02.95.03.74.58,1.48,1.16,2.39,1.88.18.14.12.08.12.08.44.91.87,1.81,1.36,3.07.06.53.14.64.3.69.07,2.86.14,5.72.02,8.99-.4,1.4-.59,2.39-.79,3.37-.18.87-.37,1.73-.72,2.8h.02Z" style="fill: #882fcd;"/>
  <path d="m807.61,211.34c.41-.11.99-.08,1.2-.35,1.7-2.14,3.48-1.5,5.36-.31,2.59,1.63,5.22,3.2,8.08,4.95,1.58-2.14,3.32-4.49,5.27-6.88-1.47,3.21-3.19,6.44-4.81,9.73-1.97,4-3.63,8.1-3.69,12.67,0,.63-.29,1.26-.55,2.1-1.67-.09-3.39-.08-4.77-.75-2.36-1.15-4.5-1.34-6.77.03-1.43.87-2.96,1.31-4.79.6-.24-1.17-.5-2.41-.64-3.98.33-.55.72-.75.75-.99.75-5.94,2.95-11.41,5.36-16.82Z" style="fill: #bf4180;"/>
  <path d="m213.67,232.04c.07.8.08,1.71-.26,2.45-1.27,2.73-.86,5.46,0,8.13.73,2.25,1.72,4.4,4.49,4.95.8.16,1.52.76,2.39,1.47.09.48.05.65.02.82-.24.16-.48.32-1.13.51-.71.21-1.01.39-1.32.57-5.39.34-10.8,1.07-16.04-1.07-2.59-1.05-4.77-2.53-6.21-5.47-.07-1.1-.1-1.75.07-2.52.31-.32.54-.56.49-.69-1.19-3.14.31-5.43,2.1-7.87,2-2.71,4.47-3.46,7.58-3.05,1.79.24,3.6.43,5.4.64.73.39,1.46.77,2.41,1.12h0Z" style="fill: #5770db;"/>
  <path d="m465.05,215.99c.17.17.14.34-.12.44-1.59-.24-3.05-.35-4.24-.96-3.61-1.86-7.91-1.11-9.87,2.32-1.03,1.81-1.45,4.03-1.83,6.13-.35,1.95-.13,3.88,1.74,5.24.45.33.56,1.11.76,1.76-.07.08-.22.23-.22.23-2.8-1.32-4.94-3.32-6.55-5.98-2.97-4.9-4.7-10.15-4.84-16.18.22-.79.41-1.28.83-2.01,1.25-1.28,2.3-2.3,3.28-3.39,3.57-3.99,6.73-4.27,10.86-1.04.7.54,1.71.67,2.58.99.3,1.48.71,2.94.89,4.43.65,5.31,1.48,6.35,6.72,8.03h0Z" style="fill: #5770db;"/>
  <path d="m457.51,203.23c-.93-.02-1.95-.15-2.65-.69-4.13-3.23-7.29-2.95-10.86,1.04-.97,1.09-2.03,2.1-3.27,3.18.2-5.1.6-10.22,1.08-15.33.1-1.05.43-2.11.8-3.11,1.99-5.28,6.69-6.68,11.42-3.51.84.56,1.91.76,3.13,1.13.3,5.66.35,11.32.34,17.28h0Z" style="fill: #635bdc;"/>
  <path d="m198.89,193.66c-.02.3-.03.59-.08,1.11-.78,1.39-1.66,2.5-2.25,3.74-3.25,6.81-6.49,13.63-9.61,20.51-2.63,5.81-5.83,11.31-9.34,16.6-2.08,3.13-4.67,5.92-6.98,8.91-.65.84-1.09,1.84-1.85,3.12-1.78,3.51-3.77,6.55-4.78,9.88-1.74,5.76,2.24,13.19,8.67,11.77.3-.07.65.04.97.06-2.62,1.42-5.71,1.09-8.05-.86-3.67-3.06-5.07-7.78-3.2-12.35,2.5-6.1,5.12-12.14,9.86-17.03,2.23-2.31,4.04-5.11,5.66-7.91,5.39-9.27,10.52-18.68,14.69-28.59,3.53-8.39,7.32-16.67,10.99-25,.98-2.23,2.32-4.15,4.46-5.44,3.06-1.85,6.08-2.12,9.16.33-.22.18-.55.23-.86.16-5.94-1.32-6.83-.52-10.43,4.36-2.31,3.13-3.23,6.92-4.51,10.53-.54,1.51-1.25,2.96-2.06,4.78-.27.68-.37,1.01-.46,1.33h0Z" style="fill: #ae608b;"/>
  <path d="m211.31,230.76c-1.85-.05-3.65-.24-5.44-.48-3.11-.42-5.58.34-7.58,3.05-1.8,2.44-3.29,4.72-2.1,7.87.05.13-.18.36-.68.66-.87-.11-1.34-.33-1.81-.55.03-.3.05-.6.08-1.13.2-1.35.55-2.47.55-3.6.03-5.03-.16-10.06,1.35-15.22.9-.95,1.97-1.48,2.63-2.34,2.68-3.47,6.53-3.51,9.32-.27,1.05,1.22,2.75,1.87,4.3,3.19.17,1.01.2,1.6.24,2.19-.05.39-.11.78-.38,1.58-.24,1.06-.26,1.72-.28,2.38,0,.54,0,1.09-.02,1.91-.05.38-.1.48-.19.74v.02Z" style="fill: #635bdc;"/>
  <path d="m173.87,269.33c-.56,0-.9-.11-1.2-.04-6.43,1.42-10.41-6.01-8.67-11.77,1.01-3.33,3-6.37,4.75-9.65.73,5.79,4.18,7.33,8.9,8.87,1.28.42,2.93-.29,4.7-.35.29.13.33.38.33.38-.12.38-.24.76-.48,1.4-.12.26-.14.22-.14.22-.57,1.12-1.14,2.23-2.01,3.62-.4.62-.51.97-.62,1.32-.35.79-.7,1.59-1.14,2.61-.09.23-.04.17-.04.17-1.38,1.06-2.76,2.13-4.37,3.21h-.01Z" style="fill: #b23c93;"/>
  <path d="m850.73,231.95c-3.85,1.5-7.57,2.82-11.27,4.16-.91.33-5.2.86-6.4.53.92-.54,1.93-.9,2.97-1.2,11.73-3.42,22.05-9.5,31.59-16.97,4.69-3.67,9.47-7.29,13.75-11.41,4.74-4.58,9.02-9.65,13.37-14.62,3.49-3.99,6.79-8.15,10.37-12.31-.94,1.84-2.05,3.77-3.22,5.67-4.83,7.83-11.04,14.55-17.38,21.13-2.52,2.62-5.5,4.83-8.34,7.13-4.02,3.25-8.01,6.53-12.19,9.56-2.96,2.14-6.2,3.88-9.32,5.8-1.27.78-2.53,1.58-3.94,2.54h.01Z" style="fill: #ae608b;"/>
  <path d="m852.6,187.91c.93-.26,1.97-.34,2.76-.82,3.74-2.32,8.05-2.87,12.16-4.02,1.11-.31,2.33-.24,3.5-.39,1.27-.16,2.53-.38,4.05-.61-3.06,1.69-6.32,3.56-9.72,5.13-9.72,4.49-19.52,8.81-28.66,14.44-.99.61-2.13.98-3.41,1.37.81-1.49,1.84-2.89,3.18-4.5,1.39-1.1,2.49-1.96,3.53-2.88,2.26-2.02,4.59-3.9,7.45-5.07,1.78-.73,3.45-1.75,5.17-2.63v-.02Z" style="fill: #d5764d;"/>
  <path d="m874.87,164.06c-2.71.45-5.59.93-8.47.93-3.03,0-5.5,1.61-8.27,2.34-2.46.64-4.8,1.73-7.6,2.81-1.42.55-2.43.91-3.44,1.28-7.3,2.67-13.6,7-19.51,11.94-.53.44-.74,1.26-1.09,1.91-2.58.81-3.84,3.16-5.62,4.89-.67.65-1.31,1.32-2.21,2.23-.4.35-.5.49-.55.67,0,0-.05.03-.29.06-1.36.62-2.49,1.21-3.61,1.8-.27.03-.54.05-1.01.09-.12-.19-.1-.48.05-.57,6.07-4.04,10.42-9.98,16.07-14.49,4.09-3.27,8.6-5.79,13.4-7.77,6.18-2.55,12.34-5.18,18.64-7.38,4.26-1.49,8.77-2.21,13.5-.73h0Z" style="fill: #ae608b;"/>
  <path d="m894.15,221.12c.45,0,.71.02,1.18.08.21,4.7.4,9.37.18,14.03-.29,6.23,2.53,10.82,7.05,14.61,1.56,1.31,3.39,2.3,5.23,3.6-.68.1-1.63.27-2.29-.09-7.35-3.93-12.39-8.25-12.22-18.45.06-3.78.06-7.56-.11-11.59-.2-.25-.2-.23.02-.22.07-.34-.08-.69-.23-1.04.34-.3.68-.6,1.2-.93h-.01Z" style="fill: #635bdc;"/>
  <path d="m722.79,44.35c-.33.52-.81,1.15-1.45,1.41-10.56,4.28-21.16,8.44-31.7,12.78-3.55,1.46-6.95,3.31-10.66,4.97,1.32-1.07,2.81-2.29,4.48-3.14,8.74-4.45,17.75-8.31,26.97-11.65,4.05-1.47,8.09-2.95,12.36-4.37h0Z" style="fill: #73e6b9;"/>
  <path d="m774.81,102.65c-.33.44-.87.96-1.51,1.28-4.05,2-8.34,3.57-12.08,6.86-1.3.79-2.4,1.22-3.32,1.89-2.78,2.03-5.49,4.16-8.38,6.22-.15-.03-.43-.12-.43-.12,2.68-2.43,5.13-5.19,8.08-7.23,4.94-3.41,10.15-6.44,15.83-8.54.5-.18,1.04-.25,1.81-.36Z" style="fill: #5ac1dd;"/>
  <path d="m678.48,63.52c0,.33-.18.79-.51,1-6.03,3.82-12.08,7.61-18.14,11.39-.44.28-.98.4-1.71.61,1.86-1.65,3.84-3.49,6.07-4.93,4-2.58,8.14-4.94,12.24-7.36.55-.32,1.2-.47,2.05-.71h0Z" style="fill: #73e6b9;"/>
  <path d="m739.41,220.65s.06.14.06.16c-2.72,2.77-5.42,5.54-8.18,8.25-.5.49-1.28.7-2.15.99,2.48-3.15,5.17-6.26,8.32-9.47.95-.04,1.45.02,1.95.08h0Z" style="fill: #73e6b9;"/>
  <path d="m880.73,177.83c1.38-3.07,1.35-6.2-.13-9.57,1.97.75,1.9,2.86,1.9,4.48s-1,3.37-1.77,5.09Z" style="fill: #d5764d;"/>
  <path d="m215.75,98.78c0,.3-.1.37-.33.57-2.78.03-5.42-.06-8.35-.26-.29-.12-.3-.39-.3-.39,2.95-1.05,5.92-.87,8.99.09h0Z" style="fill: #d06266;"/>
  <path d="m723.05,233.49c1.5-.88,3.01-1.76,4.73-2.66-.23,2.53-2.44,3.02-4.57,3.88q-.24,0-.22-.21c.03-.48.04-.75.06-1.02h0Z" style="fill: #73e6b9;"/>
  <path d="m309.99,181.96c-.21.03-.3-.06-.33-.11,1.12-2.11,2.27-4.17,3.64-6.27-.89,2.09-1.99,4.22-3.31,6.39h0Z" style="fill: #dcd04b;"/>
  <path d="m220.99,79.57c-2.06.22-4.26.25-6.75.17-.3-.1-.26-.33-.26-.33,2.29-.01,4.59-.02,7.01.16Z" style="fill: #ae608b;"/>
  <path d="m193.54,241.44c.63.09,1.1.31,1.77.56.22.67.26,1.31.26,2.18-1.08-.66-2.15-1.11-3.51.16.29-.89.81-1.83,1.49-2.9h-.01Z" style="fill: #ae608b;"/>
  <path d="m225.77,246.74c1.41-1.41,3.03-2.76,4.87-4.11-.68,2.23-2.72,3.15-4.87,4.11Z" style="fill: #5ac1dd;"/>
  <path d="m366.14,230.42c1.37-1.22,2.69-2.3,4.21-3.41-.52,2.2-2.29,3.37-4.44,4.34-.08-.28.05-.54.23-.93Z" style="fill: #dcd04b;"/>
  <path d="m44.68,81.82c-1.36.43-2.73.86-4.49,1.29-.4,0-.71-.07-.71-.07,1.57-.71,3.15-1.41,4.95-1.93.22.36.23.54.25.71Z" style="fill: #e5a13e;"/>
  <path d="m457.41,234.76c-1.67-.71-3.31-1.45-4.79-2.41.42-.2.67-.19,1.12-.07,1.38.86,2.57,1.61,3.75,2.36,0,0-.06.08-.08.12h0Z" style="fill: #5ac1dd;"/>
  <path d="m371.79,226.1c.9-1.03,2.02-2.03,3.37-2.83.3.64.36,1.06.43,1.49,0,0-.1.03-.15.02-1.18.44-2.31.89-3.65,1.32h0Z" style="fill: #dcd04b;"/>
  <path d="m711.58,68.94c1.33-.76,2.85-1.41,4.6-2.09-.78,1.84-2.82,1.54-4.6,2.09Z" style="fill: #73e6b9;"/>
  <path d="m196.34,78.25c-1.23.17-2.6.17-4.17.04,1.21-.15,2.62-.18,4.17-.04Z" style="fill: #ae608b;"/>
  <path d="m201.14,98.62c-.26.01-.23-.26-.23-.4,1.46-1.2,2.94-1.19,4.23.12-.86.34-1.54.39-2.22.44-.51-.06-1.01-.12-1.78-.16Z" style="fill: #d06266;"/>
  <path d="m767.47,188.81c.25-1.16.7-2.28,1.17-3.53.21-.13.39-.12.57-.11-.52,1.23-1.03,2.46-1.74,3.65h0Z" style="fill: #f3ca47;"/>
  <path d="m220.87,190.77c.04-.98.24-1.96.59-3.04-.04.95-.23,1.99-.59,3.04Z" style="fill: #5ac1dd;"/>
  <path d="m912.37,224.74c-.19-.98-.24-2.13-.14-3.44.2.98.24,2.13.14,3.44Z" style="fill: #882fcd;"/>
  <path d="m288.25,98.66c-.89.02-1.55-.03-2.44-.15.62-1.89,2.03-1.03,3.47-.63.15.18.15.45.17.58-.31.13-.63.13-1.19.2h-.01Z" style="fill: #c94f6b;"/>
  <path d="m44.92,81.8c-.27-.15-.28-.33-.29-.63.44-.35.89-.57,1.83-.78,1.25-.13,2.01-.28,2.77-.43-.78,1.9-2.76,1.1-4.32,1.83h0Z" style="fill: #d5764d;"/>
  <path d="m358.08,237.81c.61-.81,1.44-1.57,2.44-2.36.12,1.52-.94,2.07-2.44,2.36Z" style="fill: #dcd04b;"/>
  <path d="m769.53,182.69c.21-.84.63-1.71,1.1-2.73.88.79.6,1.64-1.1,2.73Z" style="fill: #f3ca47;"/>
  <path d="m184.82,254.1c.38-.74.96-1.52,1.71-2.33-.39.74-.95,1.52-1.71,2.33Z" style="fill: #ae608b;"/>
  <path d="m286.02,223.04c.07.95.02,1.9-.19,3.03-.36-.58-.56-1.33-.73-2.43.29-.43.54-.51.92-.6Z" style="fill: #73e6b9;"/>
  <path d="m261.18,217.64c-.5.73-1.17,1.4-2.05,2.1.49-.7,1.18-1.43,2.05-2.1Z" style="fill: #5ac1dd;"/>
  <path d="m780,101.36c-1.11.42-2.48.81-4.09,1.16.8-1.51,2.42-.99,4.09-1.16Z" style="fill: #5ac1dd;"/>
  <path d="m205.44,78.91c-.81.21-1.73.25-2.92.29-.27.01-.29-.24-.28-.36,1.04-.12,2.07-.11,3.2.07Z" style="fill: #ae608b;"/>
  <path d="m735.17,40.57c-.73.49-1.67.9-2.75,1.2.75-.5,1.65-.9,2.75-1.2Z" style="fill: #73e6b9;"/>
  <path d="m702.43,72.8c.56-.55,1.28-.97,2.22-1.39-.55.51-1.3,1.01-2.22,1.39Z" style="fill: #73e6b9;"/>
  <path d="m526.8,202.15c-.98.47-2.21.9-3.71,1.33.97-.46,2.21-.91,3.71-1.33Z" style="fill: #51a2de;"/>
  <path d="m718.71,66.26c.52-.55,1.19-.95,2.05-1.38.02,1.21-.92,1.39-2.05,1.38Z" style="fill: #73e6b9;"/>
  <path d="m211.67,228.06c-.14-.61-.11-1.27.07-2.05.14.59.11,1.3-.07,2.05Z" style="fill: #5ac1dd;"/>
  <path d="m282.79,98.54c.13.17.13.44.15.58-.71.13-1.43.12-2.42.04.23-1.35,1.12-1.27,2.27-.62h0Z" style="fill: #c94f6b;"/>
  <path d="m774.12,223.06c-.42.44-.97.78-1.65,1.17.42-.39.97-.83,1.65-1.17Z" style="fill: #ae608b;"/>
  <path d="m212.34,224.12c-.2-.56-.23-1.15-.26-1.97,0-.23.2-.28.3-.25.11.75.11,1.47-.04,2.22h0Z" style="fill: #5ac1dd;"/>
  <path d="m727.97,42.76c-.87.43-1.98.85-3.33,1.26.87-.43,1.98-.85,3.33-1.26Z" style="fill: #73e6b9;"/>
  <path d="m213.72,79.34c.26.08.22.3.23.41-.87.89-1.72,1.09-2.59-.16.66-.25,1.38-.29,2.36-.25Z" style="fill: #d06266;"/>
  <path d="m220.52,249.94c-.17-.26-.14-.43-.08-.73.71-.34,1.39-.55,2.29-.77-.52.52-1.26,1.05-2.2,1.5h0Z" style="fill: #5ac1dd;"/>
  <path d="m49.32,79.91c-.84.2-1.6.35-2.6.48.7-.33,1.64-.65,2.79-.86.12.19,0,.27-.19.39h0Z" style="fill: #e5a13e;"/>
  <path d="m800.89,204.05c-.24.47-.64.88-1.19,1.33.25-.44.64-.91,1.19-1.33Z" style="fill: #ae608b;"/>
  <path d="m1009.21,103.07c-.54-.24-1.07-.68-1.64-1.29.53.25,1.09.67,1.64,1.29Z" style="fill: #5770db;"/>
  <path d="m928.81,172.08c-.49-.37-.9-.9-1.31-1.62.46.36.93.91,1.31,1.62Z" style="fill: #a336a6;"/>
  <path d="m811.98,195.57c-.27.48-.71.91-1.3,1.37.27-.45.7-.94,1.3-1.37Z" style="fill: #ae608b;"/>
  <path d="m187.46,250.92c.15-.55.48-1.13.98-1.75-.16.54-.47,1.13-.98,1.75Z" style="fill: #ae608b;"/>
  <path d="m705.78,71.16c.44-.38,1.1-.72,1.95-1.08.07,1.24-.9,1.06-1.95,1.08Z" style="fill: #73e6b9;"/>
  <path d="m731.06,61.69c.32-.34.78-.54,1.42-.75-.31.29-.8.59-1.42.75Z" style="fill: #73e6b9;"/>
  <path d="m798.26,206.34c-.22.33-.61.65-1.15,1.02.23-.32.6-.67,1.15-1.02Z" style="fill: #ae608b;"/>
  <path d="m867.12,241.54c.28-.34.72-.63,1.35-.94-.27.32-.72.65-1.35.94Z" style="fill: #b23c93;"/>
  <path d="m453.55,232.17c-.25,0-.51-.02-.95-.03-.49-.23-.8-.46-1.21-.84-.1-.16.04-.31.35-.37.81.37,1.31.81,1.81,1.25h0Z" style="fill: #5770db;"/>
  <path d="m219.48,196.04c-.21-.23-.2-.42.03-.63.09.2.08.44-.03.63Z" style="fill: #5ac1dd;"/>
  <path d="m806.78,199.47c-.08.27-.29.49-.62.73.08-.24.29-.52.62-.73Z" style="fill: #ae608b;"/>
  <path d="m362.49,234.29c.08-.33.31-.56.67-.8-.09.3-.31.6-.67.8Z" style="fill: #dcd04b;"/>
  <path d="m809.39,197.58c-.1.27-.33.46-.67.68.1-.24.33-.5.67-.68Z" style="fill: #ae608b;"/>
  <path d="m217.95,251.07c.22-.31.52-.49,1.02-.66-.18.27-.56.53-1.02.66Z" style="fill: #5ac1dd;"/>
  <path d="m766.4,227.5c.12.72.19,1.6-1.07.73.21-.37.55-.56,1.07-.73Z" style="fill: #e5a13e;"/>
  <path d="m221.59,178.42c-.26-.05-.35-.16-.31-.41.16.1.29.26.31.41Z" style="fill: #5ac1dd;"/>
  <path d="m355.96,239.52c.1-.34.36-.59.76-.84-.11.31-.35.62-.76.84Z" style="fill: #dcd04b;"/>
  <path d="m869.03,240.46c.16-.35.52-.71,1.08-1.05-.16.36-.52.7-1.08,1.05Z" style="fill: #b23c93;"/>
  <path d="m928.93,179.31c-.08-.26-.02-.55.16-.94.07.24.02.58-.16.94Z" style="fill: #a336a6;"/>
  <path d="m190.7,246.35c-.02-.32.13-.67.42-1.07,0,.32-.12.68-.42,1.07Z" style="fill: #ae608b;"/>
  <path d="m189.37,248.28c0-.33.19-.68.52-1.06-.02.33-.19.68-.52,1.06Z" style="fill: #ae608b;"/>
  <path d="m215.61,209.84c-.11-.24-.11-.47,0-.76.11.22.11.49,0,.76Z" style="fill: #5ac1dd;"/>
  <path d="m794.41,209.27c-.06.26-.23.44-.49.63.06-.23.22-.47.49-.63Z" style="fill: #ae608b;"/>
  <path d="m757.91,162.08c.03.31-.1.61-.34.94-.01-.29.09-.62.34-.94Z" style="fill: #76f99f;"/>
  <path d="m789.2,213.23c-.08.26-.28.43-.57.63.09-.22.27-.47.57-.63Z" style="fill: #ae608b;"/>
  <path d="m214.3,214.4c-.12-.24-.13-.47-.03-.77.12.22.14.49.03.77Z" style="fill: #5ac1dd;"/>
  <path d="m270.37,208.94c-.03.31-.22.62-.54.97.04-.3.21-.63.54-.97Z" style="fill: #5ac1dd;"/>
  <path d="m213.64,217.02c-.1-.25-.08-.5.06-.81.1.23.08.52-.06.81Z" style="fill: #5ac1dd;"/>
  <path d="m263.21,216.2c-.1.32-.38.61-.82.93.11-.3.38-.63.82-.93Z" style="fill: #5ac1dd;"/>
  <path d="m782.03,217.9c-.09.23-.26.36-.5.51.09-.19.25-.4.5-.51Z" style="fill: #ae608b;"/>
  <path d="m791.79,211.31c-.08.25-.26.41-.52.6.08-.21.25-.45.52-.6Z" style="fill: #ae608b;"/>
  <path d="m780.07,219.15c-.08.24-.25.39-.51.56.08-.2.25-.43.51-.56Z" style="fill: #ae608b;"/>
  <path d="m730.65,41.92c-.21.32-.57.53-1.11.71.2-.29.58-.56,1.11-.71Z" style="fill: #73e6b9;"/>
  <path d="m179.59,263.29c-.05-.3.06-.65.28-1.07.04.29-.04.65-.28,1.07Z" style="fill: #ae608b;"/>
  <path d="m217.51,202.58c-.22-.24-.2-.44.04-.68.09.21.08.46-.04.68Z" style="fill: #5ac1dd;"/>
  <path d="m803.53,202.09c-.08.27-.29.48-.62.71.09-.24.29-.51.62-.71Z" style="fill: #ae608b;"/>
  <path d="m273.63,204.41c-.03.31-.22.61-.54.94.04-.3.21-.62.54-.94Z" style="fill: #5ac1dd;"/>
  <path d="m216.28,207.22c-.15-.15-.21-.3-.24-.44,0-.07.05-.15.17-.28.12.2.15.47.06.73h.01Z" style="fill: #5ac1dd;"/>
  <path d="m271.69,207.05c0,.29-.17.57-.45.88.02-.27.16-.59.45-.88Z" style="fill: #5ac1dd;"/>
  <path d="m776.14,221.8c0,.3-.16.42-.44.49.08-.18.22-.39.44-.49Z" style="fill: #ae608b;"/>
  <path d="m182.84,256.74c-.16.03-.21-.22-.23-.34.16-.32.35-.52.67-.75,0,.33-.14.7-.44,1.09Z" style="fill: #ae608b;"/>
  <path d="m783.55,101.06c-.38.16-.91.19-1.71.19.34-.13.95-.22,1.71-.19Z" style="fill: #5ac1dd;"/>
  <path d="m39.28,83.05c.19-.01.5.05.66.09-.16.22-.47.39-.96.56-.19,0-.19-.22-.21-.33.1-.18.21-.24.51-.32Z" style="fill: #d5764d;"/>
  <path d="m748.93,118.85c.16-.07.45.03.51.21-.27.31-.59.44-.92.58,0,0-.09-.09-.13-.14.1-.22.24-.4.54-.65Z" style="fill: #51a2de;"/>
  <path d="m733.73,60.74c.1-.18.35-.3.75-.42-.1.16-.35.32-.75.42Z" style="fill: #73e6b9;"/>
  <path d="m178.24,266.15s-.04.03-.05.05c0,.01.04-.02.05-.05Z" style="fill: #ae608b;"/>
  <path d="m182.07,258.44h0s.02.04,0,0Z" style="fill: #ae608b;"/>
  <path d="m223.19,248.35c-.09-.2.04-.35.38-.46.11.21,0,.37-.38.46Z" style="fill: #5ac1dd;"/>
  <path d="m928.27,180.61c-.1,0,.02-.26.08-.31.17.08.16.2-.08.31Z" style="fill: #a336a6;"/>
  <path d="m386.91,187.31c.1.2-.02.35-.33.51-.04-.13.06-.32.33-.51Z" style="fill: #d5764d;"/>
  <path d="m219.83,174.69s.04.03.05.04c0,.02-.04-.02-.05-.04Z" style="fill: #ae608b;"/>
  <path d="m929.45,173.26c-.07.02-.05.05-.06.06s.21,0,.21,0c0,0-.07-.08-.15-.06Z" style="fill: #a336a6;"/>
  <path d="m276.23,201c.07.11,0,.25-.23.43-.11-.12-.04-.27.23-.43Z" style="fill: #5ac1dd;"/>
  <path d="m527.54,201.83c.02.13-.12.22-.38.33-.09-.18.03-.31.38-.33Z" style="fill: #51a2de;"/>
  <path d="m272.35,206.31c.04.08-.02.18-.16.32-.11-.09-.07-.21.16-.32Z" style="fill: #5ac1dd;"/>
  <path d="m724.58,63.78c-.05-.07.07-.15.1-.17.03-.02-.06.23-.1.17Z" style="fill: #73e6b9;"/>
  <path d="m423.07,221.87s-.01.02-.03.03,0,0,.03-.03Z" style="fill: #694bdd;"/>
  <path d="m912.18,235.3c-.08,0-.15-.11-.29-.3.12-.07.24.02.29.3Z" style="fill: #882fcd;"/>
  <path d="m819.15,236c.01.08-.17-.05-.22-.06s.07-.11.07-.11c0,0,.14.09.15.17h0Z" style="fill: #bf4180;"/>
  <path d="m913.88,235.87c.09.11-.16.13-.16.13,0,0-.24-.06-.34-.13.06-.22.23-.23.49,0h.01Z" style="fill: #635bdc;"/>
  <path d="m632.45,100.47c.76-.68,1.38-1.19,2.23-1.88-.23,1.32-1.05,2.41-2.46,3.26.04-.52.07-.87.23-1.38h0Z" style="fill: #6bdfc0;"/>
  <path d="m716.77,238.05c.35-1.15,1.16-1.98,2.79-1.96-.39,1.09-1.16,1.97-2.79,1.96Z" style="fill: #76f99f;"/>
  <path d="m713.52,240.65c.28-.42.78-.85,1.5-1.29-.28.42-.78.85-1.5,1.29Z" style="fill: #76f99f;"/>
  <path d="m710.26,243.26c.28-.42.79-.85,1.51-1.29-.29.42-.79.85-1.51,1.29Z" style="fill: #76f99f;"/>
  <path d="m722.84,233.51c.2.25.19.52.15.99-.3.22-.57.25-1.05.27.09-.41.39-.82.9-1.26h0Z" style="fill: #76f99f;"/>
  <path d="m741.08,217.9c1.07,1.15.58,2.02-.76,2.39-.28-.81-.34-1.29-.4-1.77.33-.18.66-.36,1.16-.62h0Z" style="fill: #bcdb4c;"/>
  <path d="m739.72,218.54c.27.46.33.94.47,1.66-.07.27-.21.31-.56.4-.71,0-1.22-.06-1.97-.12.45-.64,1.16-1.28,2.07-1.94h-.01Z" style="fill: #76f99f;"/>
  <path d="m288.29,208.58c-1.18-1.96-.17-4.04.14-6.04.74-4.81,1.44-9.52-.05-14.34-1.09-3.53.42-6.65,2.64-9.26,1.25-1.46,2.31-3.13,4.63-3.73,5.28-1.36,8.65.95,10.73,6.17.4.99.69,2.03,1.23,3.2.16.61.12,1.06.06,1.74-1.35.27-1.88,1.23-2.28,2.25-.68,1.74-2.05,2.41-3.62,1.73-2.57-1.11-4.89.21-7.29.43-1.98.18-2.59,2.2-2.98,3.86-.8,3.45-1.35,6.95-2.06,10.42-.23,1.15-.63,2.27-1.14,3.55v.02Z" style="fill: #76f99f;"/>
  <path d="m125.75,75.34c.25.37.28.7.31,1.02h-2.26c-.03-.21-.05-.43-.08-.64.6-.14,1.2-.28,2.03-.38Z" style="fill: #d06266;"/>
  <path d="m94.43,256.83c-.86-1.3-1.75-2.67-2.21-4.17-.97-3.16-2.9-5.18-6.06-6.16-1.07-.33-2.03-.97-2.95-1.43.81-1.85,1.47-3.35,1.97-4.98,1.83-4.29,3.86-8.43,5.79-12.61.9-1.94,1.71-3.94,2.41-5.96,2.03-5.89,4.94-11.41,6.71-17.43,1.52-5.18,2.79-10.39,3.93-15.64.59-2.72.91-5.55,1.91-8.12,1.31-3.37,1.18-6.95,2.1-10.35.25-.92.81-1.76,1.1-2.68.21-.67.23-1.4.33-2.11.11-.8.17-1.61.33-2.4.15-.72.55-1.42.58-2.13.09-1.86.61-3.36,2.42-4.25,2.37-1.16,4.97-2.62,7.4-1.44,2.23,1.09,3.05,3.78,3.22,6.35.1,1.41-.02,2.85,1.71,3.73-1.45,9.06-2.94,18.12-4.88,27.08-2.13,9.83-4.81,19.54-8.56,28.89-3.06,7.63-6.2,15.25-9.68,22.69-2.1,4.49-4.91,8.65-7.57,13.1v.02Z" style="fill: #f3ca47;"/>
  <path d="m389,71.99c-.21.36-.51.55-1.01.74-.12-.66-.21-1.51,1.01-.74Z" style="fill: #bf4180;"/>
  <path d="m814.18,195.15c1.16-.83,2.29-1.42,3.63-2.02-.72,1.64-1.47,3.43-2.64,4.9-2.8,3.51-5.12,7.26-6.75,11.44-.19.49-.5.93-.78,1.63-2.44,5.65-4.64,11.12-5.39,17.06-.03.24-.42.44-.87.77-.23.11-.48.03-.61-.02-.12-.05-.27-.34-.32-.5,0-6.57,2.6-12.25,5.07-17.97,2.3-5.34,5.34-10.27,8.65-15.29h.01Z" style="fill: #d5764d;"/>
  <path d="m286.2,221.25c.08,0,.15.2.12.46-.11-.05-.12-.17-.12-.46Z" style="fill: #73e6b9;"/>
  <path d="m37.62,84.32c-.07-.15.06-.3.38-.44.06.15-.08.29-.38.44Z" style="fill: #d5764d;"/>
  <path d="m402.8,198.93c-1.97,3.01-3.98,5.7-6.18,8.48-1.18-.47-2.52-.79-3.07-1.62-2.3-3.52-5.71-3.58-9.26-3.38-.84.05-1.66.3-2.77.46.39-1.68.97-3.39,1.73-5.02,1.99-4.29,4.96-7.83,8.45-10.98,1.12-1.01,2.26-1.3,3.48-.31,2.33,1.88,4.66,3.76,6.88,5.76.47.42.59,1.35.64,2.07.11,1.4.06,2.82.1,4.54h0Z" style="fill: #b23c93;"/>
  <path d="m375.75,224.66c-.23-.32-.3-.75-.38-1.4.29-.59.6-.96,1.05-1.45-.07.84-.29,1.79-.67,2.85h0Z" style="fill: #bf4180;"/>
  <path d="m748.46,119.84c.38-.34.71-.48,1.12-.76,2.83-2.24,5.54-4.37,8.32-6.41.92-.67,2.03-1.1,3.28-1.67.27.9.44,1.84.32,2.74-.58,4.49.91,7.12,5.09,8.97.92.4,1.74,1.03,2.83,1.7-2.97,2.61-5.46,5.14-8.28,7.19-2.62,1.9-4.33,4.48-6.29,6.91-2.03,2.51-4.07,5.06-6.45,7.22-2.5,2.26-5.95,2.31-8.47.69-2.74-1.75-4.21-5.6-3.56-8.77.56-2.73,1.54-5.09,3.73-6.98,1.2-1.03,2.01-2.53,2.96-3.83.82-1.11,1.55-2.29,2.4-3.37.93-1.18,1.95-2.29,2.99-3.64h0Z" style="fill: #4786dd;"/>
  <path d="m453.74,232.28c-.7-.54-1.2-.98-1.93-1.43-.5-.59-.61-1.37-1.06-1.7-1.88-1.36-2.09-3.3-1.74-5.24.37-2.09.8-4.32,1.83-6.13,1.96-3.43,6.25-4.18,9.87-2.32,1.19.61,2.64.73,4.24,1.05,1.96.21,3.66.66,5.36.63,4.3-.07,8.62-.16,12.89-.6,5.75-.59,11.15-2.65,16.57-4.55,1.06-.37,2.2-.5,3.78-.84-.72,2.45-1.26,4.35-1.84,6.25-.85,2.79.2,5.76,2.55,7.62.98.78,1.73,1.84,2.6,2.99-3.97,1.54-7.96,2.86-11.94,4.18-1.03.34-2.11.57-3.07,1.04-3.59,1.76-7.48,1.98-11.35,2.19-3.13.17-6.28-.03-9.42.06-4.12.11-8.19-.16-12.21-1.15-.28-.07-.62.12-1.16.25-1.41-.7-2.59-1.45-3.97-2.31h0Z" style="fill: #4786dd;"/>
  <path d="m337.83,226.26c-.1-1.8,0-3.61.19-5.4.72-6.45,1.49-12.9,2.47-19.6,1.47,1.07,2.85,1.17,4.16,0,1.49-1.34,3.07-1.19,4.4-.09,2.38,1.97,4.56,4.18,6.82,6.29-.22,2-.44,4-.66,6.28-.58,1.14-.95,2.33-1.75,2.83-4.16,2.58-7.32,6.68-12.3,8.04-1.1.3-2.06,1.1-3.32,1.67h-.01Z" style="fill: #e5a13e;"/>
  <path d="m356.05,207.26c-2.45-1.93-4.63-4.14-7.01-6.11-1.33-1.1-2.9-1.25-4.4.09-1.31,1.18-2.69,1.09-4.14-.28-.02-5.65.2-11.27.34-16.88.03-1.16-.26-2.34-.51-3.76,1.84-.31,3.3-1.43,4.37-3.38,4.08.2,8.07.72,10.86,4.34.42.55.85,1.26.9,1.92.29,4.31.65,8.62.63,12.93-.02,3.65-.55,7.29-1.04,11.12h0Z" style="fill: #ebb143;"/>
  <path d="m826.75,185.3c.1-.68.31-1.51.84-1.95,5.91-4.94,12.21-9.27,19.51-11.94,1.01-.37,2.02-.73,3.27-1.11-.29.63-.84,1.28-1.65,2.26.96.36,1.78.8,2.65.98,2.93.61,4.16,2.02,4.5,4.97.41,3.55-.4,6.59-3.23,9.17-1.75,1.11-3.42,2.12-5.2,2.86-2.86,1.18-5.19,3.05-7.45,5.07-1.04.92-2.14,1.78-3.43,2.69-.01-2.08.32-4.18.38-6.3.08-2.7-2.02-4.94-4.68-5.43-1.77-.32-3.5-.83-5.5-1.29v.02Z" style="fill: #c94f6b;"/>
  <path d="m818.24,192.99c-.07-.12.03-.26.3-.43.07.12-.03.26-.3.43Z" style="fill: #d5764d;"/>
  <path d="m287.08,217.16c.03-.6.29-1.23.77-1.91-.04.59-.29,1.24-.77,1.91Z" style="fill: #76f99f;"/>
  <path d="m199.09,193.67c-.11-.34-.02-.67.2-1.11,1.02.4.98.81-.2,1.11Z" style="fill: #a336a6;"/>
</svg>