<?xml version="1.0" standalone="no"?>
<!DOCTYPE svg PUBLIC "-//W3C//DTD SVG 20010904//EN"
 "http://www.w3.org/TR/2001/REC-SVG-20010904/DTD/svg10.dtd">
<svg version="1.0" xmlns="http://www.w3.org/2000/svg"
 width="2048.000000pt" height="1024.000000pt" viewBox="0 0 2048.000000 1024.000000"
 preserveAspectRatio="xMidYMid meet">

<g transform="translate(0.000000,1024.000000) scale(0.100000,-0.100000)"
fill="#000000" stroke="none">
<path d="M8972 8244 c-19 -10 -51 -43 -73 -75 -60 -89 -281 -306 -409 -401
-123 -91 -293 -200 -455 -290 -147 -82 -184 -100 -360 -171 -88 -36 -205 -84
-260 -107 -298 -126 -656 -224 -1085 -299 -492 -86 -630 -95 -1329 -88 -540 5
-627 9 -1116 48 -137 11 -342 25 -455 31 -284 14 -1278 3 -1475 -16 -266 -27
-426 -58 -554 -110 -36 -14 -70 -26 -76 -26 -16 0 -182 -82 -235 -116 -129
-83 -175 -126 -328 -306 -96 -113 -110 -145 -97 -214 4 -21 22 -53 44 -76 30
-32 45 -41 82 -45 66 -7 94 11 198 130 49 58 113 125 141 150 132 119 410 232
634 257 50 6 125 15 166 21 41 6 206 14 365 19 317 9 332 7 348 -45 15 -46 15
-983 0 -1070 -7 -38 -17 -106 -22 -150 -52 -398 -164 -805 -306 -1112 -8 -17
-15 -35 -15 -40 0 -15 -121 -246 -165 -314 -123 -190 -249 -325 -352 -375 -53
-26 -58 -27 -183 -21 -121 6 -130 5 -161 -16 -91 -62 -104 -169 -31 -249 44
-48 122 -71 238 -70 185 1 300 57 485 234 70 66 83 84 205 266 169 253 357
700 450 1072 77 307 130 622 154 920 13 152 12 619 -1 804 -10 132 -9 160 2
167 33 22 701 -13 1374 -72 72 -6 396 -14 720 -17 602 -5 742 0 970 35 781
117 1088 199 1683 447 127 53 234 96 238 96 22 0 341 179 514 289 221 139 408
294 569 471 139 152 186 232 177 300 -15 111 -124 180 -214 134z"/>
<path d="M14090 7541 c-36 -10 -92 -26 -125 -36 -105 -29 -257 -81 -370 -127
-60 -25 -148 -60 -195 -78 -47 -18 -131 -55 -187 -82 -56 -26 -103 -48 -106
-48 -7 0 -211 -116 -282 -161 -83 -52 -196 -129 -285 -196 -90 -68 -366 -336
-419 -408 -24 -33 -74 -98 -111 -145 -37 -47 -91 -128 -120 -180 -29 -52 -59
-102 -65 -110 -19 -23 -99 -202 -155 -345 -46 -118 -60 -170 -105 -375 -28
-130 -38 -260 -39 -520 -1 -275 6 -352 45 -480 10 -36 19 -70 19 -75 0 -19 69
-181 108 -251 102 -185 259 -347 412 -424 79 -40 214 -59 420 -60 155 0 262
22 410 85 47 20 99 41 115 47 60 22 372 185 435 228 36 24 108 78 161 120 52
42 118 92 145 110 27 18 106 87 176 153 98 91 132 118 150 115 23 -3 23 -3 23
-173 0 -157 2 -173 22 -205 59 -96 141 -134 288 -134 77 0 114 5 164 22 97 33
250 117 412 225 80 53 156 97 168 97 22 0 22 -2 15 -112 -5 -101 -4 -119 16
-170 25 -67 73 -114 164 -160 73 -37 214 -53 376 -43 89 5 128 14 254 56 239
80 495 236 773 471 51 43 99 78 107 78 13 0 14 -20 9 -147 -5 -121 -3 -158 11
-205 21 -74 78 -144 157 -193 l64 -40 169 -4 c243 -5 350 18 651 137 292 115
716 342 864 462 105 85 105 196 1 268 -63 42 -100 33 -244 -62 -325 -216 -798
-433 -1050 -481 -79 -15 -241 -20 -285 -8 l-24 6 6 142 c10 209 33 322 109
523 51 135 88 208 150 299 31 45 52 87 55 111 11 79 -57 160 -140 169 -59 6
-122 -28 -167 -91 -105 -146 -390 -486 -505 -602 -228 -230 -568 -458 -795
-535 -105 -35 -225 -47 -345 -34 l-68 7 6 89 c4 49 16 117 28 151 43 129 130
280 201 349 68 66 303 189 718 375 141 63 163 79 186 140 22 59 12 104 -34
153 -68 72 -164 77 -342 19 -116 -38 -387 -158 -455 -201 -60 -38 -224 -181
-270 -234 -18 -21 -69 -65 -114 -98 -45 -33 -155 -118 -244 -189 -253 -200
-545 -388 -655 -420 -49 -14 -107 -13 -117 3 -2 4 0 65 6 136 9 123 26 220 55
315 94 314 141 445 196 553 58 116 55 174 -14 240 -34 32 -45 37 -87 37 -73 0
-107 -36 -187 -199 -36 -74 -77 -143 -90 -154 -14 -10 -40 -42 -59 -70 -64
-97 -100 -144 -210 -273 -152 -178 -319 -340 -455 -442 -63 -48 -140 -106
-170 -131 -108 -88 -257 -169 -503 -275 -191 -82 -251 -96 -415 -96 -142 1
-233 14 -290 44 -51 26 -162 142 -219 227 -58 88 -104 208 -139 359 -20 87
-24 132 -24 260 0 376 40 646 129 879 134 350 275 571 536 839 282 290 615
496 1125 697 231 91 301 115 470 161 116 31 144 35 200 30 57 -6 71 -4 110 17
57 30 96 98 86 151 -9 46 -44 96 -85 120 -50 29 -222 33 -311 7z"/>
<path d="M18770 6421 c-36 -15 -89 -43 -118 -60 -97 -61 -267 -192 -300 -233
-36 -46 -126 -200 -137 -236 -25 -84 62 -185 158 -184 59 1 98 35 161 137 48
80 66 99 143 157 112 83 159 112 205 127 51 17 114 65 133 100 22 44 19 98
-10 146 -46 79 -123 93 -235 46z"/>
<path d="M14828 6420 c-104 -18 -348 -146 -462 -244 -112 -96 -178 -161 -209
-206 -17 -25 -52 -71 -79 -102 -26 -33 -50 -73 -54 -92 -13 -74 42 -156 118
-177 78 -21 154 30 246 164 94 138 341 310 499 348 100 24 153 80 153 161 0
59 -32 106 -90 136 -47 24 -50 24 -122 12z"/>
<path d="M8734 5451 c-53 -33 -79 -87 -99 -203 -7 -47 -36 -51 -60 -10 -40 66
-102 86 -220 70 -61 -8 -96 -19 -150 -48 -135 -74 -280 -184 -385 -290 -41
-42 -106 -100 -145 -130 -131 -99 -292 -238 -437 -377 -53 -51 -104 -93 -114
-93 -15 0 -16 8 -8 73 5 39 9 198 9 352 0 267 -1 283 -23 350 -29 85 -52 124
-98 164 -52 46 -97 61 -183 61 -85 0 -178 -26 -244 -67 -83 -52 -186 -181
-257 -320 -25 -50 -49 -85 -61 -88 -25 -8 -23 -11 -43 57 -37 131 -152 185
-246 118 -42 -30 -115 -128 -161 -216 -22 -42 -50 -93 -64 -114 -13 -20 -31
-55 -39 -75 -23 -55 -147 -223 -208 -283 -92 -90 -156 -132 -201 -132 l-40 0
7 63 c8 69 80 285 151 452 64 150 78 208 64 266 -22 96 -106 155 -187 131 -55
-17 -99 -68 -131 -153 -136 -357 -269 -593 -463 -820 -55 -65 -160 -139 -196
-139 l-25 0 6 93 c6 95 54 301 121 522 49 158 56 195 56 276 0 114 -47 189
-128 205 -82 17 -149 -46 -213 -200 -185 -443 -389 -853 -491 -983 -148 -188
-170 -225 -225 -379 -34 -95 49 -214 149 -214 60 0 100 39 158 152 29 57 79
135 110 173 31 39 74 96 94 128 24 36 45 57 57 57 10 0 19 -6 19 -13 0 -32 54
-89 113 -119 56 -29 73 -32 169 -36 102 -4 111 -3 160 23 92 48 206 134 265
201 32 35 62 64 66 64 5 0 26 -15 48 -33 54 -46 143 -72 249 -72 115 1 181 27
300 119 92 71 157 132 213 199 26 31 54 57 62 57 19 0 20 -87 4 -245 -7 -60
-11 -117 -11 -125 0 -8 1 -58 2 -110 2 -99 11 -124 57 -166 46 -42 75 -48 126
-24 48 23 80 63 92 115 10 45 88 237 143 355 12 25 55 131 96 235 215 545 282
672 381 716 51 24 78 24 98 1 15 -16 17 -47 17 -228 -1 -115 -6 -229 -11 -254
-23 -98 -69 -478 -65 -528 9 -100 69 -162 158 -162 27 0 64 6 82 14 40 17 198
144 347 279 59 53 112 97 117 97 5 0 12 -29 15 -65 7 -74 22 -108 69 -151 63
-60 91 -69 223 -69 110 0 125 2 178 27 151 71 397 262 571 445 49 51 97 93
107 93 14 0 19 -12 24 -57 31 -270 167 -425 411 -467 104 -19 275 -21 377 -5
40 6 198 54 352 106 154 52 325 106 380 120 55 14 118 29 140 35 52 13 110 72
124 126 28 104 -53 212 -160 212 -49 0 -191 -37 -326 -86 -54 -20 -192 -67
-308 -105 l-210 -70 -185 3 c-156 3 -190 6 -218 21 -65 36 -66 42 -72 542 -3
307 -9 458 -17 475 -6 14 -27 40 -46 59 -46 43 -115 53 -163 22z m-214 -481
c0 -41 -103 -193 -199 -293 -163 -170 -434 -377 -494 -377 l-30 0 7 58 c13
118 105 264 216 343 34 24 87 63 118 85 54 40 137 87 282 161 66 34 100 41
100 23z"/>
</g>
</svg>
